#N canvas 827 239 527 327 12;
#X obj 559 163 bng 25 250 50 0 empty empty empty 17 7 0 10 #191919 #e1e1e1 #e1e1e1;
#X obj 619 248 bng 25 250 50 0 empty empty empty 17 7 0 10 #191919 #e1e1e1 #e1e1e1;
#X obj 619 318 t a b;
#X listbox 641 417 46 0 0 0 - - - 12;
#X msg 658 346 zlclear;
#X obj 857 465 !- 0;
#X obj 616 479 t b l;
#X obj 467 218 t b b;
#X obj 19 25 bng 78 250 50 0 empty empty Master\ Bang -1 -9 0 10 #006800 #e1e1e1 #e1e1e1;
#X obj 619 388 zl group 2;
#X obj 538 361 zl len;
#X obj 538 395 / 2;
#X obj 619 286 array get corpus_slice_indices;
#X floatatom 19 120 25 0 0 0 - - - 36;
#X obj 569 584 outlet;
#X obj 658 584 outlet;
#X obj 782 584 outlet;
#X text 649 609 start frame;
#X text 569 609 bang;
#X text 768 611 numframes;
#X msg 707 131 threshold \$1;
#X obj 102 53 knob 50 0 1 0 0 empty empty #191919 #696969 #E1E1E1 1 0 0 0 1 270 0 0 0;
#X obj 102 25 nbx 6 27 -1e+37 1e+37 0 0 empty empty Threshold 0 -8 0 10 #191919 #e1e1e1 #e1e1e1 0 256;
#X floatatom 153 89 6 0 0 0 - - - 8;
#X obj 103 -63 loadbang;
#X msg 103 -33 0.5;
#X text 20 102 Slices:;
#X msg 852 156 source \$1;
#X obj 852 103 inlet;
#X text 829 79 source buffer name;
#X obj 994 103 inlet;
#X msg 994 156 indices \$1;
#X text 994 79 indices pairs destination buffer name;
#X obj 569 197 fluid.bufnoveltyslice -algorithm 1 -maxfiltersize 71 -maxkernelsize 50, f 78;
#X connect 0 0 33 0;
#X connect 1 0 12 0;
#X connect 2 0 9 0;
#X connect 2 1 4 0;
#X connect 4 0 9 0;
#X connect 5 0 16 0;
#X connect 6 0 14 0;
#X connect 6 1 5 0;
#X connect 6 1 15 0;
#X connect 7 1 0 0;
#X connect 8 0 7 0;
#X connect 9 0 3 0;
#X connect 9 0 6 0;
#X connect 10 0 11 0;
#X connect 11 0 13 0;
#X connect 12 0 2 0;
#X connect 12 0 10 0;
#X connect 20 0 33 0;
#X connect 21 0 23 0;
#X connect 21 0 20 0;
#X connect 22 0 21 0;
#X connect 24 0 25 0;
#X connect 25 0 22 0;
#X connect 27 0 33 0;
#X connect 28 0 27 0;
#X connect 30 0 31 0;
#X connect 31 0 33 0;
#X connect 33 0 1 0;
#X coords 0 0 1 1 206 192 1 1 -8;
