#N canvas 827 239 527 327 12;
#X obj 339 462 pack f f f;
#X obj 341 509 prepend start;
#X obj 417 144 int;
#X obj 529 209 + 1;
#X obj 289 324 samps2ms;
#X obj 511 324 samps2ms;
#X obj 383 367 -;
#X obj 451 378 t b f;
#X obj 383 394 t b f;
#X floatatom 373 322 11 0 0 0 - - - 16;
#X floatatom 594 324 11 0 0 0 - - - 16;
#X obj 287 375 t f b f;
#X obj 341 538 play~ corpus_buffer @loop 1 @interptime 20;
#X obj 289 231 peek~ corpus_slice_indices;
#X obj 529 243 peek~ corpus_slice_indices;
#X obj 417 110 inlet;
#X obj 341 686 outlet~;
#X obj 692 385 / 1000;
#X obj 692 412 s \$0-end_pos;
#X obj 185 412 / 1000;
#X obj 185 439 s \$0-start_pos;
#X obj 515 412 / 1000;
#X obj 515 439 s \$0-duration;
#X floatatom 935 470 10 0 0 2 End_Pos \$0-end_pos - 16;
#X floatatom 935 430 10 0 0 2 Start_Pos \$0-start_pos - 16;
#X floatatom 935 509 10 0 0 2 Duration \$0-duration - 16;
#X obj 1049 526 tgl 15 1 \$0-vu_meter_switch empty empty 17 7 0 10 #000000 #e11600 #e1e1e1 0 1;
#X obj 1022 421 vu 20 120 empty empty -1 -8 0 10 #191919 #e1e1e1 1 0;
#X obj 499 709 vu~;
#X obj 499 677 *~;
#X obj 510 646 sig~;
#X obj 510 622 expr 1-$i1;
#X obj 510 594 r \$0-vu_meter_switch;
#X msg 692 144 set \$1;
#X text 400 91 index number;
#X obj 692 110 inlet;
#X text 637 91 slice indices buffer name;
#X connect 0 0 1 0;
#X connect 1 0 12 0;
#X connect 2 0 3 0;
#X connect 2 0 13 0;
#X connect 3 0 14 0;
#X connect 4 0 9 0;
#X connect 4 0 11 0;
#X connect 4 0 19 0;
#X connect 5 0 6 0;
#X connect 5 0 7 0;
#X connect 5 0 10 0;
#X connect 5 0 17 0;
#X connect 6 0 8 0;
#X connect 7 1 0 1;
#X connect 8 1 0 2;
#X connect 8 1 21 0;
#X connect 11 0 0 0;
#X connect 11 1 6 0;
#X connect 11 2 6 1;
#X connect 12 0 16 0;
#X connect 12 0 29 0;
#X connect 13 0 4 0;
#X connect 14 0 5 0;
#X connect 15 0 2 0;
#X connect 17 0 18 0;
#X connect 19 0 20 0;
#X connect 21 0 22 0;
#X connect 28 0 27 0;
#X connect 29 0 28 0;
#X connect 30 0 29 1;
#X connect 31 0 30 0;
#X connect 32 0 31 0;
#X connect 33 0 13 0;
#X connect 33 0 14 0;
#X connect 35 0 33 0;
#X coords 0 0 1 1 148 172 1 928 382;
