#N canvas 827 239 527 327 12;
#X obj 749 379 bng 25 250 50 0 empty empty empty 17 7 0 10 #191919 #e1e1e1 #e1e1e1;
#X obj 809 464 bng 25 250 50 0 empty empty empty 17 7 0 10 #191919 #e1e1e1 #e1e1e1;
#X obj 809 584 t a b;
#X listbox 822 819 68 0 0 0 - - - 36;
#X obj 963 944 !- 0;
#X obj 797 881 t b l;
#X obj 657 434 t b b;
#X obj 209 241 bng 78 250 50 0 empty empty Master\ Bang -1 -9 0 10 #006800 #e1e1e1 #e1e1e1;
#X obj 809 664 zl group 2;
#X obj 668 621 zl len;
#X floatatom 209 336 25 0 0 0 - - - 36;
#X obj 750 986 outlet;
#X obj 839 986 outlet;
#X obj 963 986 outlet;
#X text 750 1011 bang;
#X text 949 1013 numframes;
#X text 210 318 Slices:;
#X obj 1042 319 inlet;
#X text 1019 295 source buffer name;
#X obj 1184 319 inlet;
#X text 1184 295 indices pairs destination buffer name;
#X msg 1042 372 source \$1;
#X msg 1184 372 indices \$1;
#X obj 759 413 fluid.bufampgate -rampup 111 -rampdown 2205 -onthreshold -52 -offthreshold -89 -minsilencelength 10000 -lookback 441 -highpassfreq 85, f 78;
#X obj 809 502 array get slice_indices_amp-0;
#X text 830 1011 start frame;
#X obj 1019 502 array get slice_indices_amp-1;
#X obj 971 532 join 2;
#X obj 971 565 zl sort;
#X obj 971 597 list prepend 0;
#X msg 847 633 zlclear;
#X connect 0 0 23 0;
#X connect 1 0 24 0;
#X connect 1 0 26 0;
#X connect 2 0 8 0;
#X connect 2 1 30 0;
#X connect 4 0 13 0;
#X connect 5 0 11 0;
#X connect 5 1 4 0;
#X connect 5 1 12 0;
#X connect 6 1 0 0;
#X connect 7 0 6 0;
#X connect 8 0 3 0;
#X connect 8 0 5 0;
#X connect 9 0 10 0;
#X connect 17 0 21 0;
#X connect 19 0 22 0;
#X connect 21 0 23 0;
#X connect 22 0 23 0;
#X connect 23 0 1 0;
#X connect 24 0 27 0;
#X connect 26 0 27 1;
#X connect 27 0 28 0;
#X connect 28 0 29 0;
#X connect 29 0 2 0;
#X connect 29 0 9 0;
#X connect 30 0 8 0;
#X coords 0 0 1 1 205 200 1 200 202;
