#N canvas 827 239 527 327 12;
#X obj 545 198 clone 24 fluid.multiarray \$0-corpus_chroma;
#X obj 92 243 bng 25 250 50 0 empty empty empty 17 7 0 10 #191919 #e1e1e1 #e1e1e1;
#X obj 532 308 clone 24 fluid.multiarray \$0-corpus_chroma_stats;
#X obj 92 293 fluid.bufstats -source \$0-corpus_chroma -stats \$0-corpus_chroma_stats -select mid;
#X obj 92 379 array get \$0-corpus_chroma_stats-0 0;
#X obj 353 379 array get \$0-corpus_chroma_stats-1 0;
#X obj 607 379 array get \$0-corpus_chroma_stats-2 0;
#X msg 92 339 0;
#X obj 852 379 array get \$0-corpus_chroma_stats-3 0;
#X obj 1097 379 array get \$0-corpus_chroma_stats-4 0;
#X obj 1342 379 array get \$0-corpus_chroma_stats-5 0;
#X obj 1587 379 array get \$0-corpus_chroma_stats-6 0;
#X obj 1832 379 array get \$0-corpus_chroma_stats-7 0;
#X obj 2077 379 array get \$0-corpus_chroma_stats-8 0;
#X obj 2322 379 array get \$0-corpus_chroma_stats-9 0;
#X obj 2567 379 array get \$0-corpus_chroma_stats-10 0;
#X obj 2812 379 array get \$0-corpus_chroma_stats-11 0;
#X obj 3057 379 array get \$0-corpus_chroma_stats-12 0;
#X obj 3302 379 array get \$0-corpus_chroma_stats-13 0;
#X obj 3550 379 array get \$0-corpus_chroma_stats-14 0;
#X obj 3795 379 array get \$0-corpus_chroma_stats-15 0;
#X obj 4040 379 array get \$0-corpus_chroma_stats-16 0;
#X obj 4285 379 array get \$0-corpus_chroma_stats-17 0;
#X obj 4530 379 array get \$0-corpus_chroma_stats-18 0;
#X obj 4775 379 array get \$0-corpus_chroma_stats-19 0;
#X obj 5020 379 array get \$0-corpus_chroma_stats-20 0;
#X obj 5265 379 array get \$0-corpus_chroma_stats-21 0;
#X obj 5510 379 array get \$0-corpus_chroma_stats-22 0;
#X obj 5755 379 array get \$0-corpus_chroma_stats-23 0;
#X obj 80 97 inlet;
#X text 82 74 BANG;
#X obj 181 97 inlet;
#X obj 256 97 inlet;
#X text 176 74 startframe;
#X text 256 74 numframes;
#X msg 181 145 startframe \$1;
#X msg 290 145 numframes \$1;
#X obj 92 576 outlet;
#X text 142 579 24 items list for each slice of the source buffer;
#X obj 437 95 inlet;
#X text 437 74 source buffer name;
#X msg 442 139 source \$1;
#X obj 92 198 fluid.bufchroma 24 -features \$0-corpus_chroma -normalize 2, f 62;
#X obj 961 230 bng 25 250 50 0 empty empty empty 17 7 0 10 #191919 #e1e1e1 #e1e1e1;
#X obj 1358 174 clone 2 fluid.multiarray \$0-corpus_loudness, f 33;
#X obj 961 174 fluid.bufloudness -features \$0-corpus_loudness, f 47;
#X obj 1399 276 buffer~ \$0-loudness_stats;
#X obj 92 517 join 25;
#X obj 1134 328 array get \$0-loudness_stats;
#X msg 954 323 0;
#X obj 961 268 fluid.bufstats -source \$0-corpus_loudness-1 -stats \$0-loudness_stats -select high;
#X connect 1 0 3 0;
#X connect 3 0 7 0;
#X connect 4 0 47 0;
#X connect 5 0 47 1;
#X connect 6 0 47 2;
#X connect 7 0 4 0;
#X connect 7 0 5 0;
#X connect 7 0 6 0;
#X connect 7 0 8 0;
#X connect 7 0 9 0;
#X connect 7 0 10 0;
#X connect 7 0 11 0;
#X connect 7 0 12 0;
#X connect 7 0 13 0;
#X connect 7 0 14 0;
#X connect 7 0 15 0;
#X connect 7 0 16 0;
#X connect 7 0 17 0;
#X connect 7 0 18 0;
#X connect 7 0 28 0;
#X connect 7 0 27 0;
#X connect 7 0 26 0;
#X connect 7 0 25 0;
#X connect 7 0 24 0;
#X connect 7 0 23 0;
#X connect 7 0 22 0;
#X connect 7 0 21 0;
#X connect 7 0 20 0;
#X connect 7 0 19 0;
#X connect 8 0 47 3;
#X connect 9 0 47 4;
#X connect 10 0 47 5;
#X connect 11 0 47 6;
#X connect 12 0 47 7;
#X connect 13 0 47 8;
#X connect 14 0 47 9;
#X connect 15 0 47 10;
#X connect 16 0 47 11;
#X connect 17 0 47 12;
#X connect 18 0 47 13;
#X connect 19 0 47 14;
#X connect 20 0 47 15;
#X connect 21 0 47 16;
#X connect 22 0 47 17;
#X connect 23 0 47 18;
#X connect 24 0 47 19;
#X connect 25 0 47 20;
#X connect 26 0 47 21;
#X connect 27 0 47 22;
#X connect 28 0 47 23;
#X connect 29 0 42 0;
#X connect 29 0 45 0;
#X connect 31 0 35 0;
#X connect 32 0 36 0;
#X connect 35 0 42 0;
#X connect 35 0 45 0;
#X connect 36 0 42 0;
#X connect 36 0 45 0;
#X connect 39 0 41 0;
#X connect 41 0 42 0;
#X connect 41 0 45 0;
#X connect 42 0 1 0;
#X connect 43 0 50 0;
#X connect 45 0 43 0;
#X connect 47 0 37 0;
#X connect 48 0 47 24;
#X connect 49 0 48 0;
#X connect 50 0 49 0;
