#N canvas 827 239 527 327 12;
#X obj 144 399 fluid.stats -history 70;
#X obj 201 142 inlet~;
#X obj 1001 108 fluid.hpss~ -maskingmode 1;
#X msg 1093 62 harmthresh 0.037125 0 0.121875 -28;
#X msg 1348 62 harmfiltersize 3, f 18;
#X msg 1496 62 percfiltersize 24, f 21;
#X obj 1093 27 loadbang;
#X obj 442 338 fluid.loudness~;
#X obj 442 367 unpack;
#X obj 473 408 fluid.stats -history 70;
#X obj 461 453 join 2;
#X obj 455 150 inlet;
#X text 449 109 MESSAGE;
#X obj 208 557 array set;
#X msg 435 127 <arrayname>;
#X obj 53 350 fluid.chroma~ -numchroma 24 -normalize 2;
#X connect 1 0 15 0;
#X connect 3 0 2 0;
#X connect 4 0 2 0;
#X connect 5 0 2 0;
#X connect 6 0 3 0;
#X connect 6 0 4 0;
#X connect 6 0 5 0;
#X connect 7 0 8 0;
#X connect 8 1 9 0;
#X connect 11 0 13 2;
#X connect 15 0 13 0;
