#N canvas 827 239 527 327 12;
#X obj 143 613 outlet~;
#X obj 1048 542 tgl 20 1 \$0-vu_meter_switch empty vu\ switch -2 -5 0 9 #000000 #e11600 #c60008 0 1;
#X obj 1027 433 vu 20 120 \$0-stream_vu empty -1 -8 0 10 #191919 #e1e1e1 1 0;
#X obj 309 460 vu~;
#X obj 309 428 *~;
#X obj 320 397 sig~;
#X obj 320 373 expr 1-$i1;
#X obj 320 345 r \$0-vu_meter_switch;
#X obj 143 588 *~;
#X obj 154 555 line~;
#X msg 154 523 \$1 50;
#X obj 154 484 expr 1- $i1;
#X obj 160 442 r \$0-stream_mute;
#X obj 912 452 tgl 110 0 \$0-stream_mute empty MUTE 37 7 0 11 #000000 #8f0004 #e1e1e1 0 1;
#X obj 309 490 s \$0-stream_vu;
#X symbolatom 912 433 15 0 0 2 buffer \$0-stream_buffer - 8;
#X obj 120 -36 inlet;
#X obj 141 319 player~ -loop 1;
#X msg 173 265 fade 20;
#X obj 173 240 loadbang;
#X obj 52 388 numbox~ 4 15 100 #191919 #e1e1e1 10 0 0 0;
#X msg 316 232 stop;
#X obj 267 549 loadbang;
#X msg 262 590 0;
#X connect 3 0 14 0;
#X connect 4 0 3 0;
#X connect 5 0 4 1;
#X connect 6 0 5 0;
#X connect 7 0 6 0;
#X connect 8 0 0 0;
#X connect 9 0 8 1;
#X connect 10 0 9 0;
#X connect 11 0 10 0;
#X connect 12 0 11 0;
#X connect 16 0 17 0;
#X connect 17 0 4 0;
#X connect 17 0 8 0;
#X connect 17 0 20 0;
#X connect 18 0 17 0;
#X connect 19 0 18 0;
#X connect 21 0 17 0;
#X connect 22 0 23 0;
#X connect 23 0 11 0;
#X coords 0 0 1 1 193 189 1 900 391;
