#N canvas 827 239 527 327 12;
#X obj 88 345 metro 50;
#X msg 453 497 clear;
#X obj 318 650 route predictpoint fit;
#X obj 10 570 tgl 19 0 empty empty empty 0 -10 0 12 #fcfcfc #000000 #000000 0 1;
#X obj 318 707 list;
#X obj 393 676 list;
#X listbox 1124 253 25 0 0 1 error \$0-neural_errorperc - 24;
#X text 539 699 error;
#X text 31 570 silence;
#X obj 10 376 expr 1 - $f1;
#X obj 368 56 inlet;
#X obj 601 56 inlet;
#X obj 704 56 inlet;
#X text 323 37 Live analysis buffer name;
#X text 686 37 dataset name;
#X text 576 37 labelset name;
#X obj 13 69 inlet;
#X text -5 30 dbFS value;
#X text -31 48 [fluid.loudness~] ouput;
#X obj 10 303 * 1, f 8;
#X obj 1124 180 bng 64 250 50 0 \$0-neural_fitbang empty FITTING -2 -7 0 10 #19660b #e1e1e1 #e1e1e1;
#X obj 393 700 s \$0-neural_errorperc;
#X obj 549 344 list prepend fit;
#X obj 549 369 list trim;
#X obj 559 265 list;
#X obj 551 311 list;
#X obj 617 277 message;
#X obj 559 225 message;
#X obj 724 183 r \$0-neural_fitbang;
#X obj 453 468 r \$0-neural_clear;
#X obj 1200 217 bng 25 250 50 0 \$0-neural_clear empty CLEAR -4 -5 0 10 #620a00 #e1e1e1 #e1e1e1;
#X obj 362 349 list prepend predictpoint;
#X obj 323 391 list store;
#X obj 323 420 list trim;
#X listbox 1124 295 25 0 0 1 class - - 24;
#X obj 334 743 s \$0-neural_class;
#X obj 279 846 outlet;
#X text 363 18 MESSAGE;
#X text 586 18 MESSAGE;
#X text 696 18 MESSAGE;
#X text 271 866 SYMBOL;
#X text 559 390 fit \$1 \$2;
#X text 332 442 predictpoint \$1;
#X text 171 40 impulse trigger;
#X obj 1077 42 tgl 25 0 empty empty empty 17 7 0 10 #191919 #e1e1e1 #e1e1e1 0 1;
#X obj 871 72 inlet;
#X text 866 32 MESSAGE;
#X text 839 50 internal state read message;
#X obj 899 127 print stateread;
#X msg 857 483 fit tekiah_chrom_loud tekiah_labelset;
#X msg 857 406 read /Users/davidecommone/Documents/Biblioteca/Biblioteca_conservatorio/Musica_elettronica/CME_Biennio/anno1/json_sets/mlp_state_truah.json, f 33;
#X msg 857 524 write /Users/davidecommone/Documents/Biblioteca/Biblioteca_conservatorio/Musica_elettronica/CME_Biennio/anno1/json_sets/mlp_istate_notes.json;
#X obj 1112 106 metro 200;
#X obj 323 539 fluid.mlpclassifier -hiddenlayers 30 -activation 3 -learnrate 0.005 -maxiter 500, f 48;
#X obj 191 80 inlet;
#X obj 202 212 delay 100;
#X text 187 24 bang;
#X text 128 56 from [env~] or similar;
#X connect 1 0 53 0;
#X connect 2 0 4 0;
#X connect 2 1 5 0;
#X connect 4 0 35 0;
#X connect 4 0 36 0;
#X connect 5 0 21 0;
#X connect 9 0 3 0;
#X connect 10 0 31 0;
#X connect 11 0 27 1;
#X connect 12 0 26 1;
#X connect 16 0 19 0;
#X connect 19 0 0 0;
#X connect 19 0 9 0;
#X connect 22 0 23 0;
#X connect 23 0 53 0;
#X connect 24 0 25 1;
#X connect 25 0 22 0;
#X connect 26 0 25 0;
#X connect 27 0 24 0;
#X connect 28 0 27 0;
#X connect 28 0 26 0;
#X connect 29 0 1 0;
#X connect 31 0 32 1;
#X connect 32 0 33 0;
#X connect 33 0 53 0;
#X connect 44 0 52 0;
#X connect 45 0 48 0;
#X connect 45 0 53 0;
#X connect 49 0 53 0;
#X connect 51 0 53 0;
#X connect 52 0 49 0;
#X connect 53 0 2 0;
#X connect 54 0 55 0;
#X connect 55 0 32 0;
#X coords 0 0 1 1 261 195 1 1116 145;
