#N canvas -8 -8 1366 690 10;
#X obj 9 150 unpack 0 0;
#X obj 114 150 unpack 0 0;
#X obj 219 150 unpack 0 0;
#X obj 325 150 unpack 0 0;
#X obj 430 150 unpack 0 0;
#X obj 535 150 unpack 0 0;
#X obj 641 150 unpack 0 0;
#X obj 746 150 unpack 0 0;
#X obj 11 -44 inlet~;
#X obj 6 255 outlet;
#X obj 66 235 outlet;
#X obj 84 327 cnv 15 517 158 empty empty Analisi 20 12 0 14 #202020 #fcfcfc 0;
#X obj 178 336 tgl 15 0 \$0-anlaizer_cpu empty CPU_savage 18 7 0 10 #fcfcfc #ff0005 #fcfcfc 0 1;
#X obj 92 366 cnv 15 60 105 empty empty F0 20 12 0 14 #9c9c9c #404040 0;
#X floatatom 102 395 7 0 0 3 freq. - - 0;
#X floatatom 103 433 7 0 0 3 level - - 8;
#X obj 155 366 cnv 15 60 105 empty empty F1 20 12 0 14 #e0e0e0 #404040 0;
#X floatatom 165 395 7 0 0 3 freq. - - 0;
#X floatatom 166 433 7 0 0 3 level - - 8;
#X obj 218 366 cnv 15 60 105 empty empty F2 20 12 0 14 #e0e0e0 #404040 0;
#X floatatom 228 395 7 0 0 3 freq. - - 0;
#X floatatom 229 433 7 0 0 3 level - - 0;
#X obj 281 366 cnv 15 60 105 empty empty F3 20 12 0 14 #e0e0e0 #404040 0;
#X floatatom 291 395 7 0 0 3 freq. - - 0;
#X floatatom 292 433 7 0 0 3 level - - 0;
#X obj 344 366 cnv 15 60 105 empty empty F4 20 12 0 14 #e0e0e0 #404040 0;
#X floatatom 354 395 7 0 0 3 freq. - - 0;
#X floatatom 355 433 7 0 0 3 level - - 0;
#X obj 407 366 cnv 15 60 105 empty empty F5 20 12 0 14 #e0e0e0 #404040 0;
#X floatatom 417 395 7 0 0 3 freq. - - 0;
#X floatatom 418 433 7 0 0 3 level - - 0;
#X obj 470 366 cnv 15 60 105 empty empty F6 20 12 0 14 #e0e0e0 #404040 0;
#X floatatom 480 395 7 0 0 3 freq. - - 0;
#X floatatom 481 433 7 0 0 3 level - - 0;
#X obj 533 366 cnv 15 60 105 empty empty F7 20 12 0 14 #e0e0e0 #404040 0;
#X floatatom 543 395 7 0 0 3 freq. - - 0;
#X floatatom 544 433 7 0 0 3 level - - 0;
#X obj 178 272 loadbang;
#X msg 178 292 0;
#X obj 9 113 route 0 1 2 3 4 5 6 7, f 141;
#X text 870 150 vibrato: maximum deviation from "pitch" to accept as normal vibrato (affects "notes" output only). If the value is too small. vibratos will appear as trills. If too large \, very small melodic intervals may not be reported as new notes.;
#X text 870 209 stabletime: time period to wait before reporting a note (affects "notes" output only). The "pitch" must be present and must not vary more than "vibrato" for this entire period to report a note. If too large \, the "notes" will be unnecessarily delayed. If too small \, spurious notes get output.;
#X text 870 295 minpower: minimum measured RMS level to report a pitch (affects "pitch" and "notes" output only). Signals quieter than this will be assumed to be crosstalk and ignored.;
#X text 870 55 npts: number of points used in an analysis. Must be a power of two \, at least 128 The minimum frequency that can be tracked is about 2(sample_rate)/npts.;
#X text 870 103 hop: number of points between analyses. Must be a power of two \, at least the DSP vector size (usually 64). This regulates the number of analyses done per unit of time.;
#X text 869 343 npts - number of points in each analysis window (1024);
#X text 869 363 hop - number of points between each analysis (512);
#X text 869 382 npeak - number of sinusoidal peaks (20);
#X text 869 401 vibrato - depth of vibrato to expect in 1/2-tones (1);
#X text 869 420 stabletime - time (msec) to wait to report notes (50);
#X text 869 440 minpower - minimum power (dB) to report a pitch (50);
#X obj 113 235 outlet;
#X obj 170 235 outlet;
#X obj 225 235 outlet;
#X obj 275 235 outlet;
#X obj 325 235 outlet;
#X obj 382 235 outlet;
#X obj 432 235 outlet;
#X obj 489 235 outlet;
#X obj 535 235 outlet;
#X obj 592 235 outlet;
#X obj 642 235 outlet;
#X obj 699 235 outlet;
#X obj 746 235 outlet;
#X obj 803 235 outlet;
#X obj 387 341 nbx 5 14 -1e+37 1e+37 0 0 empty \$0-lop_a lop_a 0 -8 0 10 #fae805 #000000 #ffffff 0 256;
#X obj 317 341 nbx 5 14 -1e+37 1e+37 0 0 empty \$0-lop_f lop_f 0 -8 0 10 #0000ff #ffffff #ffffff 0 256;
#N canvas 0 0 450 300 data_lop_a 1;
#X obj 191 112 f;
#X obj 60 90 expr ($f1*$f2) + ($f3*(1-$f2));
#X obj 60 51 inlet;
#X obj 60 153 outlet;
#X obj 140 51 r \$0-lop_a;
#X connect 0 0 1 2 empty;
#X connect 1 0 0 0 empty;
#X connect 1 0 3 0 empty;
#X connect 2 0 1 0 empty;
#X connect 4 0 1 1 empty;
#X restore 25 178 pd data_lop_a;
#N canvas 0 0 450 300 data_lop_a 1;
#X obj 191 112 f;
#X obj 60 90 expr ($f1*$f2) + ($f3*(1-$f2));
#X obj 60 51 inlet;
#X obj 60 153 outlet;
#X obj 140 51 r \$0-lop_a;
#X floatatom 383 134 5 0 0 0 empty - - 12;
#X connect 0 0 1 2 empty;
#X connect 1 0 0 0 empty;
#X connect 1 0 3 0 empty;
#X connect 2 0 1 0 empty;
#X connect 4 0 1 1 empty;
#X connect 4 0 5 0 empty;
#X restore 133 177 pd data_lop_a;
#N canvas 0 0 450 300 data_lop_a 1;
#X obj 191 112 f;
#X obj 60 90 expr ($f1*$f2) + ($f3*(1-$f2));
#X obj 60 51 inlet;
#X obj 60 153 outlet;
#X obj 140 51 r \$0-lop_a;
#X connect 0 0 1 2 empty;
#X connect 1 0 0 0 empty;
#X connect 1 0 3 0 empty;
#X connect 2 0 1 0 empty;
#X connect 4 0 1 1 empty;
#X restore 235 180 pd data_lop_a;
#N canvas 0 0 450 300 data_lop_a 1;
#X obj 191 112 f;
#X obj 60 90 expr ($f1*$f2) + ($f3*(1-$f2));
#X obj 60 51 inlet;
#X obj 60 153 outlet;
#X obj 140 51 r \$0-lop_a;
#X connect 0 0 1 2 empty;
#X connect 1 0 0 0 empty;
#X connect 1 0 3 0 empty;
#X connect 2 0 1 0 empty;
#X connect 4 0 1 1 empty;
#X restore 343 179 pd data_lop_a;
#N canvas 0 0 450 300 data_lop_a 1;
#X obj 191 112 f;
#X obj 60 90 expr ($f1*$f2) + ($f3*(1-$f2));
#X obj 60 51 inlet;
#X obj 60 153 outlet;
#X obj 140 51 r \$0-lop_a;
#X connect 0 0 1 2 empty;
#X connect 1 0 0 0 empty;
#X connect 1 0 3 0 empty;
#X connect 2 0 1 0 empty;
#X connect 4 0 1 1 empty;
#X restore 448 178 pd data_lop_a;
#N canvas 0 0 450 300 data_lop_a 1;
#X obj 191 112 f;
#X obj 60 90 expr ($f1*$f2) + ($f3*(1-$f2));
#X obj 60 51 inlet;
#X obj 60 153 outlet;
#X obj 140 51 r \$0-lop_a;
#X connect 0 0 1 2 empty;
#X connect 1 0 0 0 empty;
#X connect 1 0 3 0 empty;
#X connect 2 0 1 0 empty;
#X connect 4 0 1 1 empty;
#X restore 554 178 pd data_lop_a;
#N canvas 0 0 450 300 data_lop_a 1;
#X obj 191 112 f;
#X obj 60 90 expr ($f1*$f2) + ($f3*(1-$f2));
#X obj 60 51 inlet;
#X obj 60 153 outlet;
#X obj 140 51 r \$0-lop_a;
#X connect 0 0 1 2 empty;
#X connect 1 0 0 0 empty;
#X connect 1 0 3 0 empty;
#X connect 2 0 1 0 empty;
#X connect 4 0 1 1 empty;
#X restore 658 178 pd data_lop_a;
#N canvas 0 0 450 300 data_lop_a 1;
#X obj 191 112 f;
#X obj 60 90 expr ($f1*$f2) + ($f3*(1-$f2));
#X obj 60 51 inlet;
#X obj 60 153 outlet;
#X obj 140 51 r \$0-lop_a;
#X connect 0 0 1 2 empty;
#X connect 1 0 0 0 empty;
#X connect 1 0 3 0 empty;
#X connect 2 0 1 0 empty;
#X connect 4 0 1 1 empty;
#X restore 768 177 pd data_lop_a;
#N canvas 0 0 450 300 data_lop_f 1;
#X obj 174 122 f;
#X obj 60 90 expr ($f1*$f2) + ($f3*(1-$f2));
#X obj 60 51 inlet;
#X obj 60 153 outlet;
#X obj 139 39 r \$0-lop_f;
#X connect 0 0 1 2 empty;
#X connect 1 0 0 0 empty;
#X connect 1 0 3 0 empty;
#X connect 2 0 1 0 empty;
#X connect 4 0 1 1 empty;
#X restore 9 204 pd data_lop_f;
#N canvas 0 0 450 300 data_lop_f 1;
#X obj 191 112 f;
#X obj 60 90 expr ($f1*$f2) + ($f3*(1-$f2));
#X obj 60 51 inlet;
#X obj 60 153 outlet;
#X obj 139 39 r \$0-lop_f;
#X connect 0 0 1 2 empty;
#X connect 1 0 0 0 empty;
#X connect 1 0 3 0 empty;
#X connect 2 0 1 0 empty;
#X connect 4 0 1 1 empty;
#X restore 114 206 pd data_lop_f;
#N canvas 0 0 450 300 data_lop_f 1;
#X obj 191 112 f;
#X obj 60 90 expr ($f1*$f2) + ($f3*(1-$f2));
#X obj 60 51 inlet;
#X obj 60 153 outlet;
#X obj 139 39 r \$0-lop_f;
#X connect 0 0 1 2 empty;
#X connect 1 0 0 0 empty;
#X connect 1 0 3 0 empty;
#X connect 2 0 1 0 empty;
#X connect 4 0 1 1 empty;
#X restore 219 207 pd data_lop_f;
#N canvas 0 0 450 300 data_lop_f 1;
#X obj 195 130 f;
#X obj 60 90 expr ($f1*$f2) + ($f3*(1-$f2));
#X obj 60 51 inlet;
#X obj 60 153 outlet;
#X obj 139 39 r \$0-lop_f;
#X connect 0 0 1 2 empty;
#X connect 1 0 0 0 empty;
#X connect 1 0 3 0 empty;
#X connect 2 0 1 0 empty;
#X connect 4 0 1 1 empty;
#X restore 326 204 pd data_lop_f;
#N canvas 0 0 450 300 data_lop_f 1;
#X obj 191 112 f;
#X obj 60 90 expr ($f1*$f2) + ($f3*(1-$f2));
#X obj 60 51 inlet;
#X obj 60 153 outlet;
#X obj 139 39 r \$0-lop_f;
#X connect 0 0 1 2 empty;
#X connect 1 0 0 0 empty;
#X connect 1 0 3 0 empty;
#X connect 2 0 1 0 empty;
#X connect 4 0 1 1 empty;
#X restore 437 205 pd data_lop_f;
#N canvas 0 0 450 300 data_lop_f 1;
#X obj 191 112 f;
#X obj 60 90 expr ($f1*$f2) + ($f3*(1-$f2));
#X obj 60 51 inlet;
#X obj 60 153 outlet;
#X obj 139 39 r \$0-lop_f;
#X connect 0 0 1 2 empty;
#X connect 1 0 0 0 empty;
#X connect 1 0 3 0 empty;
#X connect 2 0 1 0 empty;
#X connect 4 0 1 1 empty;
#X restore 535 206 pd data_lop_f;
#N canvas 0 0 450 300 data_lop_f 1;
#X obj 191 112 f;
#X obj 60 90 expr ($f1*$f2) + ($f3*(1-$f2));
#X obj 60 51 inlet;
#X obj 60 153 outlet;
#X obj 139 39 r \$0-lop_f;
#X connect 0 0 1 2 empty;
#X connect 1 0 0 0 empty;
#X connect 1 0 3 0 empty;
#X connect 2 0 1 0 empty;
#X connect 4 0 1 1 empty;
#X restore 648 203 pd data_lop_f;
#N canvas 0 0 450 300 data_lop_f 1;
#X obj 191 112 f;
#X obj 60 90 expr ($f1*$f2) + ($f3*(1-$f2));
#X obj 60 51 inlet;
#X obj 60 153 outlet;
#X obj 139 39 r \$0-lop_f;
#X connect 0 0 1 2 empty;
#X connect 1 0 0 0 empty;
#X connect 1 0 3 0 empty;
#X connect 2 0 1 0 empty;
#X connect 4 0 1 1 empty;
#X restore 748 203 pd data_lop_f;
#X obj 91 35 number~;
#A saved 0 0 100 -inf inf #2a3434 #ffffff #b6fefd;
#X obj 9 59 sigmund~ -npts 4096 -hop 5000 -npeak 8 peaks -vibrato 2 -stabletime 120 -minpower 90, f 87;
#X obj 242 -42 r \$0-anlaizer_cpu;
#X obj 242 -15 expr 1-$f1;
#X obj 251 20 sig~;
#X obj 10 11 *~;
#X obj 636 -134 loadbang;
#X obj 504 -52 s \$0-lop_a;
#X obj 585 -52 s \$0-lop_f;
#X msg 585 -79 0.09;
#X msg 504 -80 0.2;
#X connect 0 0 75 0 empty;
#X connect 0 1 67 0 empty;
#X connect 1 0 76 0 empty;
#X connect 1 1 68 0 empty;
#X connect 2 0 77 0 empty;
#X connect 2 1 69 0 empty;
#X connect 3 0 78 0 empty;
#X connect 3 1 70 0 empty;
#X connect 4 0 79 0 empty;
#X connect 4 1 71 0 empty;
#X connect 5 0 80 0 empty;
#X connect 5 1 72 0 empty;
#X connect 6 0 81 0 empty;
#X connect 6 1 73 0 empty;
#X connect 7 0 82 0 empty;
#X connect 7 1 74 0 empty;
#X connect 8 0 88 0 empty;
#X connect 37 0 38 0 empty;
#X connect 38 0 12 0 empty;
#X connect 39 0 0 0 empty;
#X connect 39 1 1 0 empty;
#X connect 39 2 2 0 empty;
#X connect 39 3 3 0 empty;
#X connect 39 4 4 0 empty;
#X connect 39 5 5 0 empty;
#X connect 39 6 6 0 empty;
#X connect 39 7 7 0 empty;
#X connect 67 0 10 0 empty;
#X connect 67 0 15 0 empty;
#X connect 68 0 52 0 empty;
#X connect 68 0 18 0 empty;
#X connect 69 0 54 0 empty;
#X connect 69 0 21 0 empty;
#X connect 70 0 24 0 empty;
#X connect 70 0 56 0 empty;
#X connect 71 0 58 0 empty;
#X connect 71 0 27 0 empty;
#X connect 72 0 60 0 empty;
#X connect 72 0 30 0 empty;
#X connect 73 0 62 0 empty;
#X connect 73 0 33 0 empty;
#X connect 74 0 64 0 empty;
#X connect 74 0 36 0 empty;
#X connect 75 0 9 0 empty;
#X connect 75 0 14 0 empty;
#X connect 76 0 51 0 empty;
#X connect 76 0 17 0 empty;
#X connect 77 0 53 0 empty;
#X connect 77 0 20 0 empty;
#X connect 78 0 55 0 empty;
#X connect 78 0 23 0 empty;
#X connect 79 0 57 0 empty;
#X connect 79 0 26 0 empty;
#X connect 80 0 59 0 empty;
#X connect 80 0 29 0 empty;
#X connect 81 0 61 0 empty;
#X connect 81 0 32 0 empty;
#X connect 82 0 63 0 empty;
#X connect 82 0 35 0 empty;
#X connect 84 0 39 0 empty;
#X connect 85 0 86 0 empty;
#X connect 86 0 87 0 empty;
#X connect 87 0 88 1 empty;
#X connect 88 0 83 0 empty;
#X connect 88 0 84 0 empty;
#X connect 89 0 93 0 empty;
#X connect 89 0 92 0 empty;
#X connect 92 0 91 0 empty;
#X connect 93 0 90 0 empty;
#X coords 0 -1 1 1 519 166 1 83 326;
