#N struct 1004-slot float x float y float slotsize float color float width float bordercolor;
#N canvas 827 239 527 327 12;
#X obj 248 197 drum.seq 12 12 20 0 0 0 0 0 0 0 0 0 0 0 0;
#X msg -34 99 tracks 12;
#X obj 54 55 tempo;
#X obj 305 126 bng 25 250 50 0 empty empty empty 17 7 0 10 #191919 #e1e1e1 #e1e1e1;
#X obj -22 30 tgl 25 0 empty empty empty 17 7 0 10 #191919 #e1e1e1 #e1e1e1 0 1;
#X msg 68 24 120;
#X obj 332 93 knob 50 30 800 0 0 empty empty #191919 #696969 #E1E1E1 1 0 0 0 1 270 0 0 30;
#X floatatom 332 154 10 0 0 0 - - - 16;
#X obj -67 68 loadbang;
#X obj 344 529 sel 1;
#X obj 394 529 sel 1;
#X obj 295 523 sel 1;
#X obj 287 456 route bang;
#X obj 287 480 bng 20 250 50 0 empty empty empty 17 7 0 10 #dcdcdc #000000 #000000;
#X text 213 481 finished =>;
#X obj 298 557 bng 20 250 50 0 empty empty empty 17 7 0 10 #dcdcdc #000000 #000000;
#X obj 347 555 bng 20 250 50 0 empty empty empty 17 7 0 10 #dcdcdc #000000 #000000;
#X obj 397 563 bng 20 250 50 0 empty empty empty 17 7 0 10 #dcdcdc #000000 #000000;
#X obj 344 480 route 1 2 3 4 5 6 7 8 9 10 11 12, f 33;
#X obj 479 529 sel 1;
#X obj 529 529 sel 1;
#X obj 430 523 sel 1;
#X obj 433 557 bng 20 250 50 0 empty empty empty 17 7 0 10 #dcdcdc #000000 #000000;
#X obj 482 555 bng 20 250 50 0 empty empty empty 17 7 0 10 #dcdcdc #000000 #000000;
#X obj 532 563 bng 20 250 50 0 empty empty empty 17 7 0 10 #dcdcdc #000000 #000000;
#X obj 614 529 sel 1;
#X obj 664 529 sel 1;
#X obj 565 523 sel 1;
#X obj 568 557 bng 20 250 50 0 empty empty empty 17 7 0 10 #dcdcdc #000000 #000000;
#X obj 617 555 bng 20 250 50 0 empty empty empty 17 7 0 10 #dcdcdc #000000 #000000;
#X obj 667 563 bng 20 250 50 0 empty empty empty 17 7 0 10 #dcdcdc #000000 #000000;
#X obj 749 529 sel 1;
#X obj 799 529 sel 1;
#X obj 700 523 sel 1;
#X obj 703 557 bng 20 250 50 0 empty empty empty 17 7 0 10 #dcdcdc #000000 #000000;
#X obj 752 555 bng 20 250 50 0 empty empty empty 17 7 0 10 #dcdcdc #000000 #000000;
#X obj 802 563 bng 20 250 50 0 empty empty empty 17 7 0 10 #dcdcdc #000000 #000000;
#X obj 293 700 note.out 1;
#X obj 248 656 36;
#X obj 415 706 note.out 1;
#X obj 370 662 37;
#X obj 542 706 note.out 1;
#X obj 497 662 38;
#X obj 649 706 note.out 1;
#X obj 604 662 39;
#X obj 750 706 note.out 1;
#X obj 705 662 40;
#X obj 866 706 note.out 1;
#X obj 821 662 41;
#X obj 986 700 note.out 1;
#X obj 941 656 42;
#X obj 1099 694 note.out 1;
#X obj 1054 650 43;
#X obj 1207 688 note.out 1;
#X obj 1162 644 44;
#X obj 1340 694 note.out 1;
#X obj 1295 650 45;
#X obj 1494 688 note.out 1;
#X obj 1449 644 46;
#X msg 292 650 120;
#X msg 414 656 120;
#X msg 541 656 120;
#X msg 648 656 120;
#X msg 749 656 120;
#X msg 865 656 120;
#X msg 985 650 120;
#X msg 1098 644 120;
#X msg 1206 638 120;
#X msg 1339 644 120;
#X msg 1493 638 120;
#X obj 413 -50 param param1;
#X msg -67 149 slots 12;
#X connect 0 0 12 0;
#X connect 1 0 0 0;
#X connect 2 0 3 0;
#X connect 2 0 0 0;
#X connect 4 0 2 0;
#X connect 5 0 2 1;
#X connect 6 0 7 0;
#X connect 6 0 2 1;
#X connect 8 0 71 0;
#X connect 8 0 1 0;
#X connect 9 0 16 0;
#X connect 10 0 17 0;
#X connect 11 0 15 0;
#X connect 12 0 13 0;
#X connect 12 1 18 0;
#X connect 15 0 59 0;
#X connect 15 0 38 0;
#X connect 16 0 40 0;
#X connect 16 0 60 0;
#X connect 17 0 42 0;
#X connect 17 0 61 0;
#X connect 18 0 11 0;
#X connect 18 1 9 0;
#X connect 18 2 10 0;
#X connect 18 3 21 0;
#X connect 18 4 19 0;
#X connect 18 5 20 0;
#X connect 18 6 27 0;
#X connect 18 7 25 0;
#X connect 18 8 26 0;
#X connect 18 9 33 0;
#X connect 18 10 31 0;
#X connect 18 11 32 0;
#X connect 19 0 23 0;
#X connect 20 0 24 0;
#X connect 21 0 22 0;
#X connect 22 0 44 0;
#X connect 22 0 62 0;
#X connect 23 0 46 0;
#X connect 23 0 63 0;
#X connect 24 0 48 0;
#X connect 24 0 64 0;
#X connect 25 0 29 0;
#X connect 26 0 30 0;
#X connect 27 0 28 0;
#X connect 28 0 50 0;
#X connect 28 0 65 0;
#X connect 29 0 52 0;
#X connect 29 0 66 0;
#X connect 30 0 54 0;
#X connect 30 0 67 0;
#X connect 31 0 35 0;
#X connect 32 0 36 0;
#X connect 33 0 34 0;
#X connect 34 0 56 0;
#X connect 34 0 68 0;
#X connect 35 0 58 0;
#X connect 35 0 69 0;
#X connect 38 0 37 0;
#X connect 40 0 39 0;
#X connect 42 0 41 0;
#X connect 44 0 43 0;
#X connect 46 0 45 0;
#X connect 48 0 47 0;
#X connect 50 0 49 0;
#X connect 52 0 51 0;
#X connect 54 0 53 0;
#X connect 56 0 55 0;
#X connect 58 0 57 0;
#X connect 59 0 37 1;
#X connect 60 0 39 1;
#X connect 61 0 41 1;
#X connect 62 0 43 1;
#X connect 63 0 45 1;
#X connect 64 0 47 1;
#X connect 65 0 49 1;
#X connect 66 0 51 1;
#X connect 67 0 53 1;
#X connect 68 0 55 1;
#X connect 69 0 57 1;
#X connect 70 0 6 0;
#X connect 71 0 0 0;
