#N canvas 1299 787 712 292 10;
#X obj 76 246 netsend -u -b;
#X obj 76 129 list prepend send;
#X obj 76 154 list trim;
#X obj 76 96 r to_client;
#X obj 559 46 oscformat;
#X text 483 11 anteporre OSCFORMAT al SEND \, per mettere l'indirizzo del messaggio;
#X msg 239 173 connect localhost 12001;
#X obj 239 135 loadbang;
#X msg 107 215 disconnect;
#X connect 1 0 2 0;
#X connect 2 0 0 0;
#X connect 3 0 1 0;
#X connect 7 0 6 0;
#X connect 8 0 0 0;
