#N canvas 1299 787 712 292 10;
#X msg 209 171 disconnect;
#X obj 76 206 netsend -u -b;
#X obj 76 129 list prepend send;
#X obj 76 154 list trim;
#X obj 210 112 loadbang;
#X obj 76 96 r to_client;
#X obj 469 88 oscformat;
#X text 393 53 anteporre OSCFORMAT al SEND \, per mettere l'indirizzo
del messaggio;
#X msg 210 143 connect 169.254.182.68 12001;
#X msg 246 213 connect localhost 12001;
#X msg 466 229 connect localhost 12001;
#X msg 342 164 connect 169.254.81.239 12001;
#X msg 157 311 connect 192.168.43.221 12001;
#X msg 86 350 connect 10.0.0.201 12001;
#X obj 258 190 loadbang;
#X connect 0 0 1 0;
#X connect 2 0 3 0;
#X connect 3 0 1 0;
#X connect 5 0 2 0;
#X connect 8 0 1 0;
#X connect 9 0 1 0;
#X connect 10 0 1 0;
#X connect 11 0 1 0;
#X connect 12 0 1 0;
#X connect 13 0 1 0;
#X connect 14 0 9 0;
