#N canvas 539 54 756 452 12;
#N canvas -8 -8 1366 685 crono_client 0;
#X obj 551 281 cnv 15 700 400 empty empty Crono_Client 20 12 1 20 -54094
-228856 0;
#X obj 638 552 bng 35 250 50 0 empty bang1 empty 17 7 0 10 -195568
-1 -1;
#X obj 1072 441 nbx 3 70 -1e+037 1e+037 0 0 empty empty empty 0 -8
1 50 -162280 -1 -1 0 256;
#X obj 801 341 nbx 2 170 -1e+037 1e+037 0 0 empty empty empty 0 -8
1 145 -162280 -1 -1 0 256;
#X obj 580 341 nbx 2 170 -1e+037 1e+037 0 0 empty empty empty 0 -8
1 145 -162280 -1 -1 0 256;
#X obj 621 101 line 0 1;
#X msg 621 71 1200 1.2e+006;
#X obj 726 156 * 1000;
#X obj 726 182 mod 1000;
#X msg 531 63 stop;
#X obj 590 165 mod 60;
#X obj 641 159 mod 60, f 7;
#X msg 581 63 0;
#X obj 590 138 / 60;
#X obj 1197 310 bng 20 250 50 0 empty empty empty 17 7 0 10 -204800
-1 -1;
#X obj 1197 333 bng 20 250 50 0 empty empty empty 17 7 0 10 -204800
-1 -1;
#X obj 1197 356 bng 20 250 50 0 empty empty empty 17 7 0 10 -204800
-1 -1;
#X text 1153 311 START;
#X text 1160 334 STOP;
#X text 1153 358 PAUSA;
#X obj 293 742 bang;
#X obj 783 552 bng 35 250 50 0 empty bang2 empty 17 7 0 10 -195568
-241291 -241291;
#X obj 929 552 bng 35 250 50 0 empty bang3 empty 17 7 0 10 -195568
-241291 -241291;
#X obj 1073 552 bng 35 250 50 0 empty bang4 empty 17 7 0 10 -195568
-241291 -241291;
#X obj 289 89 metro 1 60 permin;
#X msg -8 136 \; bang1 color 50 \; bang1 size 35 \; bang2 color 50
\; bang2 size 35 \; bang3 color 50 \; bang3 size 35 \; bang4 color
50 \; bang4 size 35 \;;
#X obj 54 74 loadbang;
#X msg -1 323 \; bang1 color 103 \; bang1 size 75 \;;
#X msg -1 373 \; bang2 color 103 \; bang2 size 75 \;;
#X msg 138 323 \; bang3 color 103 \; bang3 size 75 \;;
#X msg 138 374 \; bang4 color 103 \; bang4 size 75 \;;
#X msg -1 471 \; bang1 color 16 \; bang1 size 90 \; bang2 color 16
\; bang2 size 90 \; bang3 color 16 \; bang3 size 90 \; bang4 color
16 \; bang4 size 90 \;;
#X text -43 293 Countdown;
#X obj 358 761 pack 0 0 0;
#X text 51 46 Standart;
#X obj 326 113 - 1;
#X msg 249 87 4;
#X obj 221 178 sel 4 3 2 1 0;
#X obj 139 77 delay 2000;
#X text 614 49 Rampa di 20 minuti;
#X msg 339 36 1;
#X obj 289 112 f;
#X msg 365 884 disconnect;
#X obj 358 911 netsend -u -b;
#X obj 358 810 list prepend send;
#X obj 358 835 list trim;
#X msg 366 860 connect localhost 10000;
#X obj 358 785 oscformat crono;
#X obj 323 293 spigot;
#X msg 289 36 stop;
#X obj 323 337 spigot;
#X msg 373 318 1;
#X msg 402 318 0;
#X obj 374 365 bang;
#X obj 373 296 loadbang;
#X obj 374 388 delay 2000;
#X obj 323 314 bang;
#X obj 249 61 loadbang;
#X obj 323 368 bang;
#X obj 287 264 expr if($i1 == 1 & $i2 == 15 \, 1 \, 0) \;;
#X obj 320 440 spigot;
#X obj 320 484 spigot;
#X msg 370 465 1;
#X msg 399 465 0;
#X obj 371 512 bang;
#X obj 370 443 loadbang;
#X obj 371 535 delay 2000;
#X obj 320 462 bang;
#X obj 320 515 bang;
#X obj 282 409 expr if($i1 == 2 & $i2 == 30 \, 1 \, 0) \;;
#X obj 288 588 spigot;
#X obj 288 632 spigot;
#X msg 338 613 1;
#X msg 367 613 0;
#X obj 339 660 bang;
#X obj 338 591 loadbang;
#X obj 339 683 delay 2000;
#X obj 288 610 bang;
#X obj 288 663 bang;
#X obj 250 557 expr if($i1 == 4 & $i2 == 25 \, 1 \, 0) \;;
#X text 1073 490 sec.;
#X text 1200 490 ms;
#X text 852 489 min.;
#X obj 183 867 list prepend send;
#X obj 183 892 list trim;
#X text 437 765 Network(client);
#X obj 183 845 list prepend;
#X obj 183 820 oscformat semaforo;
#X msg 239 684 bang1;
#X msg 239 705 bang2;
#X msg 239 726 bang3;
#X msg 239 747 bang4;
#X msg 239 769 tac;
#X msg 239 790 standart;
#X obj 435 835 loadbang;
#X text 111 533 Tac;
#X connect 5 0 7 0;
#X connect 5 0 13 0;
#X connect 5 0 11 0;
#X connect 6 0 5 0;
#X connect 7 0 8 0;
#X connect 8 0 2 0;
#X connect 8 0 20 0;
#X connect 8 0 33 2;
#X connect 9 0 5 0;
#X connect 10 0 4 0;
#X connect 10 0 20 0;
#X connect 10 0 33 0;
#X connect 10 0 59 0;
#X connect 10 0 69 0;
#X connect 10 0 79 0;
#X connect 11 0 3 0;
#X connect 11 0 20 0;
#X connect 11 0 33 1;
#X connect 11 0 59 1;
#X connect 11 0 69 1;
#X connect 11 0 79 1;
#X connect 12 0 5 0;
#X connect 13 0 10 0;
#X connect 14 0 6 0;
#X connect 15 0 12 0;
#X connect 16 0 9 0;
#X connect 20 0 33 0;
#X connect 24 0 41 0;
#X connect 26 0 25 0;
#X connect 33 0 47 0;
#X connect 35 0 41 1;
#X connect 36 0 41 1;
#X connect 37 0 27 0;
#X connect 37 0 88 0;
#X connect 37 0 87 0;
#X connect 37 1 28 0;
#X connect 37 1 89 0;
#X connect 37 1 87 0;
#X connect 37 2 29 0;
#X connect 37 2 90 0;
#X connect 37 2 87 0;
#X connect 37 3 30 0;
#X connect 37 3 91 0;
#X connect 37 3 87 0;
#X connect 37 4 31 0;
#X connect 37 4 38 0;
#X connect 37 4 49 0;
#X connect 37 4 36 0;
#X connect 37 4 92 0;
#X connect 37 4 87 0;
#X connect 38 0 25 0;
#X connect 38 0 93 0;
#X connect 38 0 87 0;
#X connect 40 0 24 0;
#X connect 41 0 35 0;
#X connect 41 0 37 0;
#X connect 42 0 43 0;
#X connect 44 0 45 0;
#X connect 45 0 43 0;
#X connect 46 0 43 0;
#X connect 47 0 44 0;
#X connect 48 0 56 0;
#X connect 49 0 24 0;
#X connect 50 0 53 0;
#X connect 50 0 58 0;
#X connect 51 0 50 1;
#X connect 52 0 50 1;
#X connect 53 0 52 0;
#X connect 53 0 55 0;
#X connect 54 0 51 0;
#X connect 55 0 51 0;
#X connect 56 0 50 0;
#X connect 57 0 36 0;
#X connect 58 0 40 0;
#X connect 59 0 48 0;
#X connect 59 0 48 1;
#X connect 60 0 67 0;
#X connect 61 0 64 0;
#X connect 61 0 68 0;
#X connect 62 0 61 1;
#X connect 63 0 61 1;
#X connect 64 0 63 0;
#X connect 64 0 66 0;
#X connect 65 0 62 0;
#X connect 66 0 62 0;
#X connect 67 0 61 0;
#X connect 68 0 40 0;
#X connect 69 0 60 0;
#X connect 69 0 60 1;
#X connect 70 0 77 0;
#X connect 71 0 74 0;
#X connect 71 0 78 0;
#X connect 72 0 71 1;
#X connect 73 0 71 1;
#X connect 74 0 73 0;
#X connect 74 0 76 0;
#X connect 75 0 72 0;
#X connect 76 0 72 0;
#X connect 77 0 71 0;
#X connect 78 0 40 0;
#X connect 79 0 70 0;
#X connect 79 0 70 1;
#X connect 83 0 84 0;
#X connect 84 0 43 0;
#X connect 86 0 83 0;
#X connect 87 0 86 0;
#X connect 88 0 86 1;
#X connect 89 0 86 1;
#X connect 90 0 86 1;
#X connect 91 0 86 1;
#X connect 92 0 86 1;
#X connect 93 0 86 1;
#X connect 94 0 46 0;
#X coords 0 -1 1 1 702 402 2 550 280;
#X restore 20 37 pd crono_client;
