#N canvas 177 417 1118 273 12;
#N canvas -8 -8 1366 695 MetroCrono_Client 0;
#X obj 209 90 metro 1000;
#X obj 200 159 mod 60;
#X obj 263 147 + 1;
#X obj 413 427 nbx 3 200 -1e+037 1e+037 0 0 empty empty empty 0 -8
1 200 -262144 -1 -1 47 256;
#X obj 209 67 tgl 15 0 empty empty empty 17 7 0 10 -262144 -1 -1 1
1;
#X obj 137 190 / 60;
#X obj 137 214 int;
#X obj 109 427 nbx 2 200 -1e+037 1e+037 0 0 empty empty empty 0 -8
1 200 -262144 -1 -1 9 256;
#X obj 983 462 bng 15 250 50 0 metrocrono_start empty start 17 7 0
10 -262144 -1 -1;
#X obj 983 486 bng 15 250 50 0 metrocrono_stop empty stop 17 7 0 10
-262144 -1 -1;
#X obj 983 509 bng 15 250 50 0 metrocrono_reset empty reset 17 7 0
10 -262144 -1 -1;
#X msg 345 113 0;
#X msg 345 88 1;
#X msg 345 138 0;
#X obj 1041 462 bng 15 250 50 0 metrocrono_connect empty connect 17
7 0 10 -262144 -1 -1;
#X obj 1041 486 bng 15 250 50 0 metrocrono_disconnect empty disconnect
17 7 0 10 -262144 -1 -1;
#N canvas 799 70 450 300 Network_client 0;
#X obj 34 28 inlet;
#X obj 87 28 inlet;
#X obj 139 28 inlet;
#X obj 190 28 inlet;
#X msg 41 224 disconnect;
#X obj 34 251 netsend -u -b;
#X obj 34 150 list prepend send;
#X obj 34 175 list trim;
#X msg 42 200 connect localhost 10000;
#X obj 34 125 oscformat metrocrono;
#X obj 232 92 print client sec:;
#X obj 232 122 print client min:;
#X obj 34 101 pack 0 0 0;
#X obj 5 64 t b;
#X obj 246 147 print Pacchetto;
#X connect 0 0 12 0;
#X connect 0 0 13 0;
#X connect 1 0 12 1;
#X connect 1 0 13 0;
#X connect 2 0 8 0;
#X connect 3 0 4 0;
#X connect 4 0 5 0;
#X connect 6 0 7 0;
#X connect 7 0 5 0;
#X connect 8 0 5 0;
#X connect 9 0 6 0;
#X connect 12 0 9 0;
#X connect 13 0 12 0;
#X restore 162 331 pd Network_client;
#X obj 345 31 r metrocrono_start;
#X obj 432 64 r metrocrono_stop;
#X obj 432 87 r metrocrono_reset;
#X obj 239 283 r metrocrono_connect;
#X obj 278 306 r metrocrono_disconnect;
#X text 479 609 min.;
#X text 933 607 sec.;
#X obj 209 116 f;
#X obj 597 162 metro 1000;
#X obj 648 211 + 1;
#X obj 597 139 tgl 15 0 empty empty empty 17 7 0 10 -262144 -1 -1 0
1;
#X msg 635 265 0;
#X msg 685 159 -10;
#X obj 597 198 f;
#X obj 200 203 spigot;
#X msg 366 180 -10;
#X obj 727 118 loadbang;
#X msg 410 180 0;
#X obj 345 55 delay 9000;
#X msg 1232 277 0;
#X msg 979 272 -10;
#X msg 1001 293 -9;
#X msg 1024 273 -8;
#X msg 1046 292 -7;
#X msg 1069 273 -6;
#X msg 1092 292 -5;
#X msg 1114 272 -4;
#X msg 1137 291 -3;
#X msg 1160 272 -2;
#X msg 1182 291 -1;
#X obj 979 246 sel -10 -9 -8 -7 -6 -5 -4 -3 -2 -1 0;
#X obj 635 239 sel 0;
#X obj 1041 359 loadbang;
#X connect 0 0 24 0;
#X connect 1 0 31 0;
#X connect 2 0 24 1;
#X connect 4 0 0 0;
#X connect 4 0 31 1;
#X connect 5 0 6 0;
#X connect 6 0 7 0;
#X connect 6 0 16 0;
#X connect 11 0 4 0;
#X connect 11 0 27 0;
#X connect 12 0 4 0;
#X connect 13 0 24 1;
#X connect 17 0 27 0;
#X connect 17 0 35 0;
#X connect 18 0 11 0;
#X connect 19 0 13 0;
#X connect 19 0 29 0;
#X connect 19 0 32 0;
#X connect 19 0 34 0;
#X connect 20 0 16 2;
#X connect 21 0 16 3;
#X connect 24 0 2 0;
#X connect 24 0 1 0;
#X connect 24 0 5 0;
#X connect 25 0 30 0;
#X connect 26 0 30 1;
#X connect 27 0 25 0;
#X connect 28 0 27 0;
#X connect 29 0 30 0;
#X connect 30 0 26 0;
#X connect 30 0 3 0;
#X connect 30 0 48 0;
#X connect 30 0 16 1;
#X connect 31 0 3 0;
#X connect 31 0 16 1;
#X connect 32 0 3 0;
#X connect 32 0 16 1;
#X connect 33 0 29 0;
#X connect 34 0 16 0;
#X connect 34 0 7 0;
#X connect 35 0 12 0;
#X connect 47 0 37 0;
#X connect 47 1 38 0;
#X connect 47 2 39 0;
#X connect 47 3 40 0;
#X connect 47 4 41 0;
#X connect 47 5 42 0;
#X connect 47 6 43 0;
#X connect 47 7 44 0;
#X connect 47 8 45 0;
#X connect 47 9 46 0;
#X connect 47 10 36 0;
#X connect 48 0 28 0;
#X connect 49 0 14 0;
#X coords 0 -1 1 1 1050 250 1 100 400;
#X restore 9 11 pd MetroCrono_Client;
#X coords 0 273 1 272 1000 250 0;
