#N canvas -8 -8 1366 695 12;
#N canvas -8 -8 1366 695 crono_client 0;
#X obj 551 281 cnv 15 700 400 empty empty Crono_Client 20 12 1 20 -54094
-228856 0;
#X obj 613 354 bng 35 250 50 0 empty bang1 empty 17 7 0 10 -195568
-1 -1;
#X obj 612 456 nbx 3 70 -1e+037 1e+037 0 0 empty empty empty 0 -8 1
50 -162280 -1 -1 11 256;
#X obj 621 101 line 0 1;
#X msg 531 63 stop;
#X msg 581 63 0;
#X obj 1197 310 bng 20 250 50 0 empty empty empty 17 7 0 10 -204800
-1 -1;
#X obj 1197 333 bng 20 250 50 0 empty empty empty 17 7 0 10 -204800
-1 -1;
#X obj 1197 356 bng 20 250 50 0 empty empty empty 17 7 0 10 -204800
-1 -1;
#X text 1153 311 START;
#X text 1160 334 STOP;
#X text 1153 358 PAUSA;
#X obj 293 742 bang;
#X obj 758 354 bng 75 250 50 0 empty bang2 empty 17 7 0 10 -258699
-241291 -241291;
#X obj 904 354 bng 35 250 50 0 empty bang3 empty 17 7 0 10 -195568
-241291 -241291;
#X obj 1048 354 bng 35 250 50 0 empty bang4 empty 17 7 0 10 -195568
-241291 -241291;
#X obj 289 89 metro 1 60 permin;
#X msg -8 103 \; bang1 color 50 \; bang1 size 35 \; bang2 color 50
\; bang2 size 35 \; bang3 color 50 \; bang3 size 35 \; bang4 color
50 \; bang4 size 35 \;;
#X obj 54 74 loadbang;
#X msg 347 391 \; bang1 color 103 \; bang1 size 75 \;;
#X msg 364 341 \; bang2 color 103 \; bang2 size 75 \;;
#X msg 382 291 \; bang3 color 103 \; bang3 size 75 \;;
#X msg 399 240 \; bang4 color 103 \; bang4 size 75 \;;
#X msg -1 471 \; bang1 color 16 \; bang1 size 90 \; bang2 color 16
\; bang2 size 90 \; bang3 color 16 \; bang3 size 90 \; bang4 color
16 \; bang4 size 90 \;;
#X text -43 293 Countdown;
#X obj 358 761 pack 0 0 0;
#X text 51 46 Standart;
#X obj 326 113 - 1;
#X msg 249 87 4;
#X obj 221 178 sel 4 3 2 1 0;
#X obj 139 77 delay 2000;
#X msg 339 36 1;
#X obj 289 112 f;
#X msg 365 884 disconnect;
#X obj 358 911 netsend -u -b;
#X obj 358 810 list prepend send;
#X obj 358 835 list trim;
#X msg 366 860 connect localhost 10000;
#X obj 358 785 oscformat crono;
#X obj 1048 -354 spigot;
#X msg 289 36 stop;
#X obj 1048 -310 spigot;
#X msg 1098 -329 1;
#X msg 1127 -329 0;
#X obj 1099 -282 bang;
#X obj 1098 -351 loadbang;
#X obj 1099 -259 delay 2000;
#X obj 1048 -333 bang;
#X obj 249 61 loadbang;
#X obj 1048 -279 bang;
#X obj 1012 -383 expr if($i1 == 1 & $i2 == 15 \, 1 \, 0) \;;
#X obj 1045 -207 spigot;
#X obj 1045 -163 spigot;
#X msg 1095 -182 1;
#X msg 1124 -182 0;
#X obj 1096 -135 bang;
#X obj 1095 -204 loadbang;
#X obj 1096 -112 delay 2000;
#X obj 1045 -185 bang;
#X obj 1045 -132 bang;
#X obj 1007 -238 expr if($i1 == 2 & $i2 == 30 \, 1 \, 0) \;;
#X obj 1013 -59 spigot;
#X obj 1013 -15 spigot;
#X msg 1063 -34 1;
#X msg 1092 -34 0;
#X obj 1064 13 bang;
#X obj 1063 -56 loadbang;
#X obj 1064 36 delay 2000;
#X obj 1013 -37 bang;
#X obj 1013 16 bang;
#X obj 975 -90 expr if($i1 == 4 & $i2 == 25 \, 1 \, 0) \;;
#X obj 183 867 list prepend send;
#X obj 183 892 list trim;
#X text 437 765 Network(client);
#X obj 183 845 list prepend;
#X obj 183 820 oscformat semaforo;
#X msg 239 684 bang1;
#X msg 239 705 bang2;
#X msg 239 726 bang3;
#X msg 239 747 bang4;
#X msg 239 769 tac;
#X msg 239 790 standart;
#X obj 435 835 loadbang;
#X text 111 533 Tac;
#X obj 347 165 mod 4;
#X obj 347 217 sel 0 1 2 3 4;
#X msg 338 621 \; bang1 color 50 \; bang1 size 35 \;;
#X msg 355 571 \; bang2 color 50 \; bang2 size 35 \;;
#X msg 373 521 \; bang3 color 50 \; bang3 size 35 \;;
#X msg 390 470 \; bang4 color 50 \; bang4 size 35 \;;
#X obj 286 586 delay 10;
#X obj 296 546 delay 10;
#X obj 318 496 delay 10;
#X obj 352 448 delay 10;
#X msg 621 71 1200 600000;
#X obj 614 193 + 1;
#X text 614 49 Rampa di 10 minuti;
#X obj 614 168 div 4;
#X floatatom 714 191 5 0 0 0 - - -;
#X connect 3 0 98 0;
#X connect 3 0 84 0;
#X connect 3 0 97 0;
#X connect 4 0 3 0;
#X connect 5 0 3 0;
#X connect 6 0 94 0;
#X connect 7 0 5 0;
#X connect 8 0 4 0;
#X connect 12 0 25 0;
#X connect 16 0 32 0;
#X connect 18 0 17 0;
#X connect 25 0 38 0;
#X connect 27 0 32 1;
#X connect 28 0 32 1;
#X connect 29 0 76 0;
#X connect 29 0 75 0;
#X connect 29 1 75 0;
#X connect 29 3 79 0;
#X connect 29 3 75 0;
#X connect 29 4 30 0;
#X connect 29 4 40 0;
#X connect 29 4 28 0;
#X connect 29 4 80 0;
#X connect 29 4 75 0;
#X connect 30 0 17 0;
#X connect 30 0 81 0;
#X connect 30 0 75 0;
#X connect 31 0 16 0;
#X connect 32 0 27 0;
#X connect 32 0 29 0;
#X connect 33 0 34 0;
#X connect 35 0 36 0;
#X connect 36 0 34 0;
#X connect 37 0 34 0;
#X connect 38 0 35 0;
#X connect 39 0 47 0;
#X connect 40 0 16 0;
#X connect 41 0 44 0;
#X connect 41 0 49 0;
#X connect 42 0 41 1;
#X connect 43 0 41 1;
#X connect 44 0 43 0;
#X connect 44 0 46 0;
#X connect 45 0 42 0;
#X connect 46 0 42 0;
#X connect 47 0 41 0;
#X connect 48 0 28 0;
#X connect 49 0 31 0;
#X connect 50 0 39 0;
#X connect 50 0 39 1;
#X connect 51 0 58 0;
#X connect 52 0 55 0;
#X connect 52 0 59 0;
#X connect 53 0 52 1;
#X connect 54 0 52 1;
#X connect 55 0 54 0;
#X connect 55 0 57 0;
#X connect 56 0 53 0;
#X connect 57 0 53 0;
#X connect 58 0 52 0;
#X connect 59 0 31 0;
#X connect 60 0 51 0;
#X connect 60 0 51 1;
#X connect 61 0 68 0;
#X connect 62 0 65 0;
#X connect 62 0 69 0;
#X connect 63 0 62 1;
#X connect 64 0 62 1;
#X connect 65 0 64 0;
#X connect 65 0 67 0;
#X connect 66 0 63 0;
#X connect 67 0 63 0;
#X connect 68 0 62 0;
#X connect 69 0 31 0;
#X connect 70 0 61 0;
#X connect 70 0 61 1;
#X connect 71 0 72 0;
#X connect 72 0 34 0;
#X connect 74 0 71 0;
#X connect 75 0 74 0;
#X connect 76 0 74 1;
#X connect 77 0 74 1;
#X connect 78 0 74 1;
#X connect 79 0 74 1;
#X connect 80 0 74 1;
#X connect 81 0 74 1;
#X connect 82 0 37 0;
#X connect 84 0 85 0;
#X connect 85 0 19 0;
#X connect 85 0 90 0;
#X connect 85 1 20 0;
#X connect 85 1 91 0;
#X connect 85 2 21 0;
#X connect 85 2 92 0;
#X connect 85 3 22 0;
#X connect 85 3 93 0;
#X connect 90 0 86 0;
#X connect 91 0 87 0;
#X connect 92 0 88 0;
#X connect 93 0 89 0;
#X connect 94 0 3 0;
#X connect 95 0 2 0;
#X connect 97 0 95 0;
#X coords 0 -1 1 1 702 402 2 550 280;
#X restore 20 37 pd crono_client;
