#N canvas 0 0 1350 674 12;
#X obj 808 148 ctlin 0;
#X floatatom 819 169 5 0 0 0 - - - 0;
#X floatatom 890 169 5 0 0 0 - - - 0;
#X floatatom 959 169 5 0 0 0 - - - 0;
#X floatatom 1029 169 5 0 0 0 - - - 0;
#X floatatom 1099 169 5 0 0 0 - - - 0;
#X floatatom 1169 169 5 0 0 0 - - - 0;
#X floatatom 1239 169 5 0 0 0 - - - 0;
#X floatatom 1309 169 5 0 0 0 - - - 0;
#X floatatom 836 54 5 0 0 0 - - - 0;
#X obj 879 148 ctlin 1;
#X obj 948 148 ctlin 2;
#X obj 1018 148 ctlin 3;
#X obj 1088 148 ctlin 4;
#X obj 1158 148 ctlin 5;
#X obj 1228 148 ctlin 6;
#X obj 825 33 ctlin 16;
#X floatatom 900 54 5 0 0 0 - - - 0;
#X floatatom 964 54 5 0 0 0 - - - 0;
#X floatatom 1029 54 5 0 0 0 - - - 0;
#X floatatom 1094 54 5 0 0 0 - - - 0;
#X floatatom 1159 54 5 0 0 0 - - - 0;
#X floatatom 1223 54 5 0 0 0 - - - 0;
#X floatatom 1287 54 5 0 0 0 - - - 0;
#X obj 889 33 ctlin 17;
#X obj 953 33 ctlin 18;
#X obj 1018 33 ctlin 19;
#X obj 1083 33 ctlin 20;
#X obj 1148 33 ctlin 21;
#X obj 1212 33 ctlin 22;
#X obj 1276 33 ctlin 23;
#X obj 825 93 s knob1;
#X obj 889 93 s knob2;
#X obj 953 93 s knob3;
#X obj 1018 93 s knob4;
#X obj 1083 93 s knob5;
#X obj 1148 93 s knob6;
#X obj 1212 93 s knob7;
#X obj 1276 93 s knob8;
#X obj 808 201 s fader1;
#X obj 878 201 s fader2;
#X obj 948 201 s fader3;
#X obj 1018 201 s fader4;
#X obj 1088 201 s fader5;
#X obj 1158 201 s fader6;
#X obj 1228 201 s fader7;
#X obj 1298 201 s fader8;
#X obj 760 312 ctlin 32;
#X obj 760 344 / 127;
#X obj 760 369 sel 0 1;
#X obj 744 407 s s_button1;
#X obj 850 344 / 127;
#X obj 850 369 sel 0 1;
#X obj 940 344 / 127;
#X obj 940 369 sel 0 1;
#X obj 1030 344 / 127;
#X obj 1030 369 sel 0 1;
#X obj 850 312 ctlin 33;
#X obj 940 312 ctlin 34;
#X obj 1030 312 ctlin 35;
#X obj 1120 344 / 127;
#X obj 1120 369 sel 0 1;
#X obj 1210 344 / 127;
#X obj 1210 369 sel 0 1;
#X obj 1300 344 / 127;
#X obj 1300 369 sel 0 1;
#X obj 1390 344 / 127;
#X obj 1390 369 sel 0 1;
#X obj 1120 312 ctlin 36;
#X obj 1210 312 ctlin 37;
#X obj 1300 312 ctlin 38;
#X obj 1390 312 ctlin 39;
#X obj 834 407 s s_button2;
#X obj 924 407 s s_button3;
#X obj 1014 407 s s_button4;
#X obj 1104 407 s s_button5;
#X obj 1194 407 s s_button6;
#X obj 1284 407 s s_button7;
#X obj 1374 407 s s_button8;
#X obj 760 474 / 127;
#X obj 760 499 sel 0 1;
#X obj 850 474 / 127;
#X obj 850 499 sel 0 1;
#X obj 940 474 / 127;
#X obj 940 499 sel 0 1;
#X obj 1030 474 / 127;
#X obj 1030 499 sel 0 1;
#X obj 1120 474 / 127;
#X obj 1120 499 sel 0 1;
#X obj 1210 474 / 127;
#X obj 1210 499 sel 0 1;
#X obj 1300 474 / 127;
#X obj 1300 499 sel 0 1;
#X obj 1390 474 / 127;
#X obj 1390 499 sel 0 1;
#X obj 760 442 ctlin 48;
#X obj 850 442 ctlin 49;
#X obj 940 442 ctlin 50;
#X obj 1030 442 ctlin 51;
#X obj 1120 442 ctlin 52;
#X obj 1210 442 ctlin 53;
#X obj 1300 442 ctlin 54;
#X obj 1390 442 ctlin 55;
#X obj 744 537 s m_button1;
#X obj 834 537 s m_button2;
#X obj 927 537 s m_button3;
#X obj 1014 537 s m_button4;
#X obj 1104 537 s m_button5;
#X obj 1194 537 s m_button6;
#X obj 1284 537 s m_button7;
#X obj 1374 537 s m_button8;
#X obj 760 604 / 127;
#X obj 760 629 sel 0 1;
#X obj 850 604 / 127;
#X obj 850 629 sel 0 1;
#X obj 940 604 / 127;
#X obj 940 629 sel 0 1;
#X obj 1030 604 / 127;
#X obj 1030 629 sel 0 1;
#X obj 1120 604 / 127;
#X obj 1120 629 sel 0 1;
#X obj 1210 604 / 127;
#X obj 1210 629 sel 0 1;
#X obj 1300 604 / 127;
#X obj 1300 629 sel 0 1;
#X obj 1390 604 / 127;
#X obj 1390 629 sel 0 1;
#X obj 760 572 ctlin 64;
#X obj 850 572 ctlin 65;
#X obj 940 572 ctlin 66;
#X obj 1030 572 ctlin 67;
#X obj 1120 572 ctlin 68;
#X obj 1210 572 ctlin 69;
#X obj 1300 572 ctlin 70;
#X obj 1390 572 ctlin 71;
#X obj 744 667 s r_button1;
#X obj 834 667 s r_button2;
#X obj 924 667 s r_button3;
#X obj 1014 667 s r_button4;
#X obj 1104 667 s r_button5;
#X obj 1194 667 s r_button6;
#X obj 1284 667 s r_button7;
#X obj 1374 667 s r_button8;
#X obj 80 552 ctlin 43;
#X obj 180 554 ctlin 44;
#X obj 280 552 ctlin 42;
#X obj 380 552 ctlin 41;
#X obj 480 552 ctlin 45;
#X obj 80 580 / 127;
#X obj 80 605 sel 0 1;
#X obj 180 580 / 127;
#X obj 180 605 sel 0 1;
#X obj 280 579 / 127;
#X obj 280 604 sel 0 1;
#X obj 380 579 / 127;
#X obj 380 604 sel 0 1;
#X obj 480 579 / 127;
#X obj 480 604 sel 0 1;
#X obj 80 646 s back_button;
#X obj 180 646 s next_button;
#X obj 280 647 s stop_button;
#X obj 380 647 s play_button;
#X obj 480 647 s rec_button;
#X obj 70 220 / 127;
#X obj 70 245 sel 0 1;
#X obj 191 220 / 127;
#X obj 191 244 sel 0 1;
#X obj 70 182 ctlin 58;
#X obj 191 182 ctlin 59;
#X obj 70 283 s btrack_button;
#X obj 191 282 s ntrack_button;
#X obj 330 390 / 127;
#X obj 330 415 sel 0 1;
#X obj 452 390 / 127;
#X obj 452 415 sel 0 1;
#X obj 562 382 / 127;
#X obj 562 407 sel 0 1;
#X obj 330 352 ctlin 60;
#X obj 452 354 ctlin 61;
#X obj 562 350 ctlin 62;
#X obj 330 453 s markset_button;
#X obj 452 453 s bmark_button;
#X obj 562 452 s nmark_button;
#X obj 70 390 / 127;
#X obj 70 415 sel 0 1;
#X obj 70 352 ctlin 46;
#X obj 70 453 s cycle_button;
#X obj 788 392 bng 15 250 50 0 empty empty empty 17 7 0 10 #fcfcfc
#000000 #000000;
#X obj 878 392 bng 15 250 50 0 empty empty empty 17 7 0 10 #fcfcfc
#000000 #000000;
#X obj 968 392 bng 15 250 50 0 empty empty empty 17 7 0 10 #fcfcfc
#000000 #000000;
#X obj 1058 392 bng 15 250 50 0 empty empty empty 17 7 0 10 #fcfcfc
#000000 #000000;
#X obj 1148 392 bng 15 250 50 0 empty empty empty 17 7 0 10 #fcfcfc
#000000 #000000;
#X obj 1238 392 bng 15 250 50 0 empty empty empty 17 7 0 10 #fcfcfc
#000000 #000000;
#X obj 1328 392 bng 15 250 50 0 empty empty empty 17 7 0 10 #fcfcfc
#000000 #000000;
#X obj 1418 392 bng 15 250 50 0 empty empty empty 17 7 0 10 #fcfcfc
#000000 #000000;
#X obj 788 522 bng 15 250 50 0 empty empty empty 17 7 0 10 #fcfcfc
#000000 #000000;
#X obj 878 522 bng 15 250 50 0 empty empty empty 17 7 0 10 #fcfcfc
#000000 #000000;
#X obj 968 522 bng 15 250 50 0 empty empty empty 17 7 0 10 #fcfcfc
#000000 #000000;
#X obj 1058 522 bng 15 250 50 0 empty empty empty 17 7 0 10 #fcfcfc
#000000 #000000;
#X obj 1148 522 bng 15 250 50 0 empty empty empty 17 7 0 10 #fcfcfc
#000000 #000000;
#X obj 1238 522 bng 15 250 50 0 empty empty empty 17 7 0 10 #fcfcfc
#000000 #000000;
#X obj 1328 522 bng 15 250 50 0 empty empty empty 17 7 0 10 #fcfcfc
#000000 #000000;
#X obj 1418 522 bng 15 250 50 0 empty empty empty 17 7 0 10 #fcfcfc
#000000 #000000;
#X obj 788 652 bng 15 250 50 0 empty empty empty 17 7 0 10 #fcfcfc
#000000 #000000;
#X obj 878 652 bng 15 250 50 0 empty empty empty 17 7 0 10 #fcfcfc
#000000 #000000;
#X obj 968 652 bng 15 250 50 0 empty empty empty 17 7 0 10 #fcfcfc
#000000 #000000;
#X obj 1058 652 bng 15 250 50 0 empty empty empty 17 7 0 10 #fcfcfc
#000000 #000000;
#X obj 1148 652 bng 15 250 50 0 empty empty empty 17 7 0 10 #fcfcfc
#000000 #000000;
#X obj 1238 652 bng 15 250 50 0 empty empty empty 17 7 0 10 #fcfcfc
#000000 #000000;
#X obj 1328 652 bng 15 250 50 0 empty empty empty 17 7 0 10 #fcfcfc
#000000 #000000;
#X obj 1418 652 bng 15 250 50 0 empty empty empty 17 7 0 10 #fcfcfc
#000000 #000000;
#X obj 116 632 bng 15 250 50 0 empty empty empty 17 7 0 10 #fcfcfc
#000000 #000000;
#X obj 228 632 bng 15 250 50 0 empty empty empty 17 7 0 10 #fcfcfc
#000000 #000000;
#X obj 318 632 bng 15 250 50 0 empty empty empty 17 7 0 10 #fcfcfc
#000000 #000000;
#X obj 408 632 bng 15 250 50 0 empty empty empty 17 7 0 10 #fcfcfc
#000000 #000000;
#X obj 498 632 bng 15 250 50 0 empty empty empty 17 7 0 10 #fcfcfc
#000000 #000000;
#X obj 358 437 bng 15 250 50 0 empty empty empty 17 7 0 10 #fcfcfc
#000000 #000000;
#X obj 479 437 bng 15 250 50 0 empty empty empty 17 7 0 10 #fcfcfc
#000000 #000000;
#X obj 586 437 bng 15 250 50 0 empty empty empty 17 7 0 10 #fcfcfc
#000000 #000000;
#X obj 98 267 bng 15 250 50 0 empty empty empty 17 7 0 10 #fcfcfc #000000
#000000;
#X obj 219 267 bng 15 250 50 0 empty empty empty 17 7 0 10 #fcfcfc
#000000 #000000;
#X obj 102 437 bng 15 250 50 0 empty empty empty 17 7 0 10 #fcfcfc
#000000 #000000;
#X obj 1298 148 ctlin 8;
#X connect 0 0 1 0;
#X connect 0 0 39 0;
#X connect 10 0 2 0;
#X connect 10 0 40 0;
#X connect 11 0 3 0;
#X connect 11 0 41 0;
#X connect 12 0 4 0;
#X connect 12 0 42 0;
#X connect 13 0 5 0;
#X connect 13 0 43 0;
#X connect 14 0 6 0;
#X connect 14 0 44 0;
#X connect 15 0 7 0;
#X connect 15 0 45 0;
#X connect 16 0 9 0;
#X connect 16 0 31 0;
#X connect 24 0 17 0;
#X connect 24 0 32 0;
#X connect 25 0 18 0;
#X connect 25 0 33 0;
#X connect 26 0 19 0;
#X connect 26 0 34 0;
#X connect 27 0 20 0;
#X connect 27 0 35 0;
#X connect 28 0 21 0;
#X connect 28 0 36 0;
#X connect 29 0 22 0;
#X connect 29 0 37 0;
#X connect 30 0 23 0;
#X connect 30 0 38 0;
#X connect 47 0 48 0;
#X connect 48 0 49 0;
#X connect 49 1 50 0;
#X connect 49 1 187 0;
#X connect 51 0 52 0;
#X connect 52 1 72 0;
#X connect 52 1 188 0;
#X connect 53 0 54 0;
#X connect 54 1 73 0;
#X connect 54 1 189 0;
#X connect 55 0 56 0;
#X connect 56 1 74 0;
#X connect 56 1 190 0;
#X connect 57 0 51 0;
#X connect 58 0 53 0;
#X connect 59 0 55 0;
#X connect 60 0 61 0;
#X connect 61 1 75 0;
#X connect 61 1 191 0;
#X connect 62 0 63 0;
#X connect 63 1 76 0;
#X connect 63 1 192 0;
#X connect 64 0 65 0;
#X connect 65 1 77 0;
#X connect 65 1 193 0;
#X connect 66 0 67 0;
#X connect 67 1 78 0;
#X connect 67 1 194 0;
#X connect 68 0 60 0;
#X connect 69 0 62 0;
#X connect 70 0 64 0;
#X connect 71 0 66 0;
#X connect 79 0 80 0;
#X connect 80 1 103 0;
#X connect 80 1 195 0;
#X connect 81 0 82 0;
#X connect 82 1 104 0;
#X connect 82 1 196 0;
#X connect 83 0 84 0;
#X connect 84 1 105 0;
#X connect 84 1 197 0;
#X connect 85 0 86 0;
#X connect 86 1 106 0;
#X connect 86 1 198 0;
#X connect 87 0 88 0;
#X connect 88 1 107 0;
#X connect 88 1 199 0;
#X connect 89 0 90 0;
#X connect 90 1 108 0;
#X connect 90 1 200 0;
#X connect 91 0 92 0;
#X connect 92 1 109 0;
#X connect 92 1 201 0;
#X connect 93 0 94 0;
#X connect 94 1 110 0;
#X connect 94 1 202 0;
#X connect 95 0 79 0;
#X connect 96 0 81 0;
#X connect 97 0 83 0;
#X connect 98 0 85 0;
#X connect 99 0 87 0;
#X connect 100 0 89 0;
#X connect 101 0 91 0;
#X connect 102 0 93 0;
#X connect 111 0 112 0;
#X connect 112 1 135 0;
#X connect 112 1 203 0;
#X connect 113 0 114 0;
#X connect 114 1 136 0;
#X connect 114 1 204 0;
#X connect 115 0 116 0;
#X connect 116 1 137 0;
#X connect 116 1 205 0;
#X connect 117 0 118 0;
#X connect 118 1 138 0;
#X connect 118 1 206 0;
#X connect 119 0 120 0;
#X connect 120 1 139 0;
#X connect 120 1 207 0;
#X connect 121 0 122 0;
#X connect 122 1 140 0;
#X connect 122 1 208 0;
#X connect 123 0 124 0;
#X connect 124 1 141 0;
#X connect 124 1 209 0;
#X connect 125 0 126 0;
#X connect 126 1 142 0;
#X connect 126 1 210 0;
#X connect 127 0 111 0;
#X connect 128 0 113 0;
#X connect 129 0 115 0;
#X connect 130 0 117 0;
#X connect 131 0 119 0;
#X connect 132 0 121 0;
#X connect 133 0 123 0;
#X connect 134 0 125 0;
#X connect 143 0 148 0;
#X connect 144 0 150 0;
#X connect 145 0 152 0;
#X connect 146 0 154 0;
#X connect 147 0 156 0;
#X connect 148 0 149 0;
#X connect 149 1 211 0;
#X connect 149 1 158 0;
#X connect 150 0 151 0;
#X connect 151 1 212 0;
#X connect 151 1 159 0;
#X connect 152 0 153 0;
#X connect 153 1 213 0;
#X connect 153 1 160 0;
#X connect 154 0 155 0;
#X connect 155 1 214 0;
#X connect 155 1 161 0;
#X connect 156 0 157 0;
#X connect 157 1 215 0;
#X connect 157 1 162 0;
#X connect 163 0 164 0;
#X connect 164 1 169 0;
#X connect 164 1 219 0;
#X connect 165 0 166 0;
#X connect 166 1 170 0;
#X connect 166 1 220 0;
#X connect 167 0 163 0;
#X connect 168 0 165 0;
#X connect 171 0 172 0;
#X connect 172 1 216 0;
#X connect 172 1 180 0;
#X connect 173 0 174 0;
#X connect 174 1 217 0;
#X connect 174 1 181 0;
#X connect 175 0 176 0;
#X connect 176 1 218 0;
#X connect 176 1 182 0;
#X connect 177 0 171 0;
#X connect 178 0 173 0;
#X connect 179 0 175 0;
#X connect 183 0 184 0;
#X connect 184 1 186 0;
#X connect 184 1 221 0;
#X connect 185 0 183 0;
#X connect 222 0 8 0;
#X connect 222 0 46 0;
