#N canvas -8 -8 1366 690 10;
#X obj 9 53 inlet;
#X obj 189 53 inlet;
#X obj 291 51 inlet;
#X obj 458 50 inlet;
#X obj 561 51 inlet;
#X obj 731 51 inlet;
#X obj 841 51 inlet;
#X obj 972 51 inlet;
#X obj 1131 51 inlet;
#X obj 1290 51 inlet;
#X obj 1441 51 inlet;
#X obj 1571 51 inlet;
#X obj 1781 51 inlet;
#X obj 1951 51 inlet;
#X obj 2111 51 inlet;
#X obj 2291 51 inlet;
#X obj 189 84 clip 0 1;
#X obj 458 83 clip 0 1;
#X obj 731 84 clip 0 1;
#X obj 972 84 clip 0 1;
#X obj 1290 84 clip 0 1;
#X obj 1571 84 clip 0 1;
#X obj 1951 84 clip 0 1;
#X obj 2291 84 clip 0 1;
#X text 10 30 F1;
#X text 190 30 a(F1);
#X text 290 30 F2;
#X text 457 29 a(F2);
#X text 560 30 F3;
#X text 730 30 a(F3);
#X text 840 30 F4;
#X text 971 30 a(F4);
#X text 1130 30 F5;
#X text 1289 30 a(F5);
#X text 1440 30 F6;
#X text 1570 30 a(F6);
#X text 1780 30 F7;
#X text 1950 30 a(F7);
#X text 2110 30 F8;
#X text 2290 30 a(8);
#X floatatom 400 722 5 0 0 0 - - -, f 5;
#X obj 400 670 hsl 128 15 200 1500 0 0 empty empty empty -2 -8 0 10
#fcfcfc #000000 #000000 0 1;
#X floatatom 400 744 5 0 0 0 - - -, f 5;
#X obj 9 247 clip 250 1270;
#X obj 291 245 clip 500 2540;
#X obj 561 244 clip 750 3810;
#X obj 841 244 clip 1000 5080;
#X obj 1131 245 clip 1250 6350;
#X obj 1441 247 clip 1500 7620;
#X obj 1781 248 clip 1750 8890;
#X obj 2111 252 clip 2000 10160;
#X floatatom 32 338 5 0 0 0 - - -, f 5;
#X floatatom 310 337 5 0 0 0 - - -, f 5;
#X obj 490 708 * 2;
#X obj 9 269 expr (($f1 - 250)/(1270-250))*(0.71875-0.25)+0.25, f
36;
#X obj 291 268 expr (($f1 - 500)/(2540-500))*(1.1876-0.71876)+0.25
, f 38;
#X obj 561 267 expr (($f1 - 750)/(3810-750))*(1.65645-1.1877)+0.25
, f 39;
#X obj 841 267 expr (($f1 - 1000)/(5080-1000))*(2.12521-1.65646)+0.25
, f 41;
#X obj 1131 268 expr (($f1 - 1250)/(6350-1250))*(2.59397-2.12522)+0.25
, f 41;
#X obj 1441 275 expr (($f1 - 1500)/(7620-1500))*(3.06273-2.59398)+0.25
, f 41;
#X obj 1781 275 expr (($f1 - 1750)/(8890-1750))*(3.53149-3.06274)+0.25
, f 41;
#X obj 2111 275 expr (($f1 - 2000)/(10160-2000))*(4.00025-3.5315)+0.25
, f 41;
#X obj 9 311 expr (0.71875-$f1)+0.25;
#X obj 291 310 expr (1.1876 -$f1)+0.25;
#X obj 841 309 expr (2.12521 -$f1)+0.25;
#X obj 1131 310 expr (2.59397 -$f1)+0.25;
#X obj 1441 320 expr (3.06273 -$f1)+0.25;
#X obj 1781 320 expr (3.53149 -$f1)+0.25;
#X obj 2111 320 expr (4.00025 -$f1)+0.25;
#X obj 520 708 * 3;
#X obj 550 708 * 4;
#X obj 580 708 * 5;
#X obj 610 708 * 6;
#X obj 640 708 * 7;
#X obj 670 708 * 8;
#X floatatom 582 333 5 0 0 0 - - -, f 5;
#X floatatom 870 332 5 0 0 0 - - -, f 5;
#X floatatom 1152 333 5 0 0 0 - - -, f 5;
#X floatatom 1460 341 5 0 0 0 - - -, f 5;
#X floatatom 1794 342 5 0 0 0 - - -, f 5;
#X floatatom 2132 341 5 0 0 0 - - -, f 5;
#X obj 561 309 expr (1.65645 -$f1)+0.25;
#X msg 841 369 \; pl4f pitch \$1;
#X msg 1131 369 \; pl5f pitch \$1;
#X msg 1441 378 \; pl6f pitch \$1;
#X msg 1781 378 \; pl7f pitch \$1;
#X msg 2111 378 \; pl8f pitch \$1;
#X obj 400 645 hsl 128 15 0 1 0 0 empty empty empty -2 -8 0 10 #fcfcfc
#000000 #000000 0 1;
#X msg 9 369 \; pl1_f pitch \$1;
#X msg 291 369 \; pl2_f pitch \$1;
#X msg 561 369 \; pl3_f pitch \$1;
#X msg 841 369 \; pl4_f pitch \$1;
#X msg 1131 369 \; pl5_f pitch \$1;
#X msg 1441 378 \; pl6_f pitch \$1;
#X msg 1781 378 \; pl7_f pitch \$1;
#X msg 2111 378 \; pl8_f pitch \$1;
#X obj 1040 122 expr $f1+$f2+$f3+$f4+$f5+$f6+$f7+$f8;
#X floatatom 1040 160 5 0 0 0 - - -, f 5;
#X msg 148 371 \; pl1_f level \$1;
#X msg 418 371 \; pl2_f level \$1;
#X msg 678 371 \; pl3_f level \$1;
#X msg 968 371 \; pl4_f level \$1;
#X msg 1258 371 \; pl5_f level \$1;
#X msg 1558 380 \; pl6_f level \$1;
#X msg 1938 379 \; pl7_f level \$1;
#X msg 2258 379 \; pl8_f level \$1;
#X obj 149 220 expr 0.875 + ($f1*$f2);
#X obj 420 219 expr 0.75 + ($f1*$f2);
#X obj 681 220 expr 0.625 + ($f1*$f2);
#X obj 969 220 expr 0.5 + ($f1*$f2);
#X obj 1260 220 expr 0.375 + ($f1*$f2);
#X obj 1559 220 expr 0.25 + ($f1*$f2);
#X obj 1940 220 expr 0.125 + ($f1*$f2);
#X obj 2259 220 expr 0.062 + ($f1*$f2);
#X obj 149 246 clip 0 1;
#X obj 419 245 clip 0 1;
#X obj 681 245 clip 0 1;
#X obj 969 245 clip 0 1;
#X obj 1260 245 clip 0 1;
#X obj 1560 245 clip 0 1;
#X obj 1940 245 clip 0 1;
#X obj 2259 245 clip 0 1;
#X obj 278 195 / 8;
#X obj 545 194 / 7;
#X obj 810 194 / 6;
#X obj 1086 198 / 5;
#X obj 1388 198 / 4;
#X obj 1682 198 / 3;
#X obj 2069 198 / 2;
#X obj 2389 198 / 1;
#X obj 163 130 loadbang;
#X msg 163 152 1;
#X connect 0 0 43 0;
#X connect 1 0 16 0;
#X connect 2 0 44 0;
#X connect 3 0 17 0;
#X connect 4 0 45 0;
#X connect 5 0 18 0;
#X connect 6 0 46 0;
#X connect 7 0 19 0;
#X connect 8 0 47 0;
#X connect 9 0 20 0;
#X connect 10 0 48 0;
#X connect 11 0 21 0;
#X connect 12 0 49 0;
#X connect 13 0 22 0;
#X connect 14 0 50 0;
#X connect 15 0 23 0;
#X connect 16 0 96 0;
#X connect 17 0 96 1;
#X connect 18 0 96 2;
#X connect 19 0 96 3;
#X connect 20 0 96 4;
#X connect 21 0 96 5;
#X connect 22 0 96 6;
#X connect 23 0 96 7;
#X connect 41 0 40 0;
#X connect 41 0 53 0;
#X connect 41 0 69 0;
#X connect 41 0 70 0;
#X connect 41 0 71 0;
#X connect 41 0 72 0;
#X connect 41 0 73 0;
#X connect 41 0 74 0;
#X connect 43 0 54 0;
#X connect 44 0 55 0;
#X connect 45 0 56 0;
#X connect 46 0 57 0;
#X connect 47 0 58 0;
#X connect 48 0 59 0;
#X connect 49 0 60 0;
#X connect 50 0 61 0;
#X connect 54 0 62 0;
#X connect 55 0 63 0;
#X connect 56 0 81 0;
#X connect 57 0 64 0;
#X connect 58 0 65 0;
#X connect 59 0 66 0;
#X connect 60 0 67 0;
#X connect 61 0 68 0;
#X connect 62 0 51 0;
#X connect 62 0 88 0;
#X connect 63 0 52 0;
#X connect 63 0 89 0;
#X connect 64 0 76 0;
#X connect 64 0 91 0;
#X connect 65 0 77 0;
#X connect 65 0 92 0;
#X connect 66 0 78 0;
#X connect 66 0 93 0;
#X connect 67 0 79 0;
#X connect 67 0 94 0;
#X connect 68 0 80 0;
#X connect 68 0 95 0;
#X connect 81 0 75 0;
#X connect 81 0 90 0;
#X connect 96 0 97 0;
#X connect 96 0 106 0;
#X connect 96 0 107 0;
#X connect 96 0 108 0;
#X connect 96 0 109 0;
#X connect 96 0 110 0;
#X connect 96 0 111 0;
#X connect 96 0 112 0;
#X connect 96 0 113 0;
#X connect 106 0 114 0;
#X connect 107 0 115 0;
#X connect 108 0 116 0;
#X connect 109 0 117 0;
#X connect 110 0 118 0;
#X connect 111 0 119 0;
#X connect 112 0 120 0;
#X connect 113 0 121 0;
#X connect 114 0 98 0;
#X connect 115 0 99 0;
#X connect 116 0 100 0;
#X connect 117 0 101 0;
#X connect 118 0 102 0;
#X connect 119 0 103 0;
#X connect 120 0 104 0;
#X connect 121 0 105 0;
#X connect 122 0 106 1;
#X connect 123 0 107 1;
#X connect 124 0 108 1;
#X connect 125 0 109 1;
#X connect 126 0 110 1;
#X connect 127 0 111 1;
#X connect 128 0 112 1;
#X connect 129 0 113 1;
#X connect 130 0 131 0;
#X connect 131 0 122 0;
#X connect 131 0 123 0;
#X connect 131 0 124 0;
#X connect 131 0 125 0;
#X connect 131 0 126 0;
#X connect 131 0 127 0;
#X connect 131 0 128 0;
#X connect 131 0 129 0;
