#N canvas 1218 673 1350 674 10;
#X obj 123 71 Controller;
#X obj 124 130 Client;
#X obj 124 107 nanokontrol_f_k_b;
#N canvas 1231 712 2098 798 simmetry_modifiers 0;
#X obj 696 198 unpack 0 0 0 0;
#X obj 696 198 unpack 0 0 0 0;
#X obj 696 198 unpack 0 0 0 0;
#X obj 696 198 unpack 0 0 0 0;
#X obj 631 232 sig~;
#X obj 631 258 lop~;
#X obj 631 283 snapshot~;
#X obj 558 261 metro 15;
#X obj 558 202 tgl 15 0 empty empty empty 17 7 0 10 #fcfcfc #000000 #000000 0 1;
#X floatatom 631 304 5 0 0 0 - - - 0;
#X text 630 327 freq;
#X obj 701 232 sig~;
#X obj 701 258 lop~;
#X obj 701 283 snapshot~;
#X floatatom 701 304 5 0 0 0 - - - 0;
#X text 700 327 amp;
#X obj 771 232 sig~;
#X obj 771 258 lop~;
#X obj 771 283 snapshot~;
#X floatatom 771 304 5 0 0 0 - - - 0;
#X text 770 327 cos;
#X obj 1007 198 unpack 0 0 0 0;
#X obj 1007 198 unpack 0 0 0 0;
#X obj 1007 198 unpack 0 0 0 0;
#X obj 1007 198 unpack 0 0 0 0;
#X obj 942 232 sig~;
#X obj 942 258 lop~;
#X obj 942 283 snapshot~;
#X floatatom 942 304 5 0 0 0 - - - 0;
#X text 941 327 freq;
#X obj 1012 232 sig~;
#X obj 1012 258 lop~;
#X obj 1012 283 snapshot~;
#X floatatom 1012 304 5 0 0 0 - - - 0;
#X text 1011 327 amp;
#X obj 1082 232 sig~;
#X obj 1082 258 lop~;
#X obj 1082 283 snapshot~;
#X floatatom 1082 304 5 0 0 0 - - - 0;
#X text 1081 327 cos;
#X obj 1007 198 unpack 0 0 0 0;
#X obj 1007 198 unpack 0 0 0 0;
#X obj 1007 198 unpack 0 0 0 0;
#X obj 1007 198 unpack 0 0 0 0;
#X obj 942 232 sig~;
#X obj 942 258 lop~;
#X obj 942 283 snapshot~;
#X floatatom 942 304 5 0 0 0 - - - 0;
#X text 941 327 freq;
#X obj 1012 232 sig~;
#X obj 1012 258 lop~;
#X obj 1012 283 snapshot~;
#X floatatom 1012 304 5 0 0 0 - - - 0;
#X text 1011 327 amp;
#X obj 1082 232 sig~;
#X obj 1082 258 lop~;
#X obj 1082 283 snapshot~;
#X floatatom 1082 304 5 0 0 0 - - - 0;
#X text 1081 327 cos;
#X obj 1283 198 unpack 0 0 0 0;
#X obj 1283 198 unpack 0 0 0 0;
#X obj 1283 198 unpack 0 0 0 0;
#X obj 1283 198 unpack 0 0 0 0;
#X obj 1218 232 sig~;
#X obj 1218 258 lop~;
#X obj 1218 283 snapshot~;
#X floatatom 1218 304 5 0 0 0 - - - 0;
#X text 1217 327 freq;
#X obj 1288 232 sig~;
#X obj 1288 258 lop~;
#X obj 1288 283 snapshot~;
#X floatatom 1288 304 5 0 0 0 - - - 0;
#X text 1287 327 amp;
#X obj 1358 232 sig~;
#X obj 1358 258 lop~;
#X obj 1358 283 snapshot~;
#X floatatom 1358 304 5 0 0 0 - - - 0;
#X text 1357 327 cos;
#X obj 40 647 s \$0-sld-1-s;
#X obj 539 183 nbx 5 14 -1e+37 1e+37 0 0 lop_freq_simmetrymod empty empty 0 -8 0 10 #fcfcfc #000000 #000000 0 256;
#X obj 965 115 route 0 1 2 3;
#X obj 966 75 sigmund~ -npeak 4 peaks;
#X obj 1543 198 unpack 0 0 0 0;
#X obj 1543 198 unpack 0 0 0 0;
#X obj 1543 198 unpack 0 0 0 0;
#X obj 1543 198 unpack 0 0 0 0;
#X obj 1543 232 sig~;
#X obj 1543 258 lop~;
#X obj 1543 283 snapshot~;
#X floatatom 1543 304 5 0 0 0 - - - 0;
#X text 1542 327 freq;
#X obj 746 466 /;
#X obj 1053 463 /;
#X obj 1530 380 /;
#X obj 480 232 r lop_freq_simmetrymod;
#X obj 631 429 * 20;
#X obj 631 449 - 10;
#X obj 942 431 * 20;
#X obj 942 451 - 10;
#X obj 1218 414 * 20;
#X obj 1218 434 - 10;
#X obj 691 410 clip 0 1;
#X obj 691 430 * 200;
#X obj 691 450 - 100;
#X obj 1001 400 clip 0 1;
#X obj 1001 420 * 200;
#X obj 1001 440 - 100;
#X obj 1271 400 clip 0 1;
#X obj 1271 420 * 200;
#X obj 1271 440 - 100;
#X obj 841 232 sig~;
#X obj 841 258 lop~;
#X obj 841 283 snapshot~;
#X floatatom 841 304 5 0 0 0 - - - 0;
#X text 840 327 sin;
#X obj 771 369 + 1;
#X obj 771 389 / 2;
#X obj 771 409 * 200;
#X obj 771 429 - 100;
#X obj 841 369 + 1;
#X obj 841 389 / 2;
#X obj 841 409 * 200;
#X obj 841 429 - 100;
#X obj 1081 369 + 1;
#X obj 1081 389 / 2;
#X obj 1081 409 * 200;
#X obj 1081 429 - 100;
#X obj 1145 232 sig~;
#X obj 1145 258 lop~;
#X obj 1145 283 snapshot~;
#X floatatom 1145 304 5 0 0 0 - - - 0;
#X text 1144 327 sin;
#X obj 1145 369 + 1;
#X obj 1145 389 / 2;
#X obj 1145 409 * 200;
#X obj 1145 429 - 100;
#X obj 1351 369 + 1;
#X obj 1351 389 / 2;
#X obj 1351 409 * 200;
#X obj 1351 429 - 100;
#X obj 1401 369 + 1;
#X obj 1401 389 / 2;
#X obj 1401 409 * 200;
#X obj 1401 429 - 100;
#X obj 1418 232 sig~;
#X obj 1418 258 lop~;
#X obj 1418 283 snapshot~;
#X floatatom 1418 304 5 0 0 0 - - - 0;
#X text 1417 327 sin;
#X obj 631 379 clip 0 20000;
#X obj 942 378 clip 0 20000;
#X obj 1218 374 clip 0 20000;
#X obj 631 406 / 20000;
#X obj 942 403 / 20000;
#X obj 1218 394 / 20000;
#X obj 912 171 print;
#X obj 166 639 s \$0-sld-1-s;
#X obj 268 637 s \$0-sld-1-s;
#X obj 384 603 s \$0-sld-1-s;
#X obj 805 628 s \$0-sld-1-s;
#X obj 1249 657 s \$0-sld-1-s;
#X obj 1777 675 s \$0-sld-1-s;
#X obj 40 603 s _scaleBaseGroupX;
#X obj 154 603 s _scaleBaseGroupY;
#X obj 268 603 s _scaleBaseGroupZ;
#X obj 393 623 s _translateBaseGroupX;
#X obj 524 603 s _translateBaseGroupY;
#X obj 664 633 s _translateBaseGroupZ;
#X obj 844 664 s _scaleHierarchyGroup1X;
#X obj 977 638 s _scaleHierarchyGroup1Y;
#X obj 1098 603 s _scaleHierarchyGroup1Z;
#X obj 1249 642 s _translateHierarchyGroup1X;
#X obj 1424 642 s _translateHierarchyGroup1Y;
#X obj 1592 602 s _translateHierarchyGroup1Z;
#X obj 1772 602 s _translateHierarchyGroup2X;
#X obj 1948 602 s _translateHierarchyGroup2Y;
#X obj 2128 602 s _translateHierarchyGroup2Z;
#X obj 966 31 inlet~;
#X obj 439 133 loadbang;
#X msg 439 154 1;
#X obj 342 499 s _colourHue;
#X floatatom 360 424 5 0 0 0 - - - 0;
#X obj 435 406 - 10;
#X obj 407 304 expr $f1 - 40;
#X obj 416 355 / 4000;
#X obj 314 345 pow;
#X obj 360 444 i;
#X floatatom 314 431 5 0 0 0 - - - 0;
#X obj 435 386 * 400;
#X obj 196 366 ctlin;
#X floatatom 196 387 5 0 0 0 - - - 0;
#X obj 257 424 * 2;
#X obj 917 959 / 127;
#X obj 917 988 s chaosLevel;
#X obj 1057 959 / 127;
#X obj 1057 988 s puntare;
#X obj 655 944 r m_button3;
#X obj 739 967 s is_multiplication;
#X obj 952 1194 / 127;
#X obj 997 1215 * 5;
#X obj 943 1317 s replica_level;
#X obj 963 1243 int;
#X obj 696 973 bng 15 250 50 0 empty empty empty 17 7 0 10 #fcfcfc #000000 #000000;
#X floatatom 969 1271 5 0 0 0 - - - 0;
#X obj 1057 1314 sel 5;
#X obj 1134 1437 s color_scheme;
#X msg 1048 1341 0;
#X msg 1122 1361 1;
#X obj 1147 1316 sel 4;
#X obj 1206 1337 bng 15 250 50 0 empty empty empty 17 7 0 10 #fcfcfc #000000 #000000;
#X msg 1185 1361 2;
#X obj 1027 1260 t f f;
#X msg 1105 1278 1;
#X connect 3 0 4 0;
#X connect 3 0 198 0;
#X connect 3 1 11 0;
#X connect 3 1 192 0;
#X connect 3 2 16 0;
#X connect 3 3 110 0;
#X connect 4 0 5 0;
#X connect 5 0 6 0;
#X connect 6 0 9 0;
#X connect 6 0 91 0;
#X connect 6 0 92 0;
#X connect 6 0 93 0;
#X connect 6 0 149 0;
#X connect 7 0 6 0;
#X connect 7 0 88 0;
#X connect 7 0 75 0;
#X connect 7 0 70 0;
#X connect 7 0 65 0;
#X connect 7 0 56 0;
#X connect 7 0 51 0;
#X connect 7 0 46 0;
#X connect 7 0 37 0;
#X connect 7 0 32 0;
#X connect 7 0 27 0;
#X connect 7 0 18 0;
#X connect 7 0 13 0;
#X connect 7 0 112 0;
#X connect 7 0 146 0;
#X connect 7 0 129 0;
#X connect 8 0 7 0;
#X connect 11 0 12 0;
#X connect 12 0 13 0;
#X connect 13 0 14 0;
#X connect 13 0 101 0;
#X connect 16 0 17 0;
#X connect 17 0 18 0;
#X connect 18 0 19 0;
#X connect 18 0 115 0;
#X connect 24 0 25 0;
#X connect 24 1 30 0;
#X connect 24 2 35 0;
#X connect 25 0 26 0;
#X connect 26 0 27 0;
#X connect 27 0 28 0;
#X connect 30 0 31 0;
#X connect 31 0 32 0;
#X connect 32 0 33 0;
#X connect 35 0 36 0;
#X connect 36 0 37 0;
#X connect 37 0 38 0;
#X connect 43 0 44 0;
#X connect 43 1 49 0;
#X connect 43 1 194 0;
#X connect 43 2 54 0;
#X connect 43 3 127 0;
#X connect 44 0 45 0;
#X connect 45 0 46 0;
#X connect 46 0 47 0;
#X connect 46 0 91 1;
#X connect 46 0 150 0;
#X connect 49 0 50 0;
#X connect 50 0 51 0;
#X connect 51 0 52 0;
#X connect 51 0 104 0;
#X connect 54 0 55 0;
#X connect 55 0 56 0;
#X connect 56 0 57 0;
#X connect 56 0 123 0;
#X connect 62 0 63 0;
#X connect 62 1 68 0;
#X connect 62 2 73 0;
#X connect 62 3 144 0;
#X connect 63 0 64 0;
#X connect 64 0 65 0;
#X connect 65 0 66 0;
#X connect 65 0 92 1;
#X connect 65 0 151 0;
#X connect 68 0 69 0;
#X connect 69 0 70 0;
#X connect 70 0 71 0;
#X connect 70 0 107 0;
#X connect 73 0 74 0;
#X connect 74 0 75 0;
#X connect 75 0 76 0;
#X connect 75 0 136 0;
#X connect 80 0 3 0;
#X connect 80 1 43 0;
#X connect 80 2 62 0;
#X connect 80 3 85 0;
#X connect 81 0 80 0;
#X connect 81 0 79 0;
#X connect 85 0 86 0;
#X connect 86 0 87 0;
#X connect 87 0 88 0;
#X connect 88 0 89 0;
#X connect 88 0 93 1;
#X connect 94 0 5 1;
#X connect 94 0 87 1;
#X connect 94 0 74 1;
#X connect 94 0 69 1;
#X connect 94 0 64 1;
#X connect 94 0 55 1;
#X connect 94 0 50 1;
#X connect 94 0 45 1;
#X connect 94 0 36 1;
#X connect 94 0 31 1;
#X connect 94 0 26 1;
#X connect 94 0 17 1;
#X connect 94 0 12 1;
#X connect 94 0 111 1;
#X connect 94 0 145 1;
#X connect 94 0 128 1;
#X connect 95 0 96 0;
#X connect 97 0 98 0;
#X connect 99 0 100 0;
#X connect 101 0 102 0;
#X connect 102 0 103 0;
#X connect 104 0 105 0;
#X connect 105 0 106 0;
#X connect 107 0 108 0;
#X connect 108 0 109 0;
#X connect 110 0 111 0;
#X connect 111 0 112 0;
#X connect 112 0 113 0;
#X connect 112 0 119 0;
#X connect 115 0 116 0;
#X connect 116 0 117 0;
#X connect 117 0 118 0;
#X connect 119 0 120 0;
#X connect 120 0 121 0;
#X connect 121 0 122 0;
#X connect 123 0 124 0;
#X connect 124 0 125 0;
#X connect 125 0 126 0;
#X connect 127 0 128 0;
#X connect 128 0 129 0;
#X connect 129 0 130 0;
#X connect 129 0 132 0;
#X connect 132 0 133 0;
#X connect 133 0 134 0;
#X connect 134 0 135 0;
#X connect 136 0 137 0;
#X connect 137 0 138 0;
#X connect 138 0 139 0;
#X connect 140 0 141 0;
#X connect 141 0 142 0;
#X connect 142 0 143 0;
#X connect 144 0 145 0;
#X connect 145 0 146 0;
#X connect 146 0 147 0;
#X connect 146 0 140 0;
#X connect 149 0 152 0;
#X connect 149 0 184 0;
#X connect 150 0 153 0;
#X connect 151 0 154 0;
#X connect 152 0 95 0;
#X connect 152 0 188 0;
#X connect 153 0 97 0;
#X connect 154 0 99 0;
#X connect 177 0 81 0;
#X connect 178 0 179 0;
#X connect 179 0 8 0;
#X connect 181 0 186 0;
#X connect 183 0 184 0;
#X connect 184 0 188 0;
#X connect 188 0 182 0;
#X connect 188 0 181 0;
#X connect 189 0 190 0;
#X connect 190 0 191 0;
#X connect 192 0 193 0;
#X connect 194 0 195 0;
#X connect 196 0 202 0;
#X connect 198 0 199 0;
#X connect 199 0 201 0;
#X connect 201 0 203 0;
#X connect 201 0 211 0;
#X connect 201 0 200 0;
#X connect 202 0 197 0;
#X connect 204 0 206 0;
#X connect 204 1 208 0;
#X connect 206 0 205 0;
#X connect 207 0 205 0;
#X connect 208 0 207 0;
#X connect 208 0 212 0;
#X connect 208 1 209 0;
#X connect 209 0 210 0;
#X connect 210 0 205 0;
#X connect 211 0 204 0;
#X connect 211 1 200 0;
#X connect 212 0 200 0;
#X restore 52 465 pd simmetry_modifiers;
#N canvas 575 167 1985 1245 pointsize 0;
#X obj 40 300 s _ifsPointSize;
#X obj 40 168 / 100;
#X obj 40 190 * 8;
#X obj 40 210 max 1;
#X obj 40 232 int;
#X floatatom 77 263 5 0 0 0 - - - 0;
#X floatatom 99 188 5 0 0 0 - - - 0;
#X obj 40 122 lop~;
#X obj 61 80 loadbang;
#X msg 62 102 0.5;
#X obj 13 26 inlet~;
#X obj 40 145 env~ 16;
#X obj 231 147 touchin;
#X floatatom 231 168 5 0 0 0 - - - 0;
#X obj 231 188 / 127;
#X floatatom 280 303 5 0 0 0 - - - 0;
#X floatatom 289 239 5 0 0 0 - - - 0;
#X obj 231 248 max 1;
#X obj 313 284 s _motionBlurOpacity;
#X obj 231 227 * 2;
#X listbox 352 251 20 0 0 0 - - - 0;
#X obj 364 205 expr ($i1 - 127)*-2;
#X connect 1 0 2 0;
#X connect 1 0 6 0;
#X connect 2 0 3 0;
#X connect 4 0 5 0;
#X connect 7 0 11 0;
#X connect 8 0 9 0;
#X connect 9 0 7 1;
#X connect 10 0 7 0;
#X connect 11 0 1 0;
#X connect 12 0 13 0;
#X connect 13 0 14 0;
#X connect 13 0 21 0;
#X connect 14 0 2 0;
#X connect 14 0 16 0;
#X connect 14 0 19 0;
#X connect 15 0 4 0;
#X connect 15 0 3 0;
#X connect 19 0 17 0;
#X restore 197 465 pd pointsize;
#X obj 86 515 s _cameraOneLookAtX;
#X obj 273 515 s _cameraOneLookAtY;
#N canvas 1148 751 1090 560 audiotester 0;
#X obj 40 116 player testProcessing;
#X msg 297 117 \; testProcessing startpos 0 \; testProcessing pitch 1 \; testProcessing envelope 1 50 \; testProcessing dur \;;
#N canvas 0 0 450 300 audiofile 0;
#X obj 42 198 soundfiler;
#X obj 42 179 r to_soundfiler;
#X msg 44 127 \; to_soundfiler read -resize \$1 array1 \;;
#X obj 44 102 openpanel;
#X obj 44 80 bng 15 250 50 0 empty empty empty 17 7 0 10 #fcfcfc #000000 #000000;
#N canvas 0 0 450 300 (subpatch) 0;
#X array array1 100 float 5;
#A 0 0 0 0 0 0 0 0 0 0 0 0 0 0 0 0 0 0 0 0 0 0 0 0 0 0 0 0 0 0 0 0 0 0 0 0 0 0 0 0 0 0 0 0 0 0 0 0 0 0 0 0 0 0 0 0 0 0 0 0 0 0 0 0 0 0 0 0 0 0 0 0 0 0 0 0 0 0 0 0 0 0 0 0 0 0 0 0 0 0 0 0 0 0 0 0 0 0 0 0 0;
#X coords 0 1 99 -1 200 140 1;
#X restore 40 222 graph;
#X connect 1 0 0 0;
#X connect 3 0 2 0;
#X connect 4 0 3 0;
#X restore 112 92 pd audiofile;
#X obj 617 179 phasor~;
#X obj 617 203 *~ 2;
#X obj 617 223 -~ 1;
#X floatatom 617 158 5 0 0 0 - - - 0;
#X obj 683 251 env~;
#X floatatom 676 277 5 0 0 0 - - - 0;
#X obj 609 128 line;
#X msg 609 87 20000 10000;
#X msg 698 88 0 10000;
#X obj 769 107 metro 10000;
#X obj 778 159 f;
#X obj 809 159 + 1;
#X obj 781 185 mod 2;
#X obj 764 80 tgl 15 0 empty empty empty 17 7 0 10 #fcfcfc #000000 #000000 0 1;
#X obj 781 214 sel 0 1;
#X obj 747 274 osc~;
#X obj 748 295 +~ 1;
#X obj 746 318 *~ 0.5;
#X obj 690 349 *~;
#X msg 747 251 1;
#X obj 505 400 outlet~;
#X obj 559 54 adc~ 5 6;
#X connect 3 0 4 0;
#X connect 4 0 5 0;
#X connect 5 0 7 0;
#X connect 5 0 21 0;
#X connect 6 0 3 0;
#X connect 7 0 8 0;
#X connect 9 0 6 0;
#X connect 10 0 9 0;
#X connect 11 0 9 0;
#X connect 12 0 13 0;
#X connect 13 0 14 0;
#X connect 13 0 15 0;
#X connect 14 0 13 1;
#X connect 15 0 17 0;
#X connect 16 0 12 0;
#X connect 17 0 10 0;
#X connect 17 1 11 0;
#X connect 18 0 19 0;
#X connect 19 0 20 0;
#X connect 20 0 21 1;
#X connect 22 0 18 0;
#X connect 24 0 23 0;
#X connect 24 1 23 0;
#X restore 142 232 pd audiotester;
#X obj 393 331 env~;
#X obj 132 374 *~;
#X obj 325 438 line~;
#X floatatom 410 393 5 0 0 0 - - - 0;
#X floatatom 515 271 5 0 0 0 - - - 0;
#X obj 393 364 expr if ( $f1 > $f2 \, 1 \, 0 );
#X obj 625 273 vsl 16 136 0 127 0 0 empty empty empty 0 -9 0 10 #fcfcfc #000000 #000000 0 1;
#X msg 341 407 \$1 5;
#X connect 7 0 9 0;
#X connect 7 0 8 0;
#X connect 8 0 13 0;
#X connect 9 0 4 0;
#X connect 9 0 3 0;
#X connect 10 0 9 1;
#X connect 12 0 13 1;
#X connect 13 0 15 0;
#X connect 13 0 11 0;
#X connect 14 0 12 0;
#X connect 15 0 10 0;
