#N canvas 1898 70 191 224 12;
#N canvas 165 146 920 410 Filtri 0;
#X obj 466 148 hip~;
#X obj 109 147 lop~;
#X obj 287 148 bp~;
#X obj 661 149 vcf~;
#X obj 108 28 inlet~;
#X obj 616 246 outlet~;
#X floatatom 134 112 5 0 0 0 Cut-off(Hz) - -;
#X floatatom 491 112 5 0 0 0 Cut-off(Hz) - -;
#X floatatom 313 112 5 0 10 0 Q - -;
#X floatatom 296 89 5 0 0 0 Center(Hz) - -;
#X floatatom 676 111 5 0 0 0 Q - -;
#X floatatom 659 88 5 0 0 0 Center(Hz) - -;
#N canvas 0 50 450 250 (subpatch) 0;
#X array Filtri 1000 float 2;
#X coords 0 1 1000 -1 200 140 1;
#X restore 693 223 graph;
#X obj 35 208 metro 100;
#X obj 35 185 tgl 15 0 empty empty empty 17 7 0 10 -262144 -1 -1 0
1;
#X obj 288 27 inlet~;
#X obj 467 35 inlet~;
#X obj 662 27 inlet~;
#X obj 108 227 tabwrite~ Filtri;
#X connect 0 0 5 0;
#X connect 0 0 18 0;
#X connect 1 0 5 0;
#X connect 1 0 18 0;
#X connect 2 0 5 0;
#X connect 2 0 18 0;
#X connect 3 0 5 0;
#X connect 3 0 18 0;
#X connect 4 0 1 0;
#X connect 6 0 1 1;
#X connect 7 0 0 1;
#X connect 8 0 2 2;
#X connect 9 0 2 1;
#X connect 13 0 18 0;
#X connect 14 0 13 0;
#X connect 15 0 2 0;
#X connect 16 0 0 0;
#X connect 17 0 3 0;
#X restore 373 132 pd Filtri;
#N canvas 1366 421 1874 322 Network 0;
#X obj 15 17 netreceive -u -b 10000;
#X obj 15 42 oscparse;
#X obj 15 71 list trim;
#X obj 15 174 s c1f_carrier;
#X obj 89 152 s c1a_master;
#X obj 149 209 s c1f_mod1;
#X obj 217 241 s c1f_mod2;
#X obj 284 264 s c1f_mod3;
#X obj 487 268 s c1a_mod3;
#X obj 419 246 s c1a_mod2;
#X obj 352 219 s c1a_mod1;
#X obj 1094 188 s c3f_saw1;
#X obj 1162 216 s c3f_saw2;
#X obj 1499 180 s c3a_saw1;
#X obj 1567 207 s c3a_saw2;
#X obj 1904 248 s c3a_master;
#X obj 1297 214 s c3f_quad2;
#X obj 1229 238 s c3f_quad1;
#X obj 1364 241 s c3f_sin;
#X obj 1432 263 s c3f_tri;
#X obj 1702 269 s c3a_quad2;
#X obj 1769 242 s c3a_sin;
#X obj 1837 270 s c3a_tri;
#X obj 1634 246 s c3a_quad1;
#X obj 554 174 s c2f_carrier;
#X obj 622 150 s c2a_master;
#X obj 689 209 s c2f_mod1;
#X obj 758 241 s c2f_mod2;
#X obj 824 266 s c2f_mod3;
#X obj 892 219 s c2a_mod1;
#X obj 959 246 s c2a_mod2;
#X obj 1027 270 s c2a_mod3;
#X obj 15 114 route c1f_carrier c1a_master c1f_mod1 c1f_mod2 c1f_mod3
c1a_mod1 c1a_mod2 c1a_mod3 c2f_carrier c2a_master c2f_mod1 c2f_mod2
c2f_mod3 c2a_mod1 c2a_mod2 c2a_mod3 c3f_saw1 c3f_saw2 c3f_quad1 c3f_quad2
c3f_sin c3f_tri c3a_saw1 c3a_saw2 c3a_quad1 c3a_quad2 c3a_sin c3a_tri
c3a_master c3f_saw2_gl c3f_quad1_gl c3f_quad2_gl, f 321;
#X obj 2012 179 s c3f_saw2_gl;
#X obj 2065 228 s c3f_quad1_gl;
#X obj 2088 264 s c3f_quad2_gl;
#X connect 0 0 1 0;
#X connect 1 0 2 0;
#X connect 2 0 32 0;
#X connect 32 0 3 0;
#X connect 32 1 4 0;
#X connect 32 2 5 0;
#X connect 32 3 6 0;
#X connect 32 4 7 0;
#X connect 32 5 10 0;
#X connect 32 6 9 0;
#X connect 32 7 8 0;
#X connect 32 8 24 0;
#X connect 32 9 25 0;
#X connect 32 10 26 0;
#X connect 32 11 27 0;
#X connect 32 12 28 0;
#X connect 32 13 29 0;
#X connect 32 14 30 0;
#X connect 32 15 31 0;
#X connect 32 16 11 0;
#X connect 32 17 12 0;
#X connect 32 18 17 0;
#X connect 32 19 16 0;
#X connect 32 20 18 0;
#X connect 32 21 19 0;
#X connect 32 22 13 0;
#X connect 32 23 14 0;
#X connect 32 24 23 0;
#X connect 32 25 20 0;
#X connect 32 26 21 0;
#X connect 32 27 22 0;
#X connect 32 28 15 0;
#X connect 32 29 33 0;
#X connect 32 30 34 0;
#X connect 32 31 35 0;
#X restore 10 18 pd Network;
#N canvas -8 -8 1366 695 Camera2 0;
#X obj 8 350 sig~;
#X floatatom 8 321 5 0 0 1 Hz - -;
#X obj 7 402 +~;
#X obj 28 579 hsl 128 15 0 1.3 0 0 empty empty empty -2 -8 0 10 -99865
-1 -1 0 1;
#X obj 152 253 sig~;
#X floatatom 152 230 5 0 0 1 Hz - -;
#X obj 151 290 +~;
#X obj 151 382 *~;
#X obj 172 362 hsl 128 15 0 5000 0 0 empty empty empty -2 -8 0 10 -228856
-1 -1 127 1;
#X floatatom 45 594 5 0 0 0 - - -;
#X floatatom 184 377 5 0 0 0 - - -;
#X obj 259 176 sig~;
#X floatatom 259 152 5 0 0 1 Hz - -;
#X obj 258 211 +~;
#X obj 258 303 *~;
#X obj 279 283 hsl 128 15 0 5000 0 0 empty empty empty -2 -8 0 10 -228856
-1 -1 300 1;
#X floatatom 291 298 5 0 0 0 - - -;
#X obj 373 100 sig~;
#X floatatom 373 77 5 0 0 1 Hz - -;
#X obj 372 135 +~;
#X obj 372 248 *~;
#X obj 393 222 hsl 128 15 0 5000 0 0 empty empty empty -2 -8 0 10 -228856
-1 -1 100 1;
#X floatatom 405 237 5 0 0 0 - - -;
#N canvas 2538 447 450 250 (subpatch) 0;
#X array Camera2 400 float 4;
#X coords 0 1 399 -1 400 170 1 0 0;
#X restore 170 520 graph;
#X obj 7 610 *~;
#X obj 40 649 metro 100;
#X obj 40 631 tgl 15 0 empty empty empty 17 7 0 10 -262144 -1 -1 0
1;
#X obj 7 700 outlet~;
#X obj 8 453 phasor~;
#X obj 7 674 tabwrite~ Camera2;
#X obj 151 328 osc~;
#X obj 372 173 phasor~;
#X obj 258 249 osc~;
#X obj 8 295 r c2f_carrier;
#X obj 152 151 r c2f_mod1;
#X obj 259 80 r c2f_mod2;
#X obj 373 4 r c2f_mod3;
#X msg 25 535 \$1 4400;
#X obj 25 510 r c2a_master;
#X obj 226 380 r c2a_mod1;
#X msg 337 327 \$1 4400;
#X obj 337 303 r c2a_mod2;
#X msg 460 265 \$1 4400;
#X obj 460 240 r c2a_mod3;
#X obj 371 198 expr~ (min($v1 \, 1 -$v1) - 0.25) * 4;
#X obj 152 200 line 0 10;
#X msg 152 176 \$1 \$1;
#X obj 259 128 line 0 10;
#X msg 259 104 \$1 \$1;
#X obj 373 52 line 0 10;
#X msg 373 28 \$1 \$1;
#X obj 8 482 expr~ (min($v1 \, 1 -$v1) - 0.25) * 4;
#X obj 226 427 line 0 10;
#X obj 337 350 line 0 10;
#X obj 460 287 line 0 10;
#X obj 25 558 line 0 10;
#X obj 92 615 line~ 0 5;
#X msg 226 404 50 4400;
#X msg 283 462 \$1 15;
#X obj 283 484 line~;
#X msg 393 402 \$1 15;
#X obj 393 424 line~;
#X msg 483 352 \$1 15;
#X obj 483 374 line~;
#X connect 0 0 2 0;
#X connect 1 0 0 0;
#X connect 2 0 28 0;
#X connect 3 0 9 0;
#X connect 3 0 56 0;
#X connect 4 0 6 0;
#X connect 5 0 4 0;
#X connect 6 0 30 0;
#X connect 7 0 2 1;
#X connect 8 0 10 0;
#X connect 8 0 58 0;
#X connect 11 0 13 0;
#X connect 12 0 11 0;
#X connect 13 0 32 0;
#X connect 14 0 6 1;
#X connect 15 0 16 0;
#X connect 15 0 60 0;
#X connect 17 0 19 0;
#X connect 18 0 17 0;
#X connect 19 0 31 0;
#X connect 20 0 13 1;
#X connect 21 0 22 0;
#X connect 21 0 62 0;
#X connect 24 0 27 0;
#X connect 24 0 29 0;
#X connect 25 0 29 0;
#X connect 26 0 25 0;
#X connect 28 0 51 0;
#X connect 30 0 7 0;
#X connect 31 0 44 0;
#X connect 32 0 14 0;
#X connect 33 0 1 0;
#X connect 34 0 46 0;
#X connect 35 0 48 0;
#X connect 36 0 50 0;
#X connect 37 0 55 0;
#X connect 38 0 37 0;
#X connect 39 0 57 0;
#X connect 40 0 53 0;
#X connect 41 0 40 0;
#X connect 42 0 54 0;
#X connect 43 0 42 0;
#X connect 44 0 20 0;
#X connect 45 0 5 0;
#X connect 46 0 45 0;
#X connect 47 0 12 0;
#X connect 48 0 47 0;
#X connect 49 0 18 0;
#X connect 50 0 49 0;
#X connect 51 0 24 0;
#X connect 52 0 8 0;
#X connect 53 0 15 0;
#X connect 54 0 21 0;
#X connect 55 0 3 0;
#X connect 56 0 24 1;
#X connect 57 0 52 0;
#X connect 58 0 59 0;
#X connect 59 0 7 1;
#X connect 60 0 61 0;
#X connect 61 0 14 1;
#X connect 62 0 63 0;
#X connect 63 0 20 1;
#X restore 44 75 pd Camera2;
#N canvas -10 18 630 695 Camera1 0;
#X obj 16 447 osc~;
#X obj 17 356 sig~;
#X floatatom 17 327 5 0 0 1 Hz - -;
#X obj 16 409 +~;
#X obj 47 535 hsl 128 15 0 1.3 0 0 empty empty empty -2 -8 0 10 -99865
-1 -1 0 1;
#X obj 148 337 osc~;
#X obj 149 244 sig~;
#X floatatom 149 215 5 0 0 1 Hz - -;
#X obj 148 299 +~;
#X obj 148 391 *~;
#X obj 169 371 hsl 128 15 0 5000 0 0 empty empty empty -2 -8 0 10 -228856
-1 -1 500 1;
#X floatatom 112 550 5 0 0 0 - - -;
#X floatatom 181 386 5 0 0 0 - - -;
#X obj 257 269 osc~;
#X obj 258 176 sig~;
#X floatatom 258 147 5 0 0 1 Hz - -;
#X obj 257 231 +~;
#X obj 257 323 *~;
#X obj 278 303 hsl 128 15 0 5000 0 0 empty empty empty -2 -8 0 10 -228856
-1 -1 3498 1;
#X floatatom 290 318 5 0 0 0 - - -;
#X obj 371 212 osc~;
#X obj 372 119 sig~;
#X floatatom 372 90 5 0 0 1 Hz - -;
#X obj 371 174 +~;
#X obj 370 266 *~;
#X obj 391 246 hsl 128 15 0 5000 0 0 empty empty empty -2 -8 0 10 -228856
-1 -1 12700 1;
#X floatatom 404 261 5 0 0 0 - - -;
#X obj 16 563 *~;
#X obj 16 627 tabwrite~ Camera1;
#X obj 72 607 metro 100;
#X obj 72 589 tgl 15 0 empty empty empty 17 7 0 10 -262144 -1 -1 0
1;
#X obj 16 651 outlet~;
#X obj 17 301 r c1f_carrier;
#X obj 44 466 r c1a_master;
#X obj 149 134 r c1f_mod1;
#X obj 258 64 r c1f_mod2;
#X obj 372 7 r c1f_mod3;
#X obj 430 287 r c1a_mod3;
#X obj 319 343 r c1a_mod2;
#X obj 206 408 r c1a_mod1;
#X obj 319 391 line 0 10;
#X obj 430 334 line 0 10;
#X obj 206 455 line 0 10;
#X obj 44 514 line 0 10;
#X obj 149 183 line 0 10;
#X msg 149 159 \$1 \$1;
#X obj 258 114 line 0 10;
#X msg 258 90 \$1 \$1;
#X obj 372 55 line 0 10;
#X msg 372 31 \$1 \$1;
#N canvas 2070 347 550 250 (subpatch) 0;
#X array Camera1 400 float 4;
#X coords 0 1 399 -1 400 170 1 0 0;
#X restore 181 492 graph;
#X msg 206 432 \$1 2440;
#X msg 319 368 \$1 2440;
#X msg 430 311 \$1 2440;
#X obj 44 574 line~;
#X msg 44 553 \$1 15;
#X obj 294 444 line~;
#X msg 294 423 \$1 15;
#X obj 395 384 line~;
#X msg 395 363 \$1 15;
#X obj 515 314 line~;
#X msg 515 293 \$1 15;
#X msg 44 491 \$1 4400;
#X connect 0 0 27 0;
#X connect 1 0 3 0;
#X connect 2 0 1 0;
#X connect 3 0 0 0;
#X connect 4 0 55 0;
#X connect 4 0 11 0;
#X connect 5 0 9 0;
#X connect 6 0 8 0;
#X connect 7 0 6 0;
#X connect 8 0 5 0;
#X connect 9 0 3 1;
#X connect 10 0 12 0;
#X connect 10 0 57 0;
#X connect 13 0 17 0;
#X connect 14 0 16 0;
#X connect 15 0 14 0;
#X connect 16 0 13 0;
#X connect 17 0 8 1;
#X connect 18 0 19 0;
#X connect 18 0 59 0;
#X connect 20 0 24 0;
#X connect 21 0 23 0;
#X connect 22 0 21 0;
#X connect 23 0 20 0;
#X connect 24 0 16 1;
#X connect 25 0 26 0;
#X connect 25 0 61 0;
#X connect 27 0 28 0;
#X connect 27 0 31 0;
#X connect 29 0 28 0;
#X connect 30 0 29 0;
#X connect 32 0 2 0;
#X connect 33 0 62 0;
#X connect 34 0 45 0;
#X connect 35 0 47 0;
#X connect 36 0 49 0;
#X connect 37 0 53 0;
#X connect 38 0 52 0;
#X connect 39 0 51 0;
#X connect 40 0 18 0;
#X connect 41 0 25 0;
#X connect 42 0 10 0;
#X connect 43 0 4 0;
#X connect 44 0 7 0;
#X connect 45 0 44 0;
#X connect 46 0 15 0;
#X connect 47 0 46 0;
#X connect 48 0 22 0;
#X connect 49 0 48 0;
#X connect 51 0 42 0;
#X connect 52 0 40 0;
#X connect 53 0 41 0;
#X connect 54 0 27 1;
#X connect 55 0 54 0;
#X connect 56 0 9 1;
#X connect 57 0 56 0;
#X connect 58 0 17 1;
#X connect 59 0 58 0;
#X connect 60 0 24 1;
#X connect 61 0 60 0;
#X connect 62 0 43 0;
#X restore 9 54 pd Camera1;
#N canvas 64 62 1256 485 Camera3 0;
#X obj 329 122 phasor~;
#X obj 166 127 phasor~;
#X obj 166 223 *~;
#X obj 553 353 *~;
#X obj 330 241 *~;
#X obj 167 102 sig~;
#X obj 329 96 sig~;
#X floatatom 167 78 5 0 0 1 Hz - -;
#X floatatom 329 73 5 0 0 1 Hz - -;
#X obj 615 338 hsl 128 15 0 1 0 0 empty empty empty -2 -8 0 10 -128992
-1 -1 4699 1;
#X obj 351 204 hsl 128 15 0 1.5 0 0 empty empty empty -2 -8 0 10 -228856
-1 -1 0 1;
#X obj 187 200 hsl 128 15 0 1.5 0 0 empty empty empty -2 -8 0 10 -228856
-1 -1 0 1;
#X obj 587 426 tabwrite~ Camera3;
#X obj 587 378 tgl 15 0 empty empty empty 17 7 0 10 -262144 -1 -1 0
1;
#X obj 554 449 outlet~;
#X floatatom 203 215 5 0 0 0 - - -;
#X floatatom 375 219 5 0 0 0 - - -;
#X floatatom 631 359 5 0 0 0 - - -;
#X obj 11 128 phasor~;
#X obj 11 224 *~;
#X obj 12 103 sig~;
#X floatatom 12 79 5 0 0 1 Hz - -;
#X obj 32 201 hsl 128 15 0 1.5 0 0 empty empty empty -2 -8 0 10 -228856
-1 -1 0 1;
#X floatatom 48 216 5 0 0 0 - - -;
#X obj 12 48 r c3f_saw1;
#X obj 167 43 r c3f_saw2;
#X obj 86 108 r c3a_saw1;
#X obj 251 110 r c3a_saw2;
#X obj 612 316 line 0 10;
#X msg 612 292 \$1 4400;
#X obj 612 269 r c3a_master;
#X msg 86 131 \$1 1440;
#X msg 251 133 \$1 1440;
#X obj 552 120 phasor~;
#X obj 553 226 *~;
#X obj 552 94 sig~;
#X floatatom 552 71 5 0 0 1 Hz - -;
#X obj 574 200 hsl 128 15 0 1.5 0 0 empty empty empty -2 -8 0 10 -228856
-1 -1 0 1;
#X floatatom 598 215 5 0 0 0 - - -;
#X obj 684 162 line 0 10;
#X msg 684 138 \$1 1440;
#X obj 772 129 osc~;
#X obj 794 200 hsl 128 15 0 1.5 0 0 empty empty empty -2 -8 0 10 -228856
-1 -1 0 1;
#X floatatom 818 215 5 0 0 0 - - -;
#X obj 911 154 line 0 10;
#X msg 911 130 \$1 1440;
#X obj 773 219 *~;
#X obj 911 107 r c3a_sin;
#X obj 552 44 r c3f_quad2;
#X obj 684 115 r c3a_quad2;
#X obj 329 46 r c3f_quad1;
#X floatatom 772 76 5 0 0 1 Hz - -;
#X obj 772 44 r c3f_sin;
#X obj 981 121 phasor~;
#X obj 983 222 *~;
#X obj 981 95 sig~;
#X floatatom 981 72 5 0 0 1 Hz - -;
#X obj 1004 198 hsl 128 15 0 1.5 0 0 empty empty empty -2 -8 0 10 -228856
-1 -1 0 1;
#X floatatom 1028 213 5 0 0 0 - - -;
#X obj 1145 200 line 0 10;
#X msg 1145 176 \$1 1440;
#X obj 981 45 r c3f_tri;
#X obj 1145 119 r c3a_tri;
#X obj 982 148 expr~ (min($v1 \, 1 -$v1) - 0.25) * 4;
#N canvas 2538 447 450 250 (subpatch) 0;
#X array Camera3 2000 float 4;
#X coords 0 1 1999 -1 400 200 1 0 0;
#X restore 754 279 graph;
#X obj 250 59 line 0 10;
#X msg 250 35 \$1 1500;
#X obj 419 54 line 0 10;
#X msg 419 30 \$1 1500;
#X obj 646 52 line 0 10;
#X msg 646 28 \$1 1500;
#X obj 646 0 r c3f_quad2_gl;
#X obj 419 2 r c3f_quad1_gl;
#X obj 250 7 r c3f_saw2_gl;
#X obj 165 178 expr~ ($v1*2) - 1;
#X obj 11 178 expr~ ($v1*2) - 1;
#X obj 329 175 expr~ ($v1*2) - 1;
#X msg 468 136 1 1440;
#X msg 485 190 \$1 15;
#X obj 485 222 line~;
#X msg 267 209 \$1 15;
#X obj 250 242 line~;
#X msg 101 210 \$1 15;
#X obj 87 241 line~;
#X msg 931 198 \$1 15;
#X obj 917 217 line~;
#X msg 1091 218 \$1 15;
#X obj 1077 237 line~;
#X msg 709 200 \$1 15;
#X obj 693 219 line~;
#X obj 587 397 metro 50;
#X obj 554 168 expr~ ($v1*2) - 1;
#X obj 330 149 expr~ $v1 > 0.5;
#X obj 553 147 expr~ $v1 > 0.5;
#X obj 552 259 *~ 0.4167;
#X obj 251 157 line;
#X obj 86 155 line;
#X obj 468 160 line;
#X obj 468 113 r c3a_quad1;
#X connect 0 0 92 0;
#X connect 1 0 74 0;
#X connect 2 0 94 0;
#X connect 3 0 12 0;
#X connect 3 0 14 0;
#X connect 4 0 94 0;
#X connect 5 0 1 0;
#X connect 6 0 0 0;
#X connect 7 0 5 0;
#X connect 8 0 6 0;
#X connect 9 0 3 1;
#X connect 9 0 17 0;
#X connect 10 0 16 0;
#X connect 10 0 78 0;
#X connect 11 0 15 0;
#X connect 11 0 80 0;
#X connect 13 0 90 0;
#X connect 18 0 75 0;
#X connect 19 0 94 0;
#X connect 20 0 18 0;
#X connect 21 0 20 0;
#X connect 22 0 23 0;
#X connect 22 0 82 0;
#X connect 24 0 21 0;
#X connect 25 0 7 0;
#X connect 26 0 31 0;
#X connect 27 0 32 0;
#X connect 28 0 9 0;
#X connect 29 0 28 0;
#X connect 30 0 29 0;
#X connect 31 0 96 0;
#X connect 32 0 95 0;
#X connect 33 0 93 0;
#X connect 34 0 94 0;
#X connect 35 0 33 0;
#X connect 36 0 35 0;
#X connect 37 0 38 0;
#X connect 37 0 88 0;
#X connect 39 0 37 0;
#X connect 40 0 39 0;
#X connect 41 0 46 0;
#X connect 42 0 43 0;
#X connect 42 0 84 0;
#X connect 44 0 42 0;
#X connect 45 0 44 0;
#X connect 46 0 94 0;
#X connect 47 0 45 0;
#X connect 48 0 36 0;
#X connect 49 0 40 0;
#X connect 50 0 8 0;
#X connect 51 0 41 0;
#X connect 52 0 51 0;
#X connect 53 0 63 0;
#X connect 54 0 94 0;
#X connect 55 0 53 0;
#X connect 56 0 55 0;
#X connect 57 0 58 0;
#X connect 57 0 86 0;
#X connect 59 0 57 0;
#X connect 60 0 59 0;
#X connect 61 0 56 0;
#X connect 62 0 60 0;
#X connect 63 0 54 0;
#X connect 65 0 7 0;
#X connect 66 0 65 0;
#X connect 67 0 8 0;
#X connect 68 0 67 0;
#X connect 69 0 36 0;
#X connect 70 0 69 0;
#X connect 71 0 70 0;
#X connect 72 0 68 0;
#X connect 73 0 66 0;
#X connect 74 0 2 0;
#X connect 75 0 19 0;
#X connect 76 0 4 0;
#X connect 77 0 97 0;
#X connect 78 0 79 0;
#X connect 79 0 4 1;
#X connect 80 0 81 0;
#X connect 81 0 2 1;
#X connect 82 0 83 0;
#X connect 83 0 19 1;
#X connect 84 0 85 0;
#X connect 85 0 46 1;
#X connect 86 0 87 0;
#X connect 87 0 54 1;
#X connect 88 0 89 0;
#X connect 89 0 34 1;
#X connect 90 0 12 0;
#X connect 91 0 34 0;
#X connect 92 0 76 0;
#X connect 93 0 91 0;
#X connect 94 0 3 0;
#X connect 95 0 11 0;
#X connect 96 0 22 0;
#X connect 97 0 10 0;
#X connect 98 0 77 0;
#X restore 78 97 pd Camera3;
#X obj 10 179 dac~ 1 2 3;
#X connect 2 0 5 1;
#X connect 3 0 5 0;
#X connect 4 0 5 2;
