#N canvas 575 86 402 410 10;
#X obj 25 4 f;
#X obj 25 -53 tgl 15 0 empty empty empty 17 7 0 10 -262144 -1 -1 0
1;
#X obj 25 -101 r start;
#X obj 97 -70 r stop;
#X obj 255 5 f;
#X obj 255 -51 tgl 15 0 empty empty empty 17 7 0 10 -262144 -1 -1 0
1;
#X obj 255 -99 r start;
#X obj 327 -68 r stop;
#X obj 25 150 outlet;
#X obj 255 150 outlet;
#X obj 108 198 bng 15 50 50 0 empty empty x 17 7 0 10 -262144 -1 -1
;
#X obj 108 218 bng 15 50 50 0 empty empty y 17 7 0 10 -262144 -1 -1
;
#X floatatom 137 198 5 0 0 0 - - -;
#X floatatom 179 199 3 0 0 0 - - -;
#X floatatom 179 219 3 0 0 3 cicli - -;
#X floatatom 137 219 5 0 0 3 pos. - -;
#X obj 25 69 mod 665;
#X obj 85 92 div 665;
#X obj 25 101 / 665;
#X obj 255 72 mod 1000;
#X obj 307 96 div 1000;
#X obj 255 108 / 1000;
#X obj 81 -147 inlet;
#X obj 25 -27 metro;
#X obj 255 -25 metro;
#X obj 282 5 + \$1;
#X obj 60 4 + \$1;
#X obj 72 29 expr if ($i1 == -2 \, 665 \, 0) \; if ($i1 == -2 \, 1000
\, 0);
#X obj 25 40 + \$1;
#X obj 255 43 + \$1;
#X obj 99 125 abs;
#X obj 307 136 abs;
#X obj 81 -125 route metro_x metro_y add;
#X obj 25 -78 delay 1500;
#X obj 255 -76 delay 1500;
#X connect 0 0 26 0;
#X connect 0 0 28 0;
#X connect 1 0 23 0;
#X connect 2 0 33 0;
#X connect 3 0 1 0;
#X connect 4 0 25 0;
#X connect 4 0 29 0;
#X connect 5 0 24 0;
#X connect 6 0 34 0;
#X connect 7 0 5 0;
#X connect 16 0 17 0;
#X connect 16 0 18 0;
#X connect 17 0 30 0;
#X connect 18 0 12 0;
#X connect 18 0 8 0;
#X connect 19 0 20 0;
#X connect 19 0 21 0;
#X connect 20 0 31 0;
#X connect 21 0 9 0;
#X connect 21 0 15 0;
#X connect 22 0 32 0;
#X connect 23 0 0 0;
#X connect 23 0 10 0;
#X connect 24 0 4 0;
#X connect 24 0 11 0;
#X connect 25 0 4 1;
#X connect 26 0 0 1;
#X connect 27 0 28 1;
#X connect 27 1 29 1;
#X connect 28 0 16 0;
#X connect 29 0 19 0;
#X connect 30 0 13 0;
#X connect 31 0 14 0;
#X connect 32 0 23 1;
#X connect 32 1 24 1;
#X connect 32 2 26 1;
#X connect 32 2 25 1;
#X connect 32 2 27 0;
#X connect 33 0 1 0;
#X connect 34 0 5 0;
#X coords 0 -1 1 1 115 70 1 100 180;
