#N canvas 0 21 1366 685 10;
#X obj 13 95 osc~;
#X obj 50 150 osc~;
#X obj 84 165 osc~;
#X obj 117 178 osc~;
#X obj 150 190 osc~;
#X obj 150 169 * 5;
#X obj 14 250 +~;
#X obj 14 317 *~;
#X obj 13 422 vcf~;
#X obj 23 397 sig~;
#X msg 94 417 1;
#X obj 502 526 *~;
#X text 6 18 valore R convertito in MIDI;
#X obj 84 69 mtof;
#X obj 502 505 +~;
#X obj 94 392 loadbang;
#X obj 8 45 inlet;
#X obj 595 525 line;
#X obj 67 300 line;
#X text 103 255 valore R da 0 a 1;
#X obj 67 256 inlet;
#X obj 259 103 osc~;
#X obj 296 158 osc~;
#X obj 330 173 osc~;
#X obj 363 186 osc~;
#X obj 396 198 osc~;
#X obj 396 177 * 5;
#X obj 260 258 +~;
#X obj 260 325 *~;
#X obj 259 430 vcf~;
#X obj 269 405 sig~;
#X msg 335 413 1;
#X obj 330 77 mtof;
#X obj 335 388 loadbang;
#X obj 256 51 inlet;
#X obj 313 308 line;
#X obj 313 265 inlet;
#X obj 493 100 osc~;
#X obj 530 155 osc~;
#X obj 564 170 osc~;
#X obj 597 183 osc~;
#X obj 630 195 osc~;
#X obj 630 174 * 5;
#X obj 494 255 +~;
#X obj 494 322 *~;
#X obj 493 428 vcf~;
#X obj 503 403 sig~;
#X msg 569 411 1;
#X obj 564 74 mtof;
#X obj 569 386 loadbang;
#X obj 487 48 inlet;
#X obj 547 305 line;
#X obj 547 261 inlet;
#X obj 595 475 inlet;
#X text 239 20 valore G convertito in MIDI;
#X text 486 18 valore B convertito in MIDI;
#X text 349 264 valore G da 0 a 1;
#X text 584 264 valore B da 0 a 1;
#X obj 501 574 outlet~;
#X obj 50 125 * 2;
#X obj 84 145 * 3;
#X obj 117 157 * 4;
#X obj 296 133 * 2;
#X obj 330 153 * 3;
#X obj 363 165 * 4;
#X obj 530 130 * 2;
#X obj 564 150 * 3;
#X obj 597 162 * 4;
#X obj 118 216 *~ 0.06;
#X obj 364 224 *~ 0.06;
#X obj 598 221 *~ 0.06;
#X obj 149 234 *~ 0.04;
#X obj 395 242 *~ 0.04;
#X obj 629 239 *~ 0.04;
#X msg 67 280 \$1 300;
#X msg 313 288 \$1 300;
#X msg 547 285 \$1 300;
#X obj -24 371 mtof;
#X obj 222 370 mtof;
#X obj 450 376 mtof;
#X obj -24 348 expr if ($i1 >= 71 \, $i1 - 12 \, $i1);
#X obj 216 346 expr if ($i1 >= 71 \, $i1 - 12 \, $i1);
#X obj 450 346 expr if ($i1 >= 71 \, $i1 - 12 \, $i1);
#X obj 85 200 *~ 0.17;
#X obj 331 208 *~ 0.17;
#X obj 565 205 *~ 0.17;
#X obj 38 182 *~ 0.2;
#X obj 283 190 *~ 0.2;
#X obj 517 187 *~ 0.2;
#X obj 639 560 line;
#X obj 502 552 *~;
#X msg 639 535 \$1 5000;
#X msg 595 500 \$1 300;
#X obj 13 275 /~ \$1;
#X obj 259 283 /~ \$1;
#X obj 493 280 /~ \$1;
#X obj 696 482 r \$1;
#X obj 696 506 route level attenuatori;
#X connect 0 0 6 0;
#X connect 1 0 86 0;
#X connect 2 0 83 0;
#X connect 3 0 68 0;
#X connect 4 0 71 0;
#X connect 5 0 4 0;
#X connect 6 0 93 0;
#X connect 7 0 8 0;
#X connect 8 0 14 0;
#X connect 9 0 8 1;
#X connect 10 0 8 2;
#X connect 11 0 90 0;
#X connect 13 0 0 0;
#X connect 13 0 5 0;
#X connect 13 0 59 0;
#X connect 13 0 60 0;
#X connect 13 0 61 0;
#X connect 14 0 11 0;
#X connect 15 0 10 0;
#X connect 16 0 13 0;
#X connect 16 0 80 0;
#X connect 17 0 11 1;
#X connect 18 0 7 1;
#X connect 20 0 74 0;
#X connect 21 0 27 0;
#X connect 22 0 87 0;
#X connect 23 0 84 0;
#X connect 24 0 69 0;
#X connect 25 0 72 0;
#X connect 26 0 25 0;
#X connect 27 0 94 0;
#X connect 28 0 29 0;
#X connect 29 0 14 1;
#X connect 30 0 29 1;
#X connect 31 0 29 2;
#X connect 32 0 21 0;
#X connect 32 0 26 0;
#X connect 32 0 62 0;
#X connect 32 0 63 0;
#X connect 32 0 64 0;
#X connect 33 0 31 0;
#X connect 34 0 32 0;
#X connect 34 0 81 0;
#X connect 35 0 28 1;
#X connect 36 0 75 0;
#X connect 37 0 43 0;
#X connect 38 0 88 0;
#X connect 39 0 85 0;
#X connect 40 0 70 0;
#X connect 41 0 73 0;
#X connect 42 0 41 0;
#X connect 43 0 95 0;
#X connect 44 0 45 0;
#X connect 45 0 14 1;
#X connect 46 0 45 1;
#X connect 47 0 45 2;
#X connect 48 0 37 0;
#X connect 48 0 42 0;
#X connect 48 0 65 0;
#X connect 48 0 66 0;
#X connect 48 0 67 0;
#X connect 49 0 47 0;
#X connect 50 0 48 0;
#X connect 50 0 82 0;
#X connect 51 0 44 1;
#X connect 52 0 76 0;
#X connect 53 0 92 0;
#X connect 59 0 1 0;
#X connect 60 0 2 0;
#X connect 61 0 3 0;
#X connect 62 0 22 0;
#X connect 63 0 23 0;
#X connect 64 0 24 0;
#X connect 65 0 38 0;
#X connect 66 0 39 0;
#X connect 67 0 40 0;
#X connect 68 0 6 1;
#X connect 69 0 27 1;
#X connect 70 0 43 1;
#X connect 71 0 6 1;
#X connect 72 0 27 1;
#X connect 73 0 43 1;
#X connect 74 0 18 0;
#X connect 75 0 35 0;
#X connect 76 0 51 0;
#X connect 77 0 9 0;
#X connect 78 0 30 0;
#X connect 79 0 46 0;
#X connect 80 0 77 0;
#X connect 81 0 78 0;
#X connect 82 0 79 0;
#X connect 83 0 6 1;
#X connect 84 0 27 1;
#X connect 85 0 43 1;
#X connect 86 0 6 1;
#X connect 87 0 27 1;
#X connect 88 0 43 1;
#X connect 89 0 90 1;
#X connect 90 0 58 0;
#X connect 91 0 89 0;
#X connect 92 0 17 0;
#X connect 93 0 7 0;
#X connect 94 0 28 0;
#X connect 95 0 44 0;
#X connect 96 0 97 0;
#X connect 97 0 91 0;
#X connect 97 1 95 1;
#X connect 97 1 94 1;
#X connect 97 1 93 1;
