#N canvas 124 5 1092 654 10;
#X obj 60 248 osc~;
#X obj 94 263 osc~;
#X obj 127 276 osc~;
#X obj 160 288 osc~;
#X obj 59 280 *~ 0.3;
#X obj 95 298 *~ 0.25;
#X obj 24 348 +~;
#X obj 24 415 *~;
#X obj 33 455 sig~;
#X obj 571 590 *~;
#X obj 86 52 mtof;
#X obj 571 565 +~;
#X obj 33 23 inlet;
#X obj 604 568 line;
#X obj 77 398 line;
#X text 113 353 valore R da 0 a 1;
#X obj 77 354 inlet;
#X obj 283 255 osc~;
#X obj 317 270 osc~;
#X obj 350 283 osc~;
#X obj 383 295 osc~;
#X obj 283 230 * 0.5;
#X obj 317 250 * 2;
#X obj 350 262 * 3;
#X obj 282 287 *~ 0.3;
#X obj 318 305 *~ 0.25;
#X obj 247 355 +~;
#X obj 247 422 *~;
#X obj 351 321 *~ 0.1;
#X obj 256 462 sig~;
#X obj 317 64 mtof;
#X obj 248 25 inlet;
#X obj 300 405 line;
#X obj 300 362 inlet;
#X obj 500 259 osc~;
#X obj 534 274 osc~;
#X obj 567 287 osc~;
#X obj 600 299 osc~;
#X obj 500 234 * 0.5;
#X obj 534 254 * 2;
#X obj 567 266 * 3;
#X obj 499 291 *~ 0.3;
#X obj 535 309 *~ 0.25;
#X obj 464 359 +~;
#X obj 464 426 *~;
#X obj 568 325 *~ 0.1;
#X obj 473 466 sig~;
#X obj 534 68 mtof;
#X obj 462 27 inlet;
#X obj 517 409 line;
#X obj 517 365 inlet;
#X obj 604 518 inlet;
#X text 337 361 valore G da 0 a 1;
#X text 554 368 valore B da 0 a 1;
#X obj 572 632 outlet~;
#X obj 128 314 *~ 0.1;
#X obj 60 223 * 0.5;
#X obj 94 243 * 2;
#X obj 127 255 * 3;
#X obj 159 332 *~ 0.06;
#X obj 382 339 *~ 0.06;
#X obj 599 343 *~ 0.06;
#X msg 300 385 \$1 300;
#X msg 77 378 \$1 300;
#X msg 517 389 \$1 300;
#X msg 604 543 \$1 300;
#X obj 723 87 snapshot~;
#X obj 821 61 metro;
#X obj 821 22 tgl 25 0 empty empty phmod_generale 26 7 0 10 -262144
-1 -1 0 1;
#X obj 724 18 osc~ 0.5;
#X obj 22 205 phasor~;
#X obj 23 186 sig~;
#X obj 228 212 phasor~;
#X obj 229 189 sig~;
#X obj 23 278 *~ 1;
#X obj 228 276 *~ 1;
#X obj 463 213 phasor~;
#X obj 464 190 sig~;
#X obj 140 120 pipe 10;
#X obj 152 145 pipe 20;
#X obj 165 170 pipe 30;
#X obj 175 195 pipe 40;
#X obj 781 145 spigot;
#X obj 814 116 tgl 25 0 empty empty phmod_armonici 26 7 0 10 -262144
-1 -1 0 1;
#X obj 371 130 pipe 10;
#X obj 383 155 pipe 20;
#X obj 396 180 pipe 30;
#X obj 404 203 pipe 40;
#X obj 585 172 pipe 10;
#X obj 597 197 pipe 20;
#X obj 610 222 pipe 30;
#X obj 621 249 pipe 40;
#X obj 724 37 *~ 6.2831;
#X obj 724 58 clip~ 1 6.2831;
#X text 717 214 Appunti;
#X text 733 239 entrambi 0.5 40;
#X text 733 228 entrambi 0.5 16;
#X obj 179 545 expr if($i1 > 60 \, $i1 - 12 \, $i1) \;;
#X obj 232 571 mtof;
#X obj 387 520 expr if($i1 > 60 \, $i1 - 12 \, $i1) \;;
#X obj 441 553 mtof;
#X obj 27 519 expr if($i1 > 60 \, $i1 - 12 \, $i1) \;;
#X obj 80 545 mtof;
#X msg 786 20 3.14;
#X obj 23 372 /~ \$1;
#X obj 246 380 /~ \$1;
#X obj 463 384 /~ \$1;
#X text 16 6 valore R convertito in MIDI;
#X text 226 7 valore G convertito in MIDI;
#X text 456 5 valore B convertito in MIDI;
#X obj 637 587 line;
#X msg 637 562 \$1 5000;
#X obj 572 613 *~;
#X obj 795 284 r \$1;
#X obj 786 1 loadbang;
#X obj 160 267 * 4.7407;
#X obj 383 274 * 4.7407;
#X obj 600 278 * 4.7407;
#X obj 795 307 route level attenuatori ph_gen ph_arm metro Q;
#X obj 23 480 vcf~ 4;
#X obj 246 487 vcf~ 4;
#X obj 463 491 vcf~ 4;
#X obj 892 460 s seq4;
#X connect 0 0 4 0;
#X connect 1 0 5 0;
#X connect 2 0 55 0;
#X connect 3 0 59 0;
#X connect 4 0 6 1;
#X connect 5 0 6 1;
#X connect 6 0 104 0;
#X connect 7 0 119 0;
#X connect 8 0 119 1;
#X connect 9 0 112 0;
#X connect 10 0 56 0;
#X connect 10 0 57 0;
#X connect 10 0 58 0;
#X connect 10 0 71 0;
#X connect 10 0 115 0;
#X connect 11 0 9 0;
#X connect 12 0 10 0;
#X connect 12 0 101 0;
#X connect 13 0 9 1;
#X connect 14 0 7 1;
#X connect 16 0 63 0;
#X connect 17 0 24 0;
#X connect 18 0 25 0;
#X connect 19 0 28 0;
#X connect 20 0 60 0;
#X connect 21 0 17 0;
#X connect 22 0 18 0;
#X connect 23 0 19 0;
#X connect 24 0 26 1;
#X connect 25 0 26 1;
#X connect 26 0 105 0;
#X connect 27 0 120 0;
#X connect 28 0 26 1;
#X connect 29 0 120 1;
#X connect 30 0 21 0;
#X connect 30 0 22 0;
#X connect 30 0 23 0;
#X connect 30 0 73 0;
#X connect 30 0 116 0;
#X connect 31 0 30 0;
#X connect 31 0 97 0;
#X connect 32 0 27 1;
#X connect 33 0 62 0;
#X connect 34 0 41 0;
#X connect 35 0 42 0;
#X connect 36 0 45 0;
#X connect 37 0 61 0;
#X connect 38 0 34 0;
#X connect 39 0 35 0;
#X connect 40 0 36 0;
#X connect 41 0 43 1;
#X connect 42 0 43 1;
#X connect 43 0 106 0;
#X connect 44 0 121 0;
#X connect 45 0 43 1;
#X connect 46 0 121 1;
#X connect 47 0 38 0;
#X connect 47 0 39 0;
#X connect 47 0 40 0;
#X connect 47 0 77 0;
#X connect 47 0 117 0;
#X connect 48 0 47 0;
#X connect 48 0 99 0;
#X connect 49 0 44 1;
#X connect 50 0 64 0;
#X connect 51 0 65 0;
#X connect 55 0 6 1;
#X connect 56 0 0 0;
#X connect 57 0 1 0;
#X connect 58 0 2 0;
#X connect 59 0 6 1;
#X connect 60 0 26 1;
#X connect 61 0 43 1;
#X connect 62 0 32 0;
#X connect 63 0 14 0;
#X connect 64 0 49 0;
#X connect 65 0 13 0;
#X connect 66 0 70 1;
#X connect 66 0 72 1;
#X connect 66 0 76 1;
#X connect 66 0 82 0;
#X connect 67 0 66 0;
#X connect 68 0 67 0;
#X connect 69 0 92 0;
#X connect 70 0 74 0;
#X connect 71 0 70 0;
#X connect 72 0 75 0;
#X connect 73 0 72 0;
#X connect 74 0 6 0;
#X connect 75 0 26 0;
#X connect 76 0 43 0;
#X connect 77 0 76 0;
#X connect 78 0 0 1;
#X connect 79 0 1 1;
#X connect 80 0 2 1;
#X connect 81 0 3 1;
#X connect 82 0 78 0;
#X connect 82 0 79 0;
#X connect 82 0 80 0;
#X connect 82 0 81 0;
#X connect 82 0 84 0;
#X connect 82 0 85 0;
#X connect 82 0 86 0;
#X connect 82 0 87 0;
#X connect 82 0 88 0;
#X connect 82 0 89 0;
#X connect 82 0 90 0;
#X connect 82 0 91 0;
#X connect 83 0 82 1;
#X connect 84 0 17 1;
#X connect 85 0 18 1;
#X connect 86 0 19 1;
#X connect 87 0 20 1;
#X connect 88 0 34 1;
#X connect 89 0 35 1;
#X connect 90 0 36 1;
#X connect 91 0 37 1;
#X connect 92 0 93 0;
#X connect 93 0 66 0;
#X connect 97 0 98 0;
#X connect 98 0 29 0;
#X connect 99 0 100 0;
#X connect 100 0 46 0;
#X connect 101 0 102 0;
#X connect 102 0 8 0;
#X connect 103 0 69 1;
#X connect 104 0 7 0;
#X connect 105 0 27 0;
#X connect 106 0 44 0;
#X connect 110 0 112 1;
#X connect 111 0 110 0;
#X connect 112 0 54 0;
#X connect 113 0 118 0;
#X connect 114 0 103 0;
#X connect 115 0 3 0;
#X connect 116 0 20 0;
#X connect 117 0 37 0;
#X connect 118 0 111 0;
#X connect 118 0 122 0;
#X connect 118 1 106 1;
#X connect 118 1 105 1;
#X connect 118 1 104 1;
#X connect 118 2 68 0;
#X connect 118 3 83 0;
#X connect 118 4 67 1;
#X connect 118 5 119 2;
#X connect 118 5 120 2;
#X connect 118 5 121 2;
#X connect 119 0 11 0;
#X connect 120 0 11 1;
#X connect 121 0 11 1;
