#N canvas -8 -8 1366 685 12;
#X obj 567 78 sig~;
#X obj 568 108 +~;
#X obj 568 132 osc~;
#X obj 569 186 *~;
#X floatatom 597 186 5 0 100 0 - - - 0;
#X obj 617 90 *~;
#X floatatom 647 72 5 0 14 0 - - - 0;
#X obj 617 41 delread~ feedback 10;
#X obj 614 151 delwrite~ feedback 10;
#X obj 567 53 * 1;
#X obj 214 452 +~;
#X obj 213 510 *~;
#X obj 309 488 hsl 128 15 0 1.5 0 0 empty empty empty -2 -8 0 10 #fcfcfc #000000 #000000 0 1;
#X obj 55 320 osc~;
#X obj 158 231 osc~;
#X obj 158 275 *~;
#X floatatom 192 276 5 0 100 0 - - - 0;
#X obj 245 132 osc~;
#X obj 245 186 *~;
#X floatatom 290 159 5 0 100 0 - - - 0;
#X obj 55 246 * 1;
#X obj 55 268 sig~;
#X obj 55 293 +~;
#X obj 159 180 sig~;
#X obj 159 204 +~;
#X obj 361 324 osc~;
#X obj 361 272 sig~;
#X obj 361 297 +~;
#X obj 486 233 osc~;
#X obj 486 279 *~;
#X floatatom 520 280 5 0 100 0 - - - 0;
#X obj 486 181 sig~;
#X obj 486 206 +~;
#X text 856 90 dall'algoritmo n.3 del Yamaha DX7;
#X text 913 140 feedback amount: 0-14 mod. amount: 0 - 100 level : 0 - 1.5;
#X floatatom 55 41 5 0 0 0 - - - 0;
#X obj 361 250 * 1;
#N canvas 0 50 450 250 (subpatch) 0;
#X array alg3 100 float 3;
#A 0 0 0 0 0 0 0 0 0 0 0 0 0 0 0 0 0 0 0 0 0 0 0 0 0 0 0 0 0 0 0 0 0 0 0 0 0 0 0 0 0 0 0 0 0 0 0 0 0 0 0 0 0 0 0 0 0 0 0 0 0 0 0 0 0 0 0 0 0 0 0 0 0 0 0 0 0 0 0 0 0 0 0 0 0 0 0 0 0 0 0 0 0 0 0 0 0 0 0 0 0;
#X coords 0 1 100 -1 200 140 1 0 0;
#X restore 543 477 graph;
#X obj 312 549 metro 30;
#X obj 312 517 tgl 15 0 empty empty empty 17 7 0 10 #fcfcfc #000000 #000000 0 1;
#X obj 312 580 tabwrite~ alg3;
#X obj 55 -28 inlet;
#X text 18 -48 frequenza portante;
#X obj 156 -25 inlet;
#X obj 245 -28 inlet;
#X obj 299 -25 inlet;
#X obj 380 -25 inlet;
#X obj 55 366 *~ 1;
#X obj 361 370 *~ 1;
#X obj 478 -18 inlet;
#X obj 522 -18 inlet;
#X obj 566 -18 inlet;
#X obj 610 -18 inlet;
#X obj 654 -18 inlet;
#X obj 55 10 * 3000;
#X obj 203 246 * 300;
#X obj 291 137 * 200;
#X obj 159 10 * 3000;
#X obj 245 10 * 3000;
#X obj 305 10 * 3000;
#X obj 380 10 * 3000;
#X obj 159 158 * 1;
#X obj 245 104 * 1;
#X obj 486 159 * 1;
#X obj 578 281 * 300;
#X obj 630 281 * 200;
#X obj 699 98 * 100;
#X obj 213 614 outlet~;
#X connect 0 0 1 0;
#X connect 1 0 2 0;
#X connect 2 0 3 0;
#X connect 2 0 8 0;
#X connect 3 0 32 1;
#X connect 4 0 3 1;
#X connect 5 0 1 1;
#X connect 6 0 5 1;
#X connect 7 0 5 0;
#X connect 9 0 0 0;
#X connect 10 0 11 0;
#X connect 11 0 40 0;
#X connect 11 0 67 0;
#X connect 12 0 11 1;
#X connect 13 0 47 0;
#X connect 14 0 15 0;
#X connect 15 0 22 1;
#X connect 16 0 15 1;
#X connect 17 0 18 0;
#X connect 18 0 24 1;
#X connect 19 0 18 1;
#X connect 20 0 21 0;
#X connect 21 0 22 0;
#X connect 22 0 13 0;
#X connect 23 0 24 0;
#X connect 24 0 14 0;
#X connect 25 0 48 0;
#X connect 26 0 27 0;
#X connect 27 0 25 0;
#X connect 28 0 29 0;
#X connect 29 0 27 1;
#X connect 30 0 29 1;
#X connect 31 0 32 0;
#X connect 32 0 28 0;
#X connect 35 0 20 0;
#X connect 35 0 36 0;
#X connect 36 0 26 0;
#X connect 38 0 40 0;
#X connect 39 0 38 0;
#X connect 41 0 54 0;
#X connect 43 0 57 0;
#X connect 44 0 58 0;
#X connect 45 0 59 0;
#X connect 46 0 60 0;
#X connect 47 0 10 0;
#X connect 48 0 10 1;
#X connect 49 0 56 0;
#X connect 50 0 55 0;
#X connect 51 0 64 0;
#X connect 52 0 65 0;
#X connect 53 0 66 0;
#X connect 54 0 35 0;
#X connect 55 0 16 0;
#X connect 56 0 19 0;
#X connect 57 0 61 0;
#X connect 58 0 62 0;
#X connect 59 0 63 0;
#X connect 60 0 9 0;
#X connect 61 0 23 0;
#X connect 62 0 17 0;
#X connect 63 0 31 0;
#X connect 64 0 30 0;
#X connect 65 0 4 0;
#X connect 66 0 6 0;
