#N canvas 1557 126 1159 673 12;
#X obj 147 208 sig~;
#X obj 148 238 +~;
#X obj 148 262 osc~;
#X obj 149 316 *~;
#X floatatom 177 316 5 0 100 0 - - -;
#X obj 217 220 *~;
#X floatatom 243 202 5 0 14 0 - - -;
#X obj 217 171 delread~ feedback 10;
#X obj 194 281 delwrite~ feedback 10;
#X obj 214 452 +~;
#X obj 212 560 dac~;
#X obj 213 510 *~;
#X obj 309 488 hsl 128 15 0 1.5 0 0 empty empty empty -2 -8 0 10 -262144
-1 -1 0 1;
#X obj 55 320 osc~;
#X obj 55 366 *~;
#X floatatom 84 367 5 0 1.5 0 - - -;
#X obj 668 131 osc~;
#X obj 668 175 *~;
#X floatatom 695 176 5 0 100 0 - - -;
#X obj 465 212 osc~;
#X obj 465 266 *~;
#X floatatom 493 267 5 0 100 0 - - -;
#X obj 55 268 sig~;
#X obj 55 293 +~;
#X obj 669 80 sig~;
#X obj 669 104 +~;
#X obj 361 324 osc~;
#X obj 361 370 *~;
#X floatatom 390 371 5 0 1.5 0 - - -;
#X obj 361 272 sig~;
#X obj 361 297 +~;
#X obj 586 203 osc~;
#X obj 586 249 *~;
#X floatatom 615 250 5 0 100 0 - - -;
#X obj 586 151 sig~;
#X obj 586 176 +~;
#X floatatom 55 23 5 0 0 0 - - -;
#N canvas 0 50 450 250 (subpatch) 0;
#X array alg2 100 float 3;
#A 0 0 0 0 0 0 0 0 0 0 0 0 0 0 0 0 0 0 0 0 0 0 0 0 0 0 0 0 0 0 0 0
0 0 0 0 0 0 0 0 0 0 0 0 0 0 0 0 0 0 0 0 0 0 0 0 0 0 0 0 0 0 0 0 0 0
0 0 0 0 0 0 0 0 0 0 0 0 0 0 0 0 0 0 0 0 0 0 0 0 0 0 0 0 0 0 0 0 0 0
0;
#X coords 0 1 100 -1 200 140 1 0 0;
#X restore 543 477 graph;
#X obj 312 549 metro 30;
#X obj 312 517 tgl 15 0 empty empty empty 17 7 0 10 -262144 -1 -1 0
1;
#X obj 464 183 +~;
#X obj 464 159 sig~;
#X floatatom 80 225 5 0 0 0 - - -;
#X floatatom 694 37 5 0 0 0 - - -;
#X floatatom 386 228 5 0 0 0 - - -;
#X floatatom 489 113 5 0 0 0 - - -;
#X floatatom 611 108 5 0 0 0 - - -;
#X obj 313 580 tabwrite~ alg2;
#X floatatom 172 156 5 0 0 0 - - -;
#X obj 464 134 * \$2;
#X obj 361 250 * \$2;
#X obj 586 129 * \$2;
#X obj 669 58 * \$2;
#X obj 55 246 * \$2;
#X obj 147 183 * \$2;
#X text 735 259 Yamaha DX7 algorithm no.2;
#X connect 0 0 1 0;
#X connect 1 0 2 0;
#X connect 2 0 3 0;
#X connect 2 0 8 0;
#X connect 3 0 23 1;
#X connect 4 0 3 1;
#X connect 5 0 1 1;
#X connect 6 0 5 1;
#X connect 7 0 5 0;
#X connect 9 0 11 0;
#X connect 11 0 10 0;
#X connect 11 0 10 1;
#X connect 11 0 47 0;
#X connect 12 0 11 1;
#X connect 13 0 14 0;
#X connect 14 0 9 0;
#X connect 15 0 14 1;
#X connect 16 0 17 0;
#X connect 17 0 35 1;
#X connect 18 0 17 1;
#X connect 19 0 20 0;
#X connect 20 0 30 1;
#X connect 21 0 20 1;
#X connect 22 0 23 0;
#X connect 23 0 13 0;
#X connect 24 0 25 0;
#X connect 25 0 16 0;
#X connect 26 0 27 0;
#X connect 27 0 9 1;
#X connect 28 0 27 1;
#X connect 29 0 30 0;
#X connect 30 0 26 0;
#X connect 31 0 32 0;
#X connect 32 0 40 1;
#X connect 33 0 32 1;
#X connect 34 0 35 0;
#X connect 35 0 31 0;
#X connect 36 0 49 0;
#X connect 36 0 50 0;
#X connect 36 0 51 0;
#X connect 36 0 52 0;
#X connect 36 0 53 0;
#X connect 36 0 54 0;
#X connect 38 0 47 0;
#X connect 39 0 38 0;
#X connect 40 0 19 0;
#X connect 41 0 40 0;
#X connect 42 0 53 1;
#X connect 43 0 52 1;
#X connect 44 0 50 1;
#X connect 45 0 49 1;
#X connect 46 0 51 1;
#X connect 48 0 54 1;
#X connect 49 0 41 0;
#X connect 50 0 29 0;
#X connect 51 0 34 0;
#X connect 52 0 24 0;
#X connect 53 0 22 0;
#X connect 54 0 0 0;
