#N canvas -8 -8 1366 685 12;
#X obj 567 78 sig~;
#X obj 568 108 +~;
#X obj 568 132 osc~;
#X obj 569 186 *~;
#X floatatom 597 186 5 0 100 0 - - -;
#X obj 617 90 *~;
#X floatatom 647 72 5 0 14 0 - - -;
#X obj 617 41 delread~ feedback 10;
#X obj 614 151 delwrite~ feedback 10;
#X obj 567 53 * 1;
#X obj 214 452 +~;
#X obj 212 560 dac~;
#X obj 213 510 *~;
#X obj 309 488 hsl 128 15 0 1.5 0 0 empty empty empty -2 -8 0 10 -262144
-1 -1 0 1;
#X obj 55 320 osc~;
#X obj 55 366 *~;
#X floatatom 89 367 5 0 1.5 0 - - -;
#X obj 158 231 osc~;
#X obj 158 275 *~;
#X floatatom 192 276 5 0 100 0 - - -;
#X obj 245 132 osc~;
#X obj 245 186 *~;
#X floatatom 279 187 5 0 100 0 - - -;
#X obj 159 158 * 2;
#X obj 245 104 * 0.5;
#X obj 55 246 * 1;
#X obj 55 268 sig~;
#X obj 55 293 +~;
#X obj 159 180 sig~;
#X obj 159 204 +~;
#X obj 361 324 osc~;
#X obj 361 370 *~;
#X floatatom 395 371 5 0 1.5 0 - - -;
#X obj 361 272 sig~;
#X obj 361 297 +~;
#X obj 486 233 osc~;
#X obj 486 279 *~;
#X floatatom 520 280 5 0 100 0 - - -;
#X obj 486 181 sig~;
#X obj 486 206 +~;
#X obj 486 159 * 1.5;
#X text 856 90 dall'algoritmo n.3 del Yamaha DX7;
#X text 913 140 feedback amount: 0-14 mod. amount: 0 - 100 level :
0 - 1.5;
#X floatatom 121 23 5 0 0 0 - - -;
#X obj 361 250 * 1;
#N canvas 0 50 450 250 (subpatch) 0;
#X array alg3 100 float 3;
#A 0 0 0 0 0 0 0 0 0 0 0 0 0 0 0 0 0 0 0 0 0 0 0 0 0 0 0 0 0 0 0 0
0 0 0 0 0 0 0 0 0 0 0 0 0 0 0 0 0 0 0 0 0 0 0 0 0 0 0 0 0 0 0 0 0 0
0 0 0 0 0 0 0 0 0 0 0 0 0 0 0 0 0 0 0 0 0 0 0 0 0 0 0 0 0 0 0 0 0 0
0;
#X coords 0 1 100 -1 200 140 1 0 0;
#X restore 543 477 graph;
#X obj 312 549 metro 30;
#X obj 312 517 tgl 15 0 empty empty empty 17 7 0 10 -262144 -1 -1 1
1;
#X obj 312 580 tabwrite~ alg3;
#X connect 0 0 1 0;
#X connect 1 0 2 0;
#X connect 2 0 3 0;
#X connect 2 0 8 0;
#X connect 3 0 39 1;
#X connect 4 0 3 1;
#X connect 5 0 1 1;
#X connect 6 0 5 1;
#X connect 7 0 5 0;
#X connect 9 0 0 0;
#X connect 10 0 12 0;
#X connect 12 0 11 0;
#X connect 12 0 11 1;
#X connect 12 0 48 0;
#X connect 13 0 12 1;
#X connect 14 0 15 0;
#X connect 15 0 10 0;
#X connect 16 0 15 1;
#X connect 17 0 18 0;
#X connect 18 0 27 1;
#X connect 19 0 18 1;
#X connect 20 0 21 0;
#X connect 21 0 29 1;
#X connect 22 0 21 1;
#X connect 23 0 28 0;
#X connect 24 0 20 0;
#X connect 25 0 26 0;
#X connect 26 0 27 0;
#X connect 27 0 14 0;
#X connect 28 0 29 0;
#X connect 29 0 17 0;
#X connect 30 0 31 0;
#X connect 31 0 10 1;
#X connect 32 0 31 1;
#X connect 33 0 34 0;
#X connect 34 0 30 0;
#X connect 35 0 36 0;
#X connect 36 0 34 1;
#X connect 37 0 36 1;
#X connect 38 0 39 0;
#X connect 39 0 35 0;
#X connect 40 0 38 0;
#X connect 43 0 24 0;
#X connect 43 0 23 0;
#X connect 43 0 25 0;
#X connect 43 0 40 0;
#X connect 43 0 9 0;
#X connect 43 0 44 0;
#X connect 44 0 33 0;
#X connect 46 0 48 0;
#X connect 47 0 46 0;
