#N canvas 827 239 527 327 12;
#X obj 343 4 cnv 15 801 541 empty empty empty 20 12 0 14 #0b172c #e1e1e1 0;
#X obj 362 311 cnv 15 761 214 empty empty RESONATOR\ :\ OPEN-OPEN\ CYLINDRIC\ TUBE 20 12 0 18 #2a6966 #e1e1e1 0;
#X obj -1498 -425 click~;
#X obj -1498 -467 bng 25 250 50 0 empty empty empty 17 7 0 10 #191919 #e1e1e1 #e1e1e1;
#X obj -408 775 expr 343/(2*$f1);
#X obj -538 290 *~;
#X obj -510 254 line~;
#X obj -557 775 expr (1/($f1*2))*1000;
#X obj -540 560 lop~;
#X obj -811 561 lop~;
#X obj -457 360 tanh~;
#X obj -457 390 *~;
#X obj -540 478 +~;
#X obj -457 328 *~;
#X obj -424 296 line~;
#X msg -424 268 \$1 10;
#X msg -505 223 \$1 10;
#X obj -557 715 r \$0-rison_freq;
#X obj -408 807 s \$0-rison_lenght;
#X obj -557 812 s \$0-rison_delay;
#X obj 362 31 cnv 15 569 268 empty empty EXCITER 20 12 0 18 #9c3436 #e1e1e1 0;
#X obj 380 69 knob 50 20 8000 0 0 \$0-ecc_lop_freq \$0-exc_lp_externalctrl #191919 #696969 #E1E1E1 1 0 0 0 1 270 0 0 20;
#X obj 431 99 nbx 5 18 -1e+37 1e+37 0 0 empty \$0-ecc_lop_freq Hz 0 -4 0 10 #191919 #e1e1e1 #e1e1e1 0 256;
#X obj -463 478 r \$0-feedback_lop_freq;
#X obj -796 478 r \$0-ecc_lop_freq;
#X obj -796 533 line~;
#X msg -796 506 \$1 20;
#X obj -463 536 line~;
#X msg -463 509 \$1 20;
#X obj -424 243 r \$0-drive;
#X obj -538 430 *~;
#X obj -250 279 route 0 1;
#X msg -250 308 0;
#X msg -250 341 1;
#X msg -212 308 1;
#X msg -212 341 0;
#X obj -385 402 line~;
#X msg -385 369 \$1 20;
#X obj -160 333 s \$0-tanh_muter;
#X obj -250 372 s \$0-linear_muter;
#X obj -649 323 r \$0-linear_muter;
#X obj -649 391 line~;
#X msg -649 358 \$1 20;
#X obj -385 338 r \$0-tanh_muter;
#X obj -250 247 r \$0-sat_muter_radio;
#X obj -610 837 line~;
#X obj -1554 -166 adc~ 1;
#X obj -952 733 note.in;
#X obj -952 755 unpack;
#X floatatom -952 779 5 0 0 0 - - - 12;
#X obj -819 857 mtof;
#X obj -819 943 s \$0-midi_freq_reso;
#X msg -797 142 \$1 10;
#X obj -797 168 line~;
#X obj -944 -94 *~;
#X obj -933 -147 line~;
#X obj -802 110 expr (1/$f1)*1000;
#X floatatom -681 142 5 0 0 0 - - - 12;
#X obj -878 148 *~;
#X obj -987 120 sig~;
#X obj -856 191 +~;
#X msg -797 26 0;
#X obj -446 -88 r \$0-rison_delay;
#X obj -405 -61 r \$0-rison_decay_time;
#X obj -446 11 /;
#X obj -405 -34 t b f;
#X obj -492 75 0.001;
#X obj -492 43 bang;
#X obj -460 88 pow;
#X obj -360 132 sel 0 1;
#X obj -360 161 i 1;
#X obj -320 161 i -1;
#X obj -462 173 *;
#X obj -460 145 f;
#X obj -360 196 t b f;
#X obj -460 115 t b f;
#X obj -917 -399 /;
#X obj -891 -431 t b f;
#X obj -954 -342 0.001;
#X obj -954 -368 bang;
#X obj -931 -308 pow;
#X obj -837 -281 sel 0 1;
#X obj -837 -252 i 1;
#X obj -797 -252 i -1;
#X obj -933 -223 *;
#X obj -931 -251 f;
#X obj -837 -217 t b f;
#X obj -931 -281 t b f;
#X floatatom -852 -176 17 0 0 0 - - - 24;
#X obj -856 328 numbox~ 8 27 100 #191919 #e1e1e1 10 0 0 0;
#X msg -882 -315 -1;
#N canvas 733 172 450 300 gaussian_approx 0;
#X obj -1699 466 noise~;
#X obj -1640 466 noise~;
#X obj -1581 466 noise~;
#X obj -1522 466 noise~;
#X obj -1463 466 noise~;
#X obj -1404 466 noise~;
#X obj -1345 466 noise~;
#X obj -1286 466 noise~;
#X obj -1227 466 noise~;
#X msg -1699 437 70;
#X msg -1640 437 57;
#X msg -1581 437 5699;
#X msg -1522 428 7.76679e+08;
#X msg -1463 405 433476;
#X msg -1404 437 3674;
#X msg -1227 437 2;
#X msg -1345 437 632;
#X msg -1286 437 639;
#X obj -1474 529 +~;
#X obj -1474 558 *~ 0.1112;
#X text -1327 404 approssimazione del rumore gaussiano;
#X obj -1476 167 outlet~;
#X connect 0 0 18 0;
#X connect 1 0 18 0;
#X connect 2 0 18 0;
#X connect 3 0 18 0;
#X connect 4 0 18 1;
#X connect 5 0 18 1;
#X connect 6 0 18 1;
#X connect 7 0 18 1;
#X connect 8 0 18 1;
#X connect 9 0 0 0;
#X connect 10 0 1 0;
#X connect 11 0 2 0;
#X connect 12 0 3 0;
#X connect 13 0 4 0;
#X connect 14 0 5 0;
#X connect 15 0 8 0;
#X connect 16 0 6 0;
#X connect 17 0 7 0;
#X connect 18 0 19 0;
#X connect 19 0 21 0;
#X restore -931 80 pd gaussian_approx;
#X obj -802 80 r \$0-exc_grain_freq;
#X obj -987 49 r \$0-graindel_deviation_wth;
#X obj -837 -315 r \$0-exc_phase_selector;
#X obj -882 -342 r \$0-exc_decay_freeze;
#X obj -891 -467 r \$0-exc_decay_time;
#X obj -917 -493 r \$0-exec_delay_time;
#X obj -732 168 s \$0-exec_delay_time;
#X obj -797 0 r \$0-dev_wdt_impose0;
#X obj -385 11 r \$0-reson_decay_freeze;
#X msg -385 66 -1;
#X obj -360 102 r \$0-reso_phase_selector;
#X obj -385 38 sel 1;
#X text -1457 -468 Non utilizzato al momento;
#X text -1457 -450 inserire al posto di [adc~] quando è necessario usarlo;
#X text -1563 -183 EXCITER IN;
#X text -1086 -241 FEEDBACK;
#X text 431 68 Lowpass;
#X obj 372 346 cnv 15 278 138 empty empty Size 20 12 0 14 #1b4442 #e1e1e1 0;
#X obj 387 369 knob 105 1 4000 0 0 \$0-rison_freq \$0-rison_freq_externalctrl #191919 #696969 #E1E1E1 1 0 0 0 1 270 0 0 1;
#X obj 497 374 nbx 12 24 -1e+37 1e+37 0 0 empty \$0-rison_freq Hz 122 21 0 10 #191919 #e1e1e1 #e1e1e1 0 256;
#X obj 497 409 nbx 12 24 -1e+37 1e+37 0 0 empty \$0-rison_lenght m 122 21 0 10 #191919 #e1e1e1 #e1e1e1 0 256;
#X obj 497 447 nbx 12 24 -1e+37 1e+37 0 0 empty \$0-rison_delay ms 122 21 0 10 #191919 #e1e1e1 #e1e1e1 0 256;
#X obj 660 346 cnv 15 451 170 empty empty Resonance\ Shape 20 12 0 14 #1b4442 #e1e1e1 0;
#X obj 828 447 knob 50 0.5 2 0 0 \$0-drive \$0-rison_drive_externalctrl #191919 #696969 #E1E1E1 1 0 0 0 1 270 0 0 0.5;
#X obj 1021 479 nbx 5 18 -1e+37 1e+37 0 0 empty \$0-feedback_lop_freq Hz 0 -4 0 10 #191919 #e1e1e1 #e1e1e1 0 256;
#X text 964 430 Lowpass;
#X floatatom 879 480 9 0 0 0 - \$0-drive - 12;
#X obj 880 448 hradio 29 1 0 2 \$0-sat_muter_radio empty empty 0 -8 0 10 #191919 #e1e1e1 #e1e1e1 0;
#X text 879 430 OFF;
#X text 909 430 ON;
#X obj 969 448 knob 50 20 8000 0 0 \$0-feedback_lop_freq \$0-rison_lp_externalctrl #191919 #696969 #E1E1E1 1 0 0 0 1 270 0 0 20;
#X floatatom 674 403 18 0 0 1 ms \$0-rison_decay_time - 16;
#X obj 677 371 hsl 414 27 100 10000 1 0 \$0-rison_decay_time \$0-rison_decay_externalctrl Feedback\ Decay 159 11 0 13 #191919 #e1e1e1 #e1e1e1 0 1;
#X obj 674 448 tgl 45 0 \$0-reson_decay_freeze empty Freeze -1 -8 0 12 #191919 #69a8b7 #e1e1e1 0 1;
#X obj 747 448 hradio 27 1 0 2 \$0-reso_phase_selector empty Phase 0 -8 0 12 #191919 #e1e1e1 #e1e1e1 0;
#X text 776 469 +;
#X text 753 469 -;
#X text 822 430 Drive;
#X obj 511 69 cnv 15 269 216 empty empty Grain\ Delay 20 12 0 14 #682324 #e1e1e1 0;
#X obj 526 105 knob 50 15 6000 0 0 \$0-exc_grain_freq \$0-exc_grainfreq_externalctrl #191919 #696969 #E1E1E1 1 0 0 0 1 270 0 0 15;
#X obj 526 156 nbx 4 18 -1e+37 1e+37 0 0 empty \$0-exc_grain_freq Hz 62 12 0 14 #191919 #e1e1e1 #e1e1e1 0 256;
#X obj -797 49 s \$0-dev_wdt_slider;
#X obj 618 107 hsl 147 26 0.1 10 1 0 \$0-graindel_deviation_wth \$0-exc_deviation_externalctrl empty -2 -8 0 10 #191919 #e1e1e1 #e1e1e1 0 1;
#X obj 616 157 bng 20 250 50 0 \$0-dev_wdt_impose0 empty set\ 0 17 7 0 10 #191919 #e1e1e1 #e1e1e1;
#X obj 616 135 nbx 8 20 -1e+37 1e+37 0 0 empty \$0-graindel_deviation_wth empty 0 -8 0 10 #191919 #e1e1e1 #e1e1e1 0 256;
#X text 520 90 Frequency;
#X text 610 92 Deviation Width;
#X obj 654 239 tgl 28 0 \$0-exc_decay_freeze empty Freeze -2 -6 0 10 #191919 #69a8b7 #e1e1e1 0 1;
#X obj 693 239 hradio 28 1 0 2 \$0-exc_phase_selector empty Phase 0 -5 0 10 #191919 #e1e1e1 #e1e1e1 0;
#X obj 529 200 hsl 233 26 100 1000 1 0 \$0-exc_decay_time \$0-exc_decay_externalctrl Feedback\ Decay -3 -7 0 12 #191919 #e1e1e1 #e1e1e1 0 1;
#X text 722 260 +;
#X text 699 260 -;
#X obj 526 227 nbx 8 16 -1e+37 1e+37 0 0 empty \$0-exc_decay_time ms 80 10 0 10 #191919 #e1e1e1 #e1e1e1 0 256;
#X obj -1292 191 r \$0-midi_freq_reso;
#X floatatom -1278 38 26 0 0 0 - - - 36;
#X obj -1335 96 s \$0-sigmundMIDI_exec;
#X obj -819 812 r \$0-sigmundMIDI_exec;
#X floatatom -1302 271 31 0 0 0 - - - 36;
#X obj -1435 293 s \$0-sigmundMIDI_;
#X obj -1335 59 - 0;
#X obj -1335 -34 sigmund~ -hop 8192 pitch env evenness quality -minpower 60;
#X obj -1435 228 mtof;
#X obj -1384 120 + 12;
#X obj -642 1046 *~;
#X obj -600 1046 *~;
#X msg -610 811 \$1 20;
#X msg -933 -173 \$1 20;
#X obj -465 1063 hsl 128 17 0 1 0 0 empty empty empty -2 -8 0 10 #191919 #e1e1e1 #e1e1e1 0 1;
#X msg -491 1096 \$1 10;
#X obj -491 1125 line~;
#X obj -1435 178 max 30;
#X obj -1335 8 max 30;
#X obj -1585 -94 hv.pinknoise~;
#X obj 21 -246 inlet;
#X obj -1356 -222 inlet~;
#X obj -520 1230 outlet~;
#X obj 165 -240 inlet;
#X obj 240 -239 inlet;
#X obj 318 -239 inlet;
#X obj 946 -245 inlet;
#X obj 1065 -239 inlet;
#X obj 1169 -239 inlet;
#X obj 1247 -239 inlet;
#X obj 21 -209 * 8000;
#X text 21 -266 LP;
#X obj 165 -202 * 6000;
#X text 145 -266 grain_freq;
#X obj 240 -202 * 10;
#X text 230 -259 deviation;
#X obj 318 -210 * 900;
#X obj 318 -181 + 100;
#X text 312 -259 decay time;
#X obj 946 -216 * 400;
#X obj 1065 -210 * 9900;
#X obj 1065 -181 + 100;
#X text 935 -266 frequncy reson;
#X text 1053 -259 decay time;
#X text 1164 -259 Drive;
#X text 1243 -259 Low pass;
#X obj 1169 -210 * 1.5;
#X obj 1169 -181 + 0.5;
#X obj 1247 -210 * 7980;
#X obj 1247 -181 + 20;
#X obj 21 -144 s \$0-exc_lp_externalctrl;
#X obj 180 -144 s \$0-exc_grainfreq_externalctrl;
#X obj 211 -107 s \$0-exc_deviation_externalctrl;
#X obj 414 -107 s \$0-exc_decay_externalctrl;
#X obj 879 -107 s \$0-rison_freq_externalctrl;
#X obj 1065 -121 s \$0-rison_decay_externalctrl;
#X obj 1200 -71 s \$0-rison_drive_externalctrl;
#X obj 1292 -107 s \$0-rison_lp_externalctrl;
#X obj -817 221 vd~ \$0-del_line_pulse;
#X obj -946 -53 delwrite~ \$0-del_line_pulse 35;
#X obj -538 173 r~ \$0-g;
#X obj -377 971 loadbang;
#X msg -377 1000 0.75;
#X obj -1117 -222 r~ \$0-exc_delay_feedback;
#X obj -769 258 s~ \$0-exc_delay_feedback;
#X obj -525 926 s~ \$0-g;
#X obj -610 877 vd~ \$0-del_line;
#X obj -540 621 delwrite~ \$0-del_line 35;
#X connect 2 0 152 0;
#X connect 2 0 204 0;
#X connect 3 0 2 0;
#X connect 4 0 18 0;
#X connect 5 0 13 0;
#X connect 5 0 30 0;
#X connect 6 0 5 1;
#X connect 7 0 19 0;
#X connect 7 0 157 0;
#X connect 8 0 212 0;
#X connect 9 0 212 0;
#X connect 10 0 11 0;
#X connect 11 0 12 1;
#X connect 12 0 8 0;
#X connect 13 0 10 0;
#X connect 14 0 13 1;
#X connect 15 0 14 0;
#X connect 16 0 6 0;
#X connect 17 0 7 0;
#X connect 17 0 4 0;
#X connect 23 0 28 0;
#X connect 24 0 26 0;
#X connect 25 0 9 1;
#X connect 26 0 25 0;
#X connect 27 0 8 1;
#X connect 28 0 27 0;
#X connect 29 0 15 0;
#X connect 30 0 12 0;
#X connect 31 0 32 0;
#X connect 31 0 33 0;
#X connect 31 1 34 0;
#X connect 31 1 35 0;
#X connect 32 0 38 0;
#X connect 33 0 39 0;
#X connect 34 0 38 0;
#X connect 35 0 39 0;
#X connect 36 0 11 1;
#X connect 37 0 36 0;
#X connect 40 0 42 0;
#X connect 41 0 30 1;
#X connect 42 0 41 0;
#X connect 43 0 37 0;
#X connect 44 0 31 0;
#X connect 45 0 211 0;
#X connect 47 0 48 0;
#X connect 48 0 49 0;
#X connect 52 0 53 0;
#X connect 53 0 60 1;
#X connect 54 0 204 0;
#X connect 55 0 54 1;
#X connect 56 0 52 0;
#X connect 56 0 57 0;
#X connect 56 0 98 0;
#X connect 58 0 60 0;
#X connect 59 0 58 0;
#X connect 60 0 89 0;
#X connect 60 0 203 0;
#X connect 61 0 133 0;
#X connect 62 0 64 0;
#X connect 63 0 65 0;
#X connect 64 0 67 0;
#X connect 64 0 68 1;
#X connect 65 0 64 0;
#X connect 65 1 64 1;
#X connect 66 0 68 0;
#X connect 67 0 66 0;
#X connect 68 0 75 0;
#X connect 69 0 70 0;
#X connect 69 1 71 0;
#X connect 70 0 74 0;
#X connect 71 0 74 0;
#X connect 72 0 16 0;
#X connect 73 0 72 0;
#X connect 74 0 73 0;
#X connect 74 1 72 1;
#X connect 75 0 73 0;
#X connect 75 1 73 1;
#X connect 76 0 79 0;
#X connect 76 0 80 1;
#X connect 77 0 76 0;
#X connect 77 1 76 1;
#X connect 78 0 80 0;
#X connect 79 0 78 0;
#X connect 80 0 87 0;
#X connect 81 0 82 0;
#X connect 81 1 83 0;
#X connect 82 0 86 0;
#X connect 83 0 86 0;
#X connect 84 0 158 0;
#X connect 84 0 88 0;
#X connect 85 0 84 0;
#X connect 86 0 85 0;
#X connect 86 1 84 1;
#X connect 87 0 85 0;
#X connect 87 1 85 1;
#X connect 90 0 85 1;
#X connect 91 0 58 1;
#X connect 92 0 56 0;
#X connect 93 0 59 0;
#X connect 94 0 81 0;
#X connect 95 0 90 0;
#X connect 96 0 77 0;
#X connect 97 0 76 0;
#X connect 99 0 61 0;
#X connect 100 0 103 0;
#X connect 101 0 73 1;
#X connect 102 0 69 0;
#X connect 103 0 101 0;
#X connect 148 0 50 0;
#X connect 151 0 146 0;
#X connect 151 0 147 0;
#X connect 152 0 163 0;
#X connect 153 0 150 0;
#X connect 154 0 149 0;
#X connect 154 0 162 0;
#X connect 155 0 167 0;
#X connect 157 0 45 0;
#X connect 158 0 55 0;
#X connect 159 0 160 0;
#X connect 160 0 161 0;
#X connect 161 0 156 1;
#X connect 161 0 155 1;
#X connect 162 0 153 0;
#X connect 163 0 151 0;
#X connect 165 0 175 0;
#X connect 166 0 152 0;
#X connect 166 0 204 0;
#X connect 168 0 177 0;
#X connect 169 0 179 0;
#X connect 170 0 181 0;
#X connect 171 0 184 0;
#X connect 172 0 185 0;
#X connect 173 0 191 0;
#X connect 174 0 193 0;
#X connect 175 0 195 0;
#X connect 177 0 196 0;
#X connect 179 0 197 0;
#X connect 181 0 182 0;
#X connect 182 0 198 0;
#X connect 184 0 199 0;
#X connect 185 0 186 0;
#X connect 186 0 200 0;
#X connect 191 0 192 0;
#X connect 192 0 201 0;
#X connect 193 0 194 0;
#X connect 194 0 202 0;
#X connect 203 0 9 0;
#X connect 203 0 209 0;
#X connect 205 0 5 0;
#X connect 206 0 207 0;
#X connect 207 0 159 0;
#X connect 208 0 54 0;
#X connect 211 0 156 0;
#X connect 211 0 155 0;
#X connect 211 0 210 0;
#X coords 0 0 1 1 805 558 1 342 -12;
