#N canvas 827 239 527 327 12;
#X obj 395 -272 adc~ 1;
#X obj 395 -167 *~;
#X obj 535 -185 osc~;
#X obj 535 -156 +~ 1;
#X obj 535 -127 *~ 0.5;
#X obj 395 -74 dac~ 1;
#X obj 684 -248 +~;
#X obj 695 -325 osc~;
#X obj 28 49 vradio 20 1 0 6 empty empty empty 0 -8 0 10 #191919 #e1e1e1 #e1e1e1 0;
#X obj 25 250 sel 0 1 2 3 4 5;
#X msg 15 300 0.1618;
#X msg 78 300 0.3236;
#X msg 145 300 0.48541;
#X msg 217 300 0.64721;
#X msg 289 300 0.809;
#X msg 356 300 0.9708;
#X obj 164 390 s \$0-freq;
#X obj 535 -449 r \$0-freq;
#X obj 535 -290 sig~;
#X obj 695 -351 sig~;
#X obj 695 -375 * 1.61803;
#X obj 535 -418 * 0.125;
#X obj 695 -296 *~ 2.5;
#X obj 295 -523 loadbang;
#X floatatom 295 -375 19 0 0 0 - - - 36;
#X obj 295 -457 random 10000;
#X obj 295 -425 / 10000;
#X obj 589 -234 r \$0-freq;
#X floatatom 603 -165 14 0 0 0 - - - 36;
#X obj 25 7 r radio_choice;
#X obj 363 101 param radio_choice;
#X obj 465 58 tgl 25 0 empty empty empty 17 7 0 10 #191919 #e1e1e1 #e1e1e1 0 1;
#X obj 463 19 loadbang;
#X connect 0 0 1 0;
#X connect 1 0 5 0;
#X connect 2 0 3 0;
#X connect 3 0 4 0;
#X connect 4 0 1 1;
#X connect 7 0 22 0;
#X connect 8 0 9 0;
#X connect 9 0 10 0;
#X connect 9 1 11 0;
#X connect 9 2 12 0;
#X connect 9 3 13 0;
#X connect 9 4 14 0;
#X connect 9 5 15 0;
#X connect 10 0 16 0;
#X connect 11 0 16 0;
#X connect 12 0 16 0;
#X connect 13 0 16 0;
#X connect 14 0 16 0;
#X connect 15 0 16 0;
#X connect 17 0 21 0;
#X connect 18 0 2 0;
#X connect 19 0 7 0;
#X connect 20 0 19 0;
#X connect 21 0 18 0;
#X connect 21 0 20 0;
#X connect 22 0 6 1;
#X connect 23 0 25 0;
#X connect 25 0 26 0;
#X connect 26 0 24 0;
#X connect 27 0 2 1;
#X connect 27 0 28 0;
#X connect 29 0 8 0;
#X connect 31 0 30 1;
#X connect 32 0 31 0;
