#N canvas 827 239 527 327 12;
#X obj 761 287 cnv 15 762 374 empty empty empty 20 12 0 14 #181b2c #e1e1e1 0;
#X obj 122 756 dac~;
#X obj 305 643 line~;
#X obj 174 687 *~;
#X msg 324 608 \$1 50;
#X obj 215 641 line~;
#X obj 84 685 *~;
#X msg 234 606 \$1 50;
#X obj 1174 346 vsl 60 244 0 0.25 0 0 bin_beat_volume empty volume\ LR -11 -6 0 10 #00021e #972a00 #e1e1e1 0 0;
#X obj 254 571 r bin_beat_volume;
#X obj 894 346 oscope~ 272 250 4 3 256 -1 1 0 0 0 0 12 86 90 0 2 30 38 15 0 0 empty;
#X obj 921 808 r bin_beat_volume;
#X obj 921 837 rmstodb;
#X obj 988 871 - 100;
#X obj 28 487 s~ oscL;
#X obj 207 486 s~ oscR;
#X obj 894 252 r~ oscL;
#X obj 1139 251 r~ oscR;
#X obj 415 382 loadbang;
#X msg 373 405 0;
#X obj 78 267 r freq_osc_L;
#X obj 78 402 sig~;
#X obj 180 397 sig~;
#X obj 180 262 r freq_osc_R;
#X obj 183 368 t b f;
#X obj 78 375 t b f;
#X obj 372 345 r phase_reset;
#X obj 1238 550 bng 40 250 50 0 empty empty phase\ 0 3 -5 0 10 #00021e #ff5800 #e1e1e1;
#X obj 84 439 osc~;
#X obj 173 439 osc~;
#X obj 793 346 knob 96 100 1500 0 300 center_freq empty #00021e #5a2004 #e14200 1 0 0 0 1 270 0 0 100;
#X obj 792 494 knob 96 3.3 40 0 10 delta_freq empty #00021e #5a2004 #e14200 1 0 0 0 1 270 0 0 3.3;
#X text 382 571 !!! BEWARE !!!;
#X text 378 589 NOT TOO LOUD;
#X text 3 4 Binaural Beats Generator;
#X text 820 477 delta;
#X obj 793 447 nbx 7 21 -1e+37 1e+37 0 0 empty empty Hz 69 9 0 13 #00021e #e14200 #e14200 0 256;
#X obj 792 594 nbx 7 19 -1e+37 1e+37 0 0 empty empty Hz 69 9 0 13 #00021e #e14200 #e14200 0 256;
#X obj 27 68 r center_freq;
#X obj 141 68 r delta_freq;
#X obj 137 102 t b f;
#X obj 45 201 s freq_osc_L;
#X obj 143 198 s freq_osc_R;
#X obj 1171 596 nbx 7 41 -1e+37 1e+37 0 0 empty empty dBA 80 9 0 13 #00021e #e14200 #e14200 0 256;
#X obj 894 596 nbx 10 41 -1e+37 1e+37 0 0 empty freq_osc_L Hz 115 9 0 13 #00021e #e14200 #e14200 0 256;
#X obj 1031 596 nbx 10 41 -1e+37 1e+37 0 0 empty freq_osc_R Hz 115 9 0 13 #00021e #e14200 #e14200 0 256;
#X obj 56 146 expr $f1 - ($f2/2) \; $f1 + ($f2/2);
#X obj 1241 346 cnv 15 246 172 empty empty manual_mode 20 12 0 14 #2c314f #e1b900 0;
#X obj 1262 380 knob 96 100 1500 0 300 manual_freq_L empty #00021e #574700 #e1b900 1 0 0 0 1 270 0 0 100;
#X obj 1262 480 nbx 7 24 -1e+37 1e+37 0 0 empty empty Hz 69 9 0 13 #00021e #e1b900 #e1b900 0 256;
#X text 802 330 center freq.;
#X obj 1365 380 knob 96 100 1500 0 300 manual_freq_R empty #00021e #574700 #e1b900 1 0 0 0 1 270 0 0 100;
#X obj 1365 480 nbx 7 24 -1e+37 1e+37 0 0 empty empty Hz 69 9 0 13 #00021e #e1b900 #e1b900 0 256;
#X obj 1462 346 tgl 25 0 empty empty empty 17 7 0 10 #00021e #e1b900 #000000 0 1;
#X obj 270 68 r manual_freq_L;
#X obj 430 68 r manual_freq_R;
#X obj 337 161 expr $f2 -$f1;
#X obj 376 120 t b f;
#X obj 337 220 s manual_delta;
#X obj -27 304 r manual_freq_L;
#X obj 133 304 r manual_freq_R;
#X obj 337 189 abs;
#X obj 751 154 loadbang;
#X msg 751 183 300;
#X msg 751 209 10;
#X msg 751 234 0.05;
#X connect 2 0 3 1;
#X connect 3 0 1 1;
#X connect 4 0 2 0;
#X connect 5 0 6 1;
#X connect 6 0 1 0;
#X connect 7 0 5 0;
#X connect 9 0 4 0;
#X connect 9 0 7 0;
#X connect 11 0 12 0;
#X connect 12 0 13 0;
#X connect 13 0 43 0;
#X connect 16 0 10 0;
#X connect 17 0 10 1;
#X connect 18 0 19 0;
#X connect 19 0 28 1;
#X connect 19 0 29 1;
#X connect 20 0 25 0;
#X connect 21 0 28 0;
#X connect 22 0 29 0;
#X connect 23 0 24 0;
#X connect 24 1 22 0;
#X connect 25 1 21 0;
#X connect 26 0 19 0;
#X connect 28 0 6 0;
#X connect 28 0 14 0;
#X connect 29 0 3 0;
#X connect 29 0 15 0;
#X connect 30 0 36 0;
#X connect 31 0 37 0;
#X connect 38 0 46 0;
#X connect 39 0 40 0;
#X connect 40 0 46 0;
#X connect 40 1 46 1;
#X connect 46 0 41 0;
#X connect 46 1 42 0;
#X connect 48 0 49 0;
#X connect 51 0 52 0;
#X connect 54 0 56 0;
#X connect 55 0 57 0;
#X connect 56 0 61 0;
#X connect 57 0 56 0;
#X connect 57 1 56 1;
#X connect 59 0 25 0;
#X connect 60 0 24 0;
#X connect 61 0 58 0;
#X connect 62 0 63 0;
#X connect 62 0 65 0;
#X connect 63 0 30 0;
#X connect 64 0 31 0;
#X connect 65 0 8 0;
