#N canvas 0 0 1350 674 10;
#X obj 41 26 inlet~;
#X obj 41 570 outlet~;
#X obj 141 100 clip~;
#X obj 41 419 *~;
#X obj 860 184 tgl 15 0 \$0-clip_bypass empty bypass 17 7 0 10 #fcfcfc
#000000 #000000 0 1;
#X obj 727 208 hsl 128 15 0 1 0 0 \$0-cliplim_sup empty lim_sup 52
4 0 10 #fcfcfc #000000 #000000 0 1;
#X floatatom 862 207 5 0 0 1 linear_amp - -, f 5;
#X obj 727 238 hsl 128 15 -1 0 0 0 \$0-cliplim_inf empty lim_inf 52
4 0 10 #fcfcfc #000000 #000000 0 1;
#X floatatom 862 237 5 0 0 1 linear_amp - -, f 5;
#X obj 197 47 r \$0-cliplim_sup;
#X obj 197 67 r \$0-cliplim_inf;
#X obj 727 268 hsl 128 15 0.01 1 0 0 \$0-clip_outputgain empty output_gain
52 4 0 10 #fcfcfc #000000 #000000 0 1;
#X floatatom 861 267 5 0 0 1 dB - -, f 5;
#X obj 813 364 rmstodb;
#X obj 187 349 expr 1 - $i1;
#X obj 249 307 r \$0-clip_bypass;
#X obj 187 390 line~;
#X msg 187 370 \$1 20;
#X obj 91 459 *~;
#X obj 237 430 line~;
#X msg 237 410 \$1 20;
#X obj 82 200 *~;
#X obj 112 230 *~;
#X obj 179 189 line~;
#X msg 179 169 \$1 20;
#X obj 89 167 line~;
#X msg 89 147 \$1 20;
#X obj 81 265 +~;
#X obj 246 123 expr (100-$f1)/100 \; $f1 /100;
#X text 253 153 DRY;
#X text 334 153 WET;
#X obj 705 204 vsl 15 80 0 100 0 0 \$0-clip_drywet empty empty 0 -9
0 10 #fcfcfc #000000 #000000 3950 1;
#X floatatom 705 290 5 0 0 1 % - -, f 5;
#X text 699 307 Dry/Wet;
#X obj 250 100 r \$0-clip_drywet;
#X floatatom 383 178 5 0 0 0 - - -, f 5;
#X floatatom 260 178 5 0 0 0 - - -, f 5;
#X obj 41 513 *~;
#X obj 126 523 line~;
#X msg 126 503 \$1 20;
#X obj 126 482 r \$0-clip_outputgain;
#X obj 41 485 +~;
#X obj 560 203 loadbang;
#X msg 560 230 0;
#X msg 630 260 50;
#X obj 890 72 r \$1;
#X obj 890 94 route lim_sup lim_inf output_gain drywet bypass;
#X connect 0 0 2 0;
#X connect 0 0 21 0;
#X connect 0 0 3 0;
#X connect 2 0 22 0;
#X connect 3 0 41 0;
#X connect 5 0 6 0;
#X connect 7 0 8 0;
#X connect 9 0 2 2;
#X connect 10 0 2 1;
#X connect 11 0 13 0;
#X connect 13 0 12 0;
#X connect 14 0 17 0;
#X connect 15 0 14 0;
#X connect 15 0 20 0;
#X connect 16 0 18 1;
#X connect 17 0 16 0;
#X connect 18 0 41 1;
#X connect 19 0 3 1;
#X connect 20 0 19 0;
#X connect 21 0 27 0;
#X connect 22 0 27 1;
#X connect 23 0 22 1;
#X connect 24 0 23 0;
#X connect 25 0 21 1;
#X connect 26 0 25 0;
#X connect 27 0 18 0;
#X connect 28 0 26 0;
#X connect 28 0 36 0;
#X connect 28 1 24 0;
#X connect 28 1 35 0;
#X connect 31 0 32 0;
#X connect 34 0 28 0;
#X connect 37 0 1 0;
#X connect 38 0 37 1;
#X connect 39 0 38 0;
#X connect 40 0 39 0;
#X connect 41 0 37 0;
#X connect 42 0 43 0;
#X connect 42 0 44 0;
#X connect 43 0 4 0;
#X connect 44 0 31 0;
#X connect 45 0 46 0;
#X connect 46 0 5 0;
#X connect 46 1 7 0;
#X connect 46 2 11 0;
#X connect 46 3 31 0;
#X connect 46 4 4 0;
#X coords 0 -1 1 1 283 158 1 681 172;
