#N canvas 0 0 1350 674 10;
#X obj 120 273 -~;
#X obj 210 272 -~;
#X obj 300 272 -~;
#X obj 388 272 -~;
#X obj 486 272 -~;
#X obj 586 272 -~;
#X obj 686 272 -~;
#X obj 906 116 loadbang;
#X obj 30 19 inlet~;
#X obj 30 384 *~;
#X obj 120 384 *~;
#X obj 210 384 *~;
#X obj 300 384 *~;
#X obj 388 384 *~;
#X obj 486 384 *~;
#X obj 586 384 *~;
#X obj 686 384 *~;
#X obj 1045 379 vsl 10 100 0 1 0 0 \$0-comb_1 empty 1 2 8 0 10 #fcfcfc
#000000 #000000 0 1;
#X obj 1058 379 vsl 10 100 0 1 0 0 \$0-comb_2 empty 2 2 8 0 10 #fcfcfc
#000000 #000000 0 1;
#X obj 1071 379 vsl 10 100 0 1 0 0 \$0-comb_3 empty 3 2 8 0 10 #fcfcfc
#000000 #000000 0 1;
#X obj 1084 379 vsl 10 100 0 1 0 0 \$0-comb_4 empty 4 2 8 0 10 #fcfcfc
#000000 #000000 0 1;
#X obj 1097 379 vsl 10 100 0 1 0 0 \$0-comb_5 empty 5 2 8 0 10 #fcfcfc
#000000 #000000 0 1;
#X obj 1110 379 vsl 10 100 0 1 0 0 \$0-comb_6 empty 6 2 8 0 10 #fcfcfc
#000000 #000000 0 1;
#X obj 1123 379 vsl 10 100 0 1 0 0 \$0-comb_7 empty 7 2 8 0 10 #fcfcfc
#000000 #000000 0 1;
#X obj 1136 379 vsl 10 100 0 1 0 0 \$0-comb_8 empty 8 2 8 0 10 #fcfcfc
#000000 #000000 0 1;
#X obj 45 359 line~;
#X msg 45 335 \$1 30;
#X obj 45 312 r \$0-comb_1;
#X obj 135 359 line~;
#X msg 135 335 \$1 30;
#X obj 225 359 line~;
#X msg 225 335 \$1 30;
#X obj 315 359 line~;
#X msg 315 335 \$1 30;
#X obj 403 359 line~;
#X msg 403 335 \$1 30;
#X obj 503 359 line~;
#X msg 503 335 \$1 30;
#X obj 601 359 line~;
#X msg 601 335 \$1 30;
#X obj 701 359 line~;
#X msg 701 335 \$1 30;
#X obj 701 312 r \$0-comb_8;
#X obj 601 312 r \$0-comb_7;
#X obj 503 312 r \$0-comb_6;
#X obj 403 312 r \$0-comb_5;
#X obj 315 312 r \$0-comb_4;
#X obj 225 312 r \$0-comb_3;
#X obj 135 312 r \$0-comb_2;
#X obj 388 504 outlet~;
#X obj 388 465 +~;
#X obj 30 270 -~;
#X obj 45 238 delay~ 50;
#X obj 135 239 delay~ 50;
#X obj 225 240 delay~ 50;
#X obj 315 240 delay~ 50;
#X obj 403 240 delay~ 50;
#X obj 501 240 delay~ 50;
#X obj 601 240 delay~ 50;
#X obj 701 240 delay~ 50;
#X msg 78 214 5;
#X msg 168 214 7;
#X msg 258 214 13;
#X msg 338 214 17;
#X msg 426 214 19;
#X msg 526 214 23;
#X msg 626 214 29;
#X msg 726 214 31;
#X obj 1013 215 inlet;
#X obj 1053 215 inlet;
#X obj 1093 215 inlet;
#X obj 1133 215 inlet;
#X obj 1173 215 inlet;
#X obj 1213 215 inlet;
#X obj 1253 215 inlet;
#X obj 1293 215 inlet;
#X connect 0 0 10 0;
#X connect 1 0 11 0;
#X connect 2 0 12 0;
#X connect 3 0 13 0;
#X connect 4 0 14 0;
#X connect 5 0 15 0;
#X connect 6 0 16 0;
#X connect 7 0 60 0;
#X connect 7 0 62 0;
#X connect 7 0 63 0;
#X connect 7 0 64 0;
#X connect 7 0 65 0;
#X connect 7 0 66 0;
#X connect 7 0 67 0;
#X connect 7 0 61 0;
#X connect 8 0 0 0;
#X connect 8 0 1 0;
#X connect 8 0 2 0;
#X connect 8 0 3 0;
#X connect 8 0 4 0;
#X connect 8 0 5 0;
#X connect 8 0 6 0;
#X connect 8 0 51 0;
#X connect 8 0 52 0;
#X connect 8 0 53 0;
#X connect 8 0 54 0;
#X connect 8 0 55 0;
#X connect 8 0 56 0;
#X connect 8 0 57 0;
#X connect 8 0 58 0;
#X connect 8 0 59 0;
#X connect 9 0 50 0;
#X connect 10 0 50 0;
#X connect 11 0 50 0;
#X connect 12 0 50 0;
#X connect 13 0 50 0;
#X connect 14 0 50 1;
#X connect 15 0 50 1;
#X connect 16 0 50 1;
#X connect 25 0 9 1;
#X connect 26 0 25 0;
#X connect 27 0 26 0;
#X connect 28 0 10 1;
#X connect 29 0 28 0;
#X connect 30 0 11 1;
#X connect 31 0 30 0;
#X connect 32 0 12 1;
#X connect 33 0 32 0;
#X connect 34 0 13 1;
#X connect 35 0 34 0;
#X connect 36 0 14 1;
#X connect 37 0 36 0;
#X connect 38 0 15 1;
#X connect 39 0 38 0;
#X connect 40 0 16 1;
#X connect 41 0 40 0;
#X connect 42 0 41 0;
#X connect 43 0 39 0;
#X connect 44 0 37 0;
#X connect 45 0 35 0;
#X connect 46 0 33 0;
#X connect 47 0 31 0;
#X connect 48 0 29 0;
#X connect 50 0 49 0;
#X connect 51 0 9 0;
#X connect 52 0 51 1;
#X connect 53 0 0 1;
#X connect 54 0 1 1;
#X connect 55 0 2 1;
#X connect 56 0 3 1;
#X connect 57 0 4 1;
#X connect 58 0 5 1;
#X connect 59 0 6 1;
#X connect 60 0 52 1;
#X connect 61 0 53 1;
#X connect 62 0 54 1;
#X connect 63 0 55 1;
#X connect 64 0 56 1;
#X connect 65 0 57 1;
#X connect 66 0 58 1;
#X connect 67 0 59 1;
#X connect 68 0 17 0;
#X connect 69 0 18 0;
#X connect 70 0 19 0;
#X connect 71 0 20 0;
#X connect 72 0 21 0;
#X connect 73 0 22 0;
#X connect 74 0 23 0;
#X connect 75 0 24 0;
#X coords 0 -1 1 1 133 128 1 1030 361;
