#N canvas -8 -8 1366 695 12;
#X obj 515 180 delwrite~ del_line_tre 5000;
#X obj 315 180 delwrite~ del_line_due 5000;
#X obj 115 180 delwrite~ del_line_uno 5000;
#X obj 184 247 delread~ del_line_uno;
#X obj 69 40 inlet~;
#X obj 36 451 *~;
#X obj 55 414 line~;
#X obj 55 364 r \$0-wet;
#X obj 146 451 *~;
#X obj 165 414 line~;
#X obj 165 364 r \$0-dry;
#X obj 81 628 outlet~;
#X obj 344 247 delread~ del_line_due;
#X obj 504 247 delread~ del_line_tre;
#X obj 184 219 r \$0-deltime_uno;
#X obj 344 219 r \$0-deltime_due;
#X obj 504 219 r \$0-deltime_tre;
#X obj 266 381 *~;
#X msg 292 330 $ 50;
#X obj 292 354 line~;
#X obj 265 294 +~;
#X obj 292 306 r \$0-feedback_amp;
#X obj 267 415 s~ \$0-feedback;
#X obj 350 95 r~ \$0-feedback;
#X obj 825 272 hsl 170 15 0 1 0 0 \$0-wet empty wet 35 8 0 10 -262144
-1 -1 0 1;
#X floatatom 997 269 5 0 0 1 - - -;
#X obj 825 250 hsl 170 15 0 1 0 0 \$0-dry empty dry 35 8 0 10 -262144
-1 -1 0 1;
#X floatatom 997 247 5 0 0 1 - - -;
#X obj 825 224 hsl 170 15 0 0.7 0 0 \$0-dry empty feedback 35 8 0 10
-262144 -1 -1 0 1;
#X floatatom 997 221 5 0 0 1 - - -;
#X obj 825 184 hsl 170 15 100 5000 0 0 \$0-deltime_uno empty time1
35 8 0 10 -262144 -1 -1 0 1;
#X floatatom 997 181 5 0 0 1 - - -;
#X obj 825 164 hsl 170 15 100 5000 0 0 \$0-deltime_due empty time2
35 8 0 10 -262144 -1 -1 0 1;
#X floatatom 997 161 5 0 0 1 - - -;
#X obj 825 144 hsl 170 15 100 5000 0 0 \$0-deltime_tre empty time3
35 8 0 10 -262144 -1 -1 0 1;
#X floatatom 997 141 5 0 0 1 - - -;
#X msg 165 390 \$1 50;
#X msg 55 390 \$1 50;
#X text 767 67 Scricchiola anche con le rampe \, cambiare quando non
viene riprodotto niente;
#X obj 996 121 tgl 15 0 \$0-ph_dis_bypass empty bypass 17 7 0 10 -262144
-1 -1 0 1;
#X obj 111 502 r \$0-ph_dis_bypass;
#X obj 82 591 *~;
#X obj 111 524 expr 1-$i1;
#X msg 111 548 \$1 10;
#X obj 111 572 line~;
#X msg 996 44 0;
#X obj 996 20 loadbang;
#X obj 83 481 +~;
#X connect 3 0 20 0;
#X connect 4 0 8 0;
#X connect 4 0 2 0;
#X connect 4 0 1 0;
#X connect 4 0 0 0;
#X connect 5 0 47 0;
#X connect 6 0 5 1;
#X connect 7 0 37 0;
#X connect 8 0 47 1;
#X connect 9 0 8 1;
#X connect 10 0 36 0;
#X connect 12 0 20 0;
#X connect 13 0 20 1;
#X connect 14 0 3 0;
#X connect 15 0 12 0;
#X connect 16 0 13 0;
#X connect 17 0 22 0;
#X connect 18 0 19 0;
#X connect 19 0 17 1;
#X connect 20 0 17 0;
#X connect 20 0 5 0;
#X connect 21 0 18 0;
#X connect 23 0 2 0;
#X connect 23 0 1 0;
#X connect 23 0 0 0;
#X connect 24 0 25 0;
#X connect 26 0 27 0;
#X connect 28 0 29 0;
#X connect 30 0 31 0;
#X connect 32 0 33 0;
#X connect 34 0 35 0;
#X connect 36 0 9 0;
#X connect 37 0 6 0;
#X connect 40 0 42 0;
#X connect 41 0 11 0;
#X connect 42 0 43 0;
#X connect 43 0 44 0;
#X connect 44 0 41 1;
#X connect 45 0 39 0;
#X connect 46 0 45 0;
#X connect 47 0 41 0;
#X coords 0 -1 1 1 250 200 1 800 100;
