#N canvas 0 0 1350 674 10;
#X obj 96 45 inlet~;
#X obj 199 310 *~;
#X obj 214 285 line~;
#X msg 214 265 \$1 20;
#X obj 199 375 s~ \$0-dfDelay_feedback;
#X obj 143 46 r~ \$0-dfDelay_feedback;
#X obj 641 155 hsl 128 15 0 2000 0 0 \$0-dfd_time empty delayTime 36
6 0 10 #fcfcfc #000000 #000000 0 1;
#X obj 267 168 r \$0-dfd_time;
#X obj 641 182 hsl 128 15 0 0.99 0 0 \$0-dd_feedback empty Feedback
37 5 0 10 #fcfcfc #000000 #000000 0 1;
#X obj -92 647 outlet~;
#X floatatom 775 154 5 0 0 0 - - -, f 5;
#X floatatom 775 181 5 0 0 0 - - -, f 5;
#X obj 229 468 *~;
#X obj 244 445 line~;
#X msg 244 425 \$1 20;
#X obj 384 207 s \$0-feedback2;
#X obj 229 493 s~ \$0-dfDelay_feedback2;
#X obj 300 46 r~ \$0-dfDelay_feedback2;
#X obj 143 118 +~;
#X obj 97 151 +~;
#X obj 641 212 hsl 128 15 0 0.99 0 0 \$0-dfd_feedback2 empty Feedback
37 5 0 10 #fcfcfc #000000 #000000 0 1;
#X floatatom 775 211 5 0 0 0 - - -, f 5;
#X obj 214 247 r \$0-dfd_feedback;
#X obj 244 397 r \$0-dfd_feedback2;
#X obj -104 556 *~;
#X obj 42 486 expr 1 - $i1;
#X obj 42 527 line~;
#X msg 42 507 \$1 20;
#X obj -54 596 *~;
#X obj 92 567 line~;
#X msg 92 547 \$1 20;
#X obj -92 617 +~;
#X obj 104 444 r \$0-ddf_bypass;
#X obj 717 248 tgl 15 0 \$0-ddf_bypass empty empty 17 7 0 10 #fcfcfc
#000000 #000000 0 1;
#X obj 876 193 loadbang;
#X msg 876 218 0;
#X obj 633 16 r \$1;
#X obj 633 41 route delayTime feedback1 feedback2;
#X obj 200 126 delread4~ \$0_del1;
#X obj 97 222 delread4~ \$0_del1;
#X obj 268 280 expr ($f1*0.5);
#X obj 199 352 delread4~ \$0_del2;
#X obj 200 332 delwrite~ \$0_del2 2000;
#X obj 97 182 delwrite~ \$0_del1 2001;
#X connect 0 0 19 0;
#X connect 0 0 24 0;
#X connect 1 0 42 0;
#X connect 2 0 1 1;
#X connect 3 0 2 0;
#X connect 5 0 18 0;
#X connect 6 0 10 0;
#X connect 7 0 39 0;
#X connect 7 0 40 0;
#X connect 8 0 11 0;
#X connect 12 0 16 0;
#X connect 13 0 12 1;
#X connect 14 0 13 0;
#X connect 17 0 18 1;
#X connect 18 0 19 1;
#X connect 19 0 43 0;
#X connect 20 0 21 0;
#X connect 22 0 3 0;
#X connect 23 0 14 0;
#X connect 24 0 31 0;
#X connect 25 0 27 0;
#X connect 26 0 28 1;
#X connect 27 0 26 0;
#X connect 28 0 31 1;
#X connect 29 0 24 1;
#X connect 30 0 29 0;
#X connect 31 0 9 0;
#X connect 32 0 25 0;
#X connect 32 0 30 0;
#X connect 34 0 35 0;
#X connect 35 0 33 0;
#X connect 36 0 37 0;
#X connect 37 0 6 0;
#X connect 37 1 8 0;
#X connect 37 2 20 0;
#X connect 39 0 1 0;
#X connect 39 0 12 0;
#X connect 39 0 28 0;
#X connect 40 0 41 0;
#X connect 41 0 4 0;
#X coords 0 -1 1 1 184 138 1 632 136;
