#N canvas -8 -8 1366 695 12;
#X text 627 447 0.375 = Hann \, 4 = Upsample \, 4096 = Block size;
#X obj 706 62 samplerate~;
#X obj 661 92 swap;
#X obj 661 116 /;
#X msg 707 169 0;
#X obj 661 145 t f b;
#X obj 661 193 phasor~;
#X obj 661 219 *~ 2;
#X obj 661 246 -~ 0.25;
#X obj 661 269 cos~;
#X obj 686 26 loadbang;
#X obj 657 376 loadbang;
#X obj 629 386 bng 15 250 50 0 empty empty empty 17 7 0 10 -262144
-1 -1;
#X obj 657 347 block~ 8192 4;
#X msg 646 62 8192;
#X obj 646 26 bng 15 250 50 0 empty empty empty 17 7 0 10 -262144 -1
-1;
#X obj 657 401 expr 1/(0.375*8192*4);
#X obj 294 351 rfft~;
#X obj 294 493 rifft~;
#X obj 284 390 *~ 0;
#X obj 337 390 *~ 0;
#X obj 294 453 *~;
#X obj 332 453 *~;
#X obj 294 322 *~;
#X obj 294 522 *~;
#X obj 30 244 osc~;
#X obj 28 320 clip~ 0 1;
#X obj 365 128 hsl 170 15 1 5000 0 0 \$0-carrier_freq empty carrier_freq
35 8 0 10 -262144 -1 -1 8600 1;
#X obj 30 181 sig~;
#X obj 30 211 +~;
#X obj 365 154 hsl 170 15 0 1 0 0 \$0-dry empty dry 40 8 0 10 -262144
-1 -1 0 1;
#X floatatom 537 125 5 0 0 1 Hz - -;
#X obj 29 292 abs~;
#X obj 92 224 abs~;
#X floatatom 537 152 5 0 0 0 - - -;
#X obj 217 228 inlet~;
#X obj 91 249 *~ 512;
#X obj 162 154 abs~;
#X obj 161 179 *~ 512;
#X obj 229 84 abs~;
#X obj 228 109 *~ 512;
#X obj 365 181 hsl 170 15 0 1 0 0 \$0-wet empty wet 40 8 0 10 -262144
-1 -1 1100 1;
#X floatatom 537 179 5 0 0 0 - - -;
#X obj 217 552 *~;
#X obj 295 554 *~;
#X obj 30 130 r \$0-carrier_freq;
#X obj 359 532 line~;
#X msg 359 509 \$1 50;
#X obj 359 486 r \$0-wet;
#X obj 234 522 line~;
#X msg 234 499 \$1 50;
#X obj 234 476 r \$0-dry;
#X obj 28 399 tabsend~ \$0-filter;
#X obj 781 156 table \$0-filter 8192;
#X obj 781 132 table \$0-window 8192;
#X obj 661 294 tabwrite~ \$0-window;
#X obj 334 299 tabreceive~ \$0-window;
#X obj 657 424 s \$0-norm;
#X obj 362 357 r \$0-norm;
#X obj 93 8 inlet;
#X obj 93 38 unpack f f f;
#X obj 93 62 sig~;
#X obj 133 62 sig~;
#X obj 92 173 +~;
#X obj 162 103 +~;
#X obj 92 196 osc~;
#X obj 162 126 osc~;
#X obj 229 56 osc~;
#X text 138 8 Lista con valori frequenze;
#X text 651 526 FILTRO NORD: 64 Hz \, 64 Hz \, 64 Hz;
#X text 651 596 FILTRO SUD: 0 Hz \, 0 Hz \, 0 Hz;
#X text 531 556 FILTRO EST: 64 Hz \, 0 Hz \, 64 Hz;
#X text 761 556 FILTRO OVEST: 0 Hz \, 64 Hz \, 0 Hz;
#X obj 537 106 tgl 15 0 \$0-ph_dis_bypass empty bypass 17 7 0 10 -262144
-1 -1 0 1;
#X obj 253 685 *~;
#X obj 282 618 expr 1-$i1;
#X msg 282 642 \$1 10;
#X obj 282 666 line~;
#X msg 537 64 0;
#X obj 537 17 loadbang;
#X obj 254 592 +~;
#X obj 252 711 outlet~;
#X obj 282 596 r \$0-FDF_bypass;
#X connect 1 0 2 1;
#X connect 2 0 3 0;
#X connect 2 1 3 1;
#X connect 3 0 5 0;
#X connect 4 0 6 1;
#X connect 5 0 6 0;
#X connect 5 1 4 0;
#X connect 5 1 55 0;
#X connect 6 0 7 0;
#X connect 7 0 8 0;
#X connect 8 0 9 0;
#X connect 9 0 55 0;
#X connect 10 0 1 0;
#X connect 10 0 14 0;
#X connect 11 0 16 0;
#X connect 12 0 16 0;
#X connect 14 0 2 0;
#X connect 15 0 14 0;
#X connect 15 0 1 0;
#X connect 16 0 57 0;
#X connect 17 0 19 0;
#X connect 17 1 20 0;
#X connect 18 0 24 0;
#X connect 19 0 21 0;
#X connect 20 0 22 0;
#X connect 21 0 18 0;
#X connect 22 0 18 1;
#X connect 23 0 17 0;
#X connect 24 0 44 0;
#X connect 25 0 32 0;
#X connect 26 0 21 1;
#X connect 26 0 22 1;
#X connect 26 0 52 0;
#X connect 27 0 31 0;
#X connect 28 0 29 0;
#X connect 29 0 25 0;
#X connect 30 0 34 0;
#X connect 32 0 26 0;
#X connect 33 0 36 0;
#X connect 35 0 23 0;
#X connect 35 0 43 0;
#X connect 36 0 29 1;
#X connect 37 0 38 0;
#X connect 38 0 63 1;
#X connect 39 0 40 0;
#X connect 40 0 64 1;
#X connect 41 0 42 0;
#X connect 43 0 80 0;
#X connect 44 0 80 1;
#X connect 45 0 28 0;
#X connect 46 0 44 1;
#X connect 47 0 46 0;
#X connect 48 0 47 0;
#X connect 49 0 43 1;
#X connect 50 0 49 0;
#X connect 51 0 50 0;
#X connect 56 0 23 1;
#X connect 56 0 24 1;
#X connect 58 0 20 1;
#X connect 58 0 19 1;
#X connect 59 0 60 0;
#X connect 60 0 61 0;
#X connect 60 1 62 0;
#X connect 60 2 67 0;
#X connect 61 0 63 0;
#X connect 62 0 64 0;
#X connect 63 0 65 0;
#X connect 64 0 66 0;
#X connect 65 0 33 0;
#X connect 66 0 37 0;
#X connect 67 0 39 0;
#X connect 74 0 81 0;
#X connect 75 0 76 0;
#X connect 76 0 77 0;
#X connect 77 0 74 1;
#X connect 78 0 73 0;
#X connect 79 0 78 0;
#X connect 80 0 74 0;
#X connect 82 0 75 0;
#X coords 0 -1 1 1 250 110 1 350 100;
