#N canvas -8 -8 1366 695 12;
#N canvas -8 -8 1366 695 FFT 1;
#X text 1842 447 0.375 = Hann \, 4 = Upsample \, 4096 = Block size
;
#X obj 1872 424 s norm;
#X obj 1921 62 samplerate~;
#X obj 1876 92 swap;
#X obj 1876 116 /;
#X msg 1922 169 0;
#X obj 1876 145 t f b;
#X obj 1876 193 phasor~;
#X obj 1876 294 tabwrite~ window;
#X obj 1876 219 *~ 2;
#X obj 1876 246 -~ 0.25;
#X obj 1876 269 cos~;
#X obj 1901 26 loadbang;
#X obj 582 196 inlet~;
#X obj 582 463 outlet~;
#X obj 582 263 rfft~;
#X obj 582 405 rifft~;
#X obj 572 302 *~ 0;
#X obj 625 302 *~ 0;
#X obj 650 269 r norm;
#X obj 618 221 tabreceive~ window;
#X obj 582 365 *~;
#X obj 620 365 *~;
#X floatatom 21 293 20 0 0 0 - - -;
#X obj 30 414 osc~;
#X obj 29 462 abs~;
#X obj 95 397 osc~;
#X obj 95 442 +~ 1;
#X obj 95 466 /~ 2;
#X obj 95 351 random 15;
#X obj 95 374 + 1;
#X obj 95 305 tgl 15 0 empty empty empty 17 7 0 10 -262144 -1 -1 0
1;
#X obj 78 589 clip~ 0 1;
#X obj 92 505 +~;
#X obj 115 -83 hsl 128 15 0 30000 0 0 empty empty empty -2 -8 0 10
-262144 -1 -1 0 1;
#X obj 265 -3 hsl 128 15 0 5000 0 0 empty empty empty -2 -8 0 10 -262144
-1 -1 0 1;
#X text 134 -103 peak_number;
#X text 285 -22 mod_delta;
#X obj 262 18 t b f;
#X obj 240 49 random 100;
#X obj 319 49 random 100;
#X obj 254 80 +;
#X obj 334 80 +;
#X obj 91 528 *~ 0.5;
#X obj 189 547 hsl 128 15 0 1 0 0 empty empty empty -2 -8 0 10 -262144
-1 -1 0 1;
#X obj 30 351 sig~;
#X obj 30 381 +~;
#X floatatom 98 160 5 0 0 0 - - -;
#X obj 98 246 osc~;
#X obj 97 269 *~;
#X obj 98 183 sig~;
#X obj 98 213 +~;
#X obj 95 326 metro;
#X floatatom 180 338 5 0 0 0 - - -;
#X obj 180 424 osc~;
#X obj 179 472 abs~;
#X obj 245 407 osc~;
#X obj 245 452 +~ 1;
#X obj 245 476 /~ 2;
#X obj 245 361 random 15;
#X obj 245 384 + 1;
#X obj 245 315 tgl 15 0 empty empty empty 17 7 0 10 -262144 -1 -1 0
1;
#X obj 180 361 sig~;
#X obj 180 391 +~;
#X floatatom 248 170 5 0 0 0 - - -;
#X obj 248 256 osc~;
#X obj 247 279 *~;
#X obj 248 193 sig~;
#X obj 248 223 +~;
#X obj 245 336 metro;
#X obj 399 49 random 100;
#X obj 414 80 +;
#X obj 77 612 tabsend~ filter1;
#X floatatom 330 338 5 0 0 0 - - -;
#X obj 330 424 osc~;
#X obj 329 472 abs~;
#X obj 395 407 osc~;
#X obj 395 452 +~ 1;
#X obj 395 476 /~ 2;
#X obj 395 361 random 15;
#X obj 395 384 + 1;
#X obj 395 315 tgl 15 0 empty empty empty 17 7 0 10 -262144 -1 -1 0
1;
#X obj 330 361 sig~;
#X obj 330 391 +~;
#X floatatom 398 170 5 0 0 0 - - -;
#X obj 398 256 osc~;
#X obj 397 279 *~;
#X obj 398 193 sig~;
#X obj 398 223 +~;
#X obj 395 336 metro;
#X obj 95 420 *~ 0.5;
#X obj 245 430 *~ 0.5;
#X obj 395 430 *~ 0.5;
#X obj 406 -3 hsl 128 15 0 500 0 0 empty empty empty -2 -8 0 10 -262144
-1 -1 0 1;
#X obj 179 447 *~ 0.5;
#X obj 329 447 *~ 0.5;
#X text 428 -23 mod_amount;
#X obj 1872 376 loadbang;
#X obj 1284 185 inlet~;
#X obj 1284 452 outlet~;
#X obj 1284 252 rfft~;
#X obj 1284 394 rifft~;
#X obj 1284 223 *~;
#X obj 1284 423 *~;
#X obj 1274 291 *~ 0;
#X obj 1327 291 *~ 0;
#X obj 1352 258 r norm;
#X obj 1320 210 tabreceive~ window;
#X obj 1284 354 *~;
#X obj 1322 354 *~;
#X floatatom 732 317 5 0 0 0 - - -;
#X obj 731 451 abs~;
#X obj 780 565 clip~ 0 1;
#X obj 781 495 +~;
#X obj 817 -74 hsl 128 15 0 30000 0 0 empty empty empty -2 -8 0 10
-262144 -1 -1 0 1;
#X obj 1623 -27 hsl 128 15 0 5000 0 0 empty empty empty -2 -8 0 10
-262144 -1 -1 0 1;
#X text 836 -94 peak_number;
#X text 1643 -46 mod_delta;
#X obj 1620 -6 t b f;
#X obj 1598 25 random 100;
#X obj 1677 25 random 100;
#X obj 1612 56 +;
#X obj 1692 56 +;
#X obj 780 518 *~ 0.5;
#X obj 891 536 hsl 128 15 0 1 0 0 empty empty empty -2 -8 0 10 -262144
-1 -1 600 1;
#X obj 732 340 sig~;
#X obj 732 370 +~;
#X floatatom 770 237 5 0 0 0 - - -;
#X obj 770 323 osc~;
#X obj 769 346 *~;
#X obj 770 260 sig~;
#X obj 770 290 +~;
#X floatatom 882 327 5 0 0 0 - - -;
#X obj 882 413 osc~;
#X obj 881 461 abs~;
#X obj 882 350 sig~;
#X obj 882 380 +~;
#X floatatom 921 248 5 0 0 0 - - -;
#X obj 921 334 osc~;
#X obj 920 357 *~;
#X obj 921 271 sig~;
#X obj 921 301 +~;
#X obj 1101 38 random 100;
#X obj 1116 69 +;
#X floatatom 1032 327 5 0 0 0 - - -;
#X obj 1032 413 osc~;
#X obj 1031 461 abs~;
#X obj 1032 350 sig~;
#X obj 1032 380 +~;
#X floatatom 1072 248 5 0 0 0 - - -;
#X obj 1072 334 osc~;
#X obj 1071 357 *~;
#X obj 1072 271 sig~;
#X obj 1072 301 +~;
#X obj 991 -20 hsl 128 15 0 1000 0 0 empty empty empty -2 -8 0 10 -262144
-1 -1 0 1;
#X obj 731 427 *~ 0.5;
#X obj 881 436 *~ 0.5;
#X obj 1031 436 *~ 0.5;
#X text 1013 -40 mod_amount;
#X obj 780 603 tabsend~ filter2;
#X obj 1844 386 bng 15 250 50 0 empty empty empty 17 7 0 10 -262144
-1 -1;
#X obj 112 -61 expr 1/$f1;
#X msg 581 6 0;
#X obj 582 234 *~;
#X obj 582 434 *~;
#X obj 881 18 / 3;
#X obj 814 -53 expr 1/$f1;
#X obj 732 397 osc~;
#X obj 98 134 * 1.5;
#X obj 248 144 * 1.5;
#X obj 398 144 * 1.5;
#X obj 770 211 * 1.5;
#X obj 921 222 * 1.5;
#X obj 1072 222 * 1.5;
#X obj 29 437 *~ 0.5;
#X obj 1872 347 block~ 8192 4;
#X msg 1861 62 8192;
#X obj 1842 11 bng 15 250 50 0 empty empty empty 17 7 0 10 -262144
-1 -1;
#X obj 1996 156 table filter1 8192;
#X obj 1996 179 table filter2 8192;
#X obj 1872 401 expr 1/(0.375*8192*4);
#X obj 1996 132 table window 8192;
#X obj 179 29 * 3;
#X obj 125 29 * 2;
#X obj 1554 129 osc~;
#X obj 1554 174 +~ 1;
#X obj 1554 198 /~ 2;
#X obj 1554 83 random 15;
#X obj 1554 106 + 1;
#X obj 1554 37 tgl 15 0 empty empty empty 17 7 0 10 -262144 -1 -1 0
1;
#X obj 1554 58 metro;
#X obj 1554 152 *~ 0.5;
#X floatatom 1006 0 5 0 0 0 - - -;
#X obj 827 18 * 2;
#X connect 2 0 3 1;
#X connect 3 0 4 0;
#X connect 3 1 4 1;
#X connect 4 0 6 0;
#X connect 5 0 7 1;
#X connect 6 0 7 0;
#X connect 6 1 5 0;
#X connect 6 1 8 0;
#X connect 7 0 9 0;
#X connect 9 0 10 0;
#X connect 10 0 11 0;
#X connect 11 0 8 0;
#X connect 12 0 2 0;
#X connect 12 0 176 0;
#X connect 13 0 163 0;
#X connect 15 0 17 0;
#X connect 15 1 18 0;
#X connect 16 0 164 0;
#X connect 17 0 21 0;
#X connect 18 0 22 0;
#X connect 19 0 18 1;
#X connect 19 0 17 1;
#X connect 20 0 163 1;
#X connect 20 0 164 1;
#X connect 21 0 16 0;
#X connect 22 0 16 1;
#X connect 23 0 45 0;
#X connect 23 0 168 0;
#X connect 24 0 174 0;
#X connect 25 0 33 0;
#X connect 26 0 90 0;
#X connect 27 0 28 0;
#X connect 29 0 30 0;
#X connect 30 0 26 0;
#X connect 31 0 52 0;
#X connect 32 0 21 1;
#X connect 32 0 22 1;
#X connect 32 0 72 0;
#X connect 33 0 43 0;
#X connect 34 0 161 0;
#X connect 35 0 38 0;
#X connect 38 0 39 0;
#X connect 38 0 40 0;
#X connect 38 1 41 1;
#X connect 38 1 42 1;
#X connect 39 0 41 0;
#X connect 40 0 42 0;
#X connect 41 0 52 1;
#X connect 42 0 69 1;
#X connect 43 0 32 0;
#X connect 44 0 43 1;
#X connect 45 0 46 0;
#X connect 46 0 24 0;
#X connect 47 0 50 0;
#X connect 48 0 49 0;
#X connect 49 0 46 1;
#X connect 50 0 51 0;
#X connect 51 0 48 0;
#X connect 52 0 29 0;
#X connect 53 0 62 0;
#X connect 53 0 169 0;
#X connect 54 0 94 0;
#X connect 56 0 91 0;
#X connect 57 0 58 0;
#X connect 59 0 60 0;
#X connect 60 0 56 0;
#X connect 61 0 69 0;
#X connect 62 0 63 0;
#X connect 63 0 54 0;
#X connect 64 0 67 0;
#X connect 65 0 66 0;
#X connect 66 0 63 1;
#X connect 67 0 68 0;
#X connect 68 0 65 0;
#X connect 69 0 59 0;
#X connect 70 0 71 0;
#X connect 71 0 89 1;
#X connect 73 0 82 0;
#X connect 73 0 170 0;
#X connect 74 0 95 0;
#X connect 76 0 92 0;
#X connect 77 0 78 0;
#X connect 79 0 80 0;
#X connect 80 0 76 0;
#X connect 81 0 89 0;
#X connect 82 0 83 0;
#X connect 83 0 74 0;
#X connect 84 0 87 0;
#X connect 85 0 86 0;
#X connect 86 0 83 1;
#X connect 87 0 88 0;
#X connect 88 0 85 0;
#X connect 89 0 79 0;
#X connect 90 0 27 0;
#X connect 91 0 57 0;
#X connect 92 0 77 0;
#X connect 93 0 86 1;
#X connect 93 0 66 1;
#X connect 93 0 49 1;
#X connect 94 0 55 0;
#X connect 95 0 75 0;
#X connect 97 0 180 0;
#X connect 98 0 102 0;
#X connect 100 0 104 0;
#X connect 100 1 105 0;
#X connect 101 0 103 0;
#X connect 102 0 100 0;
#X connect 103 0 99 0;
#X connect 104 0 108 0;
#X connect 105 0 109 0;
#X connect 106 0 105 1;
#X connect 106 0 104 1;
#X connect 107 0 102 1;
#X connect 107 0 103 1;
#X connect 108 0 101 0;
#X connect 109 0 101 1;
#X connect 110 0 125 0;
#X connect 110 0 171 0;
#X connect 111 0 113 0;
#X connect 112 0 108 1;
#X connect 112 0 109 1;
#X connect 112 0 159 0;
#X connect 113 0 123 0;
#X connect 114 0 166 0;
#X connect 115 0 118 0;
#X connect 118 0 119 0;
#X connect 118 0 120 0;
#X connect 118 1 121 1;
#X connect 118 1 122 1;
#X connect 119 0 121 0;
#X connect 120 0 122 0;
#X connect 123 0 112 0;
#X connect 124 0 123 1;
#X connect 125 0 126 0;
#X connect 126 0 167 0;
#X connect 127 0 130 0;
#X connect 128 0 129 0;
#X connect 129 0 126 1;
#X connect 130 0 131 0;
#X connect 131 0 128 0;
#X connect 132 0 135 0;
#X connect 132 0 172 0;
#X connect 133 0 156 0;
#X connect 134 0 113 1;
#X connect 135 0 136 0;
#X connect 136 0 133 0;
#X connect 137 0 140 0;
#X connect 138 0 139 0;
#X connect 139 0 136 1;
#X connect 140 0 141 0;
#X connect 141 0 138 0;
#X connect 142 0 143 0;
#X connect 144 0 147 0;
#X connect 144 0 173 0;
#X connect 145 0 157 0;
#X connect 146 0 113 1;
#X connect 147 0 148 0;
#X connect 148 0 145 0;
#X connect 149 0 152 0;
#X connect 150 0 151 0;
#X connect 151 0 148 1;
#X connect 152 0 153 0;
#X connect 153 0 150 0;
#X connect 154 0 151 1;
#X connect 154 0 139 1;
#X connect 154 0 129 1;
#X connect 154 0 192 0;
#X connect 155 0 111 0;
#X connect 156 0 134 0;
#X connect 157 0 146 0;
#X connect 160 0 180 0;
#X connect 161 0 23 0;
#X connect 161 0 182 0;
#X connect 161 0 183 0;
#X connect 162 0 48 0;
#X connect 162 0 65 0;
#X connect 162 0 85 0;
#X connect 163 0 15 0;
#X connect 164 0 14 0;
#X connect 165 0 144 0;
#X connect 166 0 165 0;
#X connect 166 0 110 0;
#X connect 166 0 193 0;
#X connect 167 0 155 0;
#X connect 168 0 47 0;
#X connect 169 0 64 0;
#X connect 170 0 84 0;
#X connect 171 0 127 0;
#X connect 172 0 137 0;
#X connect 173 0 149 0;
#X connect 174 0 25 0;
#X connect 176 0 3 0;
#X connect 177 0 176 0;
#X connect 177 0 2 0;
#X connect 180 0 1 0;
#X connect 182 0 73 0;
#X connect 183 0 53 0;
#X connect 184 0 191 0;
#X connect 185 0 186 0;
#X connect 187 0 188 0;
#X connect 188 0 184 0;
#X connect 189 0 190 0;
#X connect 190 0 187 0;
#X connect 191 0 185 0;
#X connect 193 0 132 0;
#X restore 464 329 pd FFT;
#X obj 538 177 noise~;
#X obj 533 239 *~ 0.5;
#X obj 463 203 *~ 0.4;
#X obj 257 57 phasor~ 50;
#X obj 337 37 phasor~ 100;
#X obj 417 57 phasor~ 150;
#X obj 497 27 phasor~ 200;
#X obj 567 57 phasor~ 250;
#X obj 637 27 phasor~ 300;
#X obj 612 274 hsl 128 15 0 1 0 0 empty empty empty -2 -8 0 10 -262144
-1 -1 0 1;
#X obj 508 361 *~ 0;
#X obj 458 361 *~ 0;
#X obj 918 129 adc~ 1 2 3;
#X obj 292 254 hsl 128 15 0 1 0 0 empty empty empty -2 -8 0 10 -262144
-1 -1 0 1;
#X obj 460 428 dac~ 1 2 3 4;
#X obj 462 125 *~ 2;
#X obj 462 147 -~ 1;
#X obj 463 101 +~;
#X obj 463 176 *~;
#X obj 558 126 osc~ 0.5;
#X obj 561 104 hsl 128 15 0 127 0 0 empty empty empty -2 -8 0 10 -262144
-1 -1 0 1;
#X connect 0 0 12 0;
#X connect 0 1 11 0;
#X connect 1 0 2 0;
#X connect 2 0 0 1;
#X connect 2 0 0 0;
#X connect 3 0 2 0;
#X connect 4 0 18 0;
#X connect 5 0 18 0;
#X connect 6 0 18 0;
#X connect 7 0 18 1;
#X connect 8 0 18 1;
#X connect 9 0 18 1;
#X connect 10 0 11 1;
#X connect 10 0 12 1;
#X connect 10 0 2 1;
#X connect 11 0 15 1;
#X connect 12 0 15 0;
#X connect 13 0 2 0;
#X connect 13 1 2 0;
#X connect 13 2 15 2;
#X connect 13 2 15 1;
#X connect 14 0 3 1;
#X connect 16 0 17 0;
#X connect 17 0 19 0;
#X connect 18 0 16 0;
#X connect 19 0 3 0;
#X connect 20 0 19 1;
#X connect 21 0 20 0;
