#N canvas 827 239 527 327 12;
#X obj 162 336 fluid.onsetslice~;
#X msg 294 297 metric 9;
#X obj 134 562 timer;
#X obj 157 371 trig2bang~;
#X obj 154 411 f;
#X obj 207 419 + 1;
#X obj 157 453 mod 2;
#X obj 157 481 sel 0 1;
#X floatatom 6 623 22 0 0 3 Onset\ Delta\ (ms) - - 36;
#X msg 207 266 threshold 0.09;
#X obj 125 516 t b b;
#X obj 189 516 t b b;
#X obj 246 198 loadbang;
#X obj 75 344 loadbang;
#X msg 75 371 0;
#X obj 390 108 delwrite~ \$0-delay_thread1 10000;
#X obj 809 108 delwrite~ \$0-delay_thread2 10000;
#X obj 337 932 sig~;
#X obj 337 968 vd~ \$0-delay_thread1;
#X obj 485 968 vd~ \$0-delay_thread2;
#X obj 485 932 sig~;
#X obj 388 627 route 0 1;
#X obj 347 1113 *~;
#X msg 368 1037 0 20;
#X msg 433 1037 1 20;
#X obj 385 552 f;
#X obj 438 560 + 1;
#X obj 388 594 mod 2;
#X obj 417 667 b;
#X obj 391 667 b;
#X obj 386 750 f;
#X obj 427 750 f;
#X obj 284 578 t b b f;
#X obj 489 1113 *~;
#X msg 510 1037 0 20;
#X msg 575 1037 1 20;
#X obj 441 1273 s~ \$0-feedback_thread1;
#X obj 693 1273 s~ \$0-feedback_thread2;
#X obj 395 798 t b f;
#X obj 438 798 t b f;
#X obj 744 1240 *~;
#X obj 765 1206 vline~;
#X msg 765 1176 \$1 150;
#X obj 765 1146 r \$0-feedback_amplitude;
#X obj 498 1240 *~;
#X obj 519 1206 vline~;
#X msg 519 1176 \$1 150;
#X obj 497 35 r~ \$0-feedback_thread1;
#X obj 820 24 r~ \$0-feedback_thread2;
#X obj 284 1597 outlet~;
#X obj 347 1425 +~;
#X obj 781 350 fluid.loudness~;
#X text 749 275 per l'ampiezza del feedback;
#X obj 284 1521 +~;
#X obj 21 135 s~ dry_signal;
#X obj 233 1364 r~ dry_signal;
#X obj 390 35 r~ dry_signal;
#X obj 390 71 +~;
#X obj 809 71 +~;
#X obj 2154 717 bng 265 250 50 0 empty \$0-onset_detect_triggerbang empty 17 7 0 10 #1e1e1e #00fff9 #e1e1e1;
#X obj 781 375 unpack f f;
#X obj 781 309 r~ dry_signal;
#X obj 781 450 / 120;
#X obj 781 486 clip 0 0.75;
#X obj 781 579 s \$0-feedback_amplitude;
#X obj 786 542 f;
#X obj 511 1079 curve~ 0 -0.7;
#X obj 367 1079 curve~ 0 -0.7;
#X floatatom 809 635 25 0 0 0 - - - 36;
#X obj 134 594 clip 5 9990;
#X obj 781 422 + 100;
#X obj 2154 583 knob 86 0 1 0 0.09 \$0-onset_threshold empty #191919 #696969 #ff704e 1 0 0 0 1 270 0 0 0;
#X obj 281 407 s \$0-onset_detect_triggerbang;
#X obj 582 486 r \$0-onset_detect_triggerbang;
#X obj 2154 988 nbx 10 51 -1e+37 1e+37 0 0 empty \$0-onset_value_time ms 225 36 0 27 #191919 #00fff9 #e1e1e1 0 256;
#X obj 2154 511 tgl 54 0 empty empty onset\ detector -3 60 0 10 #191919 #ff704e #e1e1e1 0 1;
#X obj 168 792 s \$0-onset_value_time;
#X obj 125 35 inlet~;
#X obj 438 259 r \$0-onset_threshold;
#X msg 438 300 threshold \$1;
#X obj 2154 669 nbx 4 26 -1e+37 1e+37 0 0 empty \$0-onset_threshold empty 225 36 0 27 #191919 #ff704e #e1e1e1 0 256;
#X text 2154 1039 Delta Time;
#X text 2154 694 Onset threshold;
#X obj 2428 982 nbx 4 26 -1e+37 1e+37 0 0 empty \$0-feedback_amplitude empty 225 36 0 27 #191919 #00fff9 #e1e1e1 0 256;
#X text 2428 1007 Feedback amp;
#X obj 2431 717 vsl 105 265 0 1 0 0 empty \$0-feedback_amplitude empty 0 -9 0 10 #191919 #00fff9 #e1e1e1 0 1;
#X connect 0 0 3 0;
#X connect 1 0 0 0;
#X connect 2 0 69 0;
#X connect 3 0 4 0;
#X connect 3 0 72 0;
#X connect 4 0 5 0;
#X connect 4 0 6 0;
#X connect 5 0 4 1;
#X connect 6 0 7 0;
#X connect 7 0 10 0;
#X connect 7 1 11 0;
#X connect 9 0 0 0;
#X connect 10 0 2 0;
#X connect 10 1 2 1;
#X connect 11 0 2 0;
#X connect 11 1 2 1;
#X connect 12 0 9 0;
#X connect 12 0 1 0;
#X connect 13 0 14 0;
#X connect 14 0 4 0;
#X connect 17 0 18 0;
#X connect 18 0 22 0;
#X connect 19 0 33 0;
#X connect 20 0 19 0;
#X connect 21 0 29 0;
#X connect 21 1 28 0;
#X connect 22 0 44 0;
#X connect 22 0 50 0;
#X connect 23 0 67 0;
#X connect 24 0 67 0;
#X connect 25 0 26 0;
#X connect 25 0 27 0;
#X connect 26 0 25 1;
#X connect 27 0 21 0;
#X connect 28 0 31 0;
#X connect 29 0 30 0;
#X connect 30 0 38 0;
#X connect 31 0 39 0;
#X connect 32 1 25 0;
#X connect 32 2 30 1;
#X connect 32 2 31 1;
#X connect 33 0 40 0;
#X connect 33 0 50 1;
#X connect 34 0 66 0;
#X connect 35 0 66 0;
#X connect 38 0 24 0;
#X connect 38 0 34 0;
#X connect 38 1 17 0;
#X connect 39 0 23 0;
#X connect 39 0 35 0;
#X connect 39 1 20 0;
#X connect 40 0 37 0;
#X connect 41 0 40 1;
#X connect 42 0 41 0;
#X connect 43 0 42 0;
#X connect 43 0 46 0;
#X connect 44 0 36 0;
#X connect 45 0 44 1;
#X connect 46 0 45 0;
#X connect 47 0 57 1;
#X connect 48 0 58 1;
#X connect 50 0 53 1;
#X connect 51 0 60 0;
#X connect 53 0 49 0;
#X connect 55 0 53 0;
#X connect 56 0 57 0;
#X connect 56 0 58 0;
#X connect 57 0 15 0;
#X connect 58 0 16 0;
#X connect 60 0 70 0;
#X connect 61 0 51 0;
#X connect 62 0 63 0;
#X connect 63 0 65 1;
#X connect 65 0 64 0;
#X connect 65 0 68 0;
#X connect 66 0 33 1;
#X connect 67 0 22 1;
#X connect 69 0 32 0;
#X connect 69 0 8 0;
#X connect 69 0 76 0;
#X connect 70 0 62 0;
#X connect 73 0 65 0;
#X connect 77 0 0 0;
#X connect 77 0 54 0;
#X connect 78 0 79 0;
#X connect 79 0 0 0;
#X coords 0 0 1 1 411 611 1 2147 477;
