#N canvas 827 239 527 327 12;
#X obj 162 336 fluid.onsetslice~;
#X msg 294 297 metric 9;
#X obj 134 562 timer;
#X obj 157 371 trig2bang~;
#X obj 154 411 f;
#X obj 207 419 + 1;
#X obj 157 453 mod 2;
#X obj 157 481 sel 0 1;
#X floatatom 6 623 22 0 0 3 Onset\ Delta\ (ms) - - 36;
#X msg 207 266 threshold 0.09;
#X obj 125 516 t b b;
#X obj 189 516 t b b;
#X obj 246 198 loadbang;
#X obj 75 344 loadbang;
#X msg 75 371 0;
#X obj 337 932 sig~;
#X obj 337 968 vd~ \$0-delay_thread1;
#X obj 485 968 vd~ \$0-delay_thread2;
#X obj 485 932 sig~;
#X obj 388 627 route 0 1;
#X obj 347 1113 *~;
#X msg 368 1037 0 20;
#X msg 433 1037 1 20;
#X obj 385 552 f;
#X obj 438 560 + 1;
#X obj 388 594 mod 2;
#X obj 417 667 b;
#X obj 391 667 b;
#X obj 386 750 f;
#X obj 427 750 f;
#X obj 284 578 t b b f;
#X obj 489 1113 *~;
#X msg 510 1037 0 20;
#X msg 575 1037 1 20;
#X obj 495 1446 s~ \$0-feedback_thread1;
#X obj 741 1446 s~ \$0-feedback_thread2;
#X obj 395 798 t b f;
#X obj 438 798 t b f;
#X obj 741 1395 *~;
#X obj 762 1361 vline~;
#X msg 762 1331 \$1 150;
#X obj 762 1301 r \$0-feedback_amplitude;
#X obj 495 1395 *~;
#X obj 516 1361 vline~;
#X msg 516 1331 \$1 150;
#X obj 497 35 r~ \$0-feedback_thread1;
#X obj 820 24 r~ \$0-feedback_thread2;
#X obj 284 1635 outlet~;
#X obj 347 1425 +~;
#X obj 725 350 fluid.loudness~;
#X text 693 275 per l'ampiezza del feedback;
#X obj 233 1516 +~;
#X obj 390 71 +~;
#X obj 809 71 +~;
#X obj 3309 1132 bng 265 186 39 0 empty \$0-onset_detect_triggerbang empty 17 7 0 10 #1e1e1e #00fff9 #e1e1e1;
#X obj 725 375 unpack f f;
#X obj 725 450 / 120;
#X obj 725 579 s \$0-feedback_amplitude;
#X obj 730 542 f;
#X obj 511 1079 curve~ 0 -0.7;
#X obj 367 1079 curve~ 0 -0.7;
#X floatatom 753 635 25 0 0 0 - - - 36;
#X obj 725 422 + 100;
#X obj 3309 998 knob 86 0 1 0 0.09 \$0-onset_threshold empty #191919 #696969 #ff704e 1 0 0 0 1 270 0 0 0;
#X obj 281 407 s \$0-onset_detect_triggerbang;
#X obj 526 486 r \$0-onset_detect_triggerbang;
#X obj 3309 1403 nbx 10 51 -1e+37 1e+37 0 0 empty \$0-onset_value_time ms 225 36 0 27 #191919 #00fff9 #e1e1e1 0 256;
#X obj 3309 926 tgl 54 0 empty empty onset\ detector -3 60 0 10 #191919 #ff704e #e1e1e1 0 1;
#X obj 168 792 s \$0-onset_value_time;
#X obj 125 35 inlet~;
#X obj 438 259 r \$0-onset_threshold;
#X msg 438 300 threshold \$1;
#X obj 3309 1084 nbx 4 26 -1e+37 1e+37 0 0 empty \$0-onset_threshold empty 225 36 0 27 #191919 #ff704e #e1e1e1 0 256;
#X text 3309 1454 Delta Time;
#X text 3309 1109 Onset threshold;
#X obj 3583 1397 nbx 4 32 -1e+37 1e+37 0 0 empty \$0-feedback_amplitude empty 225 36 0 27 #191919 #00fff9 #e1e1e1 0 256;
#X text 3583 1451 Feedback amp;
#X obj 3586 1132 vsl 105 265 0 1 0 0 empty \$0-feedback_amplitude empty 0 -9 0 10 #191919 #00fff9 #e1e1e1 0 1;
#X obj 1089 324 fluid.stats -history 70;
#X obj 1089 287 fluid.chroma~ -numchroma 12 -normalize 2;
#X obj 3603 982 vsl 15 128 0 1 0 0 empty \$0-chroma_g# G# 2 64 0 10 #191919 #00fff9 #ff704e 0 1;
#X obj 3622 982 vsl 15 128 0 1 0 0 empty \$0-chroma_a A 3 64 0 10 #424242 #00fff9 #ff704e 0 1;
#X obj 3641 982 vsl 15 128 0 1 0 0 empty \$0-chroma_a# A# 2 64 0 10 #191919 #00fff9 #ff704e 0 1;
#X obj 3660 982 vsl 15 128 0 1 0 0 empty \$0-chroma_b B 3 64 0 10 #424242 #00fff9 #ff704e 0 1;
#X obj 3450 982 vsl 15 128 0 1 0 0 empty \$0-chroma_c C 3 64 0 10 #424242 #00fff9 #ff704e 0 1;
#X obj 3469 982 vsl 15 128 0 1 0 0 empty \$0-chroma_c# C# 2 64 0 10 #191919 #00fff9 #ff704e 0 1;
#X obj 3488 982 vsl 15 128 0 1 0 0 empty \$0-chroma_d D 3 64 0 10 #424242 #00fff9 #ff704e 0 1;
#X obj 3507 982 vsl 15 128 0 1 0 0 empty \$0-chroma_d# D# 2 64 0 10 #191919 #00fff9 #ff704e 0 1;
#X obj 3526 982 vsl 15 128 0 1 0 0 empty \$0-chroma_e E 3 64 0 10 #424242 #00fff9 #ff704e 0 1;
#X obj 3545 982 vsl 15 128 0 1 0 0 empty \$0-chroma_f F 3 64 0 10 #424242 #00fff9 #ff704e 0 1;
#X obj 3564 982 vsl 15 128 0 1 0 0 empty \$0-chroma_f# F# 2 64 0 10 #191919 #00fff9 #ff704e 0 1;
#X obj 3583 982 vsl 15 128 0 1 0 0 empty \$0-chroma_g G 3 64 0 10 #424242 #00fff9 #ff704e 0 1;
#X obj 1085 361 unpack f f f f f f f f f f f f;
#X obj 1165 1355 overdrive~;
#X obj 3952 998 knob 86 0 1 0 0.09 \$0-onset_threshold empty #191919 #696969 #ff704e 1 0 0 0 1 270 0 0 0;
#X text 4036 1025 dry/Wet controll;
#X obj 1218 1246 r \$0-feedback_amplitude;
#X obj 1050 444 s \$0-chroma_c;
#X obj 1042 478 s \$0-chroma_c#;
#X obj 1171 444 s \$0-chroma_d;
#X obj 1163 478 s \$0-chroma_d#;
#X obj 1291 444 s \$0-chroma_e;
#X obj 1291 478 s \$0-chroma_f;
#X obj 1408 444 s \$0-chroma_f#;
#X obj 1408 478 s \$0-chroma_g;
#X obj 1532 444 s \$0-chroma_g#;
#X obj 1532 478 s \$0-chroma_a;
#X obj 1661 444 s \$0-chroma_a#;
#X obj 1661 478 s \$0-chroma_b;
#X obj 1181 1147 curve~ 0 -0.7;
#X obj 1181 1175 samps2ms~;
#X obj 1217 1329 curve~ 0 -0.5;
#X obj 284 1575 lop2~ 11000;
#X msg 1218 1301 \$1 100;
#X obj 1218 1274 + 0.5;
#X obj 1062 599 r \$0-chroma_c;
#X obj 1818 599 r \$0-chroma_c#;
#X obj 1183 599 r \$0-chroma_d;
#X obj 1931 599 r \$0-chroma_d#;
#X obj 1303 599 r \$0-chroma_e;
#X obj 2059 599 r \$0-chroma_f;
#X obj 1420 599 r \$0-chroma_f#;
#X obj 2176 599 r \$0-chroma_g;
#X obj 1544 599 r \$0-chroma_g#;
#X obj 2300 599 r \$0-chroma_a;
#X obj 1673 599 r \$0-chroma_a#;
#X obj 2429 599 r \$0-chroma_b;
#X obj 1062 643 sel 1;
#X msg 1181 1113 \$1 200;
#X obj 1181 1086 r \$0-comb_teeth_amount;
#X obj 1187 643 sel 1;
#X obj 1321 643 sel 1;
#X obj 1420 643 sel 1;
#X obj 1553 643 sel 1;
#X obj 1678 643 sel 1;
#X obj 1823 647 sel 1;
#X obj 1948 647 sel 1;
#X obj 2082 647 sel 1;
#X obj 2181 647 sel 1;
#X obj 2314 647 sel 1;
#X obj 2439 647 sel 1;
#X obj 1062 665 f 16.35;
#X obj 1823 669 f 17.32;
#X obj 1187 665 f 18.35;
#X obj 1948 669 f 19.45;
#X obj 1321 665 f 20.6;
#X obj 2082 669 f 21.83;
#X obj 1420 665 f 23.12;
#X obj 2181 669 f 24.5;
#X obj 1553 665 f 25.96;
#X obj 2314 669 f 27.5;
#X obj 1678 665 f 29.14;
#X obj 2439 669 f 30.87;
#X obj 1250 1121 * 0.5;
#X obj 604 1182 s~ \$0-to_filter;
#X obj 604 1147 +~;
#X obj 1165 1056 r~ \$0-to_filter;
#X obj 1165 1389 s~ \$0-from_filter;
#X obj 495 1265 r~ \$0-from_filter;
#X obj 1165 1217 comb~ 50 0 1;
#X obj 710 750 r \$0-onset_detect_triggerbang;
#X obj 1062 705 f;
#X obj 1062 737 s \$0-comb_teeth_amount;
#X obj 3189 943 inlet;
#X obj 21 135 s~ \$0-dry_signal;
#X obj 725 309 r~ \$0-dry_signal;
#X obj 390 35 r~ \$0-dry_signal;
#X obj 1089 246 r~ \$0-dry_signal;
#X obj 233 1364 r~ \$0-dry_signal;
#X obj 725 486 clip 0 0.9;
#X obj 134 594 clip 5 20000;
#X obj 390 108 delwrite~ \$0-delay_thread1 21000;
#X obj 809 108 delwrite~ \$0-delay_thread2 21000;
#X obj 971 383 s outControl;
#X connect 0 0 3 0;
#X connect 1 0 0 0;
#X connect 2 0 170 0;
#X connect 3 0 4 0;
#X connect 3 0 64 0;
#X connect 4 0 5 0;
#X connect 4 0 6 0;
#X connect 5 0 4 1;
#X connect 6 0 7 0;
#X connect 7 0 10 0;
#X connect 7 1 11 0;
#X connect 9 0 0 0;
#X connect 10 0 2 0;
#X connect 10 1 2 1;
#X connect 11 0 2 0;
#X connect 11 1 2 1;
#X connect 12 0 9 0;
#X connect 12 0 1 0;
#X connect 13 0 14 0;
#X connect 14 0 4 0;
#X connect 15 0 16 0;
#X connect 16 0 20 0;
#X connect 17 0 31 0;
#X connect 18 0 17 0;
#X connect 19 0 27 0;
#X connect 19 1 26 0;
#X connect 20 0 48 0;
#X connect 20 0 155 0;
#X connect 21 0 60 0;
#X connect 22 0 60 0;
#X connect 23 0 24 0;
#X connect 23 0 25 0;
#X connect 24 0 23 1;
#X connect 25 0 19 0;
#X connect 26 0 29 0;
#X connect 27 0 28 0;
#X connect 28 0 36 0;
#X connect 29 0 37 0;
#X connect 30 1 23 0;
#X connect 30 2 28 1;
#X connect 30 2 29 1;
#X connect 31 0 48 1;
#X connect 31 0 155 1;
#X connect 32 0 59 0;
#X connect 33 0 59 0;
#X connect 36 0 22 0;
#X connect 36 0 32 0;
#X connect 36 1 15 0;
#X connect 37 0 21 0;
#X connect 37 0 33 0;
#X connect 37 1 18 0;
#X connect 38 0 35 0;
#X connect 39 0 38 1;
#X connect 40 0 39 0;
#X connect 41 0 40 0;
#X connect 41 0 44 0;
#X connect 42 0 34 0;
#X connect 43 0 42 1;
#X connect 44 0 43 0;
#X connect 45 0 52 1;
#X connect 46 0 53 1;
#X connect 48 0 112 0;
#X connect 49 0 55 0;
#X connect 52 0 171 0;
#X connect 53 0 172 0;
#X connect 55 0 62 0;
#X connect 56 0 169 0;
#X connect 58 0 57 0;
#X connect 58 0 61 0;
#X connect 59 0 31 1;
#X connect 60 0 20 1;
#X connect 62 0 56 0;
#X connect 65 0 58 0;
#X connect 69 0 0 0;
#X connect 69 0 164 0;
#X connect 70 0 71 0;
#X connect 71 0 0 0;
#X connect 78 0 92 0;
#X connect 78 0 173 0;
#X connect 79 0 78 0;
#X connect 92 0 106 0;
#X connect 92 1 107 0;
#X connect 92 2 108 0;
#X connect 92 3 97 0;
#X connect 92 4 98 0;
#X connect 92 5 99 0;
#X connect 92 6 100 0;
#X connect 92 7 101 0;
#X connect 92 8 102 0;
#X connect 92 9 103 0;
#X connect 92 10 104 0;
#X connect 92 11 105 0;
#X connect 93 0 157 0;
#X connect 96 0 114 0;
#X connect 109 0 110 0;
#X connect 110 0 159 1;
#X connect 111 0 93 1;
#X connect 112 0 47 0;
#X connect 113 0 111 0;
#X connect 114 0 113 0;
#X connect 115 0 127 0;
#X connect 116 0 135 0;
#X connect 117 0 130 0;
#X connect 118 0 136 0;
#X connect 119 0 131 0;
#X connect 120 0 137 0;
#X connect 121 0 132 0;
#X connect 122 0 138 0;
#X connect 123 0 133 0;
#X connect 124 0 139 0;
#X connect 125 0 134 0;
#X connect 126 0 140 0;
#X connect 127 0 141 0;
#X connect 128 0 109 0;
#X connect 129 0 128 0;
#X connect 130 0 143 0;
#X connect 131 0 145 0;
#X connect 132 0 147 0;
#X connect 133 0 149 0;
#X connect 134 0 151 0;
#X connect 135 0 142 0;
#X connect 136 0 144 0;
#X connect 137 0 146 0;
#X connect 138 0 148 0;
#X connect 139 0 150 0;
#X connect 140 0 152 0;
#X connect 141 0 161 1;
#X connect 142 0 161 1;
#X connect 143 0 161 1;
#X connect 144 0 161 1;
#X connect 145 0 161 1;
#X connect 146 0 161 1;
#X connect 147 0 161 1;
#X connect 148 0 161 1;
#X connect 149 0 161 1;
#X connect 150 0 161 1;
#X connect 151 0 161 1;
#X connect 152 0 161 1;
#X connect 155 0 154 0;
#X connect 156 0 159 0;
#X connect 158 0 42 0;
#X connect 158 0 38 0;
#X connect 159 0 93 0;
#X connect 160 0 161 0;
#X connect 161 0 162 0;
#X connect 163 0 63 0;
#X connect 165 0 49 0;
#X connect 166 0 52 0;
#X connect 166 0 53 0;
#X connect 167 0 79 0;
#X connect 168 0 51 0;
#X connect 169 0 58 1;
#X connect 170 0 30 0;
#X connect 170 0 8 0;
#X connect 170 0 68 0;
#X coords 0 0 1 1 411 611 1 3291 900;
