#N canvas 0 0 1350 674 10;
#X obj 9 10 inlet~;
#X obj 111 23 env~;
#X obj 111 48 expr if($f1 < $f2 \, 0 \, 1);
#X obj 111 92 line~;
#X obj 96 161 *~;
#X obj 10 310 outlet~;
#X obj 49 247 *~;
#X obj 107 221 line~;
#X msg 107 200 \$1 10;
#X obj 500 74 hsl 128 15 0 120 0 0 \$0-gate_soglia empty soglia 59
5 0 10 #fcfcfc #000000 #000000 12700 1;
#X floatatom 635 73 5 0 0 1 dB - -, f 5;
#X obj 155 148 r \$0-gate_bypass;
#X obj 501 55 tgl 15 0 \$0-gate_bypass empty bypass 17 5 0 10 #fcfcfc
#000000 #000000 0 1;
#X obj 155 171 expr 1-$i1;
#X obj 385 47 loadbang;
#X msg 385 69 0;
#X obj 233 21 r \$0-gate_soglia;
#X obj 10 194 *~;
#X obj 47 171 line~;
#X msg 47 150 \$1 10;
#X msg 111 73 \$1 50;
#X obj 111 128 fade~;
#X msg 158 92 set _sin;
#X obj 10 284 +~;
#X connect 0 0 1 0;
#X connect 0 0 4 0;
#X connect 0 0 17 0;
#X connect 1 0 2 0;
#X connect 2 0 20 0;
#X connect 3 0 21 0;
#X connect 4 0 6 0;
#X connect 6 0 23 1;
#X connect 7 0 6 1;
#X connect 8 0 7 0;
#X connect 9 0 10 0;
#X connect 11 0 13 0;
#X connect 11 0 19 0;
#X connect 13 0 8 0;
#X connect 14 0 15 0;
#X connect 14 0 22 0;
#X connect 15 0 12 0;
#X connect 16 0 2 1;
#X connect 17 0 23 0;
#X connect 18 0 17 1;
#X connect 19 0 18 0;
#X connect 20 0 3 0;
#X connect 21 0 4 1;
#X connect 22 0 21 0;
#X connect 23 0 5 0;
#X coords 0 -1 1 1 196 62 1 493 37;
