#N canvas -8 -8 1366 690 10;
#X obj 400 120 cnv 15 196 240 empty empty Input 30 12 0 18 #404040
#fcfcfc 0;
#X obj 116 -30 adc~;
#X msg 391 443 \$1 25;
#X obj 390 493 rmstodb;
#X floatatom 420 170 4 0 0 0 - - -, f 4;
#X obj 390 514 - 100;
#X msg 446 23 1;
#X text 447 168 dB;
#X obj 105 28 *~;
#X obj 158 27 *~;
#X msg 476 443 \$1 25;
#X obj 476 490 rmstodb;
#X floatatom 491 171 4 0 0 0 - - -, f 4;
#X obj 476 514 - 100;
#X text 517 168 dB;
#X obj 446 -9 loadbang;
#X obj 431 324 tgl 22 0 empty empty empty 5 -6 0 10 #000000 #fc0400
#000000 0 1;
#X obj 434 407 expr 1 - $i1;
#X obj 106 92 *~;
#X obj 159 92 *~;
#X obj 524 407 expr 1 - $i1;
#X msg 434 433 \$1 10;
#X msg 524 427 \$1 10;
#X obj 106 223 outlet~;
#X obj 160 223 outlet~;
#X obj 501 188 vu 25 120 empty empty -1 -8 0 7 #000000 #000000 1 0
;
#X obj 430 188 vu 25 120 empty empty -1 -8 0 7 #000000 #000000 1 0
;
#X obj 610 9 r vumeterL;
#X obj 705 11 r vumeterR;
#X obj 553 184 vradio 12 1 0 3 empty empty empty 0 -8 0 10 #7c7c7c
#b8b8b8 #000000 0;
#X obj 766 116 select 0 1 2;
#X obj 705 49 spigot;
#X obj 610 40 spigot;
#X msg 812 143 0;
#X obj 574 68 spigot;
#X msg 789 196 1;
#X msg 766 137 1;
#X obj 625 70 spigot;
#X obj 682 80 spigot;
#X obj 732 81 spigot;
#X msg 766 157 0;
#X msg 789 217 0;
#X text 563 179 rms;
#X text 565 206 OFF;
#X text 564 192 peak;
#X msg 765 176 -120;
#X msg 789 236 -120;
#X msg 812 164 -120;
#X obj 22 82 s vumeterL;
#X obj 501 324 tgl 22 0 empty empty empty 5 -6 0 10 #000000 #fc0400
#000000 0 1;
#X text 428 310 Mute;
#X text 499 310 Mute;
#X obj 434 459 line;
#X obj 524 453 line;
#X obj 391 469 line;
#X obj 476 469 line;
#X msg 477 23 2;
#X msg 511 25 0;
#X obj 411 187 bng 8 250 50 0 empty empty empty 17 7 0 10 #b8b8b8 #0400fc
#000000;
#X msg 406 89 1;
#X obj 482 186 bng 8 250 50 0 empty empty empty 17 7 0 10 #b8b8b8 #0400fc
#000000;
#X msg 460 89 1;
#X obj 420 187 vsl 8 120 0 1.5 0 0 empty empty empty 0 -9 0 10 #7c7c7c
#fc0400 #000000 0 1;
#X obj 491 188 vsl 8 120 0 1.5 0 0 empty empty empty 0 -9 0 10 #7c7c7c
#fc0400 #000000 0 1;
#X obj 23 25 env~;
#X obj 22 49 - 100;
#X obj 223 5 env~;
#X obj 222 29 - 100;
#X obj 222 62 s vumeterR;
#X connect 1 0 8 0;
#X connect 1 0 64 0;
#X connect 1 1 9 0;
#X connect 1 1 66 0;
#X connect 2 0 54 0;
#X connect 3 0 5 0;
#X connect 5 0 4 0;
#X connect 6 0 62 0;
#X connect 6 0 63 0;
#X connect 8 0 18 0;
#X connect 9 0 19 0;
#X connect 10 0 55 0;
#X connect 11 0 13 0;
#X connect 13 0 12 0;
#X connect 15 0 6 0;
#X connect 15 0 56 0;
#X connect 15 0 57 0;
#X connect 16 0 17 0;
#X connect 17 0 21 0;
#X connect 18 0 23 0;
#X connect 19 0 24 0;
#X connect 20 0 22 0;
#X connect 21 0 52 0;
#X connect 22 0 53 0;
#X connect 27 0 32 0;
#X connect 28 0 31 0;
#X connect 29 0 30 0;
#X connect 30 0 36 0;
#X connect 30 0 40 0;
#X connect 30 0 45 0;
#X connect 30 1 35 0;
#X connect 30 1 41 0;
#X connect 30 1 46 0;
#X connect 30 2 33 0;
#X connect 30 2 47 0;
#X connect 31 0 38 0;
#X connect 31 0 39 0;
#X connect 32 0 34 0;
#X connect 32 0 37 0;
#X connect 33 0 32 1;
#X connect 33 0 31 1;
#X connect 34 0 26 0;
#X connect 35 0 32 1;
#X connect 35 0 31 1;
#X connect 35 0 37 1;
#X connect 35 0 39 1;
#X connect 36 0 32 1;
#X connect 36 0 31 1;
#X connect 36 0 34 1;
#X connect 36 0 38 1;
#X connect 37 0 26 1;
#X connect 38 0 25 0;
#X connect 39 0 25 1;
#X connect 40 0 37 1;
#X connect 40 0 39 1;
#X connect 41 0 34 1;
#X connect 41 0 38 1;
#X connect 45 0 26 1;
#X connect 45 0 25 1;
#X connect 46 0 26 0;
#X connect 46 0 25 0;
#X connect 47 0 26 0;
#X connect 47 0 26 1;
#X connect 47 0 25 1;
#X connect 47 0 25 0;
#X connect 49 0 20 0;
#X connect 52 0 18 1;
#X connect 53 0 19 1;
#X connect 54 0 8 1;
#X connect 55 0 9 1;
#X connect 56 0 29 0;
#X connect 57 0 16 0;
#X connect 57 0 49 0;
#X connect 58 0 59 0;
#X connect 59 0 62 0;
#X connect 60 0 61 0;
#X connect 61 0 63 0;
#X connect 62 0 3 0;
#X connect 62 0 2 0;
#X connect 63 0 10 0;
#X connect 63 0 11 0;
#X connect 64 0 65 0;
#X connect 65 0 48 0;
#X connect 66 0 67 0;
#X connect 67 0 68 0;
#X coords 0 -1 1 1 197 242 1 400 118;
