#N canvas 0 0 1350 674 10;
#X obj 123 180 phasor~;
#X obj 123 605 *~;
#X obj 123 709 *~;
#X msg 167 736 \$1 20;
#X obj 123 626 tabread4~;
#X obj 167 757 line~;
#X msg 167 795 \$1 20;
#X obj 167 819 line~;
#X obj 123 849 *~;
#X text 540 31 samples = dur * sr;
#X text 540 10 f = dur /1000 se dur in ms;
#X text 658 29 Phasor Sin FM +AM;
#X obj 336 159 osc~;
#X text 540 51 il punto di partenza della riproduzione ciclica è determinato dalla fase dell'onda \, valori da 0 a 1;
#X obj 336 181 +~ 1;
#X obj 336 203 /~ 2;
#X obj 616 168 osc~;
#X obj 616 193 *~;
#X obj 574 204 osc~;
#X obj 840 17 r \$1;
#X obj 123 870 outlet~;
#X obj 574 182 +~;
#X obj 574 156 sig~;
#X obj 1101 276 vradio 15 0 0 3 empty empty empty 0 -8 0 10 #fcfcfc #000000 #000000 0;
#X text 1116 275 saw;
#X text 1116 292 sin_norm;
#X obj 574 228 +~ 1;
#X obj 574 250 /~ 2;
#X text 1116 308 2op_FM;
#X obj 1224 270 tgl 15 0 \$0-pl_AMOnOff empty AM_OnOff 17 7 0 10 #fcfcfc #000000 #000000 0 1;
#X obj 1031 395 sel 0 1 2;
#X msg 1061 453 0;
#X msg 1060 480 0;
#X msg 1060 508 1;
#X msg 1091 453 0;
#X msg 1090 480 0;
#X msg 1090 508 1;
#X msg 1121 453 0;
#X msg 1120 480 0;
#X msg 1120 508 1;
#X obj 394 236 osc~;
#X obj 394 258 +~ 1;
#X obj 394 280 /~ 2;
#X obj 1267 139 loadbang;
#X msg 1267 169 1;
#X obj 1158 310 hsl 50 15 0 10 0 0 \$0-pl_FM_ModAmount empty \ \ Mod_amount 6 5 0 8 #fcfcfc #000000 #000000 0 1;
#X obj 1223 289 hsl 50 15 0 40 0 0 \$0-pl_AM_ModFreq empty AM_freq 6 5 0 8 #fcfcfc #000000 #000000 0 1;
#X floatatom 1280 290 5 0 0 1 Hz - - 0;
#X obj 148 297 *~;
#X obj 346 292 *~;
#X obj 574 330 *~;
#X obj 607 427 r \$0-pl_FM_onoff;
#X obj 935 582 s \$0-pl_saw_onoff;
#X obj 1064 582 s \$0-pl_sin_onoff;
#X obj 1195 582 s \$0-pl_FM_onoff;
#X obj 653 163 line~;
#X msg 653 142 \$1 20;
#X obj 653 110 r \$0-pl_FM_ModAmount;
#X obj 156 400 r \$0-pl_saw_onoff;
#X obj 357 403 r \$0-pl_sin_onoff;
#X obj 1100 245 hsl 174 15 0 1 0 0 \$0-pl_startpos_phase empty startpos 41 5 0 10 #fcfcfc #000000 #000000 0 1;
#X obj 1228 224 tgl 15 0 \$0-pl_mute empty player\ mute 17 7 0 10 #fcfcfc #000000 #000000 0 1;
#X obj 211 797 r \$0-pl_mute;
#X obj 211 819 expr 1-$i1;
#X msg 1307 170 0;
#X floatatom 227 420 5 0 0 0 - - - 0;
#X floatatom 422 428 5 0 0 0 - - - 0;
#X floatatom 674 449 5 0 0 0 - - - 0;
#X obj 394 301 *~;
#X obj 433 306 line~;
#X obj 180 226 osc~;
#X obj 180 248 +~ 1;
#X obj 180 270 /~ 2;
#X obj 180 291 *~;
#X obj 219 296 line~;
#X obj 624 276 osc~;
#X obj 624 298 +~ 1;
#X obj 624 320 /~ 2;
#X obj 624 341 *~;
#X obj 663 346 line~;
#X obj 383 200 r \$0-pl_AM_ModFreq;
#X obj 1223 310 hsl 50 15 0.1 0.9 0 0 \$0-pl_AM_ModAmount empty AM_amount 6 5 0 8 #fcfcfc #000000 #000000 0 1;
#X floatatom 1280 311 5 0 0 1 rms - - 0;
#X obj 436 242 r \$0-pl_AM_ModAmount;
#X obj 357 31 r \$0-pl_startpos_phase;
#X text 286 672 Envelope;
#X obj 123 785 *~;
#X obj 14 184 r \$0-pl_AMOnOff;
#X obj 1100 340 hsl 174 15 0 1 0 0 \$0-pl_level empty level 41 5 0 10 #fcfcfc #000000 #000000 0 1;
#X obj 167 715 r \$0-pl_level;
#X floatatom 1280 339 5 0 0 1 dB - - 0;
#X obj 1230 423 rmstodb;
#X obj 14 255 expr 1-$i1;
#X obj 122 335 *~;
#X obj 152 336 *~;
#X obj 132 363 +~;
#X obj 72 334 line~;
#X msg 72 312 \$1 10;
#X obj 199 344 line~;
#X msg 199 322 \$1 10;
#X obj 326 355 *~;
#X obj 356 356 *~;
#X obj 336 383 +~;
#X obj 286 384 line~;
#X msg 286 362 \$1 10;
#X obj 403 364 line~;
#X msg 403 342 \$1 10;
#X obj 556 385 *~;
#X obj 586 386 *~;
#X obj 566 413 +~;
#X obj 516 414 line~;
#X msg 516 392 \$1 10;
#X obj 633 394 line~;
#X msg 633 372 \$1 10;
#X floatatom 1280 245 5 0 0 1 - - - 0;
#X obj 1230 445 expr $f1 - 100;
#X floatatom 1100 227 5 0 0 1 dur(ms) - \$0-pl_dur 0;
#X obj 123 31 r \$0-pl_dur;
#X floatatom 60 130 5 0 0 0 - - - 0;
#X obj 123 102 expr 1000/$f1;
#X msg 433 284 \$1 50;
#X msg 219 274 \$1 50;
#X msg 663 324 \$1 50;
#X obj 123 78 t f f b;
#X obj 147 499 * 48;
#X obj 123 56 * 1;
#X obj 615 149 * 0.5;
#X obj 147 523 *;
#X obj 482 533 bang;
#X floatatom 1150 270 5 0 0 1 pitch - - 0;
#X obj 482 554 del 20;
#X obj 147 569 line~;
#X msg 147 546 \$1 20;
#X obj 156 444 line~;
#X msg 156 424 \$1 20;
#X obj 130 467 *~;
#X obj 358 448 line~;
#X msg 358 428 \$1 20;
#X obj 336 470 *~;
#X obj 607 469 line~;
#X msg 607 449 \$1 20;
#X obj 566 472 *~;
#X text 270 740 Gain;
#X text 310 810 Mute;
#X obj 840 40 route startpos buffname playmode envelope gain mute AM_onoff AM_freq AM_amount FM_amount dur pitch, f 91;
#X obj 734 265 env~;
#X floatatom 734 290 5 0 0 0 - - - 0;
#X msg 1237 168 5;
#X obj 194 673 curve~ 0 -0.7;
#X connect 0 0 48 0;
#X connect 0 0 93 0;
#X connect 1 0 4 0;
#X connect 2 0 86 0;
#X connect 3 0 5 0;
#X connect 4 0 2 0;
#X connect 5 0 86 1;
#X connect 6 0 7 0;
#X connect 7 0 8 1;
#X connect 8 0 20 0;
#X connect 12 0 14 0;
#X connect 14 0 15 0;
#X connect 15 0 49 0;
#X connect 15 0 100 0;
#X connect 16 0 17 0;
#X connect 17 0 21 1;
#X connect 18 0 26 0;
#X connect 19 0 144 0;
#X connect 21 0 18 0;
#X connect 22 0 21 0;
#X connect 23 0 30 0;
#X connect 26 0 27 0;
#X connect 27 0 50 0;
#X connect 27 0 107 0;
#X connect 30 0 31 0;
#X connect 30 0 32 0;
#X connect 30 0 33 0;
#X connect 30 1 34 0;
#X connect 30 1 36 0;
#X connect 30 1 35 0;
#X connect 30 2 37 0;
#X connect 30 2 39 0;
#X connect 30 2 38 0;
#X connect 31 0 54 0;
#X connect 32 0 53 0;
#X connect 33 0 52 0;
#X connect 34 0 54 0;
#X connect 35 0 52 0;
#X connect 36 0 53 0;
#X connect 37 0 52 0;
#X connect 38 0 53 0;
#X connect 39 0 54 0;
#X connect 40 0 41 0;
#X connect 41 0 42 0;
#X connect 42 0 68 0;
#X connect 43 0 44 0;
#X connect 43 0 64 0;
#X connect 43 0 147 0;
#X connect 44 0 88 0;
#X connect 46 0 47 0;
#X connect 48 0 94 0;
#X connect 49 0 101 0;
#X connect 50 0 108 0;
#X connect 51 0 67 0;
#X connect 55 0 17 1;
#X connect 56 0 55 0;
#X connect 57 0 56 0;
#X connect 58 0 65 0;
#X connect 58 0 134 0;
#X connect 59 0 66 0;
#X connect 59 0 137 0;
#X connect 60 0 114 0;
#X connect 62 0 63 0;
#X connect 63 0 6 0;
#X connect 64 0 61 0;
#X connect 64 0 23 0;
#X connect 64 0 29 0;
#X connect 68 0 49 1;
#X connect 69 0 68 1;
#X connect 70 0 71 0;
#X connect 71 0 72 0;
#X connect 72 0 73 0;
#X connect 73 0 48 1;
#X connect 74 0 73 1;
#X connect 75 0 76 0;
#X connect 76 0 77 0;
#X connect 77 0 78 0;
#X connect 78 0 50 1;
#X connect 79 0 78 1;
#X connect 80 0 70 0;
#X connect 80 0 40 0;
#X connect 80 0 75 0;
#X connect 81 0 82 0;
#X connect 83 0 121 0;
#X connect 83 0 120 0;
#X connect 83 0 122 0;
#X connect 84 0 0 1;
#X connect 84 0 12 1;
#X connect 84 0 18 1;
#X connect 86 0 8 0;
#X connect 87 0 92 0;
#X connect 87 0 99 0;
#X connect 87 0 106 0;
#X connect 87 0 113 0;
#X connect 88 0 91 0;
#X connect 89 0 3 0;
#X connect 91 0 115 0;
#X connect 92 0 97 0;
#X connect 92 0 104 0;
#X connect 92 0 111 0;
#X connect 93 0 95 0;
#X connect 94 0 95 1;
#X connect 95 0 135 0;
#X connect 96 0 93 1;
#X connect 97 0 96 0;
#X connect 98 0 94 1;
#X connect 99 0 98 0;
#X connect 100 0 102 0;
#X connect 101 0 102 1;
#X connect 102 0 138 0;
#X connect 103 0 100 1;
#X connect 104 0 103 0;
#X connect 105 0 101 1;
#X connect 106 0 105 0;
#X connect 107 0 109 0;
#X connect 108 0 109 1;
#X connect 109 0 141 0;
#X connect 110 0 107 1;
#X connect 111 0 110 0;
#X connect 112 0 108 1;
#X connect 113 0 112 0;
#X connect 115 0 90 0;
#X connect 117 0 125 0;
#X connect 119 0 12 0;
#X connect 119 0 22 0;
#X connect 119 0 118 0;
#X connect 119 0 0 0;
#X connect 119 0 126 0;
#X connect 120 0 69 0;
#X connect 121 0 74 0;
#X connect 122 0 79 0;
#X connect 123 0 119 0;
#X connect 123 1 124 0;
#X connect 124 0 127 0;
#X connect 125 0 123 0;
#X connect 126 0 16 0;
#X connect 127 0 132 0;
#X connect 128 0 130 0;
#X connect 129 0 128 0;
#X connect 129 0 127 1;
#X connect 130 0 124 0;
#X connect 131 0 1 1;
#X connect 132 0 131 0;
#X connect 133 0 135 1;
#X connect 134 0 133 0;
#X connect 135 0 1 0;
#X connect 136 0 138 1;
#X connect 137 0 136 0;
#X connect 138 0 1 0;
#X connect 139 0 141 1;
#X connect 140 0 139 0;
#X connect 141 0 1 0;
#X connect 144 0 60 0;
#X connect 144 1 4 0;
#X connect 144 2 23 0;
#X connect 144 3 148 0;
#X connect 144 4 88 0;
#X connect 144 5 61 0;
#X connect 144 6 29 0;
#X connect 144 7 46 0;
#X connect 144 8 81 0;
#X connect 144 9 45 0;
#X connect 144 10 116 0;
#X connect 144 11 129 0;
#X connect 145 0 146 0;
#X connect 147 0 45 0;
#X connect 148 0 2 1;
#X coords 0 -1 1 1 249 154 1 1089 210;
