#N canvas 827 239 527 327 12;
#X obj 146 7 tgl 59 0 \$0-masterswitch empty MasterSwitch 0 67 0 10 #191919 #e11c16 #be0700 0 1;
#X obj 812 -101 dac~ 1 2 3 4 5 6 7 8;
#X obj 605 -417 player~ 1;
#X obj 678 -417 player~ 1;
#X obj 751 -417 player~ 1;
#X obj 824 -417 player~ 1;
#X obj 897 -417 player~ 1;
#X obj 970 -417 player~ 1;
#X obj 1043 -417 player~ 1;
#X obj 1117 -417 player~ 1;
#X obj 1235 -252 curve~ 0 -0.5;
#X obj 605 -242 throw~ \$0-dac1;
#X obj 658 -205 throw~ \$0-dac2;
#X obj 746 -242 throw~ \$0-dac3;
#X obj 799 -205 throw~ \$0-dac4;
#X obj 889 -242 throw~ \$0-dac5;
#X obj 942 -205 throw~ \$0-dac6;
#X obj 1030 -242 throw~ \$0-dac7;
#X obj 1083 -205 throw~ \$0-dac8;
#X obj 470 -147 catch~ \$0-dac1;
#X obj 583 -147 catch~ \$0-dac2;
#X obj 703 -147 catch~ \$0-dac3;
#X obj 815 -147 catch~ \$0-dac4;
#X obj 927 -147 catch~ \$0-dac5;
#X obj 1039 -147 catch~ \$0-dac6;
#X obj 1151 -147 catch~ \$0-dac7;
#X obj 1263 -147 catch~ \$0-dac8;
#X obj 409 -479 loadbang;
#X obj 615 -469 r \$0-masterswitch;
#X obj 6 7 bng 131 250 50 0 \$0-playnext empty PlayNext 33 63 0 17 #191919 #e1e1e1 #e1e1e1;
#X obj 1235 -284 r \$0-envelope_stream1;
#X obj 212 -169 loadbang;
#X msg 212 -128 1;
#X obj 6 201 display;
#X obj 6 144 hradio 46 1 0 5 \$0-radioUI \$0-radiodisplay empty 0 -8 0 10 #191919 #e1e1e1 #e1e1e1 0;
#X obj -231 170 r \$0-openmessage_stream1;
#X obj 263 -68 param toggle_start_stop;
#X obj -187 -205 param bang_playnext;
#X obj 601 -526 r \$0-openmessage_stream1_ch1;
#X obj 737 -499 r \$0-openmessage_stream1_ch2;
#X obj 812 -526 r \$0-openmessage_stream1_ch3;
#X obj 958 -500 r \$0-openmessage_stream1_ch4;
#X obj 1031 -527 r \$0-openmessage_stream1_ch5;
#X obj 1179 -495 r \$0-openmessage_stream1_ch6;
#X obj 1245 -528 r \$0-openmessage_stream1_ch7;
#X obj 1395 -495 r \$0-openmessage_stream1_ch8;
#X msg 409 -451 loop 0;
#X obj 1771 -147 s \$0-masterswitchUI;
#X obj 72 -128 r \$0-masterswitchUI;
#X msg 1730 -329 0;
#X obj 1662 -295 delay 50;
#X obj 1662 -264 bang;
#X obj 1653 -147 s \$0-open_next;
#X obj -79 -1445 f;
#X obj -5 -1443 + 1;
#X msg 43 -1575 0;
#X obj 43 -1604 loadbang;
#X obj -79 -1346 s \$0-radiodisplay;
#X obj 361 -687 s \$0-openmessage_stream1_ch2;
#X obj 146 -687 s \$0-openmessage_stream1_ch1;
#X obj 597 -687 s \$0-openmessage_stream1_ch3;
#X obj 826 -687 s \$0-openmessage_stream1_ch4;
#X obj 1056 -687 s \$0-openmessage_stream1_ch5;
#X obj 1272 -687 s \$0-openmessage_stream1_ch6;
#X obj 1495 -687 s \$0-openmessage_stream1_ch7;
#X obj 1728 -687 s \$0-openmessage_stream1_ch8;
#X msg 418 -1142 open snd/preludio-001.wav;
#X msg 418 -1109 open snd/preludio-002.wav;
#X msg 418 -1083 open snd/preludio-003.wav;
#X msg 418 -1057 open snd/preludio-004.wav;
#X msg 418 -1030 open snd/preludio-005.wav;
#X msg 418 -1001 open snd/preludio-006.wav;
#X msg 418 -974 open snd/preludio-007.wav;
#X msg 418 -945 open snd/preludio-008.wav;
#X msg 823 -1135 open snd/interludio-001.wav;
#X msg 823 -1109 open snd/interludio-002.wav;
#X msg 823 -1080 open snd/interludio-003.wav;
#X msg 823 -1057 open snd/interludio-004.wav;
#X msg 823 -1030 open snd/interludio-005.wav;
#X msg 823 -1001 open snd/interludio-006.wav;
#X msg 823 -974 open snd/interludio-007.wav;
#X msg 823 -945 open snd/interludio-008.wav;
#X msg 1340 -1137 open snd/postludio-001.wav;
#X msg 1340 -1109 open snd/postludio-002.wav;
#X msg 1340 -1083 open snd/postludio-003.wav;
#X msg 1340 -1057 open snd/postludio-004.wav;
#X msg 1340 -1030 open snd/postludio-005.wav;
#X msg 1340 -1001 open snd/postludio-006.wav;
#X msg 1340 -974 open snd/postludio-007.wav;
#X msg 1340 -945 open snd/postludio-008.wav;
#X obj 605 -281 *~ 1;
#X obj 678 -284 *~ 1;
#X obj 751 -281 *~ 1;
#X obj 824 -284 *~ 1;
#X obj 897 -281 *~ 1;
#X obj 970 -284 *~ 1;
#X obj 1044 -285 *~ 1;
#X obj 1117 -284 *~ 1;
#X obj 1780 -368 r \$0-playnext;
#X msg 1780 -329 1;
#X obj 1684 -431 bng 25 250 50 0 empty empty empty 17 7 0 10 #191919 #e1e1e1 #e1e1e1;
#X floatatom 197 -1390 16 0 0 0 - - - 36;
#X obj 1159 -347 print player8 _done;
#X msg 1742 -1143 open snd/interludioII-001.wav;
#X msg 1742 -1117 open snd/interludioII-002.wav;
#X msg 1742 -1088 open snd/interludioII-003.wav;
#X msg 1742 -1065 open snd/interludioII-004.wav;
#X msg 1742 -1038 open snd/interludioII-005.wav;
#X msg 1742 -1009 open snd/interludioII-006.wav;
#X msg 1742 -982 open snd/interludioII-007.wav;
#X msg 1742 -953 open snd/interludioII-008.wav;
#X obj 1402 -1448 bng 25 250 50 0 empty empty empty 17 7 0 10 #191919 #e1e1e1 #e1e1e1;
#X obj -79 -1410 mod 5;
#X obj -121 -1517 r \$0-playnext;
#X obj -108 -1252 sel 1 2 4 3 0, f 275;
#X connect 2 0 90 0;
#X connect 3 0 91 0;
#X connect 4 0 92 0;
#X connect 5 0 93 0;
#X connect 6 0 94 0;
#X connect 7 0 95 0;
#X connect 8 0 96 0;
#X connect 9 0 97 0;
#X connect 9 1 102 0;
#X connect 19 0 1 0;
#X connect 20 0 1 1;
#X connect 21 0 1 2;
#X connect 22 0 1 3;
#X connect 23 0 1 4;
#X connect 24 0 1 5;
#X connect 25 0 1 6;
#X connect 26 0 1 7;
#X connect 27 0 46 0;
#X connect 28 0 2 0;
#X connect 28 0 3 0;
#X connect 28 0 4 0;
#X connect 28 0 5 0;
#X connect 28 0 6 0;
#X connect 28 0 7 0;
#X connect 28 0 8 0;
#X connect 28 0 9 0;
#X connect 30 0 10 0;
#X connect 31 0 32 0;
#X connect 32 0 0 0;
#X connect 35 0 33 0;
#X connect 36 0 0 0;
#X connect 38 0 2 0;
#X connect 39 0 3 0;
#X connect 40 0 4 0;
#X connect 41 0 5 0;
#X connect 42 0 6 0;
#X connect 43 0 7 0;
#X connect 44 0 8 0;
#X connect 45 0 9 0;
#X connect 46 0 2 0;
#X connect 46 0 3 0;
#X connect 46 0 4 0;
#X connect 46 0 5 0;
#X connect 46 0 6 0;
#X connect 46 0 7 0;
#X connect 46 0 8 0;
#X connect 46 0 9 0;
#X connect 48 0 0 0;
#X connect 49 0 50 0;
#X connect 50 0 51 0;
#X connect 53 0 54 0;
#X connect 53 0 112 0 32.................H..........B.........7.....;
#X connect 54 0 53 1;
#X connect 56 0 55 0 32.................E.........PA.........j.....;
#X connect 66 0 59 0;
#X connect 67 0 58 0;
#X connect 68 0 60 0;
#X connect 69 0 61 0;
#X connect 70 0 62 0;
#X connect 71 0 63 0;
#X connect 72 0 64 0;
#X connect 73 0 65 0;
#X connect 74 0 59 0;
#X connect 75 0 58 0;
#X connect 76 0 60 0;
#X connect 77 0 61 0;
#X connect 78 0 62 0;
#X connect 79 0 63 0;
#X connect 80 0 64 0;
#X connect 81 0 65 0;
#X connect 82 0 59 0;
#X connect 83 0 58 0;
#X connect 84 0 60 0;
#X connect 85 0 61 0;
#X connect 86 0 62 0;
#X connect 87 0 63 0;
#X connect 88 0 64 0;
#X connect 89 0 65 0;
#X connect 90 0 11 0;
#X connect 91 0 12 0;
#X connect 92 0 13 0;
#X connect 93 0 14 0;
#X connect 94 0 15 0;
#X connect 95 0 16 0;
#X connect 96 0 17 0;
#X connect 97 0 18 0;
#X connect 98 0 99 0;
#X connect 100 0 50 0;
#X connect 103 0 59 0;
#X connect 104 0 58 0;
#X connect 105 0 60 0;
#X connect 106 0 61 0;
#X connect 107 0 62 0;
#X connect 108 0 63 0;
#X connect 109 0 64 0;
#X connect 110 0 65 0;
#X connect 112 0 57 0;
#X connect 112 0 101 0;
#X connect 112 0 114 0;
#X connect 113 0 53 0;
#X connect 114 0 66 0;
#X connect 114 0 67 0;
#X connect 114 0 68 0;
#X connect 114 0 69 0;
#X connect 114 0 70 0;
#X connect 114 0 71 0;
#X connect 114 0 72 0;
#X connect 114 0 73 0;
#X connect 114 1 74 0;
#X connect 114 1 75 0;
#X connect 114 1 76 0;
#X connect 114 1 77 0;
#X connect 114 1 78 0;
#X connect 114 1 79 0;
#X connect 114 1 80 0;
#X connect 114 1 81 0;
#X connect 114 2 82 0;
#X connect 114 2 83 0;
#X connect 114 2 84 0;
#X connect 114 2 85 0;
#X connect 114 2 86 0;
#X connect 114 2 87 0;
#X connect 114 2 88 0;
#X connect 114 2 89 0;
#X connect 114 3 104 0;
#X connect 114 3 103 0;
#X connect 114 3 105 0;
#X connect 114 3 106 0;
#X connect 114 3 107 0;
#X connect 114 3 108 0;
#X connect 114 3 109 0;
#X connect 114 3 110 0;
#X connect 114 3 111 0;
