#N canvas 0 0 1350 674 12;
#X obj 757 166 noise~;
#X obj 757 210 *~;
#X obj 822 188 r testON_OFF;
#X obj 30 133 *~;
#X obj 76 133 *~;
#X obj 123 133 *~;
#X obj 170 133 *~;
#X obj 217 133 *~;
#X obj 263 133 *~;
#X obj 310 133 *~;
#X obj 357 133 *~;
#X obj 67 245 env~;
#X obj 37 274 - 100;
#X obj 30 336 dac~ 1 2 3 4 5 6 7 8___________________________________
;
#X obj 117 245 env~;
#X obj 87 274 - 100;
#X obj 162 245 env~;
#X obj 132 274 - 100;
#X obj 208 245 env~;
#X obj 178 274 - 100;
#X obj 258 245 env~;
#X obj 228 274 - 100;
#X obj 302 245 env~;
#X obj 272 274 - 100;
#X obj 346 245 env~;
#X obj 316 274 - 100;
#X obj 396 245 env~;
#X obj 366 274 - 100;
#X obj 37 293 s vch1;
#X obj 87 293 s vch2;
#X obj 132 293 s vch3;
#X obj 178 293 s vch4;
#X obj 228 293 s vch5;
#X obj 272 293 s vch6;
#X obj 316 293 s vch7;
#X obj 31 64 catch~ out1;
#X obj 75 84 catch~ out2;
#X obj 124 64 catch~ out3;
#X obj 171 84 catch~ out4;
#X obj 216 64 catch~ out5;
#X obj 263 84 catch~ out6;
#X obj 309 64 catch~ out7;
#X obj 358 84 catch~ out8;
#X obj 366 293 s vch8;
#X obj 30 193 *~;
#X obj 76 193 *~;
#X obj 123 193 *~;
#X obj 170 193 *~;
#X obj 217 193 *~;
#X obj 263 193 *~;
#X obj 310 193 *~;
#X obj 357 193 *~;
#X obj 797 218 r spat_test;
#X obj 36 160 r~ lv1;
#X obj 82 160 r~ lv2;
#X obj 130 159 r~ lv3;
#X obj 176 157 r~ lv4;
#X obj 222 156 r~ lv5;
#X obj 268 156 r~ lv6;
#X obj 317 157 r~ lv7;
#X obj 367 155 r~ lv8;
#X obj 67 201 r~ mu1;
#X obj 115 201 r~ mu2;
#X obj 161 201 r~ mu3;
#X obj 208 201 r~ mu4;
#X obj 255 201 r~ mu5;
#X obj 302 201 r~ mu6;
#X obj 280 200 r~ mu7;
#X obj 467 201 r~ mu8;
#X obj 627 276 loadbang;
#X msg 627 303 0;
#X obj 658 310 r test_spat;
#X msg 580 360 \; spat_test 0.125 0.25 0.375 0.5 0.625 0.75 0.875 1
\;;
#X msg 580 400 \; spat_test 0.25 0.5 0.75 1 1.25 1.5 1.75 2 \;;
#X msg 580 441 \; spat_test 2 0.125 0.25 1.5 0.875 0.375 0.75 1.75
\;;
#X msg 580 481 \; spat_test 1 0 1 0 1 0 1 0 \;;
#X msg 580 521 \; spat_test 0 1 0 1 0 1 0 1 \;;
#X obj 757 187 *~ 0.2;
#X msg 580 561 \; spat_test 1 1 1 1 1 1 1 1 \;;
#X obj 658 329 sel 0 1 2 3 4 5;
#X obj 797 245 unpack f f f f f f f f;
#X obj 1301 383 cnv 15 700 240 empty empty Output 30 12 0 18 #404040
#fcfcfc 0;
#X msg 1265 658 \$1 25;
#X obj 1288 730 rmstodb;
#X floatatom 1315 426 4 0 0 0 - - -, f 4;
#X obj 1288 751 - 100;
#X msg 1361 279 1;
#X text 1342 424 dB;
#X msg 1348 679 \$1 25;
#X obj 1353 727 rmstodb;
#X floatatom 1376 427 4 0 0 0 - - -, f 4;
#X obj 1353 751 - 100;
#X text 1402 424 dB;
#X obj 1361 247 loadbang;
#X obj 1318 580 tgl 18 0 empty empty empty 5 -6 0 10 #000000 #fc0400
#000000 0 1;
#X obj 1306 633 expr 1 - $i1;
#X obj 1389 659 expr 1 - $i1;
#X msg 1306 659 \$1 10;
#X msg 1389 679 \$1 10;
#X obj 1386 444 vu 16 120 empty empty -1 -8 0 7 #000000 #000000 1 0
;
#X obj 1325 444 vu 16 120 empty empty -1 -8 0 7 #000000 #000000 1 0
;
#X obj 1913 452 vradio 12 1 0 3 empty empty empty 0 -8 0 10 #7c7c7c
#dcdcdc #000000 1;
#X obj 2032 129 select 0 1 2;
#X obj 1289 41 spigot;
#X msg 2124 168 0;
#X obj 1253 62 spigot;
#X msg 2056 210 1;
#X msg 2032 149 1;
#X obj 1304 64 spigot;
#X msg 2032 169 0;
#X msg 2055 230 0;
#X text 1923 447 rms;
#X text 1925 474 OFF;
#X text 1924 460 peak;
#X msg 2011 331 -120;
#X msg 2032 298 -120;
#X msg 2129 337 -120;
#X obj 1380 580 tgl 18 0 empty empty empty 5 -6 0 10 #000000 #fc0400
#000000 0 1;
#X text 1314 566 Mute;
#X text 1376 566 Mute;
#X msg 1392 279 2;
#X msg 1426 281 0;
#X obj 1306 443 bng 8 250 50 0 empty empty empty 17 7 0 10 #b8b8b8
#0400fc #000000;
#X msg 1321 345 1;
#X obj 1367 442 bng 8 250 50 0 empty empty empty 17 7 0 10 #b8b8b8
#0400fc #000000;
#X msg 1375 345 1;
#X obj 1315 443 vsl 8 120 0 1.5 0 0 empty empty empty 0 -9 0 10 #7c7c7c
#fc0400 #000000 7933 1;
#X obj 1376 444 vsl 8 120 0 1.5 0 0 empty empty empty 0 -9 0 10 #7c7c7c
#fc0400 #000000 7933 1;
#X obj 1914 512 tgl 15 0 empty empty empty 17 7 0 10 #7c7c7c #000000
#000000 0 1;
#X obj 2028 661 s testON_OFF;
#X obj 2087 210 s peakON;
#X obj 2063 170 s peakOFF;
#X obj 2062 151 s rmsON;
#X obj 2087 230 s rmsOFF;
#X obj 1313 85 r peakON;
#X obj 1313 105 r peakOFF;
#X obj 1253 84 r rmsON;
#X obj 1253 104 r rmsOFF;
#X obj 1349 40 r rmsON;
#X obj 1349 60 r peakON;
#X obj 1349 21 r OFF;
#X obj 1311 162 spigot;
#X obj 1260 182 spigot;
#X obj 1311 184 spigot;
#X obj 1320 205 r peakON;
#X obj 1320 225 r peakOFF;
#X obj 1260 204 r rmsON;
#X obj 1260 224 r rmsOFF;
#X obj 1359 156 r rmsON;
#X obj 1359 176 r peakON;
#X obj 1359 137 r OFF;
#X msg 1444 688 \$1 25;
#X obj 1467 740 rmstodb;
#X floatatom 1465 426 4 0 0 0 - - -, f 4;
#X obj 1467 761 - 100;
#X msg 1511 279 1;
#X text 1492 424 dB;
#X msg 1517 709 \$1 25;
#X obj 1542 757 rmstodb;
#X floatatom 1526 427 4 0 0 0 - - -, f 4;
#X obj 1542 781 - 100;
#X text 1552 424 dB;
#X obj 1511 247 loadbang;
#X obj 1468 580 tgl 18 0 empty empty empty 5 -6 0 10 #000000 #fc0400
#000000 0 1;
#X obj 1485 663 expr 1 - $i1;
#X obj 1558 689 expr 1 - $i1;
#X msg 1485 689 \$1 10;
#X msg 1558 709 \$1 10;
#X obj 1536 444 vu 16 120 empty empty -1 -8 0 7 #000000 #000000 1 0
;
#X obj 1475 444 vu 16 120 empty empty -1 -8 0 7 #000000 #000000 1 0
;
#X obj 1499 41 spigot;
#X obj 1448 62 spigot;
#X obj 1499 64 spigot;
#X obj 1530 580 tgl 18 0 empty empty empty 5 -6 0 10 #000000 #fc0400
#000000 0 1;
#X text 1464 566 Mute;
#X text 1526 566 Mute;
#X msg 1542 279 2;
#X msg 1576 281 0;
#X obj 1456 443 bng 8 250 50 0 empty empty empty 17 7 0 10 #b8b8b8
#0400fc #000000;
#X msg 1471 345 1;
#X obj 1517 442 bng 8 250 50 0 empty empty empty 17 7 0 10 #b8b8b8
#0400fc #000000;
#X msg 1525 345 1;
#X obj 1465 443 vsl 8 120 0 1.5 0 0 empty empty empty 0 -9 0 10 #7c7c7c
#fc0400 #000000 7933 1;
#X obj 1526 444 vsl 8 120 0 1.5 0 0 empty empty empty 0 -9 0 10 #7c7c7c
#fc0400 #000000 7933 1;
#X obj 1508 85 r peakON;
#X obj 1508 105 r peakOFF;
#X obj 1448 84 r rmsON;
#X obj 1448 104 r rmsOFF;
#X obj 1544 44 r rmsON;
#X obj 1544 64 r peakON;
#X obj 1544 25 r OFF;
#X obj 1496 151 spigot;
#X obj 1445 170 spigot;
#X obj 1496 172 spigot;
#X obj 1505 193 r peakON;
#X obj 1505 213 r peakOFF;
#X obj 1445 192 r rmsON;
#X obj 1445 212 r rmsOFF;
#X obj 1546 152 r rmsON;
#X obj 1546 172 r peakON;
#X obj 1546 133 r OFF;
#X msg 1603 725 \$1 25;
#X obj 1626 777 rmstodb;
#X floatatom 1622 426 4 0 0 0 - - -, f 4;
#X obj 1626 798 - 100;
#X msg 1671 279 1;
#X text 1649 424 dB;
#X msg 1686 746 \$1 25;
#X obj 1711 794 rmstodb;
#X floatatom 1683 427 4 0 0 0 - - -, f 4;
#X obj 1711 818 - 100;
#X text 1709 424 dB;
#X obj 1671 247 loadbang;
#X obj 1625 580 tgl 18 0 empty empty empty 5 -6 0 10 #000000 #fc0400
#000000 0 1;
#X obj 1644 700 expr 1 - $i1;
#X obj 1727 726 expr 1 - $i1;
#X msg 1644 726 \$1 10;
#X msg 1727 746 \$1 10;
#X obj 1693 444 vu 16 120 empty empty -1 -8 0 7 #000000 #000000 1 0
;
#X obj 1632 444 vu 16 120 empty empty -1 -8 0 7 #000000 #000000 1 0
;
#X obj 1639 41 spigot;
#X obj 1603 62 spigot;
#X obj 1654 64 spigot;
#X obj 1687 580 tgl 18 0 empty empty empty 5 -6 0 10 #000000 #fc0400
#000000 0 1;
#X text 1621 566 Mute;
#X text 1683 566 Mute;
#X msg 1702 279 2;
#X msg 1736 281 0;
#X obj 1613 443 bng 8 250 50 0 empty empty empty 17 7 0 10 #b8b8b8
#0400fc #000000;
#X msg 1631 345 1;
#X obj 1674 442 bng 8 250 50 0 empty empty empty 17 7 0 10 #b8b8b8
#0400fc #000000;
#X msg 1685 345 1;
#X obj 1622 443 vsl 8 120 0 1.5 0 0 empty empty empty 0 -9 0 10 #7c7c7c
#fc0400 #000000 7933 1;
#X obj 1683 444 vsl 8 120 0 1.5 0 0 empty empty empty 0 -9 0 10 #7c7c7c
#fc0400 #000000 7933 1;
#X obj 1663 85 r peakON;
#X obj 1663 105 r peakOFF;
#X obj 1603 84 r rmsON;
#X obj 1603 104 r rmsOFF;
#X obj 1699 40 r rmsON;
#X obj 1699 60 r peakON;
#X obj 1699 21 r OFF;
#X obj 1661 162 spigot;
#X obj 1610 182 spigot;
#X obj 1661 184 spigot;
#X obj 1670 205 r peakON;
#X obj 1670 225 r peakOFF;
#X obj 1610 204 r rmsON;
#X obj 1610 224 r rmsOFF;
#X obj 1709 156 r rmsON;
#X obj 1709 176 r peakON;
#X obj 1709 137 r OFF;
#X msg 1787 668 \$1 25;
#X obj 1810 720 rmstodb;
#X floatatom 1778 426 4 0 0 0 - - -, f 4;
#X obj 1810 741 - 100;
#X msg 1806 279 1;
#X text 1805 424 dB;
#X msg 1860 689 \$1 25;
#X obj 1885 737 rmstodb;
#X floatatom 1839 427 4 0 0 0 - - -, f 4;
#X obj 1885 761 - 100;
#X text 1865 424 dB;
#X obj 1806 247 loadbang;
#X obj 1781 580 tgl 18 0 empty empty empty 5 -6 0 10 #000000 #fc0400
#000000 0 1;
#X obj 1828 643 expr 1 - $i1;
#X obj 1901 669 expr 1 - $i1;
#X msg 1828 669 \$1 10;
#X msg 1901 689 \$1 10;
#X obj 1849 444 vu 16 120 empty empty -1 -8 0 7 #000000 #000000 1 0
;
#X obj 1788 444 vu 16 120 empty empty -1 -8 0 7 #000000 #000000 1 0
;
#X obj 1849 41 spigot;
#X obj 1798 62 spigot;
#X obj 1849 64 spigot;
#X obj 1843 580 tgl 18 0 empty empty empty 5 -6 0 10 #000000 #fc0400
#000000 0 1;
#X text 1777 566 Mute;
#X text 1839 566 Mute;
#X msg 1837 279 2;
#X msg 1871 281 0;
#X obj 1769 443 bng 8 250 50 0 empty empty empty 17 7 0 10 #b8b8b8
#0400fc #000000;
#X msg 1791 345 1;
#X obj 1830 442 bng 8 250 50 0 empty empty empty 17 7 0 10 #b8b8b8
#0400fc #000000;
#X msg 1845 345 1;
#X obj 1778 443 vsl 8 120 0 1.5 0 0 empty empty empty 0 -9 0 10 #7c7c7c
#fc0400 #000000 7933 1;
#X obj 1839 444 vsl 8 120 0 1.5 0 0 empty empty empty 0 -9 0 10 #7c7c7c
#fc0400 #000000 7933 1;
#X obj 1858 85 r peakON;
#X obj 1858 105 r peakOFF;
#X obj 1798 84 r rmsON;
#X obj 1798 104 r rmsOFF;
#X obj 1894 44 r rmsON;
#X obj 1894 64 r peakON;
#X obj 1894 25 r OFF;
#X obj 1846 151 spigot;
#X obj 1795 170 spigot;
#X obj 1846 172 spigot;
#X obj 1855 193 r peakON;
#X obj 1855 213 r peakOFF;
#X obj 1795 192 r rmsON;
#X obj 1795 212 r rmsOFF;
#X obj 1896 152 r rmsON;
#X obj 1896 172 r peakON;
#X obj 1896 133 r OFF;
#X obj 1289 22 r vch1;
#X obj 1311 142 r vch2;
#X obj 1496 133 r vch4;
#X obj 1499 22 r vch3;
#X obj 1639 22 r vch5;
#X obj 1661 142 r vch6;
#X obj 1846 133 r vch8;
#X obj 1849 22 r vch7;
#X text 1899 435 Meter mode;
#X text 1899 496 Test ON/OFF;
#X obj 1206 529 loadbang;
#X msg 1215 569 0;
#X obj 1265 684 line~;
#X obj 1265 837 s~ lv1;
#X obj 1348 705 line~;
#X obj 1348 837 s~ lv2;
#X obj 1444 714 line~;
#X obj 1444 837 s~ lv3;
#X obj 1517 839 s~ lv4;
#X obj 1517 735 line~;
#X obj 1603 751 line~;
#X obj 1603 840 s~ lv5;
#X obj 1686 846 s~ lv6;
#X obj 1787 845 s~ lv7;
#X obj 1828 802 s~ mu7;
#X obj 1860 844 s~ lv8;
#X obj 1901 812 s~ mu8;
#X obj 1901 715 line~;
#X obj 1860 715 line~;
#X obj 1828 695 line~;
#X obj 1787 694 line~;
#X obj 1727 772 line~;
#X obj 1686 772 line~;
#X obj 1644 752 line~;
#X obj 1558 735 line~;
#X obj 1485 715 line~;
#X obj 1389 705 line~;
#X obj 1306 685 line~;
#X obj 1306 704 s~ mu1;
#X obj 1390 751 s~ mu2;
#X obj 1478 782 s~ mu3;
#X obj 1558 802 s~ mu4;
#X obj 1648 822 s~ mu5;
#X obj 1748 822 s~ mu6;
#X obj 1914 529 hradio 10 1 0 6 empty empty empty 0 -8 0 10 #9c9c9c
#000000 #000000 0;
#X obj 2028 680 s test_spat;
#X obj 573 178 env~;
#X floatatom 560 240 5 0 0 0 - - -, f 5;
#X obj 497 233 env~;
#X connect 0 0 77 0;
#X connect 1 0 347 0;
#X connect 2 0 1 1;
#X connect 3 0 44 0;
#X connect 4 0 45 0;
#X connect 5 0 46 0;
#X connect 6 0 47 0;
#X connect 7 0 48 0;
#X connect 8 0 49 0;
#X connect 9 0 50 0;
#X connect 10 0 51 0;
#X connect 11 0 12 0;
#X connect 12 0 28 0;
#X connect 14 0 15 0;
#X connect 15 0 29 0;
#X connect 16 0 17 0;
#X connect 17 0 30 0;
#X connect 18 0 19 0;
#X connect 19 0 31 0;
#X connect 20 0 21 0;
#X connect 21 0 32 0;
#X connect 22 0 23 0;
#X connect 23 0 33 0;
#X connect 24 0 25 0;
#X connect 25 0 34 0;
#X connect 26 0 27 0;
#X connect 27 0 43 0;
#X connect 35 0 3 0;
#X connect 36 0 4 0;
#X connect 37 0 5 0;
#X connect 38 0 6 0;
#X connect 39 0 7 0;
#X connect 40 0 8 0;
#X connect 41 0 9 0;
#X connect 42 0 10 0;
#X connect 44 0 11 0;
#X connect 44 0 13 0;
#X connect 45 0 14 0;
#X connect 45 0 13 1;
#X connect 46 0 16 0;
#X connect 46 0 13 2;
#X connect 47 0 18 0;
#X connect 47 0 13 3;
#X connect 48 0 20 0;
#X connect 48 0 13 4;
#X connect 49 0 22 0;
#X connect 49 0 13 5;
#X connect 50 0 24 0;
#X connect 50 0 13 6;
#X connect 51 0 26 0;
#X connect 51 0 13 7;
#X connect 51 0 349 0;
#X connect 52 0 80 0;
#X connect 53 0 3 1;
#X connect 54 0 4 1;
#X connect 55 0 5 1;
#X connect 56 0 6 1;
#X connect 57 0 7 1;
#X connect 58 0 8 1;
#X connect 59 0 9 1;
#X connect 60 0 10 1;
#X connect 61 0 44 1;
#X connect 62 0 45 1;
#X connect 63 0 46 1;
#X connect 64 0 47 1;
#X connect 65 0 48 1;
#X connect 66 0 49 1;
#X connect 67 0 50 1;
#X connect 68 0 51 1;
#X connect 69 0 70 0;
#X connect 70 0 79 0;
#X connect 71 0 79 0;
#X connect 77 0 1 0;
#X connect 79 0 72 0;
#X connect 79 1 73 0;
#X connect 79 2 74 0;
#X connect 79 3 75 0;
#X connect 79 4 76 0;
#X connect 79 5 78 0;
#X connect 82 0 313 0;
#X connect 83 0 85 0;
#X connect 85 0 84 0;
#X connect 86 0 126 0;
#X connect 86 0 127 0;
#X connect 88 0 315 0;
#X connect 89 0 91 0;
#X connect 91 0 90 0;
#X connect 93 0 86 0;
#X connect 93 0 120 0;
#X connect 93 0 121 0;
#X connect 94 0 95 0;
#X connect 95 0 97 0;
#X connect 96 0 98 0;
#X connect 97 0 338 0;
#X connect 98 0 337 0;
#X connect 101 0 102 0;
#X connect 102 0 107 0;
#X connect 102 0 109 0;
#X connect 102 0 114 0;
#X connect 102 1 106 0;
#X connect 102 1 110 0;
#X connect 102 1 115 0;
#X connect 102 2 104 0;
#X connect 102 2 116 0;
#X connect 103 0 105 0;
#X connect 103 0 108 0;
#X connect 105 0 100 0;
#X connect 106 0 130 0;
#X connect 107 0 132 0;
#X connect 108 0 100 1;
#X connect 109 0 131 0;
#X connect 110 0 133 0;
#X connect 114 0 100 1;
#X connect 114 0 99 1;
#X connect 114 0 169 1;
#X connect 114 0 168 1;
#X connect 114 0 219 1;
#X connect 114 0 218 1;
#X connect 114 0 269 1;
#X connect 114 0 268 1;
#X connect 115 0 100 0;
#X connect 115 0 99 0;
#X connect 115 0 169 0;
#X connect 115 0 168 0;
#X connect 115 0 219 0;
#X connect 115 0 218 0;
#X connect 115 0 269 0;
#X connect 115 0 268 0;
#X connect 116 0 100 0;
#X connect 116 0 100 1;
#X connect 116 0 99 1;
#X connect 116 0 99 0;
#X connect 116 0 169 1;
#X connect 116 0 169 0;
#X connect 116 0 168 1;
#X connect 116 0 168 0;
#X connect 116 0 219 1;
#X connect 116 0 219 0;
#X connect 116 0 218 1;
#X connect 116 0 218 0;
#X connect 116 0 269 0;
#X connect 116 0 269 1;
#X connect 116 0 268 1;
#X connect 116 0 268 0;
#X connect 117 0 96 0;
#X connect 120 0 101 0;
#X connect 121 0 94 0;
#X connect 121 0 117 0;
#X connect 122 0 123 0;
#X connect 123 0 126 0;
#X connect 124 0 125 0;
#X connect 125 0 127 0;
#X connect 126 0 83 0;
#X connect 126 0 82 0;
#X connect 127 0 88 0;
#X connect 127 0 89 0;
#X connect 128 0 129 0;
#X connect 134 0 108 1;
#X connect 135 0 108 1;
#X connect 136 0 105 1;
#X connect 137 0 105 1;
#X connect 138 0 103 1;
#X connect 139 0 103 1;
#X connect 140 0 103 1;
#X connect 141 0 142 0;
#X connect 141 0 143 0;
#X connect 142 0 99 0;
#X connect 143 0 99 1;
#X connect 144 0 143 1;
#X connect 145 0 143 1;
#X connect 146 0 142 1;
#X connect 147 0 142 1;
#X connect 148 0 141 1;
#X connect 149 0 141 1;
#X connect 150 0 141 1;
#X connect 151 0 317 0;
#X connect 152 0 154 0;
#X connect 154 0 153 0;
#X connect 155 0 182 0;
#X connect 155 0 183 0;
#X connect 157 0 320 0;
#X connect 158 0 160 0;
#X connect 160 0 159 0;
#X connect 162 0 155 0;
#X connect 162 0 176 0;
#X connect 162 0 177 0;
#X connect 163 0 164 0;
#X connect 164 0 166 0;
#X connect 165 0 167 0;
#X connect 166 0 336 0;
#X connect 167 0 335 0;
#X connect 170 0 171 0;
#X connect 170 0 172 0;
#X connect 171 0 169 0;
#X connect 172 0 169 1;
#X connect 173 0 165 0;
#X connect 177 0 163 0;
#X connect 177 0 173 0;
#X connect 178 0 179 0;
#X connect 179 0 182 0;
#X connect 180 0 181 0;
#X connect 181 0 183 0;
#X connect 182 0 152 0;
#X connect 182 0 151 0;
#X connect 183 0 157 0;
#X connect 183 0 158 0;
#X connect 184 0 172 1;
#X connect 185 0 172 1;
#X connect 186 0 171 1;
#X connect 187 0 171 1;
#X connect 188 0 170 1;
#X connect 189 0 170 1;
#X connect 190 0 170 1;
#X connect 191 0 192 0;
#X connect 191 0 193 0;
#X connect 192 0 168 0;
#X connect 193 0 168 1;
#X connect 194 0 193 1;
#X connect 195 0 193 1;
#X connect 196 0 192 1;
#X connect 197 0 192 1;
#X connect 198 0 191 1;
#X connect 199 0 191 1;
#X connect 200 0 191 1;
#X connect 201 0 321 0;
#X connect 202 0 204 0;
#X connect 204 0 203 0;
#X connect 205 0 232 0;
#X connect 205 0 233 0;
#X connect 207 0 333 0;
#X connect 208 0 210 0;
#X connect 210 0 209 0;
#X connect 212 0 205 0;
#X connect 212 0 226 0;
#X connect 212 0 227 0;
#X connect 213 0 214 0;
#X connect 214 0 216 0;
#X connect 215 0 217 0;
#X connect 216 0 334 0;
#X connect 217 0 332 0;
#X connect 220 0 221 0;
#X connect 220 0 222 0;
#X connect 221 0 219 0;
#X connect 222 0 219 1;
#X connect 223 0 215 0;
#X connect 227 0 213 0;
#X connect 227 0 223 0;
#X connect 228 0 229 0;
#X connect 229 0 232 0;
#X connect 230 0 231 0;
#X connect 231 0 233 0;
#X connect 232 0 202 0;
#X connect 232 0 201 0;
#X connect 233 0 207 0;
#X connect 233 0 208 0;
#X connect 234 0 222 1;
#X connect 235 0 222 1;
#X connect 236 0 221 1;
#X connect 237 0 221 1;
#X connect 238 0 220 1;
#X connect 239 0 220 1;
#X connect 240 0 220 1;
#X connect 241 0 242 0;
#X connect 241 0 243 0;
#X connect 242 0 218 0;
#X connect 243 0 218 1;
#X connect 244 0 243 1;
#X connect 245 0 243 1;
#X connect 246 0 242 1;
#X connect 247 0 242 1;
#X connect 248 0 241 1;
#X connect 249 0 241 1;
#X connect 250 0 241 1;
#X connect 251 0 331 0;
#X connect 252 0 254 0;
#X connect 254 0 253 0;
#X connect 255 0 282 0;
#X connect 255 0 283 0;
#X connect 257 0 329 0;
#X connect 258 0 260 0;
#X connect 260 0 259 0;
#X connect 262 0 255 0;
#X connect 262 0 276 0;
#X connect 262 0 277 0;
#X connect 263 0 264 0;
#X connect 264 0 266 0;
#X connect 265 0 267 0;
#X connect 266 0 330 0;
#X connect 267 0 328 0;
#X connect 270 0 271 0;
#X connect 270 0 272 0;
#X connect 271 0 269 0;
#X connect 272 0 269 1;
#X connect 273 0 265 0;
#X connect 277 0 263 0;
#X connect 277 0 273 0;
#X connect 278 0 279 0;
#X connect 279 0 282 0;
#X connect 280 0 281 0;
#X connect 281 0 283 0;
#X connect 282 0 252 0;
#X connect 282 0 251 0;
#X connect 283 0 257 0;
#X connect 283 0 258 0;
#X connect 284 0 272 1;
#X connect 285 0 272 1;
#X connect 286 0 271 1;
#X connect 287 0 271 1;
#X connect 288 0 270 1;
#X connect 289 0 270 1;
#X connect 290 0 270 1;
#X connect 291 0 292 0;
#X connect 291 0 293 0;
#X connect 292 0 268 0;
#X connect 293 0 268 1;
#X connect 294 0 293 1;
#X connect 295 0 293 1;
#X connect 296 0 292 1;
#X connect 297 0 292 1;
#X connect 298 0 291 1;
#X connect 299 0 291 1;
#X connect 300 0 291 1;
#X connect 301 0 103 0;
#X connect 302 0 141 0;
#X connect 303 0 191 0;
#X connect 304 0 170 0;
#X connect 305 0 220 0;
#X connect 306 0 241 0;
#X connect 307 0 291 0;
#X connect 308 0 270 0;
#X connect 311 0 312 0;
#X connect 312 0 94 0;
#X connect 312 0 117 0;
#X connect 312 0 163 0;
#X connect 312 0 173 0;
#X connect 312 0 213 0;
#X connect 312 0 223 0;
#X connect 312 0 263 0;
#X connect 312 0 273 0;
#X connect 313 0 314 0;
#X connect 315 0 316 0;
#X connect 317 0 318 0;
#X connect 320 0 319 0;
#X connect 321 0 322 0;
#X connect 328 0 327 0;
#X connect 329 0 326 0;
#X connect 330 0 325 0;
#X connect 331 0 324 0;
#X connect 332 0 344 0;
#X connect 333 0 323 0;
#X connect 334 0 343 0;
#X connect 335 0 342 0;
#X connect 336 0 341 0;
#X connect 337 0 340 0;
#X connect 338 0 339 0;
#X connect 345 0 346 0;
#X connect 349 0 348 0;
#X coords 0 -1 1 1 703 244 1 1300 380;
