#N canvas -8 -8 1366 695 12;
#X obj 35 45 sigmund~ -npeak 8 peaks -npts 3024 -hop 5000;
#X obj 35 70 route 0 1 2 3 4 5 6 7 8;
#X obj 35 227 osc~;
#X obj 35 264 *~;
#X obj 70 241 line~;
#X msg 70 218 \$1 10;
#X obj 120 227 osc~;
#X obj 120 264 *~;
#X obj 155 241 line~;
#X msg 155 218 \$1 10;
#X obj 202 227 osc~;
#X obj 202 264 *~;
#X obj 237 241 line~;
#X msg 237 218 \$1 10;
#X obj 287 227 osc~;
#X obj 287 264 *~;
#X obj 322 241 line~;
#X msg 322 218 \$1 10;
#X obj 369 228 osc~;
#X obj 369 265 *~;
#X obj 404 242 line~;
#X msg 404 219 \$1 10;
#X obj 454 228 osc~;
#X obj 454 265 *~;
#X obj 489 242 line~;
#X msg 489 219 \$1 10;
#X obj 536 228 osc~;
#X obj 536 265 *~;
#X obj 571 242 line~;
#X msg 571 219 \$1 10;
#X obj 621 228 osc~;
#X obj 621 265 *~;
#X obj 656 242 line~;
#X msg 656 219 \$1 10;
#X obj 706 228 osc~;
#X obj 706 265 *~;
#X obj 741 242 line~;
#X msg 741 219 \$1 10;
#X obj 35 107 unpack f f;
#X obj 120 109 unpack f f;
#X obj 202 109 unpack f f;
#X obj 287 111 unpack f f;
#X obj 369 111 unpack f f;
#X obj 454 113 unpack f f;
#X obj 536 113 unpack f f;
#X obj 621 115 unpack f f;
#X obj 706 116 unpack f f;
#X obj 34 16 inlet~;
#X obj 323 318 +~;
#X obj 798 152 snapshot~;
#X obj 936 127 metro;
#X obj 799 102 *~ 6.2831;
#X obj 799 123 clip~ 1 6.2831;
#X msg 861 32 3.14;
#X obj 861 10 loadbang;
#X obj 799 52 +~ 1;
#X obj 799 77 /~ 2;
#X obj 142 182 pipe 10;
#X obj 222 182 pipe 20;
#X obj 312 182 pipe 30;
#X obj 392 182 pipe 40;
#X obj 482 182 pipe 50;
#X obj 562 182 pipe 60;
#X obj 642 182 pipe 70;
#X obj 732 182 pipe 80;
#X obj 936 109 tgl 15 0 empty empty empty 17 7 0 10 -262144 -1 -1 1
1;
#X msg 936 84 1;
#X obj 272 598 outlet~;
#X obj 818 471 hsl 170 15 0.1 10 0 0 \$0-lfo_freq empty LFO_freq 35
8 0 10 -262144 -1 -1 0 1;
#X floatatom 990 468 5 0 0 1 Hz - -;
#X obj 818 449 hsl 170 15 1 125 0 0 \$0-delta empty delta 35 8 0 10
-262144 -1 -1 0 1;
#X floatatom 990 446 5 0 0 1 ms - -;
#X obj 799 -21 r \$0-lfo_freq;
#X obj 996 93 r \$0-delta;
#X obj 227 445 *~;
#X obj 246 408 line~;
#X obj 246 358 r \$0-wet;
#X obj 337 445 *~;
#X obj 356 408 line~;
#X obj 356 358 r \$0-dry;
#X obj 818 536 hsl 170 15 0 1 0 0 \$0-wet empty wet 35 8 0 10 -262144
-1 -1 0 1;
#X floatatom 990 533 5 0 0 1 - - -;
#X obj 818 514 hsl 170 15 0 1 0 0 \$0-dry empty dry 35 8 0 10 -262144
-1 -1 0 1;
#X floatatom 990 511 5 0 0 1 - - -;
#X msg 356 384 \$1 50;
#X msg 246 384 \$1 50;
#X obj 987 421 tgl 15 0 \$0-ph_dis_bypass empty bypass 17 7 0 10 -262144
-1 -1 0 1;
#X obj 301 482 r \$0-ph_dis_bypass;
#X obj 272 571 *~;
#X obj 301 504 expr 1-$i1;
#X obj 273 474 +~;
#X msg 301 528 \$1 10;
#X obj 301 552 line~;
#X msg 1148 354 0;
#X obj 1148 290 loadbang;
#X obj 799 30 osc~;
#X connect 0 0 1 0;
#X connect 1 0 38 0;
#X connect 1 1 39 0;
#X connect 1 2 40 0;
#X connect 1 3 41 0;
#X connect 1 4 42 0;
#X connect 1 5 43 0;
#X connect 1 6 44 0;
#X connect 1 7 45 0;
#X connect 1 8 46 0;
#X connect 2 0 3 0;
#X connect 3 0 48 0;
#X connect 4 0 3 1;
#X connect 5 0 4 0;
#X connect 6 0 7 0;
#X connect 7 0 48 0;
#X connect 8 0 7 1;
#X connect 9 0 8 0;
#X connect 10 0 11 0;
#X connect 11 0 48 0;
#X connect 12 0 11 1;
#X connect 13 0 12 0;
#X connect 14 0 15 0;
#X connect 15 0 48 0;
#X connect 16 0 15 1;
#X connect 17 0 16 0;
#X connect 18 0 19 0;
#X connect 19 0 48 1;
#X connect 20 0 19 1;
#X connect 21 0 20 0;
#X connect 22 0 23 0;
#X connect 23 0 48 1;
#X connect 24 0 23 1;
#X connect 25 0 24 0;
#X connect 26 0 27 0;
#X connect 27 0 48 1;
#X connect 28 0 27 1;
#X connect 29 0 28 0;
#X connect 30 0 31 0;
#X connect 31 0 48 1;
#X connect 32 0 31 1;
#X connect 33 0 32 0;
#X connect 34 0 35 0;
#X connect 35 0 48 1;
#X connect 36 0 35 1;
#X connect 37 0 36 0;
#X connect 38 0 2 0;
#X connect 38 1 5 0;
#X connect 39 0 6 0;
#X connect 39 1 9 0;
#X connect 40 0 10 0;
#X connect 40 1 13 0;
#X connect 41 0 14 0;
#X connect 41 1 17 0;
#X connect 42 0 18 0;
#X connect 42 1 21 0;
#X connect 43 0 22 0;
#X connect 43 1 25 0;
#X connect 44 0 26 0;
#X connect 44 1 29 0;
#X connect 45 0 30 0;
#X connect 45 1 33 0;
#X connect 46 0 34 0;
#X connect 46 1 37 0;
#X connect 47 0 0 0;
#X connect 47 0 77 0;
#X connect 48 0 74 0;
#X connect 49 0 64 0;
#X connect 49 0 63 0;
#X connect 49 0 62 0;
#X connect 49 0 61 0;
#X connect 49 0 60 0;
#X connect 49 0 59 0;
#X connect 49 0 58 0;
#X connect 49 0 57 0;
#X connect 49 0 2 1;
#X connect 50 0 49 0;
#X connect 51 0 52 0;
#X connect 52 0 49 0;
#X connect 53 0 95 1;
#X connect 54 0 53 0;
#X connect 54 0 66 0;
#X connect 55 0 56 0;
#X connect 56 0 51 0;
#X connect 57 0 6 1;
#X connect 58 0 10 1;
#X connect 59 0 14 1;
#X connect 60 0 18 1;
#X connect 61 0 22 1;
#X connect 62 0 26 1;
#X connect 63 0 30 1;
#X connect 64 0 34 1;
#X connect 65 0 50 0;
#X connect 66 0 65 0;
#X connect 68 0 69 0;
#X connect 70 0 71 0;
#X connect 72 0 95 0;
#X connect 73 0 50 1;
#X connect 74 0 90 0;
#X connect 75 0 74 1;
#X connect 76 0 85 0;
#X connect 77 0 90 1;
#X connect 78 0 77 1;
#X connect 79 0 84 0;
#X connect 80 0 81 0;
#X connect 82 0 83 0;
#X connect 84 0 78 0;
#X connect 85 0 75 0;
#X connect 87 0 89 0;
#X connect 88 0 67 0;
#X connect 89 0 91 0;
#X connect 90 0 88 0;
#X connect 91 0 92 0;
#X connect 92 0 88 1;
#X connect 93 0 86 0;
#X connect 94 0 93 0;
#X connect 95 0 55 0;
#X coords 0 -1 1 1 250 160 1 800 400;
