#N canvas 827 239 527 327 12;
#X obj 212 129 tgl 95 0 \$0-mute empty empty 17 7 0 10 #191919 #e1e1e1 #e1e1e1 0 1;
#X obj 1090 -91 dac~ 1 2 3 4 5 6 7 8;
#X obj 883 -627 player~ 1;
#X obj 956 -627 player~ 1;
#X obj 1029 -627 player~ 1;
#X obj 1102 -627 player~ 1;
#X obj 1175 -627 player~ 1;
#X obj 1248 -627 player~ 1;
#X obj 1321 -627 player~ 1;
#X obj 1395 -627 player~ 1;
#X obj 883 -232 throw~ \$0-dac1;
#X obj 936 -195 throw~ \$0-dac2;
#X obj 1024 -232 throw~ \$0-dac3;
#X obj 1077 -195 throw~ \$0-dac4;
#X obj 1167 -232 throw~ \$0-dac5;
#X obj 1220 -195 throw~ \$0-dac6;
#X obj 1308 -232 throw~ \$0-dac7;
#X obj 1361 -195 throw~ \$0-dac8;
#X obj 748 -137 catch~ \$0-dac1;
#X obj 861 -137 catch~ \$0-dac2;
#X obj 981 -137 catch~ \$0-dac3;
#X obj 1093 -137 catch~ \$0-dac4;
#X obj 1205 -137 catch~ \$0-dac5;
#X obj 1317 -137 catch~ \$0-dac6;
#X obj 1429 -137 catch~ \$0-dac7;
#X obj 1541 -137 catch~ \$0-dac8;
#X obj 652 -695 loadbang;
#X obj 893 -679 r \$0-masterswitch;
#X obj 879 -736 r \$0-openmessage_stream1_ch1;
#X obj 1015 -709 r \$0-openmessage_stream1_ch2;
#X obj 1090 -736 r \$0-openmessage_stream1_ch3;
#X obj 1236 -710 r \$0-openmessage_stream1_ch4;
#X obj 1309 -737 r \$0-openmessage_stream1_ch5;
#X obj 1457 -705 r \$0-openmessage_stream1_ch6;
#X obj 1523 -738 r \$0-openmessage_stream1_ch7;
#X obj 1673 -705 r \$0-openmessage_stream1_ch8;
#X obj -1033 -126 s \$0-openmessage_stream1_ch2;
#X obj -1248 -126 s \$0-openmessage_stream1_ch1;
#X obj -797 -126 s \$0-openmessage_stream1_ch3;
#X obj -568 -126 s \$0-openmessage_stream1_ch4;
#X obj -338 -126 s \$0-openmessage_stream1_ch5;
#X obj -122 -126 s \$0-openmessage_stream1_ch6;
#X obj 101 -126 s \$0-openmessage_stream1_ch7;
#X obj 334 -126 s \$0-openmessage_stream1_ch8;
#X msg -1180 -495 open snd/notte_imp-001.wav;
#X msg -1180 -465 open snd/notte_imp-002.wav;
#X msg -1180 -437 open snd/notte_imp-003.wav;
#X msg -1180 -409 open snd/notte_imp-004.wav;
#X msg -1180 -379 open snd/notte_imp-005.wav;
#X msg -1180 -351 open snd/notte_imp-006.wav;
#X msg -1180 -322 open snd/notte_imp-007.wav;
#X msg -1180 -294 open snd/notte_imp-008.wav;
#X msg -637 -536 open snd/gabbiani_imp-001.wav;
#X msg -637 -506 open snd/gabbiani_imp-002.wav;
#X msg -637 -478 open snd/gabbiani_imp-003.wav;
#X msg -637 -448 open snd/gabbiani_imp-004.wav;
#X msg -637 -420 open snd/gabbiani_imp-005.wav;
#X msg -637 -390 open snd/gabbiani_imp-006.wav;
#X msg -637 -362 open snd/gabbiani_imp-007.wav;
#X msg -637 -332 open snd/gabbiani_imp-008.wav;
#X obj 32 28 bng 80 250 50 0 empty empty I. 17 7 0 18 #191919 #e1e1e1 #e1e1e1;
#X obj 118 28 bng 80 250 50 0 empty empty II. 17 7 0 18 #191919 #e1e1e1 #e1e1e1;
#X msg 735 -655 loop 1;
#X msg 684 -550 1;
#X obj 684 -521 s \$0-masterswitch;
#X obj 1843 -353 r \$0-mute;
#X msg 1583 -343 \$1 2000;
#X obj 1583 -315 line~;
#X obj 1322 -275 *~;
#X obj 1395 -274 *~;
#X obj 1248 -274 *~;
#X obj 1175 -271 *~;
#X obj 1102 -274 *~;
#X obj 1029 -271 *~;
#X obj 956 -274 *~;
#X obj 883 -271 *~;
#X obj 1395 -455 *~;
#X obj 1322 -453 *~;
#X obj 1248 -452 *~;
#X obj 1175 -451 *~;
#X obj 1102 -452 *~;
#X obj 1029 -451 *~;
#X obj 956 -452 *~;
#X obj 883 -451 *~;
#X obj 212 13 knob 95 0 100 0 0 \$0-thresh empty #191919 #696969 #E1E1E1 1 0 0 0 1 270 0 0 0;
#X floatatom 324 66 15 0 0 0 - \$0-thresh - 36;
#X obj 1917 -736 adc~ 1 2;
#X obj 1930 -679 +~;
#X obj 1930 -595 env~;
#X obj 1930 -632 *~;
#X obj 1927 -526 above;
#X obj 1927 -476 delay 100;
#X msg 2010 -430 0.125 1000;
#X msg 1907 -430 0.9 1000;
#X obj 2023 -476 delay 100;
#X obj 1673 -465 line~;
#X obj 2089 -572 r \$0-thresh;
#X obj -433 124 loadbang;
#X msg -278 147 0;
#X msg -278 212 75;
#X obj -626 247 param param1 1;
#X connect 2 0 83 0;
#X connect 3 0 82 0;
#X connect 4 0 81 0;
#X connect 5 0 80 0;
#X connect 6 0 79 0;
#X connect 7 0 78 0;
#X connect 8 0 77 0;
#X connect 9 0 76 0;
#X connect 18 0 1 0;
#X connect 19 0 1 1;
#X connect 20 0 1 2;
#X connect 21 0 1 3;
#X connect 22 0 1 4;
#X connect 23 0 1 5;
#X connect 24 0 1 6;
#X connect 25 0 1 7;
#X connect 26 0 62 0;
#X connect 26 0 63 0;
#X connect 27 0 2 0;
#X connect 27 0 3 0;
#X connect 27 0 4 0;
#X connect 27 0 5 0;
#X connect 27 0 6 0;
#X connect 27 0 7 0;
#X connect 27 0 8 0;
#X connect 27 0 9 0;
#X connect 28 0 2 0;
#X connect 29 0 3 0;
#X connect 30 0 4 0;
#X connect 31 0 5 0;
#X connect 32 0 6 0;
#X connect 33 0 7 0;
#X connect 34 0 8 0;
#X connect 35 0 9 0;
#X connect 44 0 37 0;
#X connect 45 0 36 0;
#X connect 46 0 38 0;
#X connect 47 0 39 0;
#X connect 48 0 40 0;
#X connect 49 0 41 0;
#X connect 50 0 42 0;
#X connect 51 0 43 0;
#X connect 52 0 37 0;
#X connect 53 0 36 0;
#X connect 54 0 38 0;
#X connect 55 0 39 0;
#X connect 56 0 40 0;
#X connect 57 0 41 0;
#X connect 58 0 42 0;
#X connect 59 0 43 0;
#X connect 60 0 44 0;
#X connect 60 0 45 0;
#X connect 60 0 46 0;
#X connect 60 0 48 0;
#X connect 60 0 47 0;
#X connect 60 0 49 0;
#X connect 60 0 50 0;
#X connect 60 0 51 0;
#X connect 61 0 52 0;
#X connect 61 0 53 0;
#X connect 61 0 54 0;
#X connect 61 0 55 0;
#X connect 61 0 56 0;
#X connect 61 0 58 0;
#X connect 61 0 59 0;
#X connect 61 0 57 0;
#X connect 62 0 2 0;
#X connect 62 0 3 0;
#X connect 62 0 4 0;
#X connect 62 0 5 0;
#X connect 62 0 6 0;
#X connect 62 0 7 0;
#X connect 62 0 8 0;
#X connect 62 0 9 0;
#X connect 63 0 64 0;
#X connect 65 0 66 0;
#X connect 66 0 67 0;
#X connect 67 0 69 1;
#X connect 67 0 68 1;
#X connect 67 0 70 1;
#X connect 67 0 71 1;
#X connect 67 0 72 1;
#X connect 67 0 73 1;
#X connect 67 0 74 1;
#X connect 67 0 75 1;
#X connect 68 0 16 0;
#X connect 69 0 17 0;
#X connect 70 0 15 0;
#X connect 71 0 14 0;
#X connect 72 0 13 0;
#X connect 73 0 12 0;
#X connect 74 0 11 0;
#X connect 75 0 10 0;
#X connect 76 0 69 0;
#X connect 77 0 68 0;
#X connect 78 0 70 0;
#X connect 79 0 71 0;
#X connect 80 0 72 0;
#X connect 81 0 73 0;
#X connect 82 0 74 0;
#X connect 83 0 75 0;
#X connect 86 0 87 0;
#X connect 86 1 87 1;
#X connect 87 0 89 0;
#X connect 87 0 89 1;
#X connect 88 0 90 0;
#X connect 89 0 88 0;
#X connect 90 0 91 0;
#X connect 90 1 94 0;
#X connect 91 0 93 0;
#X connect 92 0 95 0;
#X connect 93 0 95 0;
#X connect 94 0 92 0;
#X connect 95 0 76 1;
#X connect 95 0 77 1;
#X connect 95 0 78 1;
#X connect 95 0 79 1;
#X connect 95 0 80 1;
#X connect 95 0 81 1;
#X connect 95 0 82 1;
#X connect 95 0 83 1;
#X connect 96 0 90 1;
#X connect 97 0 98 0;
#X connect 97 0 99 0;
#X connect 98 0 0 0;
#X connect 99 0 84 0;
