#N canvas -8 -8 1366 695 12;
#N canvas -8 -8 1366 695 cacchio 0;
#X obj 278 124 rfft~;
#X obj 267 165 *~;
#X obj 302 165 *~;
#X obj 276 198 +~;
#X obj 277 228 sqrt~;
#X obj 288 353 metro 50;
#X obj 288 334 tgl 15 0 empty empty empty 17 7 0 10 -262144 -1 -1 0
1;
#X obj 278 377 tabwrite~ cacchio_norm;
#N canvas 0 50 450 250 (subpatch) 0;
#X array cacchio_norm 512 float 2;
#X coords 0 1 512 0 400 280 1 0 0;
#X restore 518 297 graph;
#X obj 86 102 noise~;
#X text 995 645 0.375 = Hann \, 4 = Upsample \, 4096 = Block size;
#X obj 1025 622 s norm;
#X obj 1074 260 samplerate~;
#X obj 1029 290 swap;
#X obj 1029 314 /;
#X msg 1075 367 0;
#X obj 1029 343 t f b;
#X obj 1029 391 phasor~;
#X obj 1029 492 tabwrite~ window;
#X obj 1029 417 *~ 2;
#X obj 1029 444 -~ 0.25;
#X obj 1029 467 cos~;
#X obj 1054 224 loadbang;
#X obj 1025 574 loadbang;
#X obj 88 245 rfft~;
#X obj 88 387 rifft~;
#X obj 9 183 tabreceive~ window;
#X obj 88 347 *~;
#X obj 126 347 *~;
#X obj 997 584 bng 15 250 50 0 empty empty empty 17 7 0 10 -262144
-1 -1;
#X obj 1014 209 bng 15 250 50 0 empty empty empty 17 7 0 10 -262144
-1 -1;
#X msg 1014 260 4096;
#X obj 1149 330 table window 4096;
#X obj 88 514 outlet~;
#X obj 1048 164 block~ 4096 4;
#X obj 1025 599 expr 1/(0.375*4096*4);
#X obj 78 284 *~ 0;
#X obj 131 284 *~ 0;
#X obj 188 247 r norm;
#X obj 88 216 *~;
#X obj 88 416 *~;
#X obj 277 267 /~ 2049;
#X obj 87 464 *~;
#X obj 153 468 hsl 128 15 0 1.5 0 0 empty empty empty -2 -8 0 10 -262144
-1 -1 8000 1;
#X obj 277 81 inlet~;
#X obj 87 145 hip~ 700;
#X connect 0 0 1 1;
#X connect 0 0 1 0;
#X connect 0 1 2 0;
#X connect 0 1 2 1;
#X connect 1 0 3 0;
#X connect 2 0 3 1;
#X connect 3 0 4 0;
#X connect 4 0 41 0;
#X connect 5 0 7 0;
#X connect 6 0 5 0;
#X connect 9 0 45 0;
#X connect 12 0 13 1;
#X connect 13 0 14 0;
#X connect 13 1 14 1;
#X connect 14 0 16 0;
#X connect 15 0 17 1;
#X connect 16 0 17 0;
#X connect 16 1 15 0;
#X connect 16 1 18 0;
#X connect 17 0 19 0;
#X connect 19 0 20 0;
#X connect 20 0 21 0;
#X connect 21 0 18 0;
#X connect 22 0 12 0;
#X connect 22 0 31 0;
#X connect 23 0 35 0;
#X connect 24 0 36 0;
#X connect 24 1 37 0;
#X connect 25 0 40 0;
#X connect 26 0 39 1;
#X connect 26 0 40 1;
#X connect 27 0 25 0;
#X connect 28 0 25 1;
#X connect 29 0 35 0;
#X connect 30 0 31 0;
#X connect 30 0 12 0;
#X connect 31 0 13 0;
#X connect 35 0 11 0;
#X connect 36 0 27 0;
#X connect 37 0 28 0;
#X connect 38 0 37 1;
#X connect 38 0 36 1;
#X connect 39 0 24 0;
#X connect 40 0 42 0;
#X connect 41 0 7 0;
#X connect 41 0 28 1;
#X connect 41 0 27 1;
#X connect 42 0 33 0;
#X connect 43 0 42 1;
#X connect 44 0 0 0;
#X connect 45 0 39 0;
#X restore 416 461 pd cacchio;
#X obj 782 283 block~;
#X obj 393 515 dac~;
#X obj 421 373 osc~;
#X floatatom 424 286 5 0 0 0 - - -;
#X obj 471 373 osc~;
#X floatatom 474 286 5 0 0 0 - - -;
#X obj 511 373 osc~;
#X floatatom 514 286 5 0 0 0 - - -;
#X obj 557 373 osc~;
#X floatatom 560 286 5 0 0 0 - - -;
#X obj 612 372 phasor~;
#X obj 672 372 phasor~;
#X obj 742 372 phasor~;
#X obj 812 372 phasor~;
#X connect 0 0 2 0;
#X connect 0 0 2 1;
#X connect 3 0 0 0;
#X connect 4 0 3 0;
#X connect 4 0 14 0;
#X connect 5 0 0 0;
#X connect 6 0 5 0;
#X connect 6 0 13 0;
#X connect 7 0 0 0;
#X connect 8 0 7 0;
#X connect 8 0 12 0;
#X connect 9 0 0 0;
#X connect 10 0 9 0;
#X connect 10 0 11 0;
#X connect 11 0 0 0;
#X connect 12 0 0 0;
#X connect 13 0 0 0;
#X connect 14 0 0 0;
