#N canvas -8 -8 1366 695 12;
#X obj 348 124 rfft~;
#X obj 337 165 *~;
#X obj 372 165 *~;
#X obj 346 198 +~;
#X obj 347 228 sqrt~;
#X obj 358 353 metro 50;
#X obj 358 334 tgl 15 0 empty empty empty 17 7 0 10 -262144 -1 -1 0
1;
#N canvas 0 50 450 250 (subpatch) 0;
#X array \$0-cacchio_norm 512 float 2;
#X coords 0 1 512 0 400 280 1 0 0;
#X restore 550 370 graph;
#X obj 156 101 noise~;
#X text 995 445 0.375 = Hann \, 4 = Upsample \, 4096 = Block size;
#X obj 1025 422 s norm;
#X obj 1074 110 samplerate~;
#X obj 1029 140 swap;
#X obj 1029 164 /;
#X msg 1075 217 0;
#X obj 1029 193 t f b;
#X obj 1029 241 phasor~;
#X obj 1029 267 *~ 2;
#X obj 1029 294 -~ 0.25;
#X obj 1029 317 cos~;
#X obj 1054 74 loadbang;
#X obj 1025 374 loadbang;
#X obj 158 245 rfft~;
#X obj 158 387 rifft~;
#X obj 158 347 *~;
#X obj 196 347 *~;
#X obj 997 384 bng 15 250 50 0 empty empty empty 17 7 0 10 -262144
-1 -1;
#X obj 1014 59 bng 15 250 50 0 empty empty empty 17 7 0 10 -262144
-1 -1;
#X msg 1014 110 4096;
#X obj 88 614 outlet~;
#X obj 1178 24 block~ 4096 4;
#X obj 1025 399 expr 1/(0.375*4096*4);
#X obj 148 284 *~ 0;
#X obj 201 284 *~ 0;
#X obj 258 247 r norm;
#X obj 158 216 *~;
#X obj 158 416 *~;
#X obj 347 267 /~ 2049;
#X obj 87 564 *~;
#X obj 7 31 inlet~;
#X obj 157 145 hip~ 700;
#X obj 1149 180 table \$0-window 4096;
#X obj 1029 342 tabwrite~ \$0-window;
#X obj 109 183 tabreceive~ \$0-window;
#X obj 348 377 tabwrite~ \$0-cacchio_norm;
#X obj 623 160 hsl 170 15 0 1.5 0 0 \$0-wet empty wet 35 8 0 10 -262144
-1 -1 0 1;
#X floatatom 795 157 5 0 0 1 - - -;
#X obj 623 138 hsl 170 15 0 1.5 0 0 \$0-dry empty dry 35 8 0 10 -262144
-1 -1 0 1;
#X floatatom 795 135 5 0 0 1 - - -;
#X obj 106 492 r \$0-wet;
#X obj 106 537 line~;
#X msg 106 514 \$1 50;
#X obj 174 566 *~;
#X obj 192 537 line~;
#X msg 192 514 \$1 50;
#X obj 192 491 r \$0-dry;
#X connect 0 0 1 1;
#X connect 0 0 1 0;
#X connect 0 1 2 0;
#X connect 0 1 2 1;
#X connect 1 0 3 0;
#X connect 2 0 3 1;
#X connect 3 0 4 0;
#X connect 4 0 37 0;
#X connect 5 0 44 0;
#X connect 6 0 5 0;
#X connect 8 0 40 0;
#X connect 11 0 12 1;
#X connect 12 0 13 0;
#X connect 12 1 13 1;
#X connect 13 0 15 0;
#X connect 14 0 16 1;
#X connect 15 0 16 0;
#X connect 15 1 14 0;
#X connect 15 1 42 0;
#X connect 16 0 17 0;
#X connect 17 0 18 0;
#X connect 18 0 19 0;
#X connect 19 0 42 0;
#X connect 20 0 11 0;
#X connect 20 0 28 0;
#X connect 21 0 31 0;
#X connect 22 0 32 0;
#X connect 22 1 33 0;
#X connect 23 0 36 0;
#X connect 24 0 23 0;
#X connect 25 0 23 1;
#X connect 26 0 31 0;
#X connect 27 0 28 0;
#X connect 27 0 11 0;
#X connect 28 0 12 0;
#X connect 31 0 10 0;
#X connect 32 0 24 0;
#X connect 33 0 25 0;
#X connect 34 0 33 1;
#X connect 34 0 32 1;
#X connect 35 0 22 0;
#X connect 36 0 38 0;
#X connect 37 0 25 1;
#X connect 37 0 24 1;
#X connect 37 0 44 0;
#X connect 38 0 29 0;
#X connect 39 0 0 0;
#X connect 39 0 52 0;
#X connect 40 0 35 0;
#X connect 43 0 35 1;
#X connect 43 0 36 1;
#X connect 45 0 46 0;
#X connect 47 0 48 0;
#X connect 49 0 51 0;
#X connect 50 0 38 1;
#X connect 51 0 50 0;
#X connect 52 0 29 0;
#X connect 53 0 52 1;
#X connect 54 0 53 0;
#X connect 55 0 54 0;
#X coords 0 -1 1 1 250 100 1 600 100;
