#N canvas 827 239 527 411 12;
#X obj -717 -1017 adc~ 1 2 3;
#X obj -429 -532 phaseshift~ 100 0.1;
#X obj -337 -716 osc~;
#X obj -337 -690 +~ 1;
#X obj -337 -661 *~ 0.5;
#X obj -337 -608 +~ 100;
#X obj -337 -634 *~ 2000;
#X obj 576 -186 dac~ 1 2 3 4 5 6 7 8, f 44;
#X obj -253 -532 phaseshift~ 100 0.1;
#X obj -186 -713 osc~;
#X obj -186 -687 +~ 1;
#X obj -186 -658 *~ 0.5;
#X obj -186 -605 +~ 100;
#X obj -186 -631 *~ 2000;
#X obj 231 -522 phaseshift~ 100 0.1;
#X obj 325 -702 osc~;
#X obj 325 -676 +~ 1;
#X obj 325 -647 *~ 0.5;
#X obj 325 -594 +~ 100;
#X obj 325 -620 *~ 2000;
#X obj 407 -522 phaseshift~ 100 0.1;
#X obj 500 -702 osc~;
#X obj 500 -676 +~ 1;
#X obj 500 -647 *~ 0.5;
#X obj 500 -594 +~ 100;
#X obj 500 -620 *~ 2000;
#X obj 970 -532 phaseshift~ 100 0.1;
#X obj 1021 -711 osc~;
#X obj 1021 -685 +~ 1;
#X obj 1021 -656 *~ 0.5;
#X obj 1021 -629 *~ 2000;
#X obj 1146 -532 phaseshift~ 100 0.1;
#X obj 1197 -711 osc~;
#X obj 1197 -685 +~ 1;
#X obj 1197 -656 *~ 0.5;
#X obj 1197 -629 *~ 2000;
#X obj 301 103 knob 91 0 4 0 0 LFO_f_2 empty #191919 #696969 #E1E1E1 1 0 0 0 1 270 0 0 0;
#X obj -337 -817 r LFO_f_1;
#X obj 17 102 knob 91 0 4 0 0 LFO_f_1 empty #191919 #696969 #E1E1E1 1 0 0 0 1 270 0 0 0;
#X obj 307 344 knob 91 0 4 0 0 LFO_f_4 empty #191919 #696969 #E1E1E1 1 0 0 0 1 270 0 0 0;
#X obj 17 343 knob 91 0 4 0 0 LFO_f_3 empty #191919 #696969 #E1E1E1 1 0 0 0 1 270 0 0 0;
#X obj 307 583 knob 91 0 4 0 0 LFO_f_6 empty #191919 #696969 #E1E1E1 1 0 0 0 1 270 0 0 0;
#X obj 13 581 knob 91 0 4 0 0 LFO_f_5 empty #191919 #696969 #E1E1E1 1 0 0 0 1 270 0 0 0;
#X obj -186 -814 r LFO_f_2;
#X obj 325 -795 r LFO_f_3;
#X obj 500 -795 r LFO_f_4;
#X obj 1021 -814 r LFO_f_5;
#X obj 1197 -801 r LFO_f_6;
#X obj -717 -597 +~;
#X obj -672 -666 *~ 0.5;
#X obj -616 -666 *~ 0.5;
#X obj 1114 -348 throw~ out5_st3R;
#X obj 114 151 nbx 5 43 -1e+37 1e+37 0 0 empty LFO_f_1 Hz 0 -8 0 16 #191919 #e1e1e1 #e1e1e1 0 256;
#X obj 402 150 nbx 5 43 -1e+37 1e+37 0 0 empty LFO_f_2 Hz 0 -8 0 16 #191919 #e1e1e1 #e1e1e1 0 256;
#X obj 115 391 nbx 5 43 -1e+37 1e+37 0 0 empty LFO_f_3 Hz 0 -8 0 16 #191919 #e1e1e1 #e1e1e1 0 256;
#X obj 116 629 nbx 5 43 -1e+37 1e+37 0 0 empty LFO_f_5 Hz 0 -8 0 16 #191919 #e1e1e1 #e1e1e1 0 256;
#X obj 404 391 nbx 5 43 -1e+37 1e+37 0 0 empty LFO_f_4 Hz 0 -8 0 16 #191919 #e1e1e1 #e1e1e1 0 256;
#X obj 404 629 nbx 5 43 -1e+37 1e+37 0 0 empty LFO_f_6 Hz 0 -8 0 16 #191919 #e1e1e1 #e1e1e1 0 256;
#X obj 114 73 knob 52 0 5000 0 0 LFO_hardmod_pair1 empty #191919 #696969 #e6051b 1 0 0 0 1 270 0 0 0;
#X obj 176 73 tgl 21 0 empty empty empty 17 7 0 10 #191919 #e10200 #e1e1e1 0 1;
#X obj 176 103 nbx 3 22 -1e+37 1e+37 0 0 empty LFO_hardmod_pair1 Hz 60 15 0 16 #191919 #e1e1e1 #e1e1e1 0 256;
#X obj -487 -759 osc~;
#X obj -487 -733 +~ 1;
#X obj -487 -704 *~ 0.5;
#X obj -487 -651 +~ 100;
#X obj -487 -677 *~ 2000;
#X obj -487 -606 phaseshift~ 100 0.1;
#X obj -717 -926 s~ in1;
#X obj -664 -926 s~ in2;
#X obj -609 -926 s~ in3;
#X obj -717 -732 r~ in1;
#X obj -672 -700 r~ in2;
#X obj -616 -700 r~ in3;
#X obj -487 -863 r LFO_hardmod_pair1;
#X obj -26 -567 +~;
#X obj 16 -643 *~ 0.5;
#X obj 72 -643 *~ 0.5;
#X obj 156 -785 osc~;
#X obj 156 -759 +~ 1;
#X obj 156 -730 *~ 0.5;
#X obj 156 -677 +~ 100;
#X obj 156 -703 *~ 2000;
#X obj 156 -632 phaseshift~ 100 0.1;
#X obj 72 -677 r~ in3;
#X obj 156 -868 r LFO_hardmod_pair2;
#X obj -26 -709 r~ in2;
#X obj 16 -677 r~ in1;
#X obj 676 -553 +~;
#X obj 721 -592 *~ 0.5;
#X obj 777 -592 *~ 0.5;
#X obj 848 -762 osc~;
#X obj 848 -736 +~ 1;
#X obj 848 -707 *~ 0.5;
#X obj 848 -654 +~ 100;
#X obj 848 -680 *~ 2000;
#X obj 848 -609 phaseshift~ 100 0.1;
#X obj 721 -626 r~ in1;
#X obj 848 -845 r LFO_hardmod_pair3;
#X obj 676 -658 r~ in3;
#X obj 777 -626 r~ in2;
#X obj 115 315 knob 52 0 5000 0 0 LFO_hardmod_pair2 empty #191919 #696969 #e6051b 1 0 0 0 1 270 0 0 0;
#X obj 177 315 tgl 21 0 empty empty empty 17 7 0 10 #191919 #e10200 #e1e1e1 0 1;
#X obj 177 345 nbx 3 22 -1e+37 1e+37 0 0 empty LFO_hardmod_pair2 Hz 60 15 0 16 #191919 #e1e1e1 #e1e1e1 0 256;
#X obj 115 555 knob 52 0 5000 0 0 LFO_hardmod_pair3 empty #191919 #696969 #e6051b 1 0 0 0 1 270 0 0 0;
#X obj 177 555 tgl 21 0 empty empty empty 17 7 0 10 #191919 #e10200 #e1e1e1 0 1;
#X obj 177 585 nbx 3 22 -1e+37 1e+37 0 0 empty LFO_hardmod_pair3 Hz 60 15 0 16 #191919 #e1e1e1 #e1e1e1 0 256;
#X obj -487 -795 line;
#X msg -487 -825 \$1 1500;
#X obj -337 -749 line;
#X msg -337 -779 \$1 1500;
#X obj -186 -749 line;
#X msg -186 -779 \$1 1500;
#X obj 325 -731 line;
#X msg 325 -761 \$1 1500;
#X obj 500 -731 line;
#X msg 500 -761 \$1 1500;
#X obj 848 -791 line;
#X msg 848 -821 \$1 1500;
#X obj 1021 -749 line;
#X msg 1021 -779 \$1 1500;
#X obj 1197 -739 line;
#X msg 1197 -769 \$1 1500;
#X obj 156 -811 line;
#X msg 156 -841 \$1 1500;
#X obj -442 -460 +~;
#X obj -264 -460 +~;
#X obj 231 -457 +~;
#X obj 409 -457 +~;
#X obj 1135 -495 +~;
#X obj 959 -491 +~;
#X obj -664 -962 *~ 0.5;
#X obj -609 -962 *~ 0.5;
#X obj -717 -962 *~ 0.5;
#X obj 1021 -603 +~ 50;
#X obj 1197 -603 +~ 50;
#X obj -392 -382 delay~;
#X obj -153 -449 expr (($i1/343.4)*1000)*48;
#X obj -153 -422 sig~;
#X obj -272 -382 delay~;
#X obj 231 -376 delay~;
#X obj 500 -440 expr (($i1/343.4)*1000)*48;
#X obj 500 -413 sig~;
#X obj 409 -376 delay~;
#X obj 979 -382 delay~;
#X obj 1233 -449 expr (($i1/343.4)*1000)*48;
#X obj 1233 -422 sig~;
#X obj 1114 -382 delay~;
#X obj -153 -476 r \$0-distance_pair1;
#X obj 500 -469 r \$0-distance_pair2;
#X obj 1233 -479 r \$0-distance_pair3;
#X obj 20 54 hsl 475 15 0 50 0 0 \$0-distance_pair1 empty empty -2 -8 0 10 #191919 #e1e1e1 #e1e1e1 0 1;
#X obj 431 22 nbx 4 29 -1e+37 1e+37 0 0 empty \$0-distance_pair1 meters 0 -8 0 14 #191919 #e1e1e1 #e1e1e1 0 256;
#X obj 17 297 hsl 475 15 0 50 0 0 \$0-distance_pair2 empty empty -2 -8 0 10 #191919 #e1e1e1 #e1e1e1 0 1;
#X obj 428 265 nbx 4 29 -1e+37 1e+37 0 0 empty \$0-distance_pair2 meters 0 -8 0 14 #191919 #e1e1e1 #e1e1e1 0 256;
#X obj 20 535 hsl 475 15 0 50 0 0 \$0-distance_pair3 empty empty -2 -8 0 10 #191919 #e1e1e1 #e1e1e1 0 1;
#X obj 431 503 nbx 4 29 -1e+37 1e+37 0 0 empty \$0-distance_pair3 meters 0 -8 0 14 #191919 #e1e1e1 #e1e1e1 0 256;
#X obj -287 -76 loadbang;
#X msg -239 -22 7;
#X msg -239 14 14;
#X msg -239 49 21;
#X obj -393 -341 throw~ out2_st1L;
#X obj -272 -341 throw~ out7_st1R;
#X obj 231 -343 throw~ out3_st2L;
#X obj 409 -343 throw~ out6_st2R;
#X obj 979 -347 throw~ out4_st3L;
#X obj 531 -298 catch~ out2_st1L;
#X obj 861 -236 catch~ out7_st1R;
#X obj 575 -268 catch~ out3_st2L;
#X obj 871 -287 catch~ out6_st2R;
#X obj 698 -298 catch~ out4_st3L;
#X obj 738 -268 catch~ out5_st3R;
#X obj -462 332 key;
#X obj -462 379 sel 92;
#X obj -451 446 random 400;
#X obj -451 479 / 100;
#X obj -360 446 random 400;
#X obj -360 479 / 100;
#X obj -466 535 random 400;
#X obj -455 571 / 100;
#X obj -375 535 random 400;
#X obj -375 568 / 100;
#X obj -466 629 random 400;
#X obj -466 662 / 100;
#X obj -363 629 random 400;
#X obj -363 662 / 100;
#X obj -626 493 random 1;
#X obj -609 535 random 1;
#X obj -601 583 random 1;
#X obj -479 850 random 5000;
#X obj -462 892 random 5000;
#X obj -454 940 random 5000;
#X connect 0 0 132 0;
#X connect 0 1 130 0;
#X connect 0 2 131 0;
#X connect 1 0 124 1;
#X connect 2 0 3 0;
#X connect 3 0 4 0;
#X connect 4 0 6 0;
#X connect 5 0 1 1;
#X connect 6 0 5 0;
#X connect 8 0 125 1;
#X connect 9 0 10 0;
#X connect 10 0 11 0;
#X connect 11 0 13 0;
#X connect 12 0 8 1;
#X connect 13 0 12 0;
#X connect 14 0 126 1;
#X connect 15 0 16 0;
#X connect 16 0 17 0;
#X connect 17 0 19 0;
#X connect 18 0 14 1;
#X connect 19 0 18 0;
#X connect 20 0 127 1;
#X connect 21 0 22 0;
#X connect 22 0 23 0;
#X connect 23 0 25 0;
#X connect 24 0 20 1;
#X connect 25 0 24 0;
#X connect 26 0 129 1;
#X connect 27 0 28 0;
#X connect 28 0 29 0;
#X connect 29 0 30 0;
#X connect 30 0 133 0;
#X connect 31 0 128 1;
#X connect 32 0 33 0;
#X connect 33 0 34 0;
#X connect 34 0 35 0;
#X connect 35 0 134 0;
#X connect 37 0 109 0;
#X connect 43 0 111 0;
#X connect 44 0 113 0;
#X connect 45 0 115 0;
#X connect 46 0 119 0;
#X connect 47 0 121 0;
#X connect 48 0 66 0;
#X connect 48 0 124 0;
#X connect 48 0 125 0;
#X connect 49 0 48 1;
#X connect 50 0 48 1;
#X connect 61 0 62 0;
#X connect 62 0 63 0;
#X connect 63 0 65 0;
#X connect 64 0 66 1;
#X connect 65 0 64 0;
#X connect 66 0 1 0;
#X connect 66 0 8 0;
#X connect 70 0 48 0;
#X connect 71 0 49 0;
#X connect 72 0 50 0;
#X connect 73 0 107 0;
#X connect 74 0 82 0;
#X connect 74 0 126 0;
#X connect 74 0 127 0;
#X connect 75 0 74 1;
#X connect 76 0 74 1;
#X connect 77 0 78 0;
#X connect 78 0 79 0;
#X connect 79 0 81 0;
#X connect 80 0 82 1;
#X connect 81 0 80 0;
#X connect 82 0 14 0;
#X connect 82 0 20 0;
#X connect 83 0 76 0;
#X connect 84 0 123 0;
#X connect 85 0 74 0;
#X connect 86 0 75 0;
#X connect 87 0 95 0;
#X connect 87 0 129 0;
#X connect 87 0 128 0;
#X connect 88 0 87 1;
#X connect 89 0 87 1;
#X connect 90 0 91 0;
#X connect 91 0 92 0;
#X connect 92 0 94 0;
#X connect 93 0 95 1;
#X connect 94 0 93 0;
#X connect 95 0 26 0;
#X connect 95 0 31 0;
#X connect 96 0 88 0;
#X connect 97 0 117 0;
#X connect 98 0 87 0;
#X connect 99 0 89 0;
#X connect 106 0 61 0;
#X connect 107 0 106 0;
#X connect 108 0 2 0;
#X connect 109 0 108 0;
#X connect 110 0 9 0;
#X connect 111 0 110 0;
#X connect 112 0 15 0;
#X connect 113 0 112 0;
#X connect 114 0 21 0;
#X connect 115 0 114 0;
#X connect 116 0 90 0;
#X connect 117 0 116 0;
#X connect 118 0 27 0;
#X connect 119 0 118 0;
#X connect 121 0 120 0;
#X connect 122 0 77 0;
#X connect 123 0 122 0;
#X connect 124 0 135 0;
#X connect 125 0 138 0;
#X connect 126 0 139 0;
#X connect 127 0 142 0;
#X connect 128 0 146 0;
#X connect 129 0 143 0;
#X connect 130 0 68 0;
#X connect 131 0 69 0;
#X connect 132 0 67 0;
#X connect 133 0 26 1;
#X connect 134 0 31 1;
#X connect 135 0 160 0;
#X connect 136 0 137 0;
#X connect 137 0 135 1;
#X connect 137 0 138 1;
#X connect 138 0 161 0;
#X connect 139 0 162 0;
#X connect 140 0 141 0;
#X connect 141 0 139 1;
#X connect 141 0 142 1;
#X connect 142 0 163 0;
#X connect 143 0 164 0;
#X connect 144 0 145 0;
#X connect 145 0 143 1;
#X connect 145 0 146 1;
#X connect 146 0 51 0;
#X connect 147 0 136 0;
#X connect 148 0 140 0;
#X connect 149 0 144 0;
#X connect 156 0 157 0;
#X connect 156 0 159 0;
#X connect 156 0 158 0;
#X connect 157 0 150 0;
#X connect 158 0 152 0;
#X connect 159 0 154 0;
#X connect 165 0 7 1;
#X connect 166 0 7 6;
#X connect 167 0 7 2;
#X connect 168 0 7 5;
#X connect 169 0 7 3;
#X connect 170 0 7 4;
#X connect 171 0 172 0;
#X connect 172 0 173 0;
#X connect 172 0 175 0;
#X connect 172 0 177 0;
#X connect 172 0 179 0;
#X connect 172 0 181 0;
#X connect 172 0 183 0;
#X connect 172 0 185 0;
#X connect 172 0 186 0;
#X connect 172 0 187 0;
#X connect 172 0 188 0;
#X connect 172 0 189 0;
#X connect 172 0 190 0;
#X connect 173 0 174 0;
#X connect 174 0 38 0;
#X connect 175 0 176 0;
#X connect 176 0 36 0;
#X connect 177 0 178 0;
#X connect 178 0 40 0;
#X connect 179 0 180 0;
#X connect 180 0 39 0;
#X connect 181 0 182 0;
#X connect 182 0 42 0;
#X connect 183 0 184 0;
#X connect 184 0 41 0;
#X connect 185 0 59 0;
#X connect 186 0 101 0;
#X connect 187 0 104 0;
#X connect 188 0 58 0;
#X connect 189 0 100 0;
#X connect 190 0 103 0;
#X coords 0 0 1 1 531 778 1 1 1;
