#N canvas 827 239 527 327 12;
#X obj 0 -363 adc~ 1;
#X obj 0 -199 rotate~ 8 -1;
#X obj 137 -286 saw~;
#X obj 202 -315 sig~;
#X msg 202 -340 0;
#X obj 202 -367 loadbang;
#X obj 14 42 knob 50 0 20 0 0 \$0-rotate-LFO LFO_freq #191919 #696969 #E1E1E1 1 0 0 0 1 270 0 0 0;
#X obj 14 17 nbx 4 24 -1e+37 1e+37 0 0 empty \$0-rotate-LFO Hz 0 -8 0 10 #191919 #e1e1e1 #e1e1e1 0 256;
#X obj 137 -404 r \$0-rotate-LFO;
#X obj 137 -375 sig~;
#X obj 8 -107 dac~ 1 2 3 4 5 6 7 8;
#X obj -107 -363 osc~ 400;
#X text 8 92 Main LFO;
#X obj 321 -153 param param1 1;
#X obj 321 -92 s LFO_freq;
#X connect 0 0 1 0;
#X connect 1 0 10 0;
#X connect 1 1 10 1;
#X connect 1 2 10 2;
#X connect 1 3 10 3;
#X connect 1 4 10 4;
#X connect 1 5 10 5;
#X connect 1 6 10 6;
#X connect 1 7 10 7;
#X connect 2 0 1 8;
#X connect 3 0 2 2;
#X connect 4 0 3 0;
#X connect 5 0 4 0;
#X connect 8 0 9 0;
#X connect 9 0 2 0;
#X connect 13 0 14 0;
