#N canvas 827 239 527 327 12;
#X obj 66 -257 saw~;
#X obj 126 -309 sig~;
#X msg 126 -334 0;
#X obj 126 -361 loadbang;
#X obj 14 42 knob 50 0 20 0 0 \$0-rotate-LFO1 LFO_freq1 #191919 #696969 #E1E1E1 1 0 0 0 1 270 0 0 0;
#X obj 14 17 nbx 10 24 -1e+37 1e+37 0 0 empty \$0-rotate-LFO1 Hz 0 -8 0 10 #191919 #e1e1e1 #e1e1e1 0 256;
#X obj 66 -408 sig~;
#X obj 209 -87 dac~ 1 2 3 4 5 6 7 8;
#X obj 189 -426 osc~;
#X obj 189 -457 sig~;
#X obj 66 -361 +~;
#X obj 189 -485 * 1.61803, f 9;
#X obj 189 -402 *~ 1.45623;
#X obj 465 -199 rotate~ 4 -1;
#X obj 0 -199 rotate~ 4 -1;
#X obj 270 -270 adc~ 1;
#X obj 391 -281 saw~;
#X obj 451 -333 sig~;
#X obj 451 -385 loadbang;
#X obj 391 -432 sig~;
#X obj 514 -450 osc~;
#X obj 514 -481 sig~;
#X obj 391 -385 +~;
#X obj 514 -509 * 1.61803;
#X obj 514 -426 *~ 1.45623;
#X msg 451 -358 1;
#X obj 66 -437 r \$0-rotate-LFO1;
#X obj 189 -518 r \$0-rotate-LFO1;
#X obj 391 -461 r \$0-rotate-LFO2;
#X obj 514 -542 r \$0-rotate-LFO2;
#X obj 142 42 knob 50 0 20 0 0 \$0-rotate-LFO2 LFO_freq2 #191919 #696969 #E1E1E1 1 0 0 0 1 270 0 0 0;
#X obj 142 17 nbx 9 24 -1e+37 1e+37 0 0 empty \$0-rotate-LFO2 Hz 0 -8 0 10 #191919 #e1e1e1 #e1e1e1 0 256;
#X obj -74 -647 param param1 1;
#X obj 40 -647 param param2 1;
#X obj -74 -619 s LFO_freq1;
#X obj 40 -619 s LFO_freq2;
#X text 8 92 LFO1 LEFT;
#X text 126 92 LFO2 RIGHT;
#X connect 0 0 14 4;
#X connect 1 0 0 2;
#X connect 2 0 1 0;
#X connect 3 0 2 0;
#X connect 6 0 10 0;
#X connect 8 0 12 0;
#X connect 9 0 8 0;
#X connect 10 0 0 0;
#X connect 11 0 9 0;
#X connect 12 0 10 1;
#X connect 13 0 7 7;
#X connect 13 1 7 6;
#X connect 13 2 7 5;
#X connect 13 3 7 4;
#X connect 14 0 7 0;
#X connect 14 1 7 1;
#X connect 14 2 7 2;
#X connect 14 3 7 3;
#X connect 15 0 14 0;
#X connect 15 0 13 0;
#X connect 16 0 13 4;
#X connect 17 0 16 2;
#X connect 18 0 25 0;
#X connect 19 0 22 0;
#X connect 20 0 24 0;
#X connect 21 0 20 0;
#X connect 22 0 16 0;
#X connect 23 0 21 0;
#X connect 24 0 22 1;
#X connect 25 0 17 0;
#X connect 26 0 6 0;
#X connect 27 0 11 0;
#X connect 28 0 19 0;
#X connect 29 0 23 0;
#X connect 32 0 34 0;
#X connect 33 0 35 0;
