#N canvas 265 178 1350 674 10;
#X obj 12 334 *~;
#X obj 125 334 *~;
#X obj 237 334 *~;
#X obj 361 334 *~;
#X obj 477 334 *~;
#X obj 587 334 *~;
#X obj 28 228 line~;
#X obj 141 228 line~;
#X obj 376 230 line~;
#X obj 12 485 throw~ out1;
#X obj 253 228 line~;
#X obj 492 230 line~;
#X obj 602 230 line~;
#X obj -68 282 inlet~;
#X obj 702 335 *~;
#X obj 817 335 *~;
#X obj 717 231 line~;
#X obj 832 231 line~;
#X obj 28 266 fade~;
#X obj 141 266 fade~;
#X obj 253 266 fade~;
#X obj 376 268 fade~;
#X obj 492 268 fade~;
#X obj 602 268 fade~;
#X obj 717 268 fade~;
#X obj 832 268 fade~;
#X msg 1050 300 6 4 4 1 1 0 0 0;
#X msg 1050 320 4 6 1 4 0 1 0 0;
#X msg 1050 340 4 1 6 0 4 0 1 0;
#X msg 1050 360 1 4 0 6 0 4 0 1;
#X msg 1050 380 1 0 4 0 6 1 4 0;
#X msg 1050 400 0 1 0 4 0 6 1 4;
#X msg 1050 420 0 0 1 0 4 1 6 4;
#X msg 1050 440 0 0 0 1 1 4 4 6;
#X obj 1202 59 spigot;
#X obj 1202 108 spigot;
#X msg 1314 107 1;
#X msg 1256 123 0;
#X obj 1314 73 loadbang;
#X obj 1063 279 sel 0 1 2 3 4 5 6 7;
#X obj 1063 17 noise~;
#X obj 1063 90 snapshot~;
#X obj 1063 38 +~ 1;
#X obj 1063 58 *~ 0.5;
#X obj 1063 157 mod 8;
#X obj 1063 135 max 1;
#X obj 25 38 unpack f f f f f f f f, f 135;
#X obj 25 82 * 0.0625;
#X obj 1031 465 s \$0-spatmatrix_list;
#X obj 25 15 r \$0-spatmatrix_list;
#X obj 12 459 *~;
#X obj 125 459 *~;
#X obj 237 459 *~;
#X obj 361 459 *~;
#X obj 361 459 *~;
#X obj 477 459 *~;
#X obj 589 459 *~;
#X obj 703 459 *~;
#X obj 817 459 *~;
#X obj 817 459 *~;
#X obj 27 420 line~;
#X msg 27 399 \$1 50;
#X obj 140 419 line~;
#X msg 140 398 \$1 50;
#X obj 252 419 line~;
#X msg 252 398 \$1 50;
#X obj 376 419 line~;
#X msg 376 398 \$1 50;
#X obj 492 419 line~;
#X msg 492 398 \$1 50;
#X obj 604 419 line~;
#X msg 604 398 \$1 50;
#X obj 718 419 line~;
#X msg 718 398 \$1 50;
#X obj 832 419 line~;
#X msg 832 398 \$1 50;
#X obj 1210 385 tgl 15 0 \$0-out1_onoff empty empty 17 7 0 10 #000000
#00ff00 #000000 0 1;
#X obj 1227 385 tgl 15 0 \$0-out2_onoff empty empty 17 7 0 10 #000000
#00ff00 #000000 0 1;
#X obj 1244 385 tgl 15 0 \$0-out3_onoff empty empty 17 7 0 10 #000000
#00ff00 #000000 0 1;
#X obj 1261 385 tgl 15 0 \$0-out4_onoff empty empty 17 7 0 10 #000000
#00ff00 #000000 0 1;
#X obj 1278 385 tgl 15 0 \$0-out5_onoff empty empty 17 7 0 10 #000000
#00ff00 #000000 0 1;
#X obj 1295 385 tgl 15 0 \$0-out6_onoff empty empty 17 7 0 10 #000000
#00ff00 #000000 0 1;
#X obj 1312 385 tgl 15 0 \$0-out7_onoff empty empty 17 7 0 10 #000000
#00ff00 #000000 0 1;
#X obj 1329 385 tgl 15 0 \$0-out8_onoff empty empty 17 7 0 10 #000000
#00ff00 #000000 0 1;
#X obj 27 374 r \$0-out1_onoff;
#X obj 140 374 r \$0-out2_onoff;
#X obj 252 374 r \$0-out3_onoff;
#X obj 376 374 r \$0-out4_onoff;
#X obj 492 374 r \$0-out5_onoff;
#X obj 604 374 r \$0-out6_onoff;
#X obj 717 374 r \$0-out7_onoff;
#X obj 832 374 r \$0-out8_onoff;
#X obj 1211 408 hsl 128 15 10 3000 0 0 \$0-interpolation_time empty
interpolation_time 14 5 0 10 #fcfcfc #000000 #000000 0 1;
#X obj 1211 447 hsl 128 15 20 10000 0 0 \$0-delta_time empty delta_time
14 5 0 10 #fcfcfc #000000 #000000 0 1;
#X obj 1244 485 hradio 9 0 0 8 empty empty lists 21 13 0 10 #fcfcfc
#000000 #000000 0;
#X floatatom 1211 424 5 0 0 0 - - - 0;
#X floatatom 1211 463 5 0 0 0 - - - 0;
#X obj -125 96 r \$0-interpolation_time;
#X obj 1394 45 r \$0-interpolation_time;
#X obj 1409 66 r \$0-delta_time;
#X obj 1394 124 +;
#X obj 1419 93 bang;
#X msg 1394 348 1;
#X obj 1370 321 loadbang;
#X obj 1210 354 tgl 27 0 \$0-spatmatrix_engine empty engine 29 11 0
10 #fcfcfc #000000 #000000 0 1;
#X obj 1202 14 r \$0-spatmatrix_engine;
#X obj 1260 160 delay;
#X obj 1202 83 bang;
#X obj 1214 255 r \$1;
#X obj 1214 277 route interpolation delta out_onoff engine_onoff;
#X obj 1475 350 route a b c d e f g h;
#N canvas 0 0 1366 690 entropy 0;
#X obj 30 200 +;
#X obj 30 11 inlet;
#X obj 30 323 outlet;
#X obj 30 123 pipe 10;
#X floatatom 43 304 5 0 0 0 - - - 0;
#X obj 116 106 / 4;
#X obj 30 75 t f b f;
#X obj 83 133 random;
#X obj 83 171 max;
#X obj 156 136 / 4;
#X obj 30 256 int;
#X obj 260 36 int;
#X obj 261 250 -;
#X floatatom 284 306 5 0 0 0 - - - 0;
#X obj 261 325 outlet;
#X text 260 344 pipedelay argument;
#X text 30 345 interpolation in ms;
#X obj 30 231 min;
#X floatatom 59 44 5 0 0 0 - - - 0;
#X obj 261 276 abs;
#X obj 83 211 r \$0-delta_time;
#X obj 83 232 - 2;
#X connect 0 0 17 0;
#X connect 1 0 6 0;
#X connect 3 0 0 0;
#X connect 3 0 11 0;
#X connect 5 0 7 1;
#X connect 5 0 9 0;
#X connect 6 0 3 0;
#X connect 6 1 7 0;
#X connect 6 2 5 0;
#X connect 7 0 8 0;
#X connect 8 0 0 1;
#X connect 9 0 8 1;
#X connect 10 0 2 0;
#X connect 10 0 12 1;
#X connect 10 0 4 0;
#X connect 11 0 12 0;
#X connect 12 0 19 0;
#X connect 17 0 10 0;
#X connect 18 0 6 0;
#X connect 19 0 13 0;
#X connect 19 0 14 0;
#X connect 20 0 21 0;
#X connect 21 0 17 1;
#X restore 42 149 pd entropy;
#X obj 27 179 pack 0 0;
#X obj 57 199 bang;
#X obj 57 199 bang;
#X obj 141 179 pack 0 0;
#X obj 171 199 bang;
#X obj 171 199 bang;
#X obj 251 179 pack 0 0;
#X obj 281 199 bang;
#X obj 281 199 bang;
#X obj 376 179 pack 0 0;
#X obj 406 199 bang;
#X obj 406 199 bang;
#X obj 491 179 pack 0 0;
#X obj 521 199 bang;
#X obj 521 199 bang;
#X obj 601 179 pack 0 0;
#X obj 631 199 bang;
#X obj 631 199 bang;
#X obj 716 179 pack 0 0;
#X obj 746 199 bang;
#X obj 746 199 bang;
#X obj 826 179 pack 0 0;
#X obj 856 199 bang;
#X obj 856 199 bang;
#X obj 142 85 * 0.0625;
#X obj 252 85 * 0.0625;
#X obj 376 84 * 0.0625;
#X obj 492 84 * 0.0625;
#X obj 602 84 * 0.0625;
#X obj 715 84 * 0.0625;
#X obj 827 84 * 0.0625;
#N canvas 0 0 450 300 random_curves 0;
#X msg 40 133 set _linsqrt;
#X msg 40 154 set _sqrt;
#X msg 40 174 set _sin;
#X msg 41 195 set _sinhann;
#X msg 41 217 set _hann;
#X obj 40 106 sel 0 1 2 3 4;
#X obj 40 80 random 5;
#X obj 12 248 outlet;
#X obj 40 55 inlet;
#X connect 0 0 7 0;
#X connect 1 0 7 0;
#X connect 2 0 7 0;
#X connect 3 0 7 0;
#X connect 4 0 7 0;
#X connect 5 0 0 0;
#X connect 5 1 1 0;
#X connect 5 2 2 0;
#X connect 5 3 3 0;
#X connect 5 4 4 0;
#X connect 6 0 5 0;
#X connect 8 0 6 0;
#X restore 852 290 pd random_curves;
#X obj 1202 135 t b b;
#N canvas 0 0 450 300 random_curves 0;
#X msg 40 133 set _linsqrt;
#X msg 40 154 set _sqrt;
#X msg 40 174 set _sin;
#X msg 41 195 set _sinhann;
#X msg 41 217 set _hann;
#X obj 40 106 sel 0 1 2 3 4;
#X obj 40 80 random 5;
#X obj 12 248 outlet;
#X obj 40 55 inlet;
#X connect 0 0 7 0;
#X connect 1 0 7 0;
#X connect 2 0 7 0;
#X connect 3 0 7 0;
#X connect 4 0 7 0;
#X connect 5 0 0 0;
#X connect 5 1 1 0;
#X connect 5 2 2 0;
#X connect 5 3 3 0;
#X connect 5 4 4 0;
#X connect 6 0 5 0;
#X connect 8 0 6 0;
#X restore 731 290 pd random_curves;
#N canvas 0 0 450 300 random_curves 0;
#X msg 40 133 set _linsqrt;
#X msg 40 154 set _sqrt;
#X msg 40 174 set _sin;
#X msg 41 195 set _sinhann;
#X msg 41 217 set _hann;
#X obj 40 106 sel 0 1 2 3 4;
#X obj 40 80 random 5;
#X obj 12 248 outlet;
#X obj 40 55 inlet;
#X connect 0 0 7 0;
#X connect 1 0 7 0;
#X connect 2 0 7 0;
#X connect 3 0 7 0;
#X connect 4 0 7 0;
#X connect 5 0 0 0;
#X connect 5 1 1 0;
#X connect 5 2 2 0;
#X connect 5 3 3 0;
#X connect 5 4 4 0;
#X connect 6 0 5 0;
#X connect 8 0 6 0;
#X restore 612 290 pd random_curves;
#N canvas 0 0 450 300 random_curves 0;
#X msg 40 133 set _linsqrt;
#X msg 40 154 set _sqrt;
#X msg 40 174 set _sin;
#X msg 41 195 set _sinhann;
#X msg 41 217 set _hann;
#X obj 40 106 sel 0 1 2 3 4;
#X obj 40 80 random 5;
#X obj 12 248 outlet;
#X obj 40 55 inlet;
#X connect 0 0 7 0;
#X connect 1 0 7 0;
#X connect 2 0 7 0;
#X connect 3 0 7 0;
#X connect 4 0 7 0;
#X connect 5 0 0 0;
#X connect 5 1 1 0;
#X connect 5 2 2 0;
#X connect 5 3 3 0;
#X connect 5 4 4 0;
#X connect 6 0 5 0;
#X connect 8 0 6 0;
#X restore 500 290 pd random_curves;
#N canvas 0 0 450 300 random_curves 0;
#X msg 40 133 set _linsqrt;
#X msg 40 154 set _sqrt;
#X msg 40 174 set _sin;
#X msg 41 195 set _sinhann;
#X msg 41 217 set _hann;
#X obj 40 106 sel 0 1 2 3 4;
#X obj 40 80 random 5;
#X obj 12 248 outlet;
#X obj 40 55 inlet;
#X connect 0 0 7 0;
#X connect 1 0 7 0;
#X connect 2 0 7 0;
#X connect 3 0 7 0;
#X connect 4 0 7 0;
#X connect 5 0 0 0;
#X connect 5 1 1 0;
#X connect 5 2 2 0;
#X connect 5 3 3 0;
#X connect 5 4 4 0;
#X connect 6 0 5 0;
#X connect 8 0 6 0;
#X restore 389 290 pd random_curves;
#N canvas 0 0 450 300 random_curves 0;
#X msg 40 133 set _linsqrt;
#X msg 40 154 set _sqrt;
#X msg 40 174 set _sin;
#X msg 41 195 set _sinhann;
#X msg 41 217 set _hann;
#X obj 40 106 sel 0 1 2 3 4;
#X obj 40 80 random 5;
#X obj 12 248 outlet;
#X obj 40 55 inlet;
#X connect 0 0 7 0;
#X connect 1 0 7 0;
#X connect 2 0 7 0;
#X connect 3 0 7 0;
#X connect 4 0 7 0;
#X connect 5 0 0 0;
#X connect 5 1 1 0;
#X connect 5 2 2 0;
#X connect 5 3 3 0;
#X connect 5 4 4 0;
#X connect 6 0 5 0;
#X connect 8 0 6 0;
#X restore 272 290 pd random_curves;
#N canvas 0 0 450 300 random_curves 0;
#X msg 40 133 set _linsqrt;
#X msg 40 154 set _sqrt;
#X msg 40 174 set _sin;
#X msg 41 195 set _sinhann;
#X msg 41 217 set _hann;
#X obj 40 106 sel 0 1 2 3 4;
#X obj 40 80 random 5;
#X obj 12 248 outlet;
#X obj 40 55 inlet;
#X connect 0 0 7 0;
#X connect 1 0 7 0;
#X connect 2 0 7 0;
#X connect 3 0 7 0;
#X connect 4 0 7 0;
#X connect 5 0 0 0;
#X connect 5 1 1 0;
#X connect 5 2 2 0;
#X connect 5 3 3 0;
#X connect 5 4 4 0;
#X connect 6 0 5 0;
#X connect 8 0 6 0;
#X restore 151 290 pd random_curves;
#N canvas 0 0 450 300 random_curves 0;
#X msg 40 133 set _linsqrt;
#X msg 40 154 set _sqrt;
#X msg 40 174 set _sin;
#X msg 41 195 set _sinhann;
#X msg 41 217 set _hann;
#X obj 40 106 sel 0 1 2 3 4;
#X obj 40 80 random 5;
#X obj 12 248 outlet;
#X obj 40 55 inlet;
#X connect 0 0 7 0;
#X connect 1 0 7 0;
#X connect 2 0 7 0;
#X connect 3 0 7 0;
#X connect 4 0 7 0;
#X connect 5 0 0 0;
#X connect 5 1 1 0;
#X connect 5 2 2 0;
#X connect 5 3 3 0;
#X connect 5 4 4 0;
#X connect 6 0 5 0;
#X connect 8 0 6 0;
#X restore 49 289 pd random_curves;
#X obj 1063 113 * 8;
#X obj 1202 35 metro 9;
#X obj 78 248 delay;
#N canvas 0 0 1366 690 entropy 0;
#X obj 30 200 +;
#X obj 30 11 inlet;
#X obj 30 323 outlet;
#X obj 30 123 pipe 10;
#X floatatom 43 304 5 0 0 0 - - - 0;
#X obj 116 106 / 4;
#X obj 30 75 t f b f;
#X obj 83 133 random;
#X obj 83 171 max;
#X obj 156 136 / 4;
#X obj 30 256 int;
#X obj 260 36 int;
#X obj 261 250 -;
#X floatatom 284 306 5 0 0 0 - - - 0;
#X obj 261 325 outlet;
#X text 260 344 pipedelay argument;
#X text 30 345 interpolation in ms;
#X obj 30 231 min;
#X floatatom 59 44 5 0 0 0 - - - 0;
#X obj 261 276 abs;
#X obj 83 211 r \$0-delta_time;
#X obj 83 232 - 2;
#X connect 0 0 17 0;
#X connect 1 0 6 0;
#X connect 3 0 0 0;
#X connect 3 0 11 0;
#X connect 5 0 7 1;
#X connect 5 0 9 0;
#X connect 6 0 3 0;
#X connect 6 1 7 0;
#X connect 6 2 5 0;
#X connect 7 0 8 0;
#X connect 8 0 0 1;
#X connect 9 0 8 1;
#X connect 10 0 2 0;
#X connect 10 0 12 1;
#X connect 10 0 4 0;
#X connect 11 0 12 0;
#X connect 12 0 19 0;
#X connect 17 0 10 0;
#X connect 18 0 6 0;
#X connect 19 0 13 0;
#X connect 19 0 14 0;
#X connect 20 0 21 0;
#X connect 21 0 17 1;
#X restore 162 149 pd entropy;
#N canvas 0 0 1366 690 entropy 0;
#X obj 30 200 +;
#X obj 30 11 inlet;
#X obj 30 323 outlet;
#X obj 30 123 pipe 10;
#X floatatom 43 304 5 0 0 0 - - - 0;
#X obj 116 106 / 4;
#X obj 30 75 t f b f;
#X obj 83 133 random;
#X obj 83 171 max;
#X obj 156 136 / 4;
#X obj 30 256 int;
#X obj 260 36 int;
#X obj 261 250 -;
#X floatatom 284 306 5 0 0 0 - - - 0;
#X obj 261 325 outlet;
#X text 260 344 pipedelay argument;
#X text 30 345 interpolation in ms;
#X obj 30 231 min;
#X floatatom 59 44 5 0 0 0 - - - 0;
#X obj 261 276 abs;
#X obj 83 211 r \$0-delta_time;
#X obj 83 232 - 2;
#X connect 0 0 17 0;
#X connect 1 0 6 0;
#X connect 3 0 0 0;
#X connect 3 0 11 0;
#X connect 5 0 7 1;
#X connect 5 0 9 0;
#X connect 6 0 3 0;
#X connect 6 1 7 0;
#X connect 6 2 5 0;
#X connect 7 0 8 0;
#X connect 8 0 0 1;
#X connect 9 0 8 1;
#X connect 10 0 2 0;
#X connect 10 0 12 1;
#X connect 10 0 4 0;
#X connect 11 0 12 0;
#X connect 12 0 19 0;
#X connect 17 0 10 0;
#X connect 18 0 6 0;
#X connect 19 0 13 0;
#X connect 19 0 14 0;
#X connect 20 0 21 0;
#X connect 21 0 17 1;
#X restore 272 149 pd entropy;
#N canvas 0 0 1366 690 entropy 0;
#X obj 30 200 +;
#X obj 30 11 inlet;
#X obj 30 323 outlet;
#X obj 30 123 pipe 10;
#X floatatom 43 304 5 0 0 0 - - - 0;
#X obj 116 106 / 4;
#X obj 30 75 t f b f;
#X obj 83 133 random;
#X obj 83 171 max;
#X obj 156 136 / 4;
#X obj 30 256 int;
#X obj 260 36 int;
#X obj 261 250 -;
#X floatatom 284 306 5 0 0 0 - - - 0;
#X obj 261 325 outlet;
#X text 260 344 pipedelay argument;
#X text 30 345 interpolation in ms;
#X obj 30 231 min;
#X floatatom 59 44 5 0 0 0 - - - 0;
#X obj 261 276 abs;
#X obj 83 211 r \$0-delta_time;
#X obj 83 232 - 2;
#X connect 0 0 17 0;
#X connect 1 0 6 0;
#X connect 3 0 0 0;
#X connect 3 0 11 0;
#X connect 5 0 7 1;
#X connect 5 0 9 0;
#X connect 6 0 3 0;
#X connect 6 1 7 0;
#X connect 6 2 5 0;
#X connect 7 0 8 0;
#X connect 8 0 0 1;
#X connect 9 0 8 1;
#X connect 10 0 2 0;
#X connect 10 0 12 1;
#X connect 10 0 4 0;
#X connect 11 0 12 0;
#X connect 12 0 19 0;
#X connect 17 0 10 0;
#X connect 18 0 6 0;
#X connect 19 0 13 0;
#X connect 19 0 14 0;
#X connect 20 0 21 0;
#X connect 21 0 17 1;
#X restore 402 149 pd entropy;
#N canvas 0 0 1366 690 entropy 0;
#X obj 30 200 +;
#X obj 30 11 inlet;
#X obj 30 323 outlet;
#X obj 30 123 pipe 10;
#X floatatom 43 304 5 0 0 0 - - - 0;
#X obj 116 106 / 4;
#X obj 30 75 t f b f;
#X obj 83 133 random;
#X obj 83 171 max;
#X obj 156 136 / 4;
#X obj 30 256 int;
#X obj 260 36 int;
#X obj 261 250 -;
#X floatatom 284 306 5 0 0 0 - - - 0;
#X obj 261 325 outlet;
#X text 260 344 pipedelay argument;
#X text 30 345 interpolation in ms;
#X obj 30 231 min;
#X floatatom 59 44 5 0 0 0 - - - 0;
#X obj 261 276 abs;
#X obj 83 211 r \$0-delta_time;
#X obj 83 232 - 2;
#X connect 0 0 17 0;
#X connect 1 0 6 0;
#X connect 3 0 0 0;
#X connect 3 0 11 0;
#X connect 5 0 7 1;
#X connect 5 0 9 0;
#X connect 6 0 3 0;
#X connect 6 1 7 0;
#X connect 6 2 5 0;
#X connect 7 0 8 0;
#X connect 8 0 0 1;
#X connect 9 0 8 1;
#X connect 10 0 2 0;
#X connect 10 0 12 1;
#X connect 10 0 4 0;
#X connect 11 0 12 0;
#X connect 12 0 19 0;
#X connect 17 0 10 0;
#X connect 18 0 6 0;
#X connect 19 0 13 0;
#X connect 19 0 14 0;
#X connect 20 0 21 0;
#X connect 21 0 17 1;
#X restore 522 149 pd entropy;
#N canvas 0 0 1366 690 entropy 0;
#X obj 30 200 +;
#X obj 30 11 inlet;
#X obj 30 323 outlet;
#X obj 30 123 pipe 10;
#X floatatom 43 304 5 0 0 0 - - - 0;
#X obj 116 106 / 4;
#X obj 30 75 t f b f;
#X obj 83 133 random;
#X obj 83 171 max;
#X obj 156 136 / 4;
#X obj 30 256 int;
#X obj 260 36 int;
#X obj 261 250 -;
#X floatatom 284 306 5 0 0 0 - - - 0;
#X obj 261 325 outlet;
#X text 260 344 pipedelay argument;
#X text 30 345 interpolation in ms;
#X obj 30 231 min;
#X floatatom 59 44 5 0 0 0 - - - 0;
#X obj 261 276 abs;
#X obj 83 211 r \$0-delta_time;
#X obj 83 232 - 2;
#X connect 0 0 17 0;
#X connect 1 0 6 0;
#X connect 3 0 0 0;
#X connect 3 0 11 0;
#X connect 5 0 7 1;
#X connect 5 0 9 0;
#X connect 6 0 3 0;
#X connect 6 1 7 0;
#X connect 6 2 5 0;
#X connect 7 0 8 0;
#X connect 8 0 0 1;
#X connect 9 0 8 1;
#X connect 10 0 2 0;
#X connect 10 0 12 1;
#X connect 10 0 4 0;
#X connect 11 0 12 0;
#X connect 12 0 19 0;
#X connect 17 0 10 0;
#X connect 18 0 6 0;
#X connect 19 0 13 0;
#X connect 19 0 14 0;
#X connect 20 0 21 0;
#X connect 21 0 17 1;
#X restore 632 149 pd entropy;
#N canvas 0 0 1366 690 entropy 0;
#X obj 30 200 +;
#X obj 30 11 inlet;
#X obj 30 323 outlet;
#X obj 30 123 pipe 10;
#X floatatom 43 304 5 0 0 0 - - - 0;
#X obj 116 106 / 4;
#X obj 30 75 t f b f;
#X obj 83 133 random;
#X obj 83 171 max;
#X obj 156 136 / 4;
#X obj 30 256 int;
#X obj 260 36 int;
#X obj 261 250 -;
#X floatatom 284 306 5 0 0 0 - - - 0;
#X obj 261 325 outlet;
#X text 260 344 pipedelay argument;
#X text 30 345 interpolation in ms;
#X obj 30 231 min;
#X floatatom 59 44 5 0 0 0 - - - 0;
#X obj 261 276 abs;
#X obj 83 211 r \$0-delta_time;
#X obj 83 232 - 2;
#X connect 0 0 17 0;
#X connect 1 0 6 0;
#X connect 3 0 0 0;
#X connect 3 0 11 0;
#X connect 5 0 7 1;
#X connect 5 0 9 0;
#X connect 6 0 3 0;
#X connect 6 1 7 0;
#X connect 6 2 5 0;
#X connect 7 0 8 0;
#X connect 8 0 0 1;
#X connect 9 0 8 1;
#X connect 10 0 2 0;
#X connect 10 0 12 1;
#X connect 10 0 4 0;
#X connect 11 0 12 0;
#X connect 12 0 19 0;
#X connect 17 0 10 0;
#X connect 18 0 6 0;
#X connect 19 0 13 0;
#X connect 19 0 14 0;
#X connect 20 0 21 0;
#X connect 21 0 17 1;
#X restore 742 149 pd entropy;
#N canvas 0 0 1366 690 entropy 0;
#X obj 30 200 +;
#X obj 30 11 inlet;
#X obj 30 323 outlet;
#X obj 30 123 pipe 10;
#X floatatom 43 304 5 0 0 0 - - - 0;
#X obj 116 106 / 4;
#X obj 30 75 t f b f;
#X obj 83 133 random;
#X obj 83 171 max;
#X obj 156 136 / 4;
#X obj 30 256 int;
#X obj 260 36 int;
#X obj 261 250 -;
#X floatatom 284 306 5 0 0 0 - - - 0;
#X obj 261 325 outlet;
#X text 260 344 pipedelay argument;
#X text 30 345 interpolation in ms;
#X obj 30 231 min;
#X floatatom 59 44 5 0 0 0 - - - 0;
#X obj 261 276 abs;
#X obj 83 211 r \$0-delta_time;
#X obj 83 232 - 2;
#X connect 0 0 17 0;
#X connect 1 0 6 0;
#X connect 3 0 0 0;
#X connect 3 0 11 0;
#X connect 5 0 7 1;
#X connect 5 0 9 0;
#X connect 6 0 3 0;
#X connect 6 1 7 0;
#X connect 6 2 5 0;
#X connect 7 0 8 0;
#X connect 8 0 0 1;
#X connect 9 0 8 1;
#X connect 10 0 2 0;
#X connect 10 0 12 1;
#X connect 10 0 4 0;
#X connect 11 0 12 0;
#X connect 12 0 19 0;
#X connect 17 0 10 0;
#X connect 18 0 6 0;
#X connect 19 0 13 0;
#X connect 19 0 14 0;
#X connect 20 0 21 0;
#X connect 21 0 17 1;
#X restore 852 149 pd entropy;
#X obj 198 248 delay;
#X obj 318 248 delay;
#X obj 431 248 delay;
#X obj 551 248 delay;
#X obj 661 248 delay;
#X obj 771 248 delay;
#X obj 901 248 delay;
#X obj 152 560 env~;
#X floatatom 152 585 5 0 0 0 - - - 0;
#X obj 125 484 throw~ out1;
#X obj 237 484 throw~ out1;
#X obj 361 484 throw~ out1;
#X obj 477 484 throw~ out1;
#X obj 589 484 throw~ out1;
#X obj 703 483 throw~ out1;
#X obj 817 485 throw~ out1;
#X connect 0 0 50 0;
#X connect 1 0 51 0;
#X connect 2 0 52 0;
#X connect 3 0 54 0;
#X connect 4 0 55 0;
#X connect 5 0 56 0;
#X connect 6 0 18 0;
#X connect 7 0 19 0;
#X connect 8 0 21 0;
#X connect 10 0 20 0;
#X connect 11 0 22 0;
#X connect 12 0 23 0;
#X connect 13 0 0 0;
#X connect 13 0 1 0;
#X connect 13 0 2 0;
#X connect 13 0 3 0;
#X connect 13 0 4 0;
#X connect 13 0 5 0;
#X connect 13 0 14 0;
#X connect 13 0 15 0;
#X connect 14 0 57 0;
#X connect 15 0 59 0;
#X connect 16 0 24 0;
#X connect 17 0 25 0;
#X connect 18 0 0 1;
#X connect 19 0 1 1;
#X connect 20 0 2 1;
#X connect 21 0 3 1;
#X connect 22 0 4 1;
#X connect 23 0 5 1;
#X connect 24 0 14 1;
#X connect 25 0 15 1;
#X connect 26 0 48 0;
#X connect 27 0 48 0;
#X connect 28 0 48 0;
#X connect 29 0 48 0;
#X connect 30 0 48 0;
#X connect 31 0 48 0;
#X connect 32 0 48 0;
#X connect 33 0 48 0;
#X connect 34 0 107 0;
#X connect 35 0 144 0;
#X connect 35 0 41 0;
#X connect 36 0 35 1;
#X connect 36 0 34 1;
#X connect 37 0 35 1;
#X connect 38 0 36 0;
#X connect 39 0 26 0;
#X connect 39 1 27 0;
#X connect 39 2 28 0;
#X connect 39 3 29 0;
#X connect 39 4 30 0;
#X connect 39 5 31 0;
#X connect 39 6 32 0;
#X connect 39 7 33 0;
#X connect 40 0 42 0;
#X connect 41 0 152 0;
#X connect 42 0 43 0;
#X connect 43 0 41 0;
#X connect 44 0 39 0;
#X connect 44 0 94 0;
#X connect 45 0 44 0;
#X connect 46 0 47 0;
#X connect 46 1 136 0;
#X connect 46 2 137 0;
#X connect 46 3 138 0;
#X connect 46 4 139 0;
#X connect 46 5 140 0;
#X connect 46 6 141 0;
#X connect 46 7 142 0;
#X connect 47 0 112 0;
#X connect 49 0 46 0;
#X connect 50 0 9 0;
#X connect 51 0 171 0;
#X connect 52 0 172 0;
#X connect 54 0 173 0;
#X connect 55 0 174 0;
#X connect 56 0 175 0;
#X connect 57 0 176 0;
#X connect 59 0 177 0;
#X connect 60 0 50 1;
#X connect 61 0 60 0;
#X connect 62 0 51 1;
#X connect 63 0 62 0;
#X connect 64 0 52 1;
#X connect 65 0 64 0;
#X connect 66 0 54 1;
#X connect 67 0 66 0;
#X connect 68 0 55 1;
#X connect 69 0 68 0;
#X connect 70 0 56 1;
#X connect 71 0 70 0;
#X connect 72 0 57 1;
#X connect 73 0 72 0;
#X connect 74 0 59 1;
#X connect 75 0 74 0;
#X connect 84 0 61 0;
#X connect 85 0 63 0;
#X connect 86 0 65 0;
#X connect 87 0 67 0;
#X connect 88 0 69 0;
#X connect 89 0 71 0;
#X connect 90 0 73 0;
#X connect 91 0 75 0;
#X connect 92 0 95 0;
#X connect 93 0 96 0;
#X connect 97 0 111 0;
#X connect 97 0 155 0;
#X connect 97 0 156 0;
#X connect 97 0 157 0;
#X connect 97 0 158 0;
#X connect 97 0 159 0;
#X connect 97 0 160 0;
#X connect 97 0 161 0;
#X connect 98 0 100 0;
#X connect 99 0 100 1;
#X connect 99 0 101 0;
#X connect 100 0 106 1;
#X connect 101 0 100 0;
#X connect 102 0 83 0;
#X connect 102 0 82 0;
#X connect 102 0 81 0;
#X connect 102 0 80 0;
#X connect 102 0 79 0;
#X connect 102 0 78 0;
#X connect 102 0 77 0;
#X connect 102 0 76 0;
#X connect 103 0 102 0;
#X connect 105 0 153 0;
#X connect 106 0 36 0;
#X connect 107 0 35 0;
#X connect 108 0 109 0;
#X connect 109 0 92 0;
#X connect 109 1 93 0;
#X connect 109 2 110 0;
#X connect 109 3 104 0;
#X connect 110 0 76 0;
#X connect 110 1 77 0;
#X connect 110 2 78 0;
#X connect 110 3 79 0;
#X connect 110 4 80 0;
#X connect 110 5 81 0;
#X connect 110 6 82 0;
#X connect 110 7 83 0;
#X connect 111 0 112 1;
#X connect 111 0 113 0;
#X connect 111 1 154 1;
#X connect 112 0 6 0;
#X connect 113 0 112 0;
#X connect 115 0 7 0;
#X connect 116 0 115 0;
#X connect 118 0 10 0;
#X connect 119 0 118 0;
#X connect 121 0 8 0;
#X connect 122 0 121 0;
#X connect 124 0 11 0;
#X connect 125 0 124 0;
#X connect 127 0 12 0;
#X connect 128 0 127 0;
#X connect 130 0 16 0;
#X connect 131 0 130 0;
#X connect 133 0 17 0;
#X connect 134 0 133 0;
#X connect 136 0 115 0;
#X connect 137 0 118 0;
#X connect 138 0 121 0;
#X connect 139 0 124 0;
#X connect 140 0 127 0;
#X connect 141 0 130 0;
#X connect 142 0 133 0;
#X connect 143 0 25 0;
#X connect 144 0 41 0;
#X connect 144 1 37 0;
#X connect 144 1 106 0;
#X connect 144 1 154 0;
#X connect 144 1 162 0;
#X connect 144 1 163 0;
#X connect 144 1 164 0;
#X connect 144 1 165 0;
#X connect 144 1 166 0;
#X connect 144 1 167 0;
#X connect 144 1 168 0;
#X connect 145 0 24 0;
#X connect 146 0 23 0;
#X connect 147 0 22 0;
#X connect 148 0 21 0;
#X connect 149 0 20 0;
#X connect 150 0 19 0;
#X connect 151 0 18 0;
#X connect 152 0 45 0;
#X connect 153 0 34 0;
#X connect 154 0 151 0;
#X connect 155 0 115 1;
#X connect 155 0 117 0;
#X connect 155 1 162 1;
#X connect 156 0 118 1;
#X connect 156 0 120 0;
#X connect 156 1 163 1;
#X connect 157 0 121 1;
#X connect 157 0 123 0;
#X connect 157 1 164 1;
#X connect 158 0 124 1;
#X connect 158 0 126 0;
#X connect 158 1 165 1;
#X connect 159 0 127 1;
#X connect 159 0 129 0;
#X connect 159 1 166 1;
#X connect 160 0 130 1;
#X connect 160 0 132 0;
#X connect 160 1 167 1;
#X connect 161 0 133 1;
#X connect 161 0 135 0;
#X connect 161 1 168 1;
#X connect 162 0 150 0;
#X connect 163 0 149 0;
#X connect 164 0 148 0;
#X connect 165 0 147 0;
#X connect 166 0 146 0;
#X connect 167 0 145 0;
#X connect 168 0 143 0;
#X connect 169 0 170 0;
#X coords 0 -1 1 1 150 184 1 1202 332;
