#N canvas 0 0 1366 715 12;
#X obj 1294 239 cnv 15 500 1000 empty empty SpecoctDELAY 20 12 1 14
#000000 #fcfcfc 0;
#X obj 1178 106 inlet~;
#X obj 89 614 outlet~;
#X obj 221 614 outlet~;
#X obj 351 614 outlet~;
#X obj 482 614 outlet~;
#X obj 602 614 outlet~;
#X obj 739 614 outlet~;
#X obj 889 614 outlet~;
#X obj 1039 614 outlet~;
#X obj 1178 152 *~ 1;
#X text 1217 152 mute;
#X text 33 519 dry;
#X obj 8 519 *~;
#X obj 1179 348 *~;
#X obj 1219 328 line~;
#X msg 1219 300 \$1 15;
#X obj 46 499 line~;
#X msg 46 474 \$1 15;
#X obj 88 471 *~;
#X msg 108 423 \$1 10;
#X obj 108 400 r wet;
#X obj 46 450 r dry;
#X text 1214 350 input gain;
#X text 1099 106 mono input;
#X obj 222 471 *~;
#X msg 241 423 \$1 10;
#X obj 241 400 r wet;
#X obj 1191 196 s~ dry_;
#X obj 7 427 r~ dry_;
#X obj 241 447 line~;
#X obj 108 447 line~;
#X obj 74 374 r~ delayed_ch1;
#X obj 207 373 r~ delayed_ch2;
#X obj 352 471 *~;
#X msg 371 423 \$1 10;
#X obj 371 400 r wet;
#X obj 371 447 line~;
#X obj 337 373 r~ delayed_ch3;
#X obj 482 471 *~;
#X msg 501 423 \$1 10;
#X obj 501 400 r wet;
#X obj 501 447 line~;
#X obj 467 373 r~ delayed_ch4;
#X obj 602 471 *~;
#X msg 621 423 \$1 10;
#X obj 621 400 r wet;
#X obj 621 447 line~;
#X obj 587 373 r~ delayed_ch5;
#X obj 738 471 *~;
#X msg 757 423 \$1 10;
#X obj 757 400 r wet;
#X obj 757 447 line~;
#X obj 723 373 r~ delayed_ch6;
#X obj 888 472 *~;
#X msg 907 424 \$1 10;
#X obj 907 401 r wet;
#X obj 907 448 line~;
#X obj 1038 472 *~;
#X msg 1057 424 \$1 10;
#X obj 1057 401 r wet;
#X obj 1057 448 line~;
#X obj 873 374 r~ delayed_ch7;
#X obj 1023 374 r~ delayed_ch8;
#X obj 1311 306 hsl 180 15 0.015 1.5 1 0 empty empty dry 50 8 0 10
#606060 #fcfcfc #000000 13630 1;
#X obj 1311 326 hsl 180 15 0.015 1.5 1 0 empty empty wet 50 8 0 10
#606060 #fcfcfc #000000 16324 1;
#X obj 1816 270 rmstodb;
#X obj 1816 292 - 100;
#X msg 1448 114 1;
#X obj 1815 214 rmstodb;
#X obj 1815 236 - 100;
#X obj 1448 91 loadbang;
#X obj 1606 282 hsl 100 15 0.125 3 0 0 empty empty time_window 10 8
0 10 #0400fc #fc8000 #000000 3050 1;
#X obj 1618 176 s general_time_window;
#X obj 1823 318 s wet;
#X obj 1822 339 s dry;
#X obj 1312 275 hsl 128 15 0.015 1.5 1 0 empty empty input_gain 35
8 0 10 #606060 #fcfcfc #000000 11582 1;
#X obj 1281 119 rmstodb;
#X obj 1281 141 - 100;
#X msg 1486 114 0.5;
#X obj 1434 246 tgl 15 0 empty empty mute 17 7 0 10 #fcfcfc #000000
#fcfcfc 0 1;
#X obj 1439 168 expr 1-$f1;
#X obj 1446 276 nbx 3 14 -1e+37 1e+37 0 0 empty empty dB 39 8 0 10
#606060 #fcfcfc #fcfcfc 0.000564575 256 0;
#X obj 1497 307 nbx 3 14 -1e+37 1e+37 0 0 empty empty dB 39 8 0 10
#606060 #fcfcfc #fcfcfc -6.02007 256 0;
#X obj 1497 327 nbx 3 14 -1e+37 1e+37 0 0 empty empty dB 39 8 0 10
#606060 #fcfcfc #fcfcfc 3.8147e-05 256 0;
#X obj 1439 197 s delay_mute;
#X obj 1608 299 nbx 3 16 -1e+37 1e+37 0 0 empty empty s 43 11 0 11
#0400fc #fcfcfc #000000 1.01073 256 0;
#N canvas 0 0 1366 682 channel1 0;
#X obj 900 201 cnv 15 450 100 empty empty Channel_1 20 12 1 14 #284868
#fc8000 0;
#X obj 784 523 cnv 15 176 124 empty empty empty 20 12 0 14 #0400fc
#404040 0;
#X obj 1102 213 cnv 15 165 80 empty empty Filter 20 12 1 14 #006464
#000000 0;
#X obj 977 594 cnv 15 100 60 empty empty empty 20 12 0 14 #243c58 #404040
0;
#X obj 1097 594 cnv 15 100 60 empty empty empty 20 12 0 14 #243c58
#404040 0;
#X obj 1107 513 cnv 15 100 60 empty empty empty 20 12 0 14 #243c58
#404040 0;
#X obj 21 245 t b f;
#X obj 53 296 expr (((((60/($f1*1000))*1000)/60)*1000)*0.25)*$f2;
#X floatatom 53 354 10 0 0 0 - - -, f 10;
#X obj 53 327 expr ($f1*$f2)*$f2;
#X obj 21 196 r general_time_window;
#X obj 374 258 t b f;
#X obj 921 280 hradio 11 1 0 16 empty empty empty 0 -8 0 10 #0400fc
#fc8000 #000000 0;
#X obj 402 220 + 1;
#X floatatom 922 259 5 0 0 0 - - -, f 5;
#X obj 157 555 hip~;
#X obj 158 588 lop~;
#X obj 157 522 *~;
#X obj 119 522 *~;
#X floatatom 1152 249 5 0 10000 1 Hz - -, f 5;
#X floatatom 1208 249 5 10001 24000 1 Hz - -, f 5;
#X obj 191 531 line;
#X obj 205 581 line;
#X msg 205 558 \$1 50;
#X obj 340 341 route 0;
#X msg 326 377 0;
#X msg 323 405 1;
#X msg 366 377 1;
#X msg 363 405 0;
#X text 128 356 ms;
#X text 1206 266 HC;
#X text 1149 266 LC;
#X obj 1128 241 vradio 18 1 0 2 empty empty empty 0 -8 0 10 #0400fc
#fc8000 #000000 0;
#X text 1108 240 on;
#X text 1101 256 off;
#X msg 1127 126 24000;
#X obj 1127 92 loadbang;
#X text 959 259 delay time in 16th;
#X msg 1084 125 0;
#X obj 1214 331 s feedback_ch1_amp;
#X obj 1273 213 cnv 15 70 80 empty empty Feedback 2 12 1 14 #006464
#000000 0;
#X obj 1290 237 vsl 15 50 0 0.9 0 0 empty empty empty 0 -9 0 10 #0400fc
#fc8000 #000000 0 1;
#X floatatom 1308 271 4 0 0 1 - - -, f 4;
#X obj 53 136 delwrite~ main_line_ch1 12000;
#X obj 92 110 *~;
#X text 126 112 feedback amount;
#X obj 93 46 r~ feedback_ch1;
#X obj 41 49 inlet~;
#X obj 128 444 delread~ main_line_ch1;
#X msg 207 53 \$1 20;
#X obj 207 30 r feedback_ch1_amp;
#X obj 207 77 line~;
#X obj 161 677 *~;
#X obj 241 653 line~;
#X msg 241 624 \$1 50;
#X obj 311 593 expr 1 - $i1;
#X obj 921 227 tgl 20 0 empty empty empty 17 7 0 10 #fcfcfc #000000
#000000 0 1;
#X obj 152 710 s~ feedback_ch1;
#X obj 159 735 s~ delayed_ch1;
#X msg 221 508 \$1 50;
#X connect 6 0 7 0;
#X connect 6 1 7 0;
#X connect 6 1 9 1;
#X connect 7 0 9 0;
#X connect 9 0 8 0;
#X connect 9 0 48 0;
#X connect 10 0 6 0;
#X connect 11 0 7 0;
#X connect 11 1 7 1;
#X connect 12 0 13 0;
#X connect 13 0 14 0;
#X connect 13 0 11 0;
#X connect 15 0 16 0;
#X connect 16 0 52 0;
#X connect 17 0 15 0;
#X connect 18 0 52 0;
#X connect 19 0 59 0;
#X connect 20 0 23 0;
#X connect 21 0 15 1;
#X connect 22 0 16 1;
#X connect 23 0 22 0;
#X connect 24 0 25 0;
#X connect 24 0 26 0;
#X connect 24 1 27 0;
#X connect 24 1 28 0;
#X connect 25 0 18 1;
#X connect 26 0 17 1;
#X connect 27 0 18 1;
#X connect 28 0 17 1;
#X connect 32 0 24 0;
#X connect 35 0 20 0;
#X connect 36 0 35 0;
#X connect 36 0 38 0;
#X connect 38 0 19 0;
#X connect 38 0 32 0;
#X connect 38 0 12 0;
#X connect 38 0 56 0;
#X connect 41 0 39 0;
#X connect 41 0 42 0;
#X connect 44 0 43 0;
#X connect 46 0 44 0;
#X connect 47 0 43 0;
#X connect 48 0 18 0;
#X connect 48 0 17 0;
#X connect 49 0 51 0;
#X connect 50 0 49 0;
#X connect 51 0 44 1;
#X connect 52 0 58 0;
#X connect 52 0 57 0;
#X connect 53 0 52 1;
#X connect 54 0 53 0;
#X connect 55 0 54 0;
#X connect 56 0 55 0;
#X connect 59 0 21 0;
#X coords 0 -1 1 1 451 101 1 900 200;
#X restore 1309 357 pd channel1;
#N canvas 0 0 1366 715 bozzavecchia 0;
#X obj 187 -325 hradio 11 1 0 16 empty empty empty 0 -8 0 10 #fcfcfc
#000000 #000000 0;
#X obj 313 -452 *;
#X floatatom 242 -534 5 0 0 0 - - -, f 5;
#X floatatom 242 -445 5 0 0 0 - - -, f 5;
#X obj 242 -480 expr (60/$f1)*1000;
#N canvas 0 0 1366 695 strip1 0;
#X obj 1147 28 route 1 2 3 4 5 6 7 8 9 10 11 12;
#X obj 23 10 delread~ dll1;
#X obj 22 60 *~;
#X obj 55 90 line~;
#X msg 55 64 \$1 5;
#X obj 22 174 *~;
#X obj 53 174 line~;
#X msg 53 148 \$1 5;
#X obj 53 123 r dll1_lA_amp;
#X obj 58 993 outlet~;
#X obj 123 150 delread~ dll1;
#X obj 122 200 *~;
#X obj 155 230 line~;
#X msg 155 204 \$1 5;
#X obj 122 314 *~;
#X obj 153 314 line~;
#X msg 153 288 \$1 5;
#X obj 153 263 r dll1_lB_amp;
#X obj 213 290 delread~ dll1;
#X obj 212 340 *~;
#X obj 245 370 line~;
#X msg 245 344 \$1 5;
#X obj 212 454 *~;
#X obj 243 454 line~;
#X msg 243 428 \$1 5;
#X obj 243 403 r dll1_lC_amp;
#X obj 353 350 delread~ dll1;
#X obj 352 400 *~;
#X obj 385 430 line~;
#X msg 385 404 \$1 5;
#X obj 352 514 *~;
#X obj 383 514 line~;
#X msg 383 488 \$1 5;
#X obj 383 463 r dll1_lD_amp;
#X obj 493 410 delread~ dll1;
#X obj 492 460 *~;
#X obj 525 490 line~;
#X msg 525 464 \$1 5;
#X obj 492 574 *~;
#X obj 523 574 line~;
#X msg 523 548 \$1 5;
#X obj 523 523 r dll1_lE_amp;
#X obj 633 480 delread~ dll1;
#X obj 632 530 *~;
#X obj 665 560 line~;
#X msg 665 534 \$1 5;
#X obj 632 644 *~;
#X obj 663 644 line~;
#X msg 663 618 \$1 5;
#X obj 663 593 r dll1_lF_amp;
#X obj 763 540 delread~ dll1;
#X obj 762 590 *~;
#X obj 795 620 line~;
#X msg 795 594 \$1 5;
#X obj 762 704 *~;
#X obj 793 704 line~;
#X msg 793 678 \$1 5;
#X obj 793 653 r dll1_lG_amp;
#X obj 903 600 delread~ dll1;
#X obj 902 650 *~;
#X obj 935 680 line~;
#X msg 935 654 \$1 5;
#X obj 902 764 *~;
#X obj 933 764 line~;
#X msg 933 738 \$1 5;
#X obj 933 713 r dll1_lH_amp;
#X obj 1043 652 delread~ dll1;
#X obj 1042 702 *~;
#X obj 1075 732 line~;
#X msg 1075 706 \$1 5;
#X obj 1042 816 *~;
#X obj 1073 816 line~;
#X msg 1073 790 \$1 5;
#X obj 1073 765 r dll1_lI_amp;
#X obj 1173 722 delread~ dll1;
#X obj 1172 772 *~;
#X obj 1205 802 line~;
#X msg 1205 776 \$1 5;
#X obj 1172 886 *~;
#X obj 1203 886 line~;
#X msg 1203 860 \$1 5;
#X obj 1203 835 r dll1_lL_amp;
#X obj 1303 782 delread~ dll1;
#X obj 1302 832 *~;
#X obj 1335 862 line~;
#X msg 1335 836 \$1 5;
#X obj 1302 946 *~;
#X obj 1333 946 line~;
#X msg 1333 920 \$1 5;
#X obj 1433 842 delread~ dll1;
#X obj 1432 892 *~;
#X obj 1465 922 line~;
#X msg 1465 896 \$1 5;
#X obj 1432 1006 *~;
#X obj 1463 1006 line~;
#X msg 1463 980 \$1 5;
#X obj 1333 895 r dll1_lM_amp;
#X floatatom 703 111 5 0 0 0 - - -, f 5;
#X floatatom 764 112 5 0 0 0 - - -, f 5;
#X obj 703 48 expr 1000/($f1+1) \; 1/($f1+1) \; $f1+1;
#X floatatom 826 112 5 0 0 0 - - -, f 5;
#X obj 703 11 inlet;
#X obj 437 40 lop~;
#X obj 438 11 *~;
#X obj 498 11 *~;
#X obj 497 40 hip~;
#X obj 408 -32 inlet~;
#X obj 409 97 delwrite~ dll1 4000;
#X obj 495 133 * 1;
#X obj 532 139 * 2;
#X obj 569 147 * 3;
#X obj 606 155 * 4;
#X obj 636 167 * 5;
#X obj 667 175 * 6;
#X obj 698 185 * 7;
#X obj 727 196 * 8;
#X obj 757 203 * 9;
#X obj 787 213 * 10;
#X obj 823 222 * 11;
#X obj 858 234 * 12;
#X obj 495 175 s dll1_lA_amp;
#X obj 532 199 s dll1_lB_amp;
#X obj 569 224 s dll1_lC_amp;
#X obj 606 247 s dll1_lD_amp;
#X obj 636 270 s dll1_lE_amp;
#X obj 667 293 s dll1_lF_amp;
#X obj 697 316 s dll1_lG_amp;
#X obj 728 339 s dll1_lH_amp;
#X obj 758 365 s dll1_lI_amp;
#X obj 798 389 s dll1_lL_amp;
#X obj 818 412 s dll1_lM_amp;
#X obj 841 435 s dll1_lN_amp;
#X obj 171 87 r dll1_onoff;
#X obj 171 112 unpack f f f f f f f f f f f f;
#X msg 1147 58 \; dll1_onoff 1 0 0 0 0 0 0 0 0 0 0 0;
#X msg 1147 97 \; dll1_onoff 1 1 0 0 0 0 0 0 0 0 0 0;
#X msg 1148 137 \; dll1_onoff 1 1 1 0 0 0 0 0 0 0 0 0;
#X msg 1149 178 \; dll1_onoff 1 1 1 1 0 0 0 0 0 0 0 0;
#X msg 1149 218 \; dll1_onoff 1 1 1 1 1 0 0 0 0 0 0 0;
#X msg 1149 258 \; dll1_onoff 1 1 1 1 1 1 0 0 0 0 0 0;
#X msg 1149 298 \; dll1_onoff 1 1 1 1 1 1 1 0 0 0 0 0;
#X msg 1149 338 \; dll1_onoff 1 1 1 1 1 1 1 1 0 0 0 0;
#X msg 1149 378 \; dll1_onoff 1 1 1 1 1 1 1 1 1 0 0 0;
#X msg 1149 416 \; dll1_onoff 1 1 1 1 1 1 1 1 1 1 0 0;
#X msg 1149 456 \; dll1_onoff 1 1 1 1 1 1 1 1 1 1 1 0;
#X msg 1149 496 \; dll1_onoff 1 1 1 1 1 1 1 1 1 1 1 1;
#X connect 0 0 134 0;
#X connect 0 1 135 0;
#X connect 0 2 136 0;
#X connect 0 3 137 0;
#X connect 0 4 138 0;
#X connect 0 5 139 0;
#X connect 0 6 140 0;
#X connect 0 7 141 0;
#X connect 0 8 142 0;
#X connect 0 9 143 0;
#X connect 0 10 144 0;
#X connect 0 11 145 0;
#X connect 1 0 2 0;
#X connect 2 0 5 0;
#X connect 3 0 2 1;
#X connect 4 0 3 0;
#X connect 5 0 9 0;
#X connect 6 0 5 1;
#X connect 7 0 6 0;
#X connect 8 0 7 0;
#X connect 10 0 11 0;
#X connect 11 0 14 0;
#X connect 12 0 11 1;
#X connect 13 0 12 0;
#X connect 14 0 9 0;
#X connect 15 0 14 1;
#X connect 16 0 15 0;
#X connect 17 0 16 0;
#X connect 18 0 19 0;
#X connect 19 0 22 0;
#X connect 20 0 19 1;
#X connect 21 0 20 0;
#X connect 22 0 9 0;
#X connect 23 0 22 1;
#X connect 24 0 23 0;
#X connect 25 0 24 0;
#X connect 26 0 27 0;
#X connect 27 0 30 0;
#X connect 28 0 27 1;
#X connect 29 0 28 0;
#X connect 30 0 9 0;
#X connect 31 0 30 1;
#X connect 32 0 31 0;
#X connect 33 0 32 0;
#X connect 34 0 35 0;
#X connect 35 0 38 0;
#X connect 36 0 35 1;
#X connect 37 0 36 0;
#X connect 38 0 9 0;
#X connect 39 0 38 1;
#X connect 40 0 39 0;
#X connect 41 0 40 0;
#X connect 42 0 43 0;
#X connect 43 0 46 0;
#X connect 44 0 43 1;
#X connect 45 0 44 0;
#X connect 46 0 9 0;
#X connect 47 0 46 1;
#X connect 48 0 47 0;
#X connect 49 0 48 0;
#X connect 50 0 51 0;
#X connect 51 0 54 0;
#X connect 52 0 51 1;
#X connect 53 0 52 0;
#X connect 54 0 9 0;
#X connect 55 0 54 1;
#X connect 56 0 55 0;
#X connect 57 0 56 0;
#X connect 58 0 59 0;
#X connect 59 0 62 0;
#X connect 60 0 59 1;
#X connect 61 0 60 0;
#X connect 62 0 9 0;
#X connect 63 0 62 1;
#X connect 64 0 63 0;
#X connect 65 0 64 0;
#X connect 66 0 67 0;
#X connect 67 0 70 0;
#X connect 68 0 67 1;
#X connect 69 0 68 0;
#X connect 70 0 9 0;
#X connect 71 0 70 1;
#X connect 72 0 71 0;
#X connect 73 0 72 0;
#X connect 74 0 75 0;
#X connect 75 0 78 0;
#X connect 76 0 75 1;
#X connect 77 0 76 0;
#X connect 78 0 9 0;
#X connect 79 0 78 1;
#X connect 80 0 79 0;
#X connect 81 0 80 0;
#X connect 82 0 83 0;
#X connect 83 0 86 0;
#X connect 84 0 83 1;
#X connect 85 0 84 0;
#X connect 86 0 9 0;
#X connect 87 0 86 1;
#X connect 88 0 87 0;
#X connect 89 0 90 0;
#X connect 90 0 93 0;
#X connect 91 0 90 1;
#X connect 92 0 91 0;
#X connect 93 0 9 0;
#X connect 94 0 93 1;
#X connect 95 0 94 0;
#X connect 96 0 88 0;
#X connect 99 0 97 0;
#X connect 99 1 98 0;
#X connect 99 1 108 0;
#X connect 99 1 109 0;
#X connect 99 1 110 0;
#X connect 99 1 111 0;
#X connect 99 1 112 0;
#X connect 99 1 113 0;
#X connect 99 1 114 0;
#X connect 99 1 115 0;
#X connect 99 1 116 0;
#X connect 99 1 117 0;
#X connect 99 1 118 0;
#X connect 99 1 119 0;
#X connect 99 2 100 0;
#X connect 99 2 0 0;
#X connect 101 0 99 0;
#X connect 102 0 107 0;
#X connect 103 0 102 0;
#X connect 104 0 105 0;
#X connect 105 0 107 0;
#X connect 106 0 103 0;
#X connect 106 0 104 0;
#X connect 106 0 107 0;
#X connect 108 0 120 0;
#X connect 109 0 121 0;
#X connect 110 0 122 0;
#X connect 111 0 123 0;
#X connect 112 0 124 0;
#X connect 113 0 125 0;
#X connect 114 0 126 0;
#X connect 115 0 127 0;
#X connect 116 0 128 0;
#X connect 117 0 129 0;
#X connect 118 0 130 0;
#X connect 119 0 131 0;
#X connect 132 0 133 0;
#X connect 133 0 4 0;
#X connect 133 1 13 0;
#X connect 133 2 21 0;
#X connect 133 3 29 0;
#X connect 133 4 37 0;
#X connect 133 5 45 0;
#X connect 133 6 53 0;
#X connect 133 7 61 0;
#X connect 133 8 69 0;
#X connect 133 9 77 0;
#X connect 133 10 85 0;
#X connect 133 11 92 0;
#X restore 126 -304 pd strip1;
#X obj 204 -271 hradio 30 1 0 2 empty empty empty 0 -8 0 10 #fcfcfc
#000000 #000000 0;
#X text 205 -292 Filter:;
#X text 242 -560 Main Lines Size (ms or bpm?);
#X obj 133 -190 t b f;
#X obj 35 -174 t b f;
#X obj 133 -363 + 1;
#X text 213 -352 delay times in 16th;
#X floatatom 155 -392 5 0 0 0 - - -, f 5;
#X text 209 -240 ON;
#X text 236 -240 OFF;
#X obj 25 -128 expr (((((60/($f1*1000))*1000)/60)*1000)*0.25)*$f2;
#X floatatom 25 -70 10 0 0 0 - - -, f 10;
#X obj 25 -97 expr ($f1*$f2)*$f2;
#X text 103 -66 tempo da inviare a delread~;
#X connect 0 0 11 0;
#X connect 2 0 4 0;
#X connect 4 0 3 0;
#X connect 4 0 1 0;
#X connect 9 0 16 0;
#X connect 9 1 16 1;
#X connect 10 0 16 0;
#X connect 10 1 16 0;
#X connect 10 1 18 1;
#X connect 11 0 9 0;
#X connect 11 0 13 0;
#X connect 16 0 18 0;
#X connect 18 0 17 0;
#X restore 900 95 pd bozzavecchia;
#N canvas 0 0 1366 695 channel2 0;
#X obj 900 201 cnv 15 450 100 empty empty Channel_2 20 12 1 14 #284868
#fc8000 0;
#X obj 784 523 cnv 15 100 60 empty empty empty 20 12 0 14 #0400fc #404040
0;
#X obj 1102 213 cnv 15 165 80 empty empty Filter 20 12 1 14 #006464
#000000 0;
#X obj 977 594 cnv 15 100 60 empty empty empty 20 12 0 14 #243c58 #404040
0;
#X obj 1097 594 cnv 15 100 60 empty empty empty 20 12 0 14 #243c58
#404040 0;
#X obj 1107 513 cnv 15 100 60 empty empty empty 20 12 0 14 #243c58
#404040 0;
#X obj 21 245 t b f;
#X obj 53 296 expr (((((60/($f1*1000))*1000)/60)*1000)*0.25)*$f2;
#X floatatom 53 354 10 0 0 0 - - -, f 10;
#X obj 53 327 expr ($f1*$f2)*$f2;
#X obj 21 196 r general_time_window;
#X obj 374 258 t b f;
#X obj 921 280 hradio 11 1 0 16 empty empty empty 0 -8 0 10 #0400fc
#fc8000 #000000 0;
#X obj 402 220 + 1;
#X floatatom 922 259 5 0 0 0 - - -, f 5;
#X obj 157 555 hip~;
#X obj 158 588 lop~;
#X obj 157 522 *~;
#X obj 119 522 *~;
#X floatatom 1152 249 5 0 10000 1 Hz - -, f 5;
#X floatatom 1208 249 5 10001 24000 1 Hz - -, f 5;
#X obj 191 531 line;
#X obj 205 581 line;
#X msg 205 558 \$1 50;
#X obj 470 341 route 0;
#X msg 456 377 0;
#X msg 453 405 1;
#X msg 496 377 1;
#X msg 493 405 0;
#X text 128 356 ms;
#X text 1206 266 HC;
#X text 1149 266 LC;
#X obj 1128 241 vradio 18 1 0 2 empty empty empty 0 -8 0 10 #0400fc
#fc8000 #000000 0;
#X text 1108 240 on;
#X text 1101 256 off;
#X msg 1267 140 24000;
#X obj 1267 112 loadbang;
#X text 959 259 delay time in 16th;
#X msg 1224 145 0;
#X obj 1273 213 cnv 15 70 80 empty empty Feedback 2 12 1 14 #006464
#000000 0;
#X obj 1290 237 vsl 15 50 0 0.9 0 0 empty empty empty 0 -9 0 10 #0400fc
#fc8000 #000000 0 1;
#X floatatom 1308 271 4 0 0 1 - - -, f 4;
#X obj 92 110 *~;
#X text 126 112 feedback amount;
#X obj 41 49 inlet~;
#X msg 207 53 \$1 20;
#X obj 207 77 line~;
#X obj 207 30 r feedback_ch2_amp;
#X obj 93 46 r~ feedback_ch2;
#X obj 53 136 delwrite~ main_line_ch2 12000;
#X obj 128 444 delread~ main_line_ch2;
#X obj 1194 331 s feedback_ch2_amp;
#X obj 119 694 *~;
#X obj 199 670 line~;
#X msg 199 641 \$1 50;
#X obj 269 610 expr 1 - $i1;
#X obj 920 230 tgl 20 0 empty empty empty 17 7 0 10 #fcfcfc #000000
#000000 0 1;
#X obj 132 723 s~ feedback_ch2;
#X obj 139 748 s~ delayed_ch2;
#X msg 191 507 \$1 50;
#X connect 6 0 7 0;
#X connect 6 1 7 0;
#X connect 6 1 9 1;
#X connect 7 0 9 0;
#X connect 9 0 8 0;
#X connect 9 0 50 0;
#X connect 10 0 6 0;
#X connect 11 0 7 0;
#X connect 11 1 7 1;
#X connect 12 0 13 0;
#X connect 13 0 14 0;
#X connect 13 0 11 0;
#X connect 15 0 16 0;
#X connect 16 0 52 0;
#X connect 17 0 15 0;
#X connect 18 0 52 0;
#X connect 19 0 59 0;
#X connect 20 0 23 0;
#X connect 21 0 15 1;
#X connect 22 0 16 1;
#X connect 23 0 22 0;
#X connect 24 0 25 0;
#X connect 24 0 26 0;
#X connect 24 1 27 0;
#X connect 24 1 28 0;
#X connect 25 0 18 1;
#X connect 26 0 17 1;
#X connect 27 0 18 1;
#X connect 28 0 17 1;
#X connect 32 0 24 0;
#X connect 35 0 20 0;
#X connect 36 0 35 0;
#X connect 36 0 38 0;
#X connect 38 0 19 0;
#X connect 38 0 32 0;
#X connect 38 0 12 0;
#X connect 40 0 41 0;
#X connect 40 0 51 0;
#X connect 42 0 49 0;
#X connect 44 0 49 0;
#X connect 45 0 46 0;
#X connect 46 0 42 1;
#X connect 47 0 45 0;
#X connect 48 0 42 0;
#X connect 50 0 18 0;
#X connect 50 0 17 0;
#X connect 52 0 57 0;
#X connect 52 0 58 0;
#X connect 53 0 52 1;
#X connect 54 0 53 0;
#X connect 55 0 54 0;
#X connect 56 0 55 0;
#X connect 59 0 21 0;
#X coords 0 -1 1 1 451 101 1 900 200;
#X restore 1309 467 pd channel2;
#N canvas 0 0 1350 706 channel3 0;
#X obj 900 201 cnv 15 450 100 empty empty Channel_3 20 12 1 14 #284868
#fc8000 0;
#X obj 784 523 cnv 15 100 60 empty empty empty 20 12 0 14 #0400fc #404040
0;
#X obj 1102 213 cnv 15 165 80 empty empty Filter 20 12 1 14 #006464
#000000 0;
#X obj 977 594 cnv 15 100 60 empty empty empty 20 12 0 14 #243c58 #404040
0;
#X obj 1097 594 cnv 15 100 60 empty empty empty 20 12 0 14 #243c58
#404040 0;
#X obj 1107 513 cnv 15 100 60 empty empty empty 20 12 0 14 #243c58
#404040 0;
#X obj 21 245 t b f;
#X obj 53 296 expr (((((60/($f1*1000))*1000)/60)*1000)*0.25)*$f2;
#X floatatom 53 354 10 0 0 0 - - -, f 10;
#X obj 53 327 expr ($f1*$f2)*$f2;
#X obj 21 196 r general_time_window;
#X obj 374 258 t b f;
#X obj 921 280 hradio 11 1 0 16 empty empty empty 0 -8 0 10 #0400fc
#fc8000 #000000 0;
#X obj 402 220 + 1;
#X floatatom 921 259 5 0 0 0 - - -, f 5;
#X obj 157 555 hip~;
#X obj 158 588 lop~;
#X obj 157 522 *~;
#X obj 119 522 *~;
#X floatatom 1152 249 5 0 10000 1 Hz - -, f 5;
#X floatatom 1208 249 5 10001 24000 1 Hz - -, f 5;
#X obj 191 531 line;
#X obj 205 581 line;
#X msg 205 558 \$1 50;
#X obj 470 341 route 0;
#X msg 456 377 0;
#X msg 453 405 1;
#X msg 496 377 1;
#X msg 493 405 0;
#X text 128 356 ms;
#X text 1206 266 HC;
#X text 1149 266 LC;
#X obj 1128 241 vradio 18 1 0 2 empty empty empty 0 -8 0 10 #0400fc
#fc8000 #000000 0;
#X text 1108 240 on;
#X text 1101 256 off;
#X msg 1267 140 24000;
#X obj 1267 112 loadbang;
#X text 958 259 delay time in 16th;
#X msg 1224 145 0;
#X obj 1273 213 cnv 15 70 80 empty empty Feedback 2 12 1 14 #006464
#000000 0;
#X obj 1290 237 vsl 15 50 0 0.9 0 0 empty empty empty 0 -9 0 10 #0400fc
#fc8000 #000000 0 1;
#X floatatom 1308 271 4 0 0 1 - - -, f 4;
#X obj 92 110 *~;
#X text 126 112 feedback amount;
#X obj 41 49 inlet~;
#X msg 207 53 \$1 20;
#X obj 207 77 line~;
#X obj 93 46 r~ feedback_ch3;
#X obj 207 30 r feedback_ch3_amp;
#X obj 53 136 delwrite~ main_line_ch3 12000;
#X obj 128 444 delread~ main_line_ch3;
#X obj 1194 331 s feedback_ch3_amp;
#X obj 123 668 *~;
#X obj 203 644 line~;
#X msg 203 615 \$1 50;
#X obj 543 584 expr 1 - $i1;
#X obj 923 228 tgl 20 0 empty empty empty 17 7 0 10 #fcfcfc #000000
#000000 0 1;
#X obj 142 699 s~ feedback_ch3;
#X obj 149 724 s~ delayed_ch3;
#X msg 191 507 \$1 50;
#X connect 6 0 7 0;
#X connect 6 1 7 0;
#X connect 6 1 9 1;
#X connect 7 0 9 0;
#X connect 9 0 8 0;
#X connect 9 0 50 0;
#X connect 10 0 6 0;
#X connect 11 0 7 0;
#X connect 11 1 7 1;
#X connect 12 0 13 0;
#X connect 13 0 14 0;
#X connect 13 0 11 0;
#X connect 15 0 16 0;
#X connect 16 0 52 0;
#X connect 17 0 15 0;
#X connect 18 0 52 0;
#X connect 19 0 59 0;
#X connect 20 0 23 0;
#X connect 21 0 15 1;
#X connect 22 0 16 1;
#X connect 23 0 22 0;
#X connect 24 0 25 0;
#X connect 24 0 26 0;
#X connect 24 1 27 0;
#X connect 24 1 28 0;
#X connect 25 0 18 1;
#X connect 26 0 17 1;
#X connect 27 0 18 1;
#X connect 28 0 17 1;
#X connect 32 0 24 0;
#X connect 35 0 20 0;
#X connect 36 0 35 0;
#X connect 36 0 38 0;
#X connect 38 0 19 0;
#X connect 38 0 32 0;
#X connect 38 0 12 0;
#X connect 40 0 41 0;
#X connect 40 0 51 0;
#X connect 42 0 49 0;
#X connect 44 0 49 0;
#X connect 45 0 46 0;
#X connect 46 0 42 1;
#X connect 47 0 42 0;
#X connect 48 0 45 0;
#X connect 50 0 18 0;
#X connect 50 0 17 0;
#X connect 52 0 57 0;
#X connect 52 0 58 0;
#X connect 53 0 52 1;
#X connect 54 0 53 0;
#X connect 55 0 54 0;
#X connect 56 0 55 0;
#X connect 59 0 21 0;
#X coords 0 -1 1 1 451 101 1 900 200;
#X restore 1308 578 pd channel3;
#N canvas 0 0 1366 715 channel4 0;
#X obj 900 201 cnv 15 450 100 empty empty Channel_4 20 12 1 14 #284868
#fc8000 0;
#X obj 784 523 cnv 15 100 60 empty empty empty 20 12 0 14 #0400fc #404040
0;
#X obj 1102 213 cnv 15 165 80 empty empty Filter 20 12 1 14 #006464
#000000 0;
#X obj 977 594 cnv 15 100 60 empty empty empty 20 12 0 14 #243c58 #404040
0;
#X obj 1097 594 cnv 15 100 60 empty empty empty 20 12 0 14 #243c58
#404040 0;
#X obj 1107 513 cnv 15 100 60 empty empty empty 20 12 0 14 #243c58
#404040 0;
#X obj 21 245 t b f;
#X obj 53 296 expr (((((60/($f1*1000))*1000)/60)*1000)*0.25)*$f2;
#X floatatom 53 354 10 0 0 0 - - -, f 10;
#X obj 53 327 expr ($f1*$f2)*$f2;
#X obj 21 196 r general_time_window;
#X obj 374 258 t b f;
#X obj 921 280 hradio 11 1 0 16 empty empty empty 0 -8 0 10 #0400fc
#fc8000 #000000 0;
#X obj 402 220 + 1;
#X floatatom 921 259 5 0 0 0 - - -, f 5;
#X obj 157 555 hip~;
#X obj 158 588 lop~;
#X obj 157 522 *~;
#X obj 119 522 *~;
#X floatatom 1152 249 5 0 10000 1 Hz - -, f 5;
#X floatatom 1208 249 5 10001 24000 1 Hz - -, f 5;
#X obj 191 531 line;
#X obj 205 581 line;
#X msg 205 558 \$1 50;
#X obj 470 341 route 0;
#X msg 456 377 0;
#X msg 453 405 1;
#X msg 496 377 1;
#X msg 493 405 0;
#X text 128 356 ms;
#X text 1206 266 HC;
#X text 1149 266 LC;
#X obj 1128 241 vradio 18 1 0 2 empty empty empty 0 -8 0 10 #0400fc
#fc8000 #000000 0;
#X text 1108 240 on;
#X text 1101 256 off;
#X msg 1267 140 24000;
#X obj 1267 112 loadbang;
#X text 958 259 delay time in 16th;
#X msg 1224 145 0;
#X obj 1273 213 cnv 15 70 80 empty empty Feedback 2 12 1 14 #006464
#000000 0;
#X obj 1290 237 vsl 15 50 0 0.9 0 0 empty empty empty 0 -9 0 10 #0400fc
#fc8000 #000000 0 1;
#X floatatom 1308 271 4 0 0 1 - - -, f 4;
#X obj 92 110 *~;
#X text 126 112 feedback amount;
#X obj 41 49 inlet~;
#X msg 207 53 \$1 20;
#X obj 207 77 line~;
#X obj 1194 331 s feedback_ch4_amp;
#X obj 128 444 delread~ main_line_ch4;
#X obj 53 136 delwrite~ main_line_ch4 12000;
#X obj 207 30 r feedback_ch4_amp;
#X obj 93 46 r~ feedback_ch4;
#X obj 118 670 *~;
#X obj 198 646 line~;
#X msg 198 617 \$1 50;
#X obj 268 586 expr 1 - $i1;
#X obj 919 229 tgl 20 0 empty empty empty 17 7 0 10 #fcfcfc #000000
#000000 0 1;
#X obj 148 703 s~ feedback_ch4;
#X obj 155 728 s~ delayed_ch4;
#X msg 191 506 \$1 50;
#X connect 6 0 7 0;
#X connect 6 1 7 0;
#X connect 6 1 9 1;
#X connect 7 0 9 0;
#X connect 9 0 8 0;
#X connect 9 0 48 0;
#X connect 10 0 6 0;
#X connect 11 0 7 0;
#X connect 11 1 7 1;
#X connect 12 0 13 0;
#X connect 13 0 14 0;
#X connect 13 0 11 0;
#X connect 15 0 16 0;
#X connect 16 0 52 0;
#X connect 17 0 15 0;
#X connect 18 0 52 0;
#X connect 19 0 59 0;
#X connect 20 0 23 0;
#X connect 21 0 15 1;
#X connect 22 0 16 1;
#X connect 23 0 22 0;
#X connect 24 0 25 0;
#X connect 24 0 26 0;
#X connect 24 1 27 0;
#X connect 24 1 28 0;
#X connect 25 0 18 1;
#X connect 26 0 17 1;
#X connect 27 0 18 1;
#X connect 28 0 17 1;
#X connect 32 0 24 0;
#X connect 35 0 20 0;
#X connect 36 0 35 0;
#X connect 36 0 38 0;
#X connect 38 0 19 0;
#X connect 38 0 32 0;
#X connect 38 0 12 0;
#X connect 40 0 41 0;
#X connect 40 0 47 0;
#X connect 42 0 49 0;
#X connect 44 0 49 0;
#X connect 45 0 46 0;
#X connect 46 0 42 1;
#X connect 48 0 18 0;
#X connect 48 0 17 0;
#X connect 50 0 45 0;
#X connect 51 0 42 0;
#X connect 52 0 57 0;
#X connect 52 0 58 0;
#X connect 53 0 52 1;
#X connect 54 0 53 0;
#X connect 55 0 54 0;
#X connect 56 0 55 0;
#X connect 59 0 21 0;
#X coords 0 -1 1 1 451 101 1 900 200;
#X restore 1307 687 pd channel4;
#N canvas 0 0 1366 695 channel5 0;
#X obj 900 201 cnv 15 450 100 empty empty Channel_5 20 12 1 14 #284868
#fc8000 0;
#X obj 784 523 cnv 15 100 60 empty empty empty 20 12 0 14 #0400fc #404040
0;
#X obj 1102 213 cnv 15 165 80 empty empty Filter 20 12 1 14 #006464
#000000 0;
#X obj 977 594 cnv 15 100 60 empty empty empty 20 12 0 14 #243c58 #404040
0;
#X obj 1097 594 cnv 15 100 60 empty empty empty 20 12 0 14 #243c58
#404040 0;
#X obj 1107 513 cnv 15 100 60 empty empty empty 20 12 0 14 #243c58
#404040 0;
#X obj 21 245 t b f;
#X obj 53 296 expr (((((60/($f1*1000))*1000)/60)*1000)*0.25)*$f2;
#X floatatom 53 354 10 0 0 0 - - -, f 10;
#X obj 53 327 expr ($f1*$f2)*$f2;
#X obj 21 196 r general_time_window;
#X obj 374 258 t b f;
#X obj 921 280 hradio 11 1 0 16 empty empty empty 0 -8 0 10 #0400fc
#fc8000 #000000 0;
#X obj 402 220 + 1;
#X floatatom 921 259 5 0 0 0 - - -, f 5;
#X obj 157 555 hip~;
#X obj 158 588 lop~;
#X obj 157 522 *~;
#X obj 119 522 *~;
#X floatatom 1152 249 5 0 10000 1 Hz - -, f 5;
#X floatatom 1208 249 5 10001 24000 1 Hz - -, f 5;
#X obj 191 531 line;
#X obj 205 581 line;
#X msg 205 558 \$1 50;
#X obj 470 341 route 0;
#X msg 456 377 0;
#X msg 453 405 1;
#X msg 496 377 1;
#X msg 493 405 0;
#X text 128 356 ms;
#X text 1206 266 HC;
#X text 1149 266 LC;
#X obj 1128 241 vradio 18 1 0 2 empty empty empty 0 -8 0 10 #0400fc
#fc8000 #000000 0;
#X text 1108 240 on;
#X text 1101 256 off;
#X msg 1267 140 24000;
#X obj 1267 112 loadbang;
#X text 958 259 delay time in 16th;
#X msg 1224 145 0;
#X obj 1273 213 cnv 15 70 80 empty empty Feedback 2 12 1 14 #006464
#000000 0;
#X obj 1290 237 vsl 15 50 0 0.9 0 0 empty empty empty 0 -9 0 10 #0400fc
#fc8000 #000000 0 1;
#X floatatom 1308 271 4 0 0 1 - - -, f 4;
#X obj 92 110 *~;
#X text 126 112 feedback amount;
#X obj 41 49 inlet~;
#X msg 207 53 \$1 20;
#X obj 207 77 line~;
#X obj 1194 331 s feedback_ch5_amp;
#X obj 53 136 delwrite~ main_line_ch5 12000;
#X obj 207 30 r feedback_ch5_amp;
#X obj 93 46 r~ feedback_ch5;
#X obj 128 444 delread~ main_line_ch5;
#X obj 119 683 *~;
#X obj 199 659 line~;
#X msg 199 630 \$1 50;
#X obj 269 599 expr 1 - $i1;
#X obj 920 232 tgl 20 0 empty empty empty 17 7 0 10 #fcfcfc #000000
#000000 0 1;
#X obj 134 709 s~ feedback_ch5;
#X obj 141 734 s~ delayed_ch5;
#X msg 191 508 \$1 50;
#X connect 6 0 7 0;
#X connect 6 1 7 0;
#X connect 6 1 9 1;
#X connect 7 0 9 0;
#X connect 9 0 8 0;
#X connect 9 0 51 0;
#X connect 10 0 6 0;
#X connect 11 0 7 0;
#X connect 11 1 7 1;
#X connect 12 0 13 0;
#X connect 13 0 14 0;
#X connect 13 0 11 0;
#X connect 15 0 16 0;
#X connect 16 0 52 0;
#X connect 17 0 15 0;
#X connect 18 0 52 0;
#X connect 19 0 59 0;
#X connect 20 0 23 0;
#X connect 21 0 15 1;
#X connect 22 0 16 1;
#X connect 23 0 22 0;
#X connect 24 0 25 0;
#X connect 24 0 26 0;
#X connect 24 1 27 0;
#X connect 24 1 28 0;
#X connect 25 0 18 1;
#X connect 26 0 17 1;
#X connect 27 0 18 1;
#X connect 28 0 17 1;
#X connect 32 0 24 0;
#X connect 35 0 20 0;
#X connect 36 0 35 0;
#X connect 36 0 38 0;
#X connect 38 0 19 0;
#X connect 38 0 32 0;
#X connect 38 0 12 0;
#X connect 40 0 41 0;
#X connect 40 0 47 0;
#X connect 42 0 48 0;
#X connect 44 0 48 0;
#X connect 45 0 46 0;
#X connect 46 0 42 1;
#X connect 49 0 45 0;
#X connect 50 0 42 0;
#X connect 51 0 18 0;
#X connect 51 0 17 0;
#X connect 52 0 57 0;
#X connect 52 0 58 0;
#X connect 53 0 52 1;
#X connect 54 0 53 0;
#X connect 55 0 54 0;
#X connect 56 0 55 0;
#X connect 59 0 21 0;
#X coords 0 -1 1 1 451 101 1 900 200;
#X restore 1307 797 pd channel5;
#N canvas 0 0 1366 695 channel6 0;
#X obj 900 201 cnv 15 450 100 empty empty Channel_6 20 12 1 14 #284868
#fc8000 0;
#X obj 784 523 cnv 15 100 60 empty empty empty 20 12 0 14 #0400fc #404040
0;
#X obj 1102 213 cnv 15 165 80 empty empty Filter 20 12 1 14 #006464
#000000 0;
#X obj 977 594 cnv 15 100 60 empty empty empty 20 12 0 14 #243c58 #404040
0;
#X obj 1097 594 cnv 15 100 60 empty empty empty 20 12 0 14 #243c58
#404040 0;
#X obj 1107 513 cnv 15 100 60 empty empty empty 20 12 0 14 #243c58
#404040 0;
#X obj 21 245 t b f;
#X obj 53 296 expr (((((60/($f1*1000))*1000)/60)*1000)*0.25)*$f2;
#X floatatom 53 354 10 0 0 0 - - -, f 10;
#X obj 53 327 expr ($f1*$f2)*$f2;
#X obj 21 196 r general_time_window;
#X obj 374 258 t b f;
#X obj 921 280 hradio 11 1 0 16 empty empty empty 0 -8 0 10 #0400fc
#fc8000 #000000 0;
#X obj 402 220 + 1;
#X floatatom 922 259 5 0 0 0 - - -, f 5;
#X obj 157 555 hip~;
#X obj 158 588 lop~;
#X obj 157 522 *~;
#X obj 119 522 *~;
#X floatatom 1152 249 5 0 10000 1 Hz - -, f 5;
#X floatatom 1208 249 5 10001 24000 1 Hz - -, f 5;
#X obj 191 531 line;
#X obj 205 581 line;
#X msg 205 558 \$1 50;
#X obj 470 341 route 0;
#X msg 456 377 0;
#X msg 453 405 1;
#X msg 496 377 1;
#X msg 493 405 0;
#X text 128 356 ms;
#X text 1206 266 HC;
#X text 1149 266 LC;
#X obj 1128 241 vradio 18 1 0 2 empty empty empty 0 -8 0 10 #0400fc
#fc8000 #000000 0;
#X text 1108 240 on;
#X text 1101 256 off;
#X msg 1267 140 24000;
#X obj 1267 112 loadbang;
#X text 959 259 delay time in 16th;
#X msg 1224 145 0;
#X obj 1273 213 cnv 15 70 80 empty empty Feedback 2 12 1 14 #006464
#000000 0;
#X obj 1290 237 vsl 15 50 0 0.9 0 0 empty empty empty 0 -9 0 10 #0400fc
#fc8000 #000000 0 1;
#X floatatom 1308 271 4 0 0 1 - - -, f 4;
#X obj 92 110 *~;
#X text 126 112 feedback amount;
#X obj 41 49 inlet~;
#X msg 207 53 \$1 20;
#X obj 207 77 line~;
#X obj 1194 331 s feedback_ch6_amp;
#X obj 207 30 r feedback_ch6_amp;
#X obj 93 46 r~ feedback_ch6;
#X obj 53 136 delwrite~ main_line_ch6 12000;
#X obj 128 444 delread~ main_line_ch6;
#X obj 118 670 *~;
#X obj 198 646 line~;
#X msg 198 617 \$1 50;
#X obj 268 586 expr 1 - $i1;
#X obj 922 228 tgl 20 0 empty empty empty 17 7 0 10 #fcfcfc #000000
#000000 0 1;
#X obj 133 697 s~ feedback_ch6;
#X obj 140 722 s~ delayed_ch6;
#X msg 191 508 \$1 50;
#X connect 6 0 7 0;
#X connect 6 1 7 0;
#X connect 6 1 9 1;
#X connect 7 0 9 0;
#X connect 9 0 8 0;
#X connect 9 0 51 0;
#X connect 10 0 6 0;
#X connect 11 0 7 0;
#X connect 11 1 7 1;
#X connect 12 0 13 0;
#X connect 13 0 14 0;
#X connect 13 0 11 0;
#X connect 15 0 16 0;
#X connect 16 0 52 0;
#X connect 17 0 15 0;
#X connect 18 0 52 0;
#X connect 19 0 59 0;
#X connect 20 0 23 0;
#X connect 21 0 15 1;
#X connect 22 0 16 1;
#X connect 23 0 22 0;
#X connect 24 0 25 0;
#X connect 24 0 26 0;
#X connect 24 1 27 0;
#X connect 24 1 28 0;
#X connect 25 0 18 1;
#X connect 26 0 17 1;
#X connect 27 0 18 1;
#X connect 28 0 17 1;
#X connect 32 0 24 0;
#X connect 35 0 20 0;
#X connect 36 0 35 0;
#X connect 36 0 38 0;
#X connect 38 0 19 0;
#X connect 38 0 32 0;
#X connect 38 0 12 0;
#X connect 40 0 41 0;
#X connect 40 0 47 0;
#X connect 42 0 50 0;
#X connect 44 0 50 0;
#X connect 45 0 46 0;
#X connect 46 0 42 1;
#X connect 48 0 45 0;
#X connect 49 0 42 0;
#X connect 51 0 18 0;
#X connect 51 0 17 0;
#X connect 52 0 57 0;
#X connect 52 0 58 0;
#X connect 53 0 52 1;
#X connect 54 0 53 0;
#X connect 55 0 54 0;
#X connect 56 0 55 0;
#X connect 59 0 21 0;
#X coords 0 -1 1 1 451 101 1 900 200;
#X restore 1307 907 pd channel6;
#N canvas 0 0 1366 695 channel7 0;
#X obj 900 201 cnv 15 450 100 empty empty Channel_7 20 12 1 14 #284868
#fc8000 0;
#X obj 784 523 cnv 15 100 60 empty empty empty 20 12 0 14 #0400fc #404040
0;
#X obj 1102 213 cnv 15 165 80 empty empty Filter 20 12 1 14 #006464
#000000 0;
#X obj 977 594 cnv 15 100 60 empty empty empty 20 12 0 14 #243c58 #404040
0;
#X obj 1097 594 cnv 15 100 60 empty empty empty 20 12 0 14 #243c58
#404040 0;
#X obj 1107 513 cnv 15 100 60 empty empty empty 20 12 0 14 #243c58
#404040 0;
#X obj 21 245 t b f;
#X obj 53 296 expr (((((60/($f1*1000))*1000)/60)*1000)*0.25)*$f2;
#X floatatom 53 354 10 0 0 0 - - -, f 10;
#X obj 53 327 expr ($f1*$f2)*$f2;
#X obj 21 196 r general_time_window;
#X obj 374 258 t b f;
#X obj 921 280 hradio 11 1 0 16 empty empty empty 0 -8 0 10 #0400fc
#fc8000 #000000 0;
#X obj 402 220 + 1;
#X floatatom 921 260 5 0 0 0 - - -, f 5;
#X obj 157 555 hip~;
#X obj 158 588 lop~;
#X obj 157 522 *~;
#X obj 119 522 *~;
#X floatatom 1152 249 5 0 10000 1 Hz - -, f 5;
#X floatatom 1208 249 5 10001 24000 1 Hz - -, f 5;
#X obj 191 531 line;
#X obj 205 581 line;
#X msg 205 558 \$1 50;
#X obj 470 341 route 0;
#X msg 456 377 0;
#X msg 453 405 1;
#X msg 496 377 1;
#X msg 493 405 0;
#X text 128 356 ms;
#X text 1206 266 HC;
#X text 1149 266 LC;
#X obj 1128 241 vradio 18 1 0 2 empty empty empty 0 -8 0 10 #0400fc
#fc8000 #000000 0;
#X text 1108 240 on;
#X text 1101 256 off;
#X msg 1267 140 24000;
#X obj 1267 112 loadbang;
#X text 958 260 delay time in 16th;
#X msg 1224 145 0;
#X obj 1273 213 cnv 15 70 80 empty empty Feedback 2 12 1 14 #006464
#000000 0;
#X obj 1290 237 vsl 15 50 0 0.9 0 0 empty empty empty 0 -9 0 10 #0400fc
#fc8000 #000000 0 1;
#X floatatom 1308 271 4 0 0 1 - - -, f 4;
#X obj 92 110 *~;
#X text 126 112 feedback amount;
#X obj 41 49 inlet~;
#X msg 207 53 \$1 20;
#X obj 207 77 line~;
#X obj 128 444 delread~ main_line_ch7;
#X obj 53 136 delwrite~ main_line_ch7 12000;
#X obj 93 46 r~ feedback_ch7;
#X obj 207 30 r feedback_ch7_amp;
#X obj 1194 331 s feedback_ch7_amp;
#X obj 119 672 *~;
#X obj 199 648 line~;
#X msg 199 619 \$1 50;
#X obj 269 588 expr 1 - $i1;
#X obj 920 227 tgl 20 0 empty empty empty 17 7 0 10 #fcfcfc #000000
#000000 0 1;
#X obj 139 700 s~ feedback_ch7;
#X obj 146 725 s~ delayed_ch7;
#X msg 191 508 \$1 50;
#X connect 6 0 7 0;
#X connect 6 1 7 0;
#X connect 6 1 9 1;
#X connect 7 0 9 0;
#X connect 9 0 8 0;
#X connect 9 0 47 0;
#X connect 10 0 6 0;
#X connect 11 0 7 0;
#X connect 11 1 7 1;
#X connect 12 0 13 0;
#X connect 13 0 14 0;
#X connect 13 0 11 0;
#X connect 15 0 16 0;
#X connect 16 0 52 0;
#X connect 17 0 15 0;
#X connect 18 0 52 0;
#X connect 19 0 59 0;
#X connect 20 0 23 0;
#X connect 21 0 15 1;
#X connect 22 0 16 1;
#X connect 23 0 22 0;
#X connect 24 0 25 0;
#X connect 24 0 26 0;
#X connect 24 1 27 0;
#X connect 24 1 28 0;
#X connect 25 0 18 1;
#X connect 26 0 17 1;
#X connect 27 0 18 1;
#X connect 28 0 17 1;
#X connect 32 0 24 0;
#X connect 35 0 20 0;
#X connect 36 0 35 0;
#X connect 36 0 38 0;
#X connect 38 0 19 0;
#X connect 38 0 32 0;
#X connect 38 0 12 0;
#X connect 40 0 41 0;
#X connect 40 0 51 0;
#X connect 42 0 48 0;
#X connect 44 0 48 0;
#X connect 45 0 46 0;
#X connect 46 0 42 1;
#X connect 47 0 18 0;
#X connect 47 0 17 0;
#X connect 49 0 42 0;
#X connect 50 0 45 0;
#X connect 52 0 57 0;
#X connect 52 0 58 0;
#X connect 53 0 52 1;
#X connect 54 0 53 0;
#X connect 55 0 54 0;
#X connect 56 0 55 0;
#X connect 59 0 21 0;
#X coords 0 -1 1 1 451 101 1 900 200;
#X restore 1308 1017 pd channel7;
#N canvas 0 0 1366 695 channel8 0;
#X obj 900 201 cnv 15 450 100 empty empty Channel_8 20 12 1 14 #284868
#fc8000 0;
#X obj 784 523 cnv 15 100 60 empty empty empty 20 12 0 14 #0400fc #404040
0;
#X obj 1102 213 cnv 15 165 80 empty empty Filter 20 12 1 14 #006464
#000000 0;
#X obj 977 594 cnv 15 100 60 empty empty empty 20 12 0 14 #243c58 #404040
0;
#X obj 1097 594 cnv 15 100 60 empty empty empty 20 12 0 14 #243c58
#404040 0;
#X obj 1107 513 cnv 15 100 60 empty empty empty 20 12 0 14 #243c58
#404040 0;
#X obj 21 245 t b f;
#X obj 53 296 expr (((((60/($f1*1000))*1000)/60)*1000)*0.25)*$f2;
#X floatatom 53 354 10 0 0 0 - - -, f 10;
#X obj 53 327 expr ($f1*$f2)*$f2;
#X obj 21 196 r general_time_window;
#X obj 374 258 t b f;
#X obj 921 280 hradio 11 1 0 16 empty empty empty 0 -8 0 10 #0400fc
#fc8000 #000000 0;
#X obj 402 220 + 1;
#X floatatom 921 260 5 0 0 0 - - -, f 5;
#X obj 157 555 hip~;
#X obj 158 588 lop~;
#X obj 157 522 *~;
#X obj 119 522 *~;
#X floatatom 1152 249 5 0 10000 1 Hz - -, f 5;
#X floatatom 1208 249 5 10001 24000 1 Hz - -, f 5;
#X obj 191 531 line;
#X obj 205 581 line;
#X msg 205 558 \$1 50;
#X obj 470 341 route 0;
#X msg 456 377 0;
#X msg 453 405 1;
#X msg 496 377 1;
#X msg 493 405 0;
#X text 128 356 ms;
#X text 1206 266 HC;
#X text 1149 266 LC;
#X obj 1128 241 vradio 18 1 0 2 empty empty empty 0 -8 0 10 #0400fc
#fc8000 #000000 0;
#X text 1108 240 on;
#X text 1101 256 off;
#X msg 1267 140 24000;
#X obj 1267 112 loadbang;
#X text 958 260 delay time in 16th;
#X msg 1224 145 0;
#X obj 1273 213 cnv 15 70 80 empty empty Feedback 2 12 1 14 #006464
#000000 0;
#X obj 1290 237 vsl 15 50 0 0.9 0 0 empty empty empty 0 -9 0 10 #0400fc
#fc8000 #000000 0 1;
#X floatatom 1308 271 4 0 0 1 - - -, f 4;
#X obj 92 110 *~;
#X text 126 112 feedback amount;
#X obj 41 49 inlet~;
#X msg 207 53 \$1 20;
#X obj 207 77 line~;
#X obj 93 46 r~ feedback_ch8;
#X obj 128 444 delread~ main_line_ch8;
#X obj 207 30 r feedback_ch8_amp;
#X obj 1194 331 s feedback_ch8_amp;
#X obj 53 136 delwrite~ main_line_ch8 12000;
#X obj 120 690 *~;
#X obj 200 666 line~;
#X msg 200 637 \$1 50;
#X obj 270 606 expr 1 - $i1;
#X obj 922 229 tgl 20 0 empty empty empty 17 7 0 10 #fcfcfc #000000
#000000 0 1;
#X obj 125 721 s~ feedback_ch8;
#X obj 132 746 s~ delayed_ch8;
#X msg 191 506 \$1 50;
#X connect 6 0 7 0;
#X connect 6 1 7 0;
#X connect 6 1 9 1;
#X connect 7 0 9 0;
#X connect 9 0 8 0;
#X connect 9 0 48 0;
#X connect 10 0 6 0;
#X connect 11 0 7 0;
#X connect 11 1 7 1;
#X connect 12 0 13 0;
#X connect 13 0 14 0;
#X connect 13 0 11 0;
#X connect 15 0 16 0;
#X connect 16 0 52 0;
#X connect 17 0 15 0;
#X connect 18 0 52 0;
#X connect 19 0 59 0;
#X connect 20 0 23 0;
#X connect 21 0 15 1;
#X connect 22 0 16 1;
#X connect 23 0 22 0;
#X connect 24 0 25 0;
#X connect 24 0 26 0;
#X connect 24 1 27 0;
#X connect 24 1 28 0;
#X connect 25 0 18 1;
#X connect 26 0 17 1;
#X connect 27 0 18 1;
#X connect 28 0 17 1;
#X connect 32 0 24 0;
#X connect 35 0 20 0;
#X connect 36 0 35 0;
#X connect 36 0 38 0;
#X connect 38 0 19 0;
#X connect 38 0 32 0;
#X connect 38 0 12 0;
#X connect 40 0 41 0;
#X connect 40 0 50 0;
#X connect 42 0 51 0;
#X connect 44 0 51 0;
#X connect 45 0 46 0;
#X connect 46 0 42 1;
#X connect 47 0 42 0;
#X connect 48 0 18 0;
#X connect 48 0 17 0;
#X connect 49 0 45 0;
#X connect 52 0 57 0;
#X connect 52 0 58 0;
#X connect 53 0 52 1;
#X connect 54 0 53 0;
#X connect 55 0 54 0;
#X connect 56 0 55 0;
#X connect 59 0 21 0;
#X coords 0 -1 1 1 451 101 1 900 200;
#X restore 1308 1127 pd channel8;
#X connect 1 0 10 0;
#X connect 10 0 14 0;
#X connect 10 0 28 0;
#X connect 13 0 2 0;
#X connect 13 0 3 0;
#X connect 13 0 4 0;
#X connect 13 0 5 0;
#X connect 13 0 6 0;
#X connect 13 0 7 0;
#X connect 13 0 8 0;
#X connect 13 0 9 0;
#X connect 14 0 89 0;
#X connect 14 0 90 0;
#X connect 14 0 91 0;
#X connect 14 0 92 0;
#X connect 14 0 93 0;
#X connect 14 0 87 0;
#X connect 14 0 94 0;
#X connect 14 0 95 0;
#X connect 15 0 14 1;
#X connect 16 0 15 0;
#X connect 17 0 13 1;
#X connect 18 0 17 0;
#X connect 19 0 2 0;
#X connect 20 0 31 0;
#X connect 21 0 20 0;
#X connect 22 0 18 0;
#X connect 25 0 3 0;
#X connect 26 0 30 0;
#X connect 27 0 26 0;
#X connect 29 0 13 0;
#X connect 30 0 25 1;
#X connect 31 0 19 1;
#X connect 32 0 19 0;
#X connect 33 0 25 0;
#X connect 34 0 4 0;
#X connect 35 0 37 0;
#X connect 36 0 35 0;
#X connect 37 0 34 1;
#X connect 38 0 34 0;
#X connect 39 0 5 0;
#X connect 40 0 42 0;
#X connect 41 0 40 0;
#X connect 42 0 39 1;
#X connect 43 0 39 0;
#X connect 44 0 6 0;
#X connect 45 0 47 0;
#X connect 46 0 45 0;
#X connect 47 0 44 1;
#X connect 48 0 44 0;
#X connect 49 0 7 0;
#X connect 50 0 52 0;
#X connect 51 0 50 0;
#X connect 52 0 49 1;
#X connect 53 0 49 0;
#X connect 54 0 8 0;
#X connect 55 0 57 0;
#X connect 56 0 55 0;
#X connect 57 0 54 1;
#X connect 58 0 9 0;
#X connect 59 0 61 0;
#X connect 60 0 59 0;
#X connect 61 0 58 1;
#X connect 62 0 54 0;
#X connect 63 0 58 0;
#X connect 64 0 69 0;
#X connect 64 0 75 0;
#X connect 65 0 66 0;
#X connect 65 0 74 0;
#X connect 66 0 67 0;
#X connect 67 0 84 0;
#X connect 68 0 65 0;
#X connect 68 0 64 0;
#X connect 68 0 72 0;
#X connect 68 0 76 0;
#X connect 69 0 70 0;
#X connect 70 0 83 0;
#X connect 71 0 68 0;
#X connect 71 0 79 0;
#X connect 72 0 73 0;
#X connect 72 0 86 0;
#X connect 76 0 77 0;
#X connect 76 0 16 0;
#X connect 77 0 78 0;
#X connect 78 0 82 0;
#X connect 79 0 64 0;
#X connect 80 0 81 0;
#X connect 80 0 10 1;
#X connect 81 0 85 0;
#X coords 0 -1 1 1 500 1010 1 1294 234;
