#N canvas 733 172 450 300 12;
#X obj 651 895 delay~;
#X obj 768 483 + 273.15;
#X text 838 486 Celsius to Kelvin conversion;
#X obj 432 235 knob 50 -10 40 0 0 empty empty #191919 #696969 #E1E1E1 1 0 0 0 1 270 0 0 0;
#X floatatom 483 263 6 0 0 1 °\ C - - 16;
#X text 429 216 Temperatura;
#X floatatom 805 552 31 0 0 0 - - - 36;
#X text 829 734 calcolo del tempo di ritaro in base alla distanza;
#X obj 692 811 ms2samps;
#X obj 694 855 sig~;
#X floatatom 758 853 53 0 0 0 - - - 36;
#X text 1133 625 calcolo della velocità del suono in base alla temperatura;
#X text 1147 642 https://www.grc.nasa.gov/WWW/BGH/sound.html;
#X obj 786 689 t b f;
#X obj 294 274 knob 92 0 100 0 0 empty empty #191919 #696969 #E1E1E1 1 0 0 0 1 270 0 0 0;
#X floatatom 294 369 13 0 0 0 - - - 16;
#X obj 294 231 nbx 2 42 -1e+37 1e+37 0 0 empty empty m 93 27 0 42 #191919 #e1e1e1 #e1e1e1 0 256;
#X text 294 209 Distanza;
#X obj 694 731 expr ($f1/$f2)*1000;
#X obj 786 656 sqrt;
#X obj 647 1022 outlet~;
#X obj 294 811 inlet~;
#X floatatom 393 349 27 0 0 1 ms - - 36;
#X floatatom 919 679 7 0 0 1 C\ (m/s) - - 36;
#X obj 786 626 expr 287.05*$f1*1.401;
#X text 1147 659 https://www.engineeringtoolbox.com/specific-heat-ratio-d_602.html;
#X text 1147 678 https://www.engineeringtoolbox.com/individual-universal-gas-constant-d_588.html;
#X text 420 328 Delay Time;
#X obj 649 203 vsl 21 205 0 1 0 0 empty empty empty 0 -9 0 10 #191919 #e1e1e1 #e1e1e1 0 1;
#X obj 597 455 rmstodb;
#X obj 597 487 - 100;
#X floatatom 675 390 7 0 0 1 dB - - 12;
#X text 675 368 Attenuation;
#X obj 675 224 nbx 1 42 -1e+37 1e+37 0 0 empty empty dB 77 27 0 42 #191919 #e1e1e1 #e1e1e1 0 256;
#X obj 647 991 *~;
#X obj 705 983 line~;
#X msg 705 956 \$1 50;
#X obj 994 363 dbtorms;
#X obj 955 333 + 100;
#X floatatom 433 285 15 0 0 1 C\ (m/s) - - 16;
#X obj 487 94 inlet;
#X obj 531 94 inlet;
#X obj 575 94 inlet;
#X text 502 67 setting esterno;
#X connect 0 0 34 0;
#X connect 1 0 6 0;
#X connect 1 0 24 0;
#X connect 3 0 4 0;
#X connect 3 0 1 0;
#X connect 8 0 9 0;
#X connect 8 0 10 0;
#X connect 9 0 0 1;
#X connect 13 0 18 0;
#X connect 13 1 18 1;
#X connect 14 0 15 0;
#X connect 14 0 18 0;
#X connect 16 0 14 0;
#X connect 18 0 8 0;
#X connect 18 0 22 0;
#X connect 19 0 13 0;
#X connect 19 0 23 0;
#X connect 19 0 39 0;
#X connect 21 0 0 0;
#X connect 24 0 19 0;
#X connect 28 0 29 0;
#X connect 28 0 36 0;
#X connect 29 0 30 0;
#X connect 30 0 31 0;
#X connect 33 0 38 0;
#X connect 34 0 20 0;
#X connect 35 0 34 1;
#X connect 36 0 35 0;
#X connect 37 0 28 0;
#X connect 38 0 37 0;
#X connect 40 0 16 0;
#X connect 41 0 3 0;
#X connect 42 0 33 0;
#X coords 0 0 1 1 522 227 2 287 195;
