#N canvas 827 239 527 327 12;
#N canvas 733 172 450 300 trasparente 1;
#X obj 15 220 cnv 15 589 52 empty empty Pair4\ (4\ &\ 5) 20 12 0 16 #0613a8 #e4eeee 0;
#X obj 15 164 cnv 15 589 52 empty empty Pair3\ (3\ &\ 6) 20 12 0 16 #0613a8 #e4eeee 0;
#X obj 16 108 cnv 15 589 52 empty empty Pair2\ (2\ &\ 7) 20 12 0 16 #0613a8 #e4eeee 0;
#X obj 17 49 cnv 15 589 52 empty empty Pair1\ (1\ &\ 8) 20 12 0 16 #0613a8 #e4eeee 0;
#X obj 469 12 cnv 15 128 260 empty empty LowPass\ FIlter 20 12 0 14 #a8a8a8 #4d4d4d 0;
#X obj 366 13 cnv 15 97 261 empty empty Attenuation 20 12 0 14 #a8a8a8 #4d4d4d 0;
#X obj 266 14 cnv 15 93 259 empty empty Delay 20 12 0 14 #a8a8a8 #4d4d4d 0;
#X obj 119 14 cnv 15 141 259 empty empty Source\ Distance 20 12 0 14 #a8a8a8 #4d4d4d 0;
#X obj 1216 761 delwrite~ \$0-trasp_delay_input1 500;
#X obj 1216 801 delread~ \$0-trasp_delay_input1;
#X obj 1216 841 delread~ \$0-trasp_delay_input1;
#X obj 1216 881 delread~ \$0-trasp_delay_input1;
#X obj 1216 921 delread~ \$0-trasp_delay_input1;
#X obj 1512 761 delwrite~ \$0-trasp_delay_input2 500;
#X obj 122 106 knob 50 0 70 0 0 empty empty #e4e4e4 #a8a8a8 #4d4d4d 1 0 0 0 1 270 0 0 0;
#X obj 122 162 knob 50 0 70 0 0 empty empty #e4e4e4 #a8a8a8 #4d4d4d 1 0 0 0 1 270 0 0 0;
#X obj 122 218 knob 50 0 70 0 0 empty empty #e4e4e4 #a8a8a8 #4d4d4d 1 0 0 0 1 270 0 0 0;
#X obj 122 48 knob 50 0 70 0 0 empty empty #e4e4e4 #a8a8a8 #4d4d4d 1 0 0 0 1 270 0 0 0;
#X obj 1814 322 loadbang;
#X floatatom 194 48 8 0 0 3 meters - - 16;
#X floatatom 194 106 8 0 0 3 meters - - 16;
#X floatatom 194 162 8 0 0 3 meters - - 16;
#X floatatom 194 218 8 0 0 3 meters - - 16;
#X floatatom 293 49 6 0 0 3 msec - - 16;
#X obj 1756 793 expr ($i1/343.4)*1000;
#X obj 1756 821 expr ($i1/343.4)*1000;
#X obj 1756 848 expr ($i1/343.4)*1000;
#X obj 1757 876 expr ($i1/343.4)*1000;
#X msg 1849 377 10;
#X msg 1849 403 20;
#X msg 1848 428 30;
#X obj 1517 801 delread~ \$0-trasp_delay_input2;
#X obj 1517 841 delread~ \$0-trasp_delay_input2;
#X obj 1517 881 delread~ \$0-trasp_delay_input2;
#X obj 1517 921 delread~ \$0-trasp_delay_input2;
#X floatatom 292 108 6 0 0 3 msec - - 16;
#X floatatom 290 163 6 0 0 3 msec - - 16;
#X floatatom 290 219 6 0 0 3 msec - - 16;
#X msg 1852 350 1;
#X obj 1696 1001 expr 100-(10*log($f1));
#X obj 1696 1031 dbtorms;
#X obj 1407 1162 *~;
#X obj 1430 1127 line~;
#X msg 1430 1099 \$1 20;
#X obj 1749 1162 *~;
#X obj 1772 1127 line~;
#X msg 1772 1099 \$1 20;
#X obj 1331 1262 *~;
#X obj 1354 1227 line~;
#X msg 1354 1199 \$1 20;
#X obj 1673 1262 *~;
#X obj 1696 1227 line~;
#X msg 1696 1199 \$1 20;
#X obj 1595 1362 *~;
#X obj 1618 1327 line~;
#X msg 1618 1299 \$1 20;
#X obj 1237 1362 *~;
#X obj 1260 1327 line~;
#X msg 1260 1299 \$1 20;
#X obj 1517 1462 *~;
#X obj 1540 1427 line~;
#X msg 1540 1399 \$1 20;
#X obj 1159 1462 *~;
#X obj 1182 1427 line~;
#X msg 1182 1399 \$1 20;
#X floatatom 387 48 8 0 0 3 dB - - 16;
#X obj 1956 1041 expr $f1-100;
#X obj 1816 1231 dbtorms;
#X obj 2076 1241 expr $f1-100;
#X obj 1796 1357 dbtorms;
#X obj 2056 1367 expr $f1-100;
#X obj 1776 1471 dbtorms;
#X obj 2036 1481 expr $f1-100;
#X obj 1383 1675 dac~ 1 2 3 4 5 6 7 8;
#X floatatom 387 107 8 0 0 3 dB - - 16;
#X floatatom 387 162 8 0 0 3 dB - - 16;
#X floatatom 387 218 8 0 0 3 dB - - 16;
#X obj 1216 721 adc~ 1 2;
#X obj 1156 1501 lop2~;
#X obj 471 48 knob 50 1000 20000 0 0 empty empty #e4e4e4 #a8a8a8 #4d4d4d 1 0 0 0 1 270 0 0 0;
#X floatatom 525 48 8 0 0 3 Hz - - 16;
#X obj 471 108 knob 50 1000 20000 0 0 empty empty #e4e4e4 #a8a8a8 #4d4d4d 1 0 0 0 1 270 0 0 0;
#X floatatom 525 108 8 0 0 3 Hz - - 16;
#X obj 472 164 knob 50 1000 20000 0 0 empty empty #e4e4e4 #a8a8a8 #4d4d4d 1 0 0 0 1 270 0 0 0;
#X floatatom 526 164 8 0 0 3 Hz - - 16;
#X obj 473 219 knob 50 1000 20000 0 0 empty empty #e4e4e4 #a8a8a8 #4d4d4d 1 0 0 0 1 270 0 0 0;
#X floatatom 527 219 8 0 0 3 Hz - - 16;
#X obj 1237 1401 lop2~;
#X obj 1331 1301 lop2~;
#X obj 1407 1199 lop2~;
#X obj 1516 1501 lop2~;
#X obj 1618 1399 lop2~;
#X obj 1696 1299 lop2~;
#X obj 1749 1199 lop2~;
#X obj 1776 541 loadbang;
#N canvas 0 50 450 250 (subpatch) 0;
#X coords 0 1 100 -1 605 275 1 0 0;
#X restore 9 3 graph;
#X obj 1169 1797 outlet~;
#X obj 1230 1797 outlet~;
#X obj 1291 1797 outlet~;
#X obj 1352 1797 outlet~;
#X obj 1413 1797 outlet~;
#X obj 1474 1797 outlet~;
#X obj 1535 1797 outlet~;
#X obj 1596 1797 outlet~;
#X msg 1814 569 20000;
#X msg 1811 596 12000;
#X msg 1811 622 8000;
#X msg 1810 647 5000;
#X obj 1816 1201 expr 100-(10*log($f1))+6;
#X obj 1796 1327 expr 100-(10*log($f1))+6;
#X obj 1776 1441 expr 100-(10*log($f1))+6;
#X connect 9 0 41 0;
#X connect 10 0 47 0;
#X connect 11 0 56 0;
#X connect 12 0 62 0;
#X connect 14 0 20 0;
#X connect 14 0 25 0;
#X connect 14 0 108 0;
#X connect 15 0 21 0;
#X connect 15 0 26 0;
#X connect 15 0 109 0;
#X connect 16 0 22 0;
#X connect 16 0 27 0;
#X connect 16 0 110 0;
#X connect 17 0 19 0;
#X connect 17 0 24 0;
#X connect 17 0 39 0;
#X connect 18 0 38 0;
#X connect 18 0 28 0;
#X connect 18 0 29 0;
#X connect 18 0 30 0;
#X connect 24 0 23 0;
#X connect 24 0 9 0;
#X connect 24 0 31 0;
#X connect 25 0 10 0;
#X connect 25 0 32 0;
#X connect 25 0 35 0;
#X connect 26 0 11 0;
#X connect 26 0 33 0;
#X connect 26 0 36 0;
#X connect 27 0 12 0;
#X connect 27 0 34 0;
#X connect 27 0 37 0;
#X connect 28 0 14 0;
#X connect 29 0 15 0;
#X connect 30 0 16 0;
#X connect 31 0 44 0;
#X connect 32 0 50 0;
#X connect 33 0 53 0;
#X connect 34 0 59 0;
#X connect 38 0 17 0;
#X connect 39 0 40 0;
#X connect 39 0 66 0;
#X connect 40 0 46 0;
#X connect 40 0 43 0;
#X connect 41 0 89 0;
#X connect 42 0 41 1;
#X connect 43 0 42 0;
#X connect 44 0 93 0;
#X connect 45 0 44 1;
#X connect 46 0 45 0;
#X connect 47 0 88 0;
#X connect 48 0 47 1;
#X connect 49 0 48 0;
#X connect 50 0 92 0;
#X connect 51 0 50 1;
#X connect 52 0 51 0;
#X connect 53 0 91 0;
#X connect 54 0 53 1;
#X connect 55 0 54 0;
#X connect 56 0 87 0;
#X connect 57 0 56 1;
#X connect 58 0 57 0;
#X connect 59 0 90 0;
#X connect 60 0 59 1;
#X connect 61 0 60 0;
#X connect 62 0 78 0;
#X connect 63 0 62 1;
#X connect 64 0 63 0;
#X connect 66 0 65 0;
#X connect 67 0 49 0;
#X connect 67 0 52 0;
#X connect 68 0 74 0;
#X connect 69 0 55 0;
#X connect 69 0 58 0;
#X connect 70 0 75 0;
#X connect 71 0 61 0;
#X connect 71 0 64 0;
#X connect 72 0 76 0;
#X connect 77 0 8 0;
#X connect 77 1 13 0;
#X connect 78 0 73 3;
#X connect 79 0 80 0;
#X connect 79 0 89 1;
#X connect 79 0 93 1;
#X connect 81 0 82 0;
#X connect 81 0 88 1;
#X connect 81 0 92 1;
#X connect 83 0 84 0;
#X connect 83 0 87 1;
#X connect 83 0 91 1;
#X connect 85 0 86 0;
#X connect 85 0 78 1;
#X connect 85 0 90 1;
#X connect 87 0 73 2;
#X connect 88 0 73 1;
#X connect 89 0 73 0;
#X connect 90 0 73 4;
#X connect 91 0 73 5;
#X connect 92 0 73 6;
#X connect 93 0 73 7;
#X connect 94 0 104 0;
#X connect 94 0 105 0;
#X connect 94 0 106 0;
#X connect 94 0 107 0;
#X connect 104 0 79 0;
#X connect 105 0 81 0;
#X connect 106 0 83 0;
#X connect 107 0 85 0;
#X connect 108 0 67 0;
#X connect 108 0 68 0;
#X connect 109 0 69 0;
#X connect 109 0 70 0;
#X connect 110 0 71 0;
#X connect 110 0 72 0;
#X coords 0 0 1 1 605 282 1 0 0;
#X restore 1 2 pd trasparente;
#X obj 1 372 outlet~;
#X obj 62 372 outlet~;
#X obj 123 372 outlet~;
#X obj 184 372 outlet~;
#X obj 245 372 outlet~;
#X obj 306 372 outlet~;
#X obj 367 372 outlet~;
#X obj 428 372 outlet~;
#X connect 0 0 1 0;
#X connect 0 1 2 0;
#X connect 0 2 3 0;
#X connect 0 3 4 0;
#X connect 0 4 5 0;
#X connect 0 5 6 0;
#X connect 0 6 7 0;
#X connect 0 7 8 0;
#X coords 0 0 1 1 612 289 1 0 0;
